ISO-10303-21;
HEADER;
FILE_DESCRIPTION (( 'STEP AP214' ),
    '1' );
FILE_NAME ('mocap_angle_fix_3.STEP',
    '2026-09-14T21:20:01',
    ( '' ),
    ( '' ),
    'SwSTEP 2.0',
    'SolidWorks 2024',
    '' );
FILE_SCHEMA (( 'AUTOMOTIVE_DESIGN' ));
ENDSEC;

DATA;
#1 = ORIENTED_EDGE ( 'NONE', *, *, #263, .F. ) ;
#2 = VECTOR ( 'NONE', #43, 1000.000000000000000 ) ;
#3 = DIRECTION ( 'NONE',  ( -1.224646799147353454E-16, 1.000000000000000000, 0.000000000000000000 ) ) ;
#4 = AXIS2_PLACEMENT_3D ( 'NONE', #163, #168, #22 ) ;
#5 = ORIENTED_EDGE ( 'NONE', *, *, #11, .F. ) ;
#6 = EDGE_CURVE ( 'NONE', #218, #403, #84, .T. ) ;
#7 = ORIENTED_EDGE ( 'NONE', *, *, #263, .T. ) ;
#8 = EDGE_LOOP ( 'NONE', ( #74, #321 ) ) ;
#9 = VECTOR ( 'NONE', #229, 1000.000000000000000 ) ;
#10 = ORIENTED_EDGE ( 'NONE', *, *, #399, .F. ) ;
#11 = EDGE_CURVE ( 'NONE', #429, #252, #369, .T. ) ;
#12 = CARTESIAN_POINT ( 'NONE',  ( 0.000000000000000000, 0.000000000000000000, 0.000000000000000000 ) ) ;
#13 = ORIENTED_EDGE ( 'NONE', *, *, #332, .F. ) ;
#14 =( LENGTH_UNIT ( ) NAMED_UNIT ( * ) SI_UNIT ( .MILLI., .METRE. ) );
#15 = CARTESIAN_POINT ( 'NONE',  ( 5.000000000000000888, -56.99999999999999289, 10.00000000000000000 ) ) ;
#16 = ADVANCED_FACE ( 'NONE', ( #333, #438 ), #260, .F. ) ;
#17 = CARTESIAN_POINT ( 'NONE',  ( 5.000000000000000888, -56.99999999999999289, 10.00000000000000000 ) ) ;
#18 = DIRECTION ( 'NONE',  ( -1.000000000000000000, 0.000000000000000000, 0.000000000000000000 ) ) ;
#19 = AXIS2_PLACEMENT_3D ( 'NONE', #25, #170, #126 ) ;
#20 = DIRECTION ( 'NONE',  ( -5.782411586589359857E-17, 1.000000000000000000, 0.000000000000000000 ) ) ;
#21 = DIRECTION ( 'NONE',  ( -1.000000000000000000, -1.301042606982605321E-16, 0.000000000000000000 ) ) ;
#22 = DIRECTION ( 'NONE',  ( -1.000000000000000000, 0.000000000000000000, 0.000000000000000000 ) ) ;
#23 = CARTESIAN_POINT ( 'NONE',  ( 4.999999999999992895, 2.999999999999999556, 10.00000000000000000 ) ) ;
#24 = CARTESIAN_POINT ( 'NONE',  ( 1.040834085586084257E-14, -60.00000000000000000, 10.00000000000000000 ) ) ;
#25 = CARTESIAN_POINT ( 'NONE',  ( -5.000000000000000000, -7.000000000000000888, 5.000000000000000888 ) ) ;
#26 = DIRECTION ( 'NONE',  ( -1.000000000000000000, -5.782411586589359857E-17, -0.000000000000000000 ) ) ;
#27 = ORIENTED_EDGE ( 'NONE', *, *, #436, .T. ) ;
#28 = SHAPE_DEFINITION_REPRESENTATION ( #29, #62 ) ;
#29 = PRODUCT_DEFINITION_SHAPE ( 'NONE', 'NONE',  #365 ) ;
#30 = EDGE_CURVE ( 'NONE', #397, #389, #124, .T. ) ;
#31 = EDGE_LOOP ( 'NONE', ( #246, #140, #258, #292 ) ) ;
#32 = ORIENTED_EDGE ( 'NONE', *, *, #363, .T. ) ;
#33 = AXIS2_PLACEMENT_3D ( 'NONE', #53, #275, #235 ) ;
#34 = CIRCLE ( 'NONE', #414, 1.650000000000000355 ) ;
#35 = LINE ( 'NONE', #291, #195 ) ;
#36 = ORIENTED_EDGE ( 'NONE', *, *, #117, .F. ) ;
#37 = CARTESIAN_POINT ( 'NONE',  ( 5.000000000000000888, -56.99999999999999289, 10.00000000000000000 ) ) ;
#38 = VERTEX_POINT ( 'NONE', #193 ) ;
#39 = DIRECTION ( 'NONE',  ( -0.000000000000000000, -0.000000000000000000, -1.000000000000000000 ) ) ;
#40 = ORIENTED_EDGE ( 'NONE', *, *, #236, .F. ) ;
#41 = VECTOR ( 'NONE', #203, 1000.000000000000000 ) ;
#42 = ORIENTED_EDGE ( 'NONE', *, *, #199, .T. ) ;
#43 = DIRECTION ( 'NONE',  ( -5.782411586589359857E-17, 1.000000000000000000, -0.000000000000000000 ) ) ;
#44 = DIRECTION ( 'NONE',  ( -1.000000000000000000, -5.782411586589359857E-17, -0.000000000000000000 ) ) ;
#45 = AXIS2_PLACEMENT_3D ( 'NONE', #23, #21, #161 ) ;
#46 = ORIENTED_EDGE ( 'NONE', *, *, #199, .F. ) ;
#47 = AXIS2_PLACEMENT_3D ( 'NONE', #65, #242, #313 ) ;
#48 = SURFACE_STYLE_FILL_AREA ( #444 ) ;
#49 = PRODUCT_RELATED_PRODUCT_CATEGORY ( 'part', '', ( #290 ) ) ;
#50 = CARTESIAN_POINT ( 'NONE',  ( 5.000000000000000888, -56.99999999999999289, 10.00000000000000000 ) ) ;
#51 = CARTESIAN_POINT ( 'NONE',  ( 9.999999999999989342, -60.00000000000000000, 5.000000000000000888 ) ) ;
#52 = DIRECTION ( 'NONE',  ( -1.000000000000000000, 0.000000000000000000, 0.000000000000000000 ) ) ;
#53 = CARTESIAN_POINT ( 'NONE',  ( 9.999999999999989342, -56.99999999999999289, 5.000000000000000888 ) ) ;
#54 = AXIS2_PLACEMENT_3D ( 'NONE', #15, #132, #100 ) ;
#55 = CARTESIAN_POINT ( 'NONE',  ( 14.99999999999999289, -56.99999999999999289, 0.000000000000000000 ) ) ;
#56 = CARTESIAN_POINT ( 'NONE',  ( 9.999999999999989342, -66.99999999999998579, 5.000000000000000888 ) ) ;
#57 = DIRECTION ( 'NONE',  ( 1.000000000000000000, 5.782411586589359857E-17, 0.000000000000000000 ) ) ;
#58 = CARTESIAN_POINT ( 'NONE',  ( 4.999999999999992895, 2.999999999999999556, 0.000000000000000000 ) ) ;
#59 = ORIENTED_EDGE ( 'NONE', *, *, #6, .T. ) ;
#60 =( NAMED_UNIT ( * ) SI_UNIT ( $, .STERADIAN. ) SOLID_ANGLE_UNIT ( ) );
#61 = LINE ( 'NONE', #460, #239 ) ;
#62 = ADVANCED_BREP_SHAPE_REPRESENTATION ( 'mocap_angle_fix_3', ( #185, #339 ), #325 ) ;
#63 = ORIENTED_EDGE ( 'NONE', *, *, #269, .F. ) ;
#64 = VECTOR ( 'NONE', #67, 1000.000000000000000 ) ;
#65 = CARTESIAN_POINT ( 'NONE',  ( 9.999999999999989342, -60.00000000000000000, 5.000000000000000888 ) ) ;
#66 = ORIENTED_EDGE ( 'NONE', *, *, #157, .T. ) ;
#67 = DIRECTION ( 'NONE',  ( -0.000000000000000000, -0.000000000000000000, -1.000000000000000000 ) ) ;
#68 = ORIENTED_EDGE ( 'NONE', *, *, #354, .T. ) ;
#69 = CARTESIAN_POINT ( 'NONE',  ( -3.349999999999999645, -6.652950161290900992E-16, 5.000000000000000888 ) ) ;
#70 = VERTEX_POINT ( 'NONE', #337 ) ;
#71 = CIRCLE ( 'NONE', #338, 1.650000000000000355 ) ;
#72 = UNCERTAINTY_MEASURE_WITH_UNIT (LENGTH_MEASURE( 1.000000000000000082E-05 ), #327, 'distance_accuracy_value', 'NONE');
#73 = CARTESIAN_POINT ( 'NONE',  ( 1.040834085586084257E-14, -60.00000000000000000, 0.000000000000000000 ) ) ;
#74 = ORIENTED_EDGE ( 'NONE', *, *, #439, .T. ) ;
#75 = ADVANCED_FACE ( 'NONE', ( #129 ), #447, .F. ) ;
#76 = APPLICATION_PROTOCOL_DEFINITION ( 'draft international standard', 'automotive_design', 1998, #299 ) ;
#77 = VERTEX_POINT ( 'NONE', #312 ) ;
#78 = LINE ( 'NONE', #324, #231 ) ;
#79 = EDGE_CURVE ( 'NONE', #362, #187, #201, .T. ) ;
#80 = VERTEX_POINT ( 'NONE', #243 ) ;
#81 = VECTOR ( 'NONE', #407, 1000.000000000000000 ) ;
#82 = AXIS2_PLACEMENT_3D ( 'NONE', #454, #279, #277 ) ;
#83 = EDGE_CURVE ( 'NONE', #80, #187, #164, .T. ) ;
#84 = LINE ( 'NONE', #367, #2 ) ;
#85 = EDGE_LOOP ( 'NONE', ( #27, #208, #282, #318 ) ) ;
#86 = ORIENTED_EDGE ( 'NONE', *, *, #188, .T. ) ;
#87 = DIRECTION ( 'NONE',  ( 0.000000000000000000, 0.000000000000000000, 1.000000000000000000 ) ) ;
#88 = UNCERTAINTY_MEASURE_WITH_UNIT (LENGTH_MEASURE( 1.000000000000000082E-05 ), #14, 'distance_accuracy_value', 'NONE');
#89 = CYLINDRICAL_SURFACE ( 'NONE', #219, 1.650000000000000355 ) ;
#90 = LINE ( 'NONE', #12, #402 ) ;
#91 = DIRECTION ( 'NONE',  ( 1.000000000000000000, -0.000000000000000000, -0.000000000000000000 ) ) ;
#92 = EDGE_CURVE ( 'NONE', #119, #230, #412, .T. ) ;
#93 = CARTESIAN_POINT ( 'NONE',  ( 0.000000000000000000, 0.000000000000000000, 0.000000000000000000 ) ) ;
#94 = LINE ( 'NONE', #58, #457 ) ;
#95 = CARTESIAN_POINT ( 'NONE',  ( -10.00000000000000000, 2.999999999999998668, 0.000000000000000000 ) ) ;
#96 = PLANE ( 'NONE',  #54 ) ;
#97 = ADVANCED_FACE ( 'NONE', ( #233, #406 ), #96, .F. ) ;
#98 = VECTOR ( 'NONE', #307, 1000.000000000000000 ) ;
#99 = DIRECTION ( 'NONE',  ( 5.782411586589359857E-17, -1.000000000000000000, 0.000000000000000000 ) ) ;
#100 = DIRECTION ( 'NONE',  ( 0.000000000000000000, -0.000000000000000000, -1.000000000000000000 ) ) ;
#101 = ADVANCED_FACE ( 'NONE', ( #381 ), #455, .F. ) ;
#102 = DIRECTION ( 'NONE',  ( 0.000000000000000000, 1.000000000000000000, -0.000000000000000000 ) ) ;
#103 = FILL_AREA_STYLE_COLOUR ( '', #295 ) ;
#104 = ADVANCED_FACE ( 'NONE', ( #278 ), #347, .F. ) ;
#105 = DIRECTION ( 'NONE',  ( 0.000000000000000000, 0.000000000000000000, 1.000000000000000000 ) ) ;
#106 = EDGE_LOOP ( 'NONE', ( #341, #428, #398, #461 ) ) ;
#107 = LINE ( 'NONE', #427, #123 ) ;
#108 = CLOSED_SHELL ( 'NONE', ( #122, #159, #215, #301, #221, #97, #104, #310, #75, #16, #162, #320, #145, #101 ) ) ;
#109 = ORIENTED_EDGE ( 'NONE', *, *, #120, .F. ) ;
#110 = DIRECTION ( 'NONE',  ( -0.000000000000000000, -0.000000000000000000, -1.000000000000000000 ) ) ;
#111 = ORIENTED_EDGE ( 'NONE', *, *, #172, .T. ) ;
#112 = ORIENTED_EDGE ( 'NONE', *, *, #330, .T. ) ;
#113 = DIRECTION ( 'NONE',  ( 5.782411586589351722E-16, -1.000000000000000000, 0.000000000000000000 ) ) ;
#114 = VECTOR ( 'NONE', #416, 1000.000000000000000 ) ;
#115 = CARTESIAN_POINT ( 'NONE',  ( -5.000000000000000000, -8.673617379884035472E-16, 5.000000000000000888 ) ) ;
#116 = ORIENTED_EDGE ( 'NONE', *, *, #377, .F. ) ;
#117 = EDGE_CURVE ( 'NONE', #230, #335, #423, .T. ) ;
#118 = LINE ( 'NONE', #143, #458 ) ;
#119 = VERTEX_POINT ( 'NONE', #350 ) ;
#120 = EDGE_CURVE ( 'NONE', #139, #306, #94, .T. ) ;
#121 = ORIENTED_EDGE ( 'NONE', *, *, #224, .F. ) ;
#122 = ADVANCED_FACE ( 'NONE', ( #409 ), #167, .F. ) ;
#123 = VECTOR ( 'NONE', #255, 1000.000000000000000 ) ;
#124 = LINE ( 'NONE', #368, #262 ) ;
#125 = EDGE_LOOP ( 'NONE', ( #112, #191, #296, #189, #7, #249, #111, #266 ) ) ;
#126 = DIRECTION ( 'NONE',  ( -1.000000000000000000, 0.000000000000000000, 0.000000000000000000 ) ) ;
#127 = LINE ( 'NONE', #160, #114 ) ;
#128 = CARTESIAN_POINT ( 'NONE',  ( 9.999999999999989342, -66.99999999999998579, 3.350000000000000533 ) ) ;
#129 = FACE_OUTER_BOUND ( 'NONE', #85, .T. ) ;
#130 = EDGE_CURVE ( 'NONE', #397, #306, #127, .T. ) ;
#131 = CARTESIAN_POINT ( 'NONE',  ( 0.000000000000000000, 0.000000000000000000, 10.00000000000000000 ) ) ;
#132 = DIRECTION ( 'NONE',  ( 0.000000000000000000, -1.000000000000000000, 0.000000000000000000 ) ) ;
#133 = PLANE ( 'NONE',  #135 ) ;
#134 = CARTESIAN_POINT ( 'NONE',  ( -10.00000000000000000, -1.224646799147353454E-15, 10.00000000000000000 ) ) ;
#135 = AXIS2_PLACEMENT_3D ( 'NONE', #93, #136, #237 ) ;
#136 = DIRECTION ( 'NONE',  ( 0.000000000000000000, 0.000000000000000000, 1.000000000000000000 ) ) ;
#137 = EDGE_CURVE ( 'NONE', #70, #394, #383, .T. ) ;
#138 = LINE ( 'NONE', #128, #181 ) ;
#139 = VERTEX_POINT ( 'NONE', #205 ) ;
#140 = ORIENTED_EDGE ( 'NONE', *, *, #188, .F. ) ;
#141 = LINE ( 'NONE', #430, #448 ) ;
#142 = AXIS2_PLACEMENT_3D ( 'NONE', #265, #87, #384 ) ;
#143 = CARTESIAN_POINT ( 'NONE',  ( -10.00000000000000000, -1.224646799147353454E-15, 0.000000000000000000 ) ) ;
#144 = ORIENTED_EDGE ( 'NONE', *, *, #396, .F. ) ;
#145 = ADVANCED_FACE ( 'NONE', ( #374 ), #271, .F. ) ;
#146 = DIRECTION ( 'NONE',  ( 1.734723475976807094E-16, -1.000000000000000000, -0.000000000000000000 ) ) ;
#147 = EDGE_LOOP ( 'NONE', ( #264, #300, #63, #328 ) ) ;
#148 = CARTESIAN_POINT ( 'NONE',  ( -6.650000000000000355, -1.069428459847717094E-15, 5.000000000000000888 ) ) ;
#149 = EDGE_LOOP ( 'NONE', ( #174, #223 ) ) ;
#150 = MECHANICAL_DESIGN_GEOMETRIC_PRESENTATION_REPRESENTATION (  '', ( #256 ), #370 ) ;
#151 = ORIENTED_EDGE ( 'NONE', *, *, #445, .T. ) ;
#152 = ORIENTED_EDGE ( 'NONE', *, *, #175, .F. ) ;
#153 = CARTESIAN_POINT ( 'NONE',  ( 0.000000000000000000, 0.000000000000000000, 10.00000000000000000 ) ) ;
#154 = AXIS2_PLACEMENT_3D ( 'NONE', #450, #99, #57 ) ;
#155 = ORIENTED_EDGE ( 'NONE', *, *, #336, .T. ) ;
#156 = DIRECTION ( 'NONE',  ( 1.000000000000000000, 1.224646799147353454E-16, -0.000000000000000000 ) ) ;
#157 = EDGE_CURVE ( 'NONE', #212, #119, #270, .T. ) ;
#158 = ORIENTED_EDGE ( 'NONE', *, *, #348, .T. ) ;
#159 = ADVANCED_FACE ( 'NONE', ( #268 ), #89, .F. ) ;
#160 = CARTESIAN_POINT ( 'NONE',  ( 4.999999999999992895, 2.999999999999999556, 10.00000000000000000 ) ) ;
#161 = DIRECTION ( 'NONE',  ( 1.301042606982605321E-16, -1.000000000000000000, 0.000000000000000000 ) ) ;
#162 = ADVANCED_FACE ( 'NONE', ( #340 ), #456, .T. ) ;
#163 = CARTESIAN_POINT ( 'NONE',  ( -5.000000000000000888, 2.999999999999998668, 5.000000000000000888 ) ) ;
#164 = LINE ( 'NONE', #352, #41 ) ;
#165 = PRODUCT_DEFINITION_CONTEXT ( 'detailed design', #225, 'design' ) ;
#166 = CARTESIAN_POINT ( 'NONE',  ( 4.999999999999992895, 2.999999999999999556, 0.000000000000000000 ) ) ;
#167 = CYLINDRICAL_SURFACE ( 'NONE', #431, 1.650000000000000355 ) ;
#168 = DIRECTION ( 'NONE',  ( -5.782411586589359857E-17, 1.000000000000000000, 0.000000000000000000 ) ) ;
#169 = VECTOR ( 'NONE', #91, 1000.000000000000000 ) ;
#170 = DIRECTION ( 'NONE',  ( -5.782411586589359857E-17, 1.000000000000000000, -0.000000000000000000 ) ) ;
#171 =( NAMED_UNIT ( * ) PLANE_ANGLE_UNIT ( ) SI_UNIT ( $, .RADIAN. ) );
#172 = EDGE_CURVE ( 'NONE', #389, #429, #267, .T. ) ;
#173 = CARTESIAN_POINT ( 'NONE',  ( 4.999999999999992895, 2.999999999999999556, 10.00000000000000000 ) ) ;
#174 = ORIENTED_EDGE ( 'NONE', *, *, #336, .F. ) ;
#175 = EDGE_CURVE ( 'NONE', #38, #77, #90, .T. ) ;
#176 = VERTEX_POINT ( 'NONE', #280 ) ;
#177 = DIRECTION ( 'NONE',  ( -1.734723475976807094E-16, 1.000000000000000000, 0.000000000000000000 ) ) ;
#178 = PRODUCT_CONTEXT ( 'NONE', #299, 'mechanical' ) ;
#179 = ORIENTED_EDGE ( 'NONE', *, *, #175, .T. ) ;
#180 = CARTESIAN_POINT ( 'NONE',  ( 9.999999999999989342, -60.00000000000000000, 3.350000000000000089 ) ) ;
#181 = VECTOR ( 'NONE', #415, 1000.000000000000000 ) ;
#182 = CARTESIAN_POINT ( 'NONE',  ( -10.00000000000000000, -1.224646799147353454E-15, 10.00000000000000000 ) ) ;
#183 = ORIENTED_EDGE ( 'NONE', *, *, #396, .T. ) ;
#184 = CARTESIAN_POINT ( 'NONE',  ( -10.00000000000000000, -1.224646799147353454E-15, 10.00000000000000000 ) ) ;
#185 = MANIFOLD_SOLID_BREP ( '∂Øƒ - âüÇµèoÇµ2', #108 ) ;
#186 = LINE ( 'NONE', #259, #241 ) ;
#187 = VERTEX_POINT ( 'NONE', #209 ) ;
#188 = EDGE_CURVE ( 'NONE', #394, #139, #305, .T. ) ;
#189 = ORIENTED_EDGE ( 'NONE', *, *, #137, .T. ) ;
#190 = CIRCLE ( 'NONE', #47, 1.650000000000000355 ) ;
#191 = ORIENTED_EDGE ( 'NONE', *, *, #377, .T. ) ;
#192 = EDGE_LOOP ( 'NONE', ( #463, #364, #116, #183 ) ) ;
#193 = CARTESIAN_POINT ( 'NONE',  ( -10.00000000000000000, -1.224646799147353454E-15, 0.000000000000000000 ) ) ;
#194 = VECTOR ( 'NONE', #26, 1000.000000000000000 ) ;
#195 = VECTOR ( 'NONE', #283, 1000.000000000000000 ) ;
#196 = EDGE_LOOP ( 'NONE', ( #36, #366 ) ) ;
#197 = DIRECTION ( 'NONE',  ( -5.782411586589359857E-17, 1.000000000000000000, -0.000000000000000000 ) ) ;
#198 = DIRECTION ( 'NONE',  ( 0.000000000000000000, 0.000000000000000000, 1.000000000000000000 ) ) ;
#199 = EDGE_CURVE ( 'NONE', #228, #404, #141, .T. ) ;
#200 = CARTESIAN_POINT ( 'NONE',  ( 1.040834085586084257E-14, -60.00000000000000000, 10.00000000000000000 ) ) ;
#201 = LINE ( 'NONE', #446, #169 ) ;
#202 = CARTESIAN_POINT ( 'NONE',  ( 1.040834085586084257E-14, -60.00000000000000000, 0.000000000000000000 ) ) ;
#203 = DIRECTION ( 'NONE',  ( -0.000000000000000000, -0.000000000000000000, -1.000000000000000000 ) ) ;
#204 = DIRECTION ( 'NONE',  ( -1.000000000000000000, -1.224646799147353947E-16, 0.000000000000000000 ) ) ;
#205 = CARTESIAN_POINT ( 'NONE',  ( 5.000000000000000888, -56.99999999999999289, 0.000000000000000000 ) ) ;
#206 = EDGE_CURVE ( 'NONE', #429, #38, #435, .T. ) ;
#207 = FACE_OUTER_BOUND ( 'NONE', #220, .T. ) ;
#208 = ORIENTED_EDGE ( 'NONE', *, *, #206, .F. ) ;
#209 = CARTESIAN_POINT ( 'NONE',  ( 14.99999999999999467, -60.00000000000000000, 0.000000000000000000 ) ) ;
#210 = EDGE_CURVE ( 'NONE', #70, #361, #78, .T. ) ;
#211 = LINE ( 'NONE', #173, #441 ) ;
#212 = VERTEX_POINT ( 'NONE', #180 ) ;
#213 = CARTESIAN_POINT ( 'NONE',  ( 14.99999999999999289, -56.99999999999999289, 10.00000000000000000 ) ) ;
#214 = LINE ( 'NONE', #73, #449 ) ;
#215 = ADVANCED_FACE ( 'NONE', ( #329 ), #286, .F. ) ;
#216 = EDGE_LOOP ( 'NONE', ( #151, #144, #253, #401 ) ) ;
#217 = DIRECTION ( 'NONE',  ( -0.000000000000000000, -0.000000000000000000, -1.000000000000000000 ) ) ;
#218 = VERTEX_POINT ( 'NONE', #148 ) ;
#219 = AXIS2_PLACEMENT_3D ( 'NONE', #343, #197, #18 ) ;
#220 = EDGE_LOOP ( 'NONE', ( #331, #10, #426, #261 ) ) ;
#221 = ADVANCED_FACE ( 'NONE', ( #293 ), #390, .F. ) ;
#222 = CARTESIAN_POINT ( 'NONE',  ( 0.000000000000000000, 0.000000000000000000, 0.000000000000000000 ) ) ;
#223 = ORIENTED_EDGE ( 'NONE', *, *, #354, .F. ) ;
#224 = EDGE_CURVE ( 'NONE', #361, #139, #107, .T. ) ;
#225 = APPLICATION_CONTEXT ( 'automotive_design' ) ;
#226 = EDGE_LOOP ( 'NONE', ( #46, #421, #59, #155 ) ) ;
#227 = VECTOR ( 'NONE', #110, 1000.000000000000000 ) ;
#228 = VERTEX_POINT ( 'NONE', #69 ) ;
#229 = DIRECTION ( 'NONE',  ( 1.000000000000000000, 1.224646799147353454E-16, -0.000000000000000000 ) ) ;
#230 = VERTEX_POINT ( 'NONE', #250 ) ;
#231 = VECTOR ( 'NONE', #393, 1000.000000000000000 ) ;
#232 = CARTESIAN_POINT ( 'NONE',  ( -10.00000000000000000, -1.224646799147353454E-15, 10.00000000000000000 ) ) ;
#233 = FACE_BOUND ( 'NONE', #196, .T. ) ;
#234 = SURFACE_STYLE_USAGE ( .BOTH. , #419 ) ;
#235 = DIRECTION ( 'NONE',  ( 0.000000000000000000, 0.000000000000000000, 1.000000000000000000 ) ) ;
#236 = EDGE_CURVE ( 'NONE', #252, #77, #274, .T. ) ;
#237 = DIRECTION ( 'NONE',  ( 1.000000000000000000, 0.000000000000000000, -0.000000000000000000 ) ) ;
#238 = DIRECTION ( 'NONE',  ( -0.000000000000000000, 1.000000000000000000, -0.000000000000000000 ) ) ;
#239 = VECTOR ( 'NONE', #355, 1000.000000000000000 ) ;
#240 = EDGE_CURVE ( 'NONE', #212, #335, #138, .T. ) ;
#241 = VECTOR ( 'NONE', #217, 1000.000000000000000 ) ;
#242 = DIRECTION ( 'NONE',  ( 0.000000000000000000, 1.000000000000000000, -0.000000000000000000 ) ) ;
#243 = CARTESIAN_POINT ( 'NONE',  ( 14.99999999999999467, -60.00000000000000000, 10.00000000000000000 ) ) ;
#244 = DIRECTION ( 'NONE',  ( -1.301042606982605321E-16, 1.000000000000000000, -0.000000000000000000 ) ) ;
#245 = DIRECTION ( 'NONE',  ( 1.734723475976807094E-16, -1.000000000000000000, -0.000000000000000000 ) ) ;
#246 = ORIENTED_EDGE ( 'NONE', *, *, #224, .T. ) ;
#247 = DIRECTION ( 'NONE',  ( -1.301042606982605321E-16, 1.000000000000000000, -0.000000000000000000 ) ) ;
#248 = AXIS2_PLACEMENT_3D ( 'NONE', #462, #467, #177 ) ;
#249 = ORIENTED_EDGE ( 'NONE', *, *, #30, .T. ) ;
#250 = CARTESIAN_POINT ( 'NONE',  ( 9.999999999999989342, -56.99999999999999289, 6.650000000000001243 ) ) ;
#251 = LINE ( 'NONE', #359, #227 ) ;
#252 = VERTEX_POINT ( 'NONE', #131 ) ;
#253 = ORIENTED_EDGE ( 'NONE', *, *, #330, .F. ) ;
#254 = ORIENTED_EDGE ( 'NONE', *, *, #240, .T. ) ;
#255 = DIRECTION ( 'NONE',  ( -1.000000000000000000, -0.000000000000000000, -0.000000000000000000 ) ) ;
#256 = STYLED_ITEM ( 'NONE', ( #417 ), #185 ) ;
#257 =( NAMED_UNIT ( * ) SI_UNIT ( $, .STERADIAN. ) SOLID_ANGLE_UNIT ( ) );
#258 = ORIENTED_EDGE ( 'NONE', *, *, #137, .F. ) ;
#259 = CARTESIAN_POINT ( 'NONE',  ( -10.00000000000000000, 2.999999999999998668, 10.00000000000000000 ) ) ;
#260 = PLANE ( 'NONE',  #303 ) ;
#261 = ORIENTED_EDGE ( 'NONE', *, *, #130, .T. ) ;
#262 = VECTOR ( 'NONE', #44, 1000.000000000000000 ) ;
#263 = EDGE_CURVE ( 'NONE', #394, #397, #211, .T. ) ;
#264 = ORIENTED_EDGE ( 'NONE', *, *, #410, .T. ) ;
#265 = CARTESIAN_POINT ( 'NONE',  ( 0.000000000000000000, 0.000000000000000000, 10.00000000000000000 ) ) ;
#266 = ORIENTED_EDGE ( 'NONE', *, *, #11, .T. ) ;
#267 = LINE ( 'NONE', #232, #284 ) ;
#268 = FACE_OUTER_BOUND ( 'NONE', #466, .T. ) ;
#269 = EDGE_CURVE ( 'NONE', #80, #70, #61, .T. ) ;
#270 = CIRCLE ( 'NONE', #344, 1.650000000000000355 ) ;
#271 = CYLINDRICAL_SURFACE ( 'NONE', #19, 1.650000000000000355 ) ;
#272 = DIRECTION ( 'NONE',  ( -1.224646799147353454E-16, 1.000000000000000000, 0.000000000000000000 ) ) ;
#273 = CARTESIAN_POINT ( 'NONE',  ( 9.999999999999989342, -66.99999999999998579, 5.000000000000000888 ) ) ;
#274 = LINE ( 'NONE', #452, #378 ) ;
#275 = DIRECTION ( 'NONE',  ( 0.000000000000000000, 1.000000000000000000, 0.000000000000000000 ) ) ;
#276 = AXIS2_PLACEMENT_3D ( 'NONE', #213, #422, #113 ) ;
#277 = DIRECTION ( 'NONE',  ( 0.000000000000000000, 0.000000000000000000, 1.000000000000000000 ) ) ;
#278 = FACE_OUTER_BOUND ( 'NONE', #323, .T. ) ;
#279 = DIRECTION ( 'NONE',  ( 0.000000000000000000, 1.000000000000000000, 0.000000000000000000 ) ) ;
#280 = CARTESIAN_POINT ( 'NONE',  ( -10.00000000000000000, 2.999999999999998668, 0.000000000000000000 ) ) ;
#281 = CARTESIAN_POINT ( 'NONE',  ( -10.00000000000000000, 2.999999999999998668, 10.00000000000000000 ) ) ;
#282 = ORIENTED_EDGE ( 'NONE', *, *, #172, .F. ) ;
#283 = DIRECTION ( 'NONE',  ( -5.782411586589351722E-16, 1.000000000000000000, -0.000000000000000000 ) ) ;
#284 = VECTOR ( 'NONE', #372, 1000.000000000000000 ) ;
#285 = ORIENTED_EDGE ( 'NONE', *, *, #445, .F. ) ;
#286 = PLANE ( 'NONE',  #248 ) ;
#287 = DIRECTION ( 'NONE',  ( -0.000000000000000000, -1.000000000000000000, -0.000000000000000000 ) ) ;
#288 = ORIENTED_EDGE ( 'NONE', *, *, #120, .T. ) ;
#289 = DIRECTION ( 'NONE',  ( -5.782411586589359857E-17, 1.000000000000000000, -0.000000000000000000 ) ) ;
#290 = PRODUCT ( 'mocap_angle_fix_3', 'mocap_angle_fix_3', '', ( #178 ) ) ;
#291 = CARTESIAN_POINT ( 'NONE',  ( 14.99999999999999289, -56.99999999999999289, 0.000000000000000000 ) ) ;
#292 = ORIENTED_EDGE ( 'NONE', *, *, #210, .T. ) ;
#293 = FACE_OUTER_BOUND ( 'NONE', #147, .T. ) ;
#294 = CARTESIAN_POINT ( 'NONE',  ( 4.999999999999992895, 2.999999999999999556, 10.00000000000000000 ) ) ;
#295 = COLOUR_RGB ( '',0.7921568627450980005, 0.8196078431372548767, 0.9333333333333333481 ) ;
#296 = ORIENTED_EDGE ( 'NONE', *, *, #269, .T. ) ;
#297 = APPLICATION_PROTOCOL_DEFINITION ( 'draft international standard', 'automotive_design', 1998, #225 ) ;
#298 = CARTESIAN_POINT ( 'NONE',  ( 0.000000000000000000, 0.000000000000000000, 10.00000000000000000 ) ) ;
#299 = APPLICATION_CONTEXT ( 'automotive_design' ) ;
#300 = ORIENTED_EDGE ( 'NONE', *, *, #210, .F. ) ;
#301 = ADVANCED_FACE ( 'NONE', ( #346, #382 ), #319, .F. ) ;
#302 = DIRECTION ( 'NONE',  ( -1.224646799147353454E-16, 1.000000000000000000, 0.000000000000000000 ) ) ;
#303 = AXIS2_PLACEMENT_3D ( 'NONE', #153, #302, #442 ) ;
#304 = ORIENTED_EDGE ( 'NONE', *, *, #92, .F. ) ;
#305 = LINE ( 'NONE', #37, #64 ) ;
#306 = VERTEX_POINT ( 'NONE', #166 ) ;
#307 = DIRECTION ( 'NONE',  ( -0.000000000000000000, 1.000000000000000000, -0.000000000000000000 ) ) ;
#308 = DIRECTION ( 'NONE',  ( -0.000000000000000000, -0.000000000000000000, -1.000000000000000000 ) ) ;
#309 = CARTESIAN_POINT ( 'NONE',  ( 9.999999999999989342, -66.99999999999998579, 6.650000000000001243 ) ) ;
#310 = ADVANCED_FACE ( 'NONE', ( #388, #207 ), #408, .F. ) ;
#311 = CARTESIAN_POINT ( 'NONE',  ( -5.000000000000000000, -8.673617379884035472E-16, 5.000000000000000888 ) ) ;
#312 = CARTESIAN_POINT ( 'NONE',  ( 0.000000000000000000, 0.000000000000000000, 0.000000000000000000 ) ) ;
#313 = DIRECTION ( 'NONE',  ( 0.000000000000000000, 0.000000000000000000, 1.000000000000000000 ) ) ;
#314 = DIRECTION ( 'NONE',  ( 0.000000000000000000, 0.000000000000000000, 1.000000000000000000 ) ) ;
#315 = EDGE_CURVE ( 'NONE', #228, #218, #71, .T. ) ;
#316 = AXIS2_PLACEMENT_3D ( 'NONE', #134, #451, #342 ) ;
#317 = LINE ( 'NONE', #459, #379 ) ;
#318 = ORIENTED_EDGE ( 'NONE', *, *, #399, .T. ) ;
#319 = PLANE ( 'NONE',  #360 ) ;
#320 = ADVANCED_FACE ( 'NONE', ( #351 ), #133, .F. ) ;
#321 = ORIENTED_EDGE ( 'NONE', *, *, #315, .T. ) ;
#322 = CARTESIAN_POINT ( 'NONE',  ( -6.650000000000001243, 2.999999999999998668, 5.000000000000000888 ) ) ;
#323 = EDGE_LOOP ( 'NONE', ( #288, #465, #1, #86 ) ) ;
#324 = CARTESIAN_POINT ( 'NONE',  ( 14.99999999999999289, -56.99999999999999289, 10.00000000000000000 ) ) ;
#325 =( GEOMETRIC_REPRESENTATION_CONTEXT ( 3 ) GLOBAL_UNCERTAINTY_ASSIGNED_CONTEXT ( ( #72 ) ) GLOBAL_UNIT_ASSIGNED_CONTEXT ( ( #327, #391, #257 ) ) REPRESENTATION_CONTEXT ( 'NONE', 'WORKASPACE' ) );
#326 = EDGE_LOOP ( 'NONE', ( #285, #152, #440, #13, #109, #121, #334, #443 ) ) ;
#327 =( LENGTH_UNIT ( ) NAMED_UNIT ( * ) SI_UNIT ( .MILLI., .METRE. ) );
#328 = ORIENTED_EDGE ( 'NONE', *, *, #83, .T. ) ;
#329 = FACE_OUTER_BOUND ( 'NONE', #216, .T. ) ;
#330 = EDGE_CURVE ( 'NONE', #252, #358, #411, .T. ) ;
#331 = ORIENTED_EDGE ( 'NONE', *, *, #332, .T. ) ;
#332 = EDGE_CURVE ( 'NONE', #306, #176, #375, .T. ) ;
#333 = FACE_BOUND ( 'NONE', #8, .T. ) ;
#334 = ORIENTED_EDGE ( 'NONE', *, *, #410, .F. ) ;
#335 = VERTEX_POINT ( 'NONE', #420 ) ;
#336 = EDGE_CURVE ( 'NONE', #403, #404, #34, .T. ) ;
#337 = CARTESIAN_POINT ( 'NONE',  ( 14.99999999999999289, -56.99999999999999289, 10.00000000000000000 ) ) ;
#338 = AXIS2_PLACEMENT_3D ( 'NONE', #311, #272, #204 ) ;
#339 = AXIS2_PLACEMENT_3D ( 'NONE', #222, #400, #437 ) ;
#340 = FACE_OUTER_BOUND ( 'NONE', #125, .T. ) ;
#341 = ORIENTED_EDGE ( 'NONE', *, *, #240, .F. ) ;
#342 = DIRECTION ( 'NONE',  ( 0.000000000000000000, 0.000000000000000000, -1.000000000000000000 ) ) ;
#343 = CARTESIAN_POINT ( 'NONE',  ( -5.000000000000000000, -7.000000000000000888, 5.000000000000000888 ) ) ;
#344 = AXIS2_PLACEMENT_3D ( 'NONE', #51, #376, #198 ) ;
#345 = PRODUCT_DEFINITION_FORMATION_WITH_SPECIFIED_SOURCE ( 'ANY', '', #290, .NOT_KNOWN. ) ;
#346 = FACE_BOUND ( 'NONE', #357, .T. ) ;
#347 = PLANE ( 'NONE',  #45 ) ;
#348 = EDGE_CURVE ( 'NONE', #119, #212, #190, .T. ) ;
#349 = CARTESIAN_POINT ( 'NONE',  ( -5.000000000000000888, 2.999999999999998668, 5.000000000000000888 ) ) ;
#350 = CARTESIAN_POINT ( 'NONE',  ( 9.999999999999989342, -60.00000000000000000, 6.650000000000001243 ) ) ;
#351 = FACE_OUTER_BOUND ( 'NONE', #326, .T. ) ;
#352 = CARTESIAN_POINT ( 'NONE',  ( 14.99999999999999467, -60.00000000000000000, 10.00000000000000000 ) ) ;
#353 = ORIENTED_EDGE ( 'NONE', *, *, #157, .F. ) ;
#354 = EDGE_CURVE ( 'NONE', #404, #403, #424, .T. ) ;
#355 = DIRECTION ( 'NONE',  ( -5.782411586589351722E-16, 1.000000000000000000, -0.000000000000000000 ) ) ;
#356 = ORIENTED_EDGE ( 'NONE', *, *, #206, .T. ) ;
#357 = EDGE_LOOP ( 'NONE', ( #158, #66 ) ) ;
#358 = VERTEX_POINT ( 'NONE', #200 ) ;
#359 = CARTESIAN_POINT ( 'NONE',  ( 1.040834085586084257E-14, -60.00000000000000000, 10.00000000000000000 ) ) ;
#360 = AXIS2_PLACEMENT_3D ( 'NONE', #380, #102, #105 ) ;
#361 = VERTEX_POINT ( 'NONE', #55 ) ;
#362 = VERTEX_POINT ( 'NONE', #202 ) ;
#363 = EDGE_CURVE ( 'NONE', #335, #230, #387, .T. ) ;
#364 = ORIENTED_EDGE ( 'NONE', *, *, #83, .F. ) ;
#365 = PRODUCT_DEFINITION ( 'UNKNOWN', '', #345, #165 ) ;
#366 = ORIENTED_EDGE ( 'NONE', *, *, #363, .F. ) ;
#367 = CARTESIAN_POINT ( 'NONE',  ( -6.650000000000000355, -7.000000000000000888, 5.000000000000000888 ) ) ;
#368 = CARTESIAN_POINT ( 'NONE',  ( -10.00000000000000000, 2.999999999999998668, 10.00000000000000000 ) ) ;
#369 = LINE ( 'NONE', #298, #9 ) ;
#370 =( GEOMETRIC_REPRESENTATION_CONTEXT ( 3 ) GLOBAL_UNCERTAINTY_ASSIGNED_CONTEXT ( ( #88 ) ) GLOBAL_UNIT_ASSIGNED_CONTEXT ( ( #14, #171, #60 ) ) REPRESENTATION_CONTEXT ( 'NONE', 'WORKASPACE' ) );
#371 = AXIS2_PLACEMENT_3D ( 'NONE', #115, #3, #425 ) ;
#372 = DIRECTION ( 'NONE',  ( -0.000000000000000000, -1.000000000000000000, -0.000000000000000000 ) ) ;
#373 = DIRECTION ( 'NONE',  ( 0.000000000000000000, 0.000000000000000000, 1.000000000000000000 ) ) ;
#374 = FACE_OUTER_BOUND ( 'NONE', #226, .T. ) ;
#375 = LINE ( 'NONE', #95, #194 ) ;
#376 = DIRECTION ( 'NONE',  ( 0.000000000000000000, 1.000000000000000000, -0.000000000000000000 ) ) ;
#377 = EDGE_CURVE ( 'NONE', #358, #80, #317, .T. ) ;
#378 = VECTOR ( 'NONE', #308, 1000.000000000000000 ) ;
#379 = VECTOR ( 'NONE', #418, 1000.000000000000000 ) ;
#380 = CARTESIAN_POINT ( 'NONE',  ( 14.99999999999999467, -60.00000000000000000, 10.00000000000000000 ) ) ;
#381 = FACE_OUTER_BOUND ( 'NONE', #106, .T. ) ;
#382 = FACE_OUTER_BOUND ( 'NONE', #192, .T. ) ;
#383 = LINE ( 'NONE', #50, #81 ) ;
#384 = DIRECTION ( 'NONE',  ( 1.000000000000000000, 0.000000000000000000, -0.000000000000000000 ) ) ;
#385 = ORIENTED_EDGE ( 'NONE', *, *, #6, .F. ) ;
#386 = AXIS2_PLACEMENT_3D ( 'NONE', #273, #453, #373 ) ;
#387 = CIRCLE ( 'NONE', #82, 1.650000000000000355 ) ;
#388 = FACE_BOUND ( 'NONE', #149, .T. ) ;
#389 = VERTEX_POINT ( 'NONE', #281 ) ;
#390 = PLANE ( 'NONE',  #276 ) ;
#391 =( NAMED_UNIT ( * ) PLANE_ANGLE_UNIT ( ) SI_UNIT ( $, .RADIAN. ) );
#392 = EDGE_LOOP ( 'NONE', ( #179, #40, #5, #356 ) ) ;
#393 = DIRECTION ( 'NONE',  ( -0.000000000000000000, -0.000000000000000000, -1.000000000000000000 ) ) ;
#394 = VERTEX_POINT ( 'NONE', #17 ) ;
#395 = VECTOR ( 'NONE', #245, 1000.000000000000000 ) ;
#396 = EDGE_CURVE ( 'NONE', #358, #362, #251, .T. ) ;
#397 = VERTEX_POINT ( 'NONE', #294 ) ;
#398 = ORIENTED_EDGE ( 'NONE', *, *, #92, .T. ) ;
#399 = EDGE_CURVE ( 'NONE', #389, #176, #186, .T. ) ;
#400 = DIRECTION ( 'NONE',  ( 0.000000000000000000, 0.000000000000000000, 1.000000000000000000 ) ) ;
#401 = ORIENTED_EDGE ( 'NONE', *, *, #236, .T. ) ;
#402 = VECTOR ( 'NONE', #156, 1000.000000000000000 ) ;
#403 = VERTEX_POINT ( 'NONE', #322 ) ;
#404 = VERTEX_POINT ( 'NONE', #432 ) ;
#405 = EDGE_LOOP ( 'NONE', ( #353, #254, #32, #304 ) ) ;
#406 = FACE_OUTER_BOUND ( 'NONE', #31, .T. ) ;
#407 = DIRECTION ( 'NONE',  ( -1.000000000000000000, -0.000000000000000000, -0.000000000000000000 ) ) ;
#408 = PLANE ( 'NONE',  #154 ) ;
#409 = FACE_OUTER_BOUND ( 'NONE', #405, .T. ) ;
#410 = EDGE_CURVE ( 'NONE', #187, #361, #35, .T. ) ;
#411 = LINE ( 'NONE', #24, #395 ) ;
#412 = LINE ( 'NONE', #309, #98 ) ;
#413 = PRESENTATION_LAYER_ASSIGNMENT (  '', '', ( #256 ) ) ;
#414 = AXIS2_PLACEMENT_3D ( 'NONE', #349, #20, #52 ) ;
#415 = DIRECTION ( 'NONE',  ( -0.000000000000000000, 1.000000000000000000, -0.000000000000000000 ) ) ;
#416 = DIRECTION ( 'NONE',  ( -0.000000000000000000, -0.000000000000000000, -1.000000000000000000 ) ) ;
#417 = PRESENTATION_STYLE_ASSIGNMENT (( #234 ) ) ;
#418 = DIRECTION ( 'NONE',  ( 1.000000000000000000, -0.000000000000000000, -0.000000000000000000 ) ) ;
#419 = SURFACE_SIDE_STYLE ('',( #48 ) ) ;
#420 = CARTESIAN_POINT ( 'NONE',  ( 9.999999999999989342, -56.99999999999999289, 3.350000000000000089 ) ) ;
#421 = ORIENTED_EDGE ( 'NONE', *, *, #439, .F. ) ;
#422 = DIRECTION ( 'NONE',  ( -1.000000000000000000, -5.782411586589351722E-16, 0.000000000000000000 ) ) ;
#423 = CIRCLE ( 'NONE', #33, 1.650000000000000355 ) ;
#424 = CIRCLE ( 'NONE', #4, 1.650000000000000355 ) ;
#425 = DIRECTION ( 'NONE',  ( -1.000000000000000000, -1.224646799147353947E-16, 0.000000000000000000 ) ) ;
#426 = ORIENTED_EDGE ( 'NONE', *, *, #30, .F. ) ;
#427 = CARTESIAN_POINT ( 'NONE',  ( 5.000000000000000888, -56.99999999999999289, 0.000000000000000000 ) ) ;
#428 = ORIENTED_EDGE ( 'NONE', *, *, #348, .F. ) ;
#429 = VERTEX_POINT ( 'NONE', #182 ) ;
#430 = CARTESIAN_POINT ( 'NONE',  ( -3.349999999999999645, -7.000000000000000888, 5.000000000000000888 ) ) ;
#431 = AXIS2_PLACEMENT_3D ( 'NONE', #56, #238, #314 ) ;
#432 = CARTESIAN_POINT ( 'NONE',  ( -3.350000000000000089, 2.999999999999998668, 5.000000000000000888 ) ) ;
#433 = CIRCLE ( 'NONE', #371, 1.650000000000000355 ) ;
#434 = ORIENTED_EDGE ( 'NONE', *, *, #315, .F. ) ;
#435 = LINE ( 'NONE', #184, #464 ) ;
#436 = EDGE_CURVE ( 'NONE', #176, #38, #118, .T. ) ;
#437 = DIRECTION ( 'NONE',  ( 1.000000000000000000, 0.000000000000000000, 0.000000000000000000 ) ) ;
#438 = FACE_OUTER_BOUND ( 'NONE', #392, .T. ) ;
#439 = EDGE_CURVE ( 'NONE', #218, #228, #433, .T. ) ;
#440 = ORIENTED_EDGE ( 'NONE', *, *, #436, .F. ) ;
#441 = VECTOR ( 'NONE', #247, 1000.000000000000000 ) ;
#442 = DIRECTION ( 'NONE',  ( -1.000000000000000000, -1.224646799147353454E-16, 0.000000000000000000 ) ) ;
#443 = ORIENTED_EDGE ( 'NONE', *, *, #79, .F. ) ;
#444 = FILL_AREA_STYLE ('',( #103 ) ) ;
#445 = EDGE_CURVE ( 'NONE', #77, #362, #214, .T. ) ;
#446 = CARTESIAN_POINT ( 'NONE',  ( 14.99999999999999467, -60.00000000000000000, 0.000000000000000000 ) ) ;
#447 = PLANE ( 'NONE',  #316 ) ;
#448 = VECTOR ( 'NONE', #289, 1000.000000000000000 ) ;
#449 = VECTOR ( 'NONE', #146, 1000.000000000000000 ) ;
#450 = CARTESIAN_POINT ( 'NONE',  ( -10.00000000000000000, 2.999999999999998668, 10.00000000000000000 ) ) ;
#451 = DIRECTION ( 'NONE',  ( 1.000000000000000000, 0.000000000000000000, 0.000000000000000000 ) ) ;
#452 = CARTESIAN_POINT ( 'NONE',  ( 0.000000000000000000, 0.000000000000000000, 10.00000000000000000 ) ) ;
#453 = DIRECTION ( 'NONE',  ( -0.000000000000000000, 1.000000000000000000, -0.000000000000000000 ) ) ;
#454 = CARTESIAN_POINT ( 'NONE',  ( 9.999999999999989342, -56.99999999999999289, 5.000000000000000888 ) ) ;
#455 = CYLINDRICAL_SURFACE ( 'NONE', #386, 1.650000000000000355 ) ;
#456 = PLANE ( 'NONE',  #142 ) ;
#457 = VECTOR ( 'NONE', #244, 1000.000000000000000 ) ;
#458 = VECTOR ( 'NONE', #287, 1000.000000000000000 ) ;
#459 = CARTESIAN_POINT ( 'NONE',  ( 14.99999999999999467, -60.00000000000000000, 10.00000000000000000 ) ) ;
#460 = CARTESIAN_POINT ( 'NONE',  ( 14.99999999999999289, -56.99999999999999289, 10.00000000000000000 ) ) ;
#461 = ORIENTED_EDGE ( 'NONE', *, *, #117, .T. ) ;
#462 = CARTESIAN_POINT ( 'NONE',  ( 1.040834085586084257E-14, -60.00000000000000000, 10.00000000000000000 ) ) ;
#463 = ORIENTED_EDGE ( 'NONE', *, *, #79, .T. ) ;
#464 = VECTOR ( 'NONE', #39, 1000.000000000000000 ) ;
#465 = ORIENTED_EDGE ( 'NONE', *, *, #130, .F. ) ;
#466 = EDGE_LOOP ( 'NONE', ( #434, #42, #68, #385 ) ) ;
#467 = DIRECTION ( 'NONE',  ( 1.000000000000000000, 1.734723475976807094E-16, -0.000000000000000000 ) ) ;
ENDSEC;
END-ISO-10303-21;
