ISO-10303-21;
HEADER;
FILE_DESCRIPTION (( 'STEP AP214' ),
    '1' );
FILE_NAME ('mocap_stick_holder.STEP',
    '2026-06-18T03:36:52',
    ( '' ),
    ( '' ),
    'SwSTEP 2.0',
    'SolidWorks 2024',
    '' );
FILE_SCHEMA (( 'AUTOMOTIVE_DESIGN' ));
ENDSEC;

DATA;
#1 = CYLINDRICAL_SURFACE ( 'NONE', #294, 1.711419381724407884 ) ;
#2 = ORIENTED_EDGE ( 'NONE', *, *, #84, .F. ) ;
#3 = DIRECTION ( 'NONE',  ( 1.156482317317871971E-16, 1.000000000000000000, -0.000000000000000000 ) ) ;
#4 = FACE_OUTER_BOUND ( 'NONE', #218, .T. ) ;
#5 = ORIENTED_EDGE ( 'NONE', *, *, #845, .T. ) ;
#6 = DIRECTION ( 'NONE',  ( -5.524069506145700694E-16, -1.000000000000000000, 0.000000000000000000 ) ) ;
#7 = FACE_OUTER_BOUND ( 'NONE', #908, .T. ) ;
#8 = AXIS2_PLACEMENT_3D ( 'NONE', #754, #1017, #931 ) ;
#9 = AXIS2_PLACEMENT_3D ( 'NONE', #63, #383, #704 ) ;
#10 = ORIENTED_EDGE ( 'NONE', *, *, #154, .F. ) ;
#11 = DIRECTION ( 'NONE',  ( 0.000000000000000000, -0.000000000000000000, 1.000000000000000000 ) ) ;
#12 = VERTEX_POINT ( 'NONE', #687 ) ;
#13 = LINE ( 'NONE', #744, #497 ) ;
#14 = EDGE_CURVE ( 'NONE', #37, #630, #409, .T. ) ;
#15 = VERTEX_POINT ( 'NONE', #1000 ) ;
#16 = CARTESIAN_POINT ( 'NONE',  ( -67.73712781673698657, 0.000000000000000000, 26.99999999999999289 ) ) ;
#17 = EDGE_LOOP ( 'NONE', ( #895, #807, #5, #529, #183, #496, #139, #309, #643, #838, #378, #625 ) ) ;
#18 = DIRECTION ( 'NONE',  ( 0.000000000000000000, 0.000000000000000000, 1.000000000000000000 ) ) ;
#19 = EDGE_LOOP ( 'NONE', ( #921, #893, #101, #997 ) ) ;
#20 = LINE ( 'NONE', #727, #397 ) ;
#21 = ORIENTED_EDGE ( 'NONE', *, *, #829, .T. ) ;
#22 = ADVANCED_FACE ( 'NONE', ( #108, #292, #841 ), #32, .T. ) ;
#23 = EDGE_CURVE ( 'NONE', #303, #570, #175, .T. ) ;
#24 = DIRECTION ( 'NONE',  ( -1.000000000000000000, 0.000000000000000000, 0.000000000000000000 ) ) ;
#25 = VECTOR ( 'NONE', #517, 1000.000000000000000 ) ;
#26 = ORIENTED_EDGE ( 'NONE', *, *, #423, .T. ) ;
#27 = AXIS2_PLACEMENT_3D ( 'NONE', #827, #209, #851 ) ;
#28 = CARTESIAN_POINT ( 'NONE',  ( -76.94854719846139801, 4.336808689942017736E-15, 0.000000000000000000 ) ) ;
#29 = VERTEX_POINT ( 'NONE', #945 ) ;
#30 = VECTOR ( 'NONE', #6, 1000.000000000000000 ) ;
#31 = CARTESIAN_POINT ( 'NONE',  ( -61.56545711422542411, 8.504449426924203692, 21.32423763334825395 ) ) ;
#32 = PLANE ( 'NONE',  #800 ) ;
#33 = DIRECTION ( 'NONE',  ( 1.000000000000000000, 0.000000000000000000, 0.000000000000000000 ) ) ;
#34 = CARTESIAN_POINT ( 'NONE',  ( -61.49681300379065618, 8.986943736475867084, 20.26294557288010623 ) ) ;
#35 = DIRECTION ( 'NONE',  ( 1.156482317317872218E-16, 1.000000000000000000, -0.000000000000000000 ) ) ;
#36 = DIRECTION ( 'NONE',  ( 1.000000000000000000, 0.000000000000000000, 0.000000000000000000 ) ) ;
#37 = VERTEX_POINT ( 'NONE', #1018 ) ;
#38 = PLANE ( 'NONE',  #1043 ) ;
#39 = ADVANCED_FACE ( 'NONE', ( #1012 ), #270, .F. ) ;
#40 = DIRECTION ( 'NONE',  ( -1.000000000000000000, -2.775557561562891351E-15, -0.000000000000000000 ) ) ;
#41 = ORIENTED_EDGE ( 'NONE', *, *, #820, .T. ) ;
#42 = VECTOR ( 'NONE', #993, 1000.000000000000000 ) ;
#43 = DIRECTION ( 'NONE',  ( 1.156482317317871971E-16, 1.000000000000000000, -0.000000000000000000 ) ) ;
#44 = VECTOR ( 'NONE', #111, 1000.000000000000000 ) ;
#45 = CIRCLE ( 'NONE', #429, 1.711419381724407884 ) ;
#46 = EDGE_LOOP ( 'NONE', ( #653, #934, #489, #732 ) ) ;
#47 = EDGE_CURVE ( 'NONE', #570, #76, #605, .T. ) ;
#48 = CARTESIAN_POINT ( 'NONE',  ( -76.94854719846139801, 5.000000000000003553, 0.000000000000000000 ) ) ;
#49 = EDGE_LOOP ( 'NONE', ( #554, #167, #189, #122 ) ) ;
#50 = DIRECTION ( 'NONE',  ( 0.000000000000000000, -1.000000000000000000, 7.815327003596234519E-16 ) ) ;
#51 = CYLINDRICAL_SURFACE ( 'NONE', #975, 62.14999999999999858 ) ;
#52 = CARTESIAN_POINT ( 'NONE',  ( 69.44854719846139801, 0.000000000000000000, 27.00000000000002842 ) ) ;
#53 = ORIENTED_EDGE ( 'NONE', *, *, #170, .F. ) ;
#54 = LINE ( 'NONE', #117, #95 ) ;
#55 = ADVANCED_FACE ( 'NONE', ( #836 ), #114, .F. ) ;
#56 = CARTESIAN_POINT ( 'NONE',  ( 67.73712781673698657, -0.001000000000016414625, 5.000000000000036415 ) ) ;
#57 = CARTESIAN_POINT ( 'NONE',  ( -76.94854719846142643, 9.000000000000003553, 19.99999999999999645 ) ) ;
#58 = ORIENTED_EDGE ( 'NONE', *, *, #413, .T. ) ;
#59 = CIRCLE ( 'NONE', #642, 62.14999999999999858 ) ;
#60 = LINE ( 'NONE', #720, #682 ) ;
#61 = EDGE_CURVE ( 'NONE', #574, #12, #675, .T. ) ;
#62 = AXIS2_PLACEMENT_3D ( 'NONE', #310, #473, #947 ) ;
#63 = CARTESIAN_POINT ( 'NONE',  ( -76.94854719846139801, 4.336808689942017736E-15, -15.81138830084188918 ) ) ;
#64 = CIRCLE ( 'NONE', #231, 1.711419381724407884 ) ;
#65 = FACE_OUTER_BOUND ( 'NONE', #1025, .T. ) ;
#66 = EDGE_LOOP ( 'NONE', ( #333, #172, #740, #1024, #658, #812, #576, #774, #241, #343, #614, #873 ) ) ;
#67 = DIRECTION ( 'NONE',  ( -1.000000000000000000, -2.775557561562891351E-15, 3.503246160812042677E-46 ) ) ;
#68 = DIRECTION ( 'NONE',  ( -5.524069506145700694E-16, 1.000000000000000000, 0.000000000000000000 ) ) ;
#69 = DIRECTION ( 'NONE',  ( -5.524069506145700694E-16, 1.000000000000000000, 0.000000000000000000 ) ) ;
#70 = EDGE_CURVE ( 'NONE', #939, #797, #59, .T. ) ;
#71 = ORIENTED_EDGE ( 'NONE', *, *, #899, .F. ) ;
#72 = CARTESIAN_POINT ( 'NONE',  ( -61.56557632912942779, 8.503587718111175420, 10.67477584410612401 ) ) ;
#73 = CARTESIAN_POINT ( 'NONE',  ( -61.49489816236790318, 9.000000000000047962, 19.99999999999999645 ) ) ;
#74 = DIRECTION ( 'NONE',  ( -1.000000000000000000, 1.156482317317871971E-16, 0.000000000000000000 ) ) ;
#75 = EDGE_CURVE ( 'NONE', #994, #980, #528, .T. ) ;
#76 = VERTEX_POINT ( 'NONE', #954 ) ;
#77 = ADVANCED_FACE ( 'NONE', ( #637, #619 ), #471, .T. ) ;
#78 = DIRECTION ( 'NONE',  ( 1.000000000000000000, 2.775557561562891351E-15, -0.000000000000000000 ) ) ;
#79 = EDGE_CURVE ( 'NONE', #630, #857, #786, .T. ) ;
#80 = AXIS2_PLACEMENT_3D ( 'NONE', #819, #99, #900 ) ;
#81 = VECTOR ( 'NONE', #737, 1000.000000000000000 ) ;
#82 = LINE ( 'NONE', #860, #629 ) ;
#83 = ORIENTED_EDGE ( 'NONE', *, *, #845, .F. ) ;
#84 = EDGE_CURVE ( 'NONE', #926, #436, #138, .T. ) ;
#85 = DIRECTION ( 'NONE',  ( -1.000000000000000000, 0.000000000000000000, 0.000000000000000000 ) ) ;
#86 = CYLINDRICAL_SURFACE ( 'NONE', #698, 62.14999999999999858 ) ;
#87 = VERTEX_POINT ( 'NONE', #949 ) ;
#88 = FACE_BOUND ( 'NONE', #536, .T. ) ;
#89 = FACE_BOUND ( 'NONE', #951, .T. ) ;
#90 = ORIENTED_EDGE ( 'NONE', *, *, #567, .T. ) ;
#91 = DIRECTION ( 'NONE',  ( -0.000000000000000000, -0.000000000000000000, -1.000000000000000000 ) ) ;
#92 = EDGE_LOOP ( 'NONE', ( #394, #745, #726, #962 ) ) ;
#93 = DIRECTION ( 'NONE',  ( 0.000000000000000000, 0.000000000000000000, 1.000000000000000000 ) ) ;
#94 = VECTOR ( 'NONE', #274, 1000.000000000000000 ) ;
#95 = VECTOR ( 'NONE', #759, 1000.000000000000000 ) ;
#96 = ORIENTED_EDGE ( 'NONE', *, *, #782, .T. ) ;
#97 = CARTESIAN_POINT ( 'NONE',  ( -57.14999999999999858, 0.000000000000000000, 32.00000000000000000 ) ) ;
#98 = ORIENTED_EDGE ( 'NONE', *, *, #813, .F. ) ;
#99 = DIRECTION ( 'NONE',  ( 1.000000000000000000, 0.000000000000000000, 0.000000000000000000 ) ) ;
#100 = ADVANCED_FACE ( 'NONE', ( #375 ), #796, .T. ) ;
#101 = ORIENTED_EDGE ( 'NONE', *, *, #507, .T. ) ;
#102 = LINE ( 'NONE', #508, #766 ) ;
#103 = EDGE_LOOP ( 'NONE', ( #911, #21, #360, #331 ) ) ;
#104 = CARTESIAN_POINT ( 'NONE',  ( 67.73712781673698657, 4.999999999999986677, 5.000000000000036415 ) ) ;
#105 = ORIENTED_EDGE ( 'NONE', *, *, #641, .F. ) ;
#106 = CARTESIAN_POINT ( 'NONE',  ( -61.94854719846139091, 4.224568682301705863E-14, 10.00000000000000000 ) ) ;
#107 = VERTEX_POINT ( 'NONE', #389 ) ;
#108 = FACE_BOUND ( 'NONE', #213, .T. ) ;
#109 = AXIS2_PLACEMENT_3D ( 'NONE', #988, #823, #664 ) ;
#110 = CARTESIAN_POINT ( 'NONE',  ( -76.94854719846139801, 5.000000000000003553, 9.999999999999994671 ) ) ;
#111 = DIRECTION ( 'NONE',  ( 1.156482317317872218E-16, 1.000000000000000000, -0.000000000000000000 ) ) ;
#112 = EDGE_CURVE ( 'NONE', #598, #107, #557, .T. ) ;
#113 = SURFACE_STYLE_USAGE ( .BOTH. , #199 ) ;
#114 = CYLINDRICAL_SURFACE ( 'NONE', #512, 1.711419381724407884 ) ;
#115 = DIRECTION ( 'NONE',  ( -5.524069506145700694E-16, -1.000000000000000000, 0.000000000000000000 ) ) ;
#116 = ORIENTED_EDGE ( 'NONE', *, *, #881, .T. ) ;
#117 = CARTESIAN_POINT ( 'NONE',  ( -6.000000000000000000, 61.85970012859745282, -15.81138830084188918 ) ) ;
#118 = EDGE_CURVE ( 'NONE', #440, #505, #721, .T. ) ;
#119 = B_SPLINE_CURVE_WITH_KNOTS ( 'NONE', 3,
 ( #616, #235, #1047, #559, #723, #632, #793, #883, #478, #72, #541, #1033, #862, #622, #141, #395 ),
 .UNSPECIFIED., .F., .F.,
 ( 4, 2, 2, 2, 2, 2, 2, 4 ),
 ( 0.000000000000000000, 0.0003921242228452166060, 0.0007842484456904332121, 0.001176372668535652149, 0.001568496891380871195, 0.001960621114226090457, 0.002352745337071309069, 0.003136993782761750196 ),
 .UNSPECIFIED. ) ;
#120 = CARTESIAN_POINT ( 'NONE',  ( 0.000000000000000000, 0.000000000000000000, 0.000000000000000000 ) ) ;
#121 = ORIENTED_EDGE ( 'NONE', *, *, #304, .F. ) ;
#122 = ORIENTED_EDGE ( 'NONE', *, *, #204, .F. ) ;
#123 = CARTESIAN_POINT ( 'NONE',  ( 69.44854719846139801, -0.001000000000016612600, 27.00000000000002842 ) ) ;
#124 = EDGE_CURVE ( 'NONE', #202, #505, #384, .T. ) ;
#125 = CARTESIAN_POINT ( 'NONE',  ( 5.999999999999998224, 65.00000000000000000, 0.000000000000000000 ) ) ;
#126 = CARTESIAN_POINT ( 'NONE',  ( 69.44854719846139801, 4.999999999999986677, 5.000000000000036415 ) ) ;
#127 = ORIENTED_EDGE ( 'NONE', *, *, #898, .T. ) ;
#128 = CIRCLE ( 'NONE', #716, 1.711419381724404332 ) ;
#129 = LINE ( 'NONE', #198, #44 ) ;
#130 = CIRCLE ( 'NONE', #312, 1.711419381724407884 ) ;
#131 = CARTESIAN_POINT ( 'NONE',  ( -61.49489816236790318, 9.000000000000047962, 19.99999999999999645 ) ) ;
#132 = DIRECTION ( 'NONE',  ( -1.156482317317871971E-16, 1.000000000000000000, 0.000000000000000000 ) ) ;
#133 = FACE_OUTER_BOUND ( 'NONE', #316, .T. ) ;
#134 = ORIENTED_EDGE ( 'NONE', *, *, #753, .T. ) ;
#135 = EDGE_CURVE ( 'NONE', #598, #986, #877, .T. ) ;
#136 = CARTESIAN_POINT ( 'NONE',  ( 69.44854719846139801, 0.000000000000000000, 27.00000000000002842 ) ) ;
#137 = CARTESIAN_POINT ( 'NONE',  ( -69.44854719846139801, 5.000000000000002665, 5.000000000000001776 ) ) ;
#138 = LINE ( 'NONE', #624, #464 ) ;
#139 = ORIENTED_EDGE ( 'NONE', *, *, #760, .T. ) ;
#140 = ADVANCED_FACE ( 'NONE', ( #715 ), #463, .F. ) ;
#141 = CARTESIAN_POINT ( 'NONE',  ( -61.49489816236790318, 9.000000000000046185, 11.73476266586932582 ) ) ;
#142 = CARTESIAN_POINT ( 'NONE',  ( -69.44854719846139801, -0.001000000000001000089, 5.000000000000001776 ) ) ;
#143 = DIRECTION ( 'NONE',  ( 1.156482317317872218E-16, 1.000000000000000000, -0.000000000000000000 ) ) ;
#144 = ORIENTED_EDGE ( 'NONE', *, *, #950, .T. ) ;
#145 = DIRECTION ( 'NONE',  ( -5.524069506145700694E-16, -1.000000000000000000, 0.000000000000000000 ) ) ;
#146 = VECTOR ( 'NONE', #958, 1000.000000000000000 ) ;
#147 = AXIS2_PLACEMENT_3D ( 'NONE', #1022, #356, #843 ) ;
#148 = ADVANCED_FACE ( 'NONE', ( #65 ), #233, .T. ) ;
#149 = CARTESIAN_POINT ( 'NONE',  ( 76.94854719846139801, 5.000000000000003553, 32.00000000000000000 ) ) ;
#150 = DIRECTION ( 'NONE',  ( 0.000000000000000000, 0.000000000000000000, 1.000000000000000000 ) ) ;
#151 = ORIENTED_EDGE ( 'NONE', *, *, #590, .F. ) ;
#152 = CARTESIAN_POINT ( 'NONE',  ( -61.94854719846139801, 5.000000000000001776, 32.00000000000000000 ) ) ;
#153 = DIRECTION ( 'NONE',  ( 1.156482317317871971E-16, 1.000000000000000000, 0.000000000000000000 ) ) ;
#154 = EDGE_CURVE ( 'NONE', #773, #939, #82, .T. ) ;
#155 = CARTESIAN_POINT ( 'NONE',  ( 0.000000000000000000, 0.000000000000000000, 32.00000000000000000 ) ) ;
#156 = ORIENTED_EDGE ( 'NONE', *, *, #461, .T. ) ;
#157 = FACE_OUTER_BOUND ( 'NONE', #66, .T. ) ;
#158 = LINE ( 'NONE', #705, #850 ) ;
#159 = ORIENTED_EDGE ( 'NONE', *, *, #461, .F. ) ;
#160 = FACE_OUTER_BOUND ( 'NONE', #650, .T. ) ;
#161 = MECHANICAL_DESIGN_GEOMETRIC_PRESENTATION_REPRESENTATION (  '', ( #192 ), #1027 ) ;
#162 = AXIS2_PLACEMENT_3D ( 'NONE', #422, #742, #242 ) ;
#163 = DIRECTION ( 'NONE',  ( 1.156482317317872218E-16, 1.000000000000000000, -0.000000000000000000 ) ) ;
#164 = VERTEX_POINT ( 'NONE', #634 ) ;
#165 = DIRECTION ( 'NONE',  ( -5.524069506145700694E-16, 1.000000000000000000, 0.000000000000000000 ) ) ;
#166 = DIRECTION ( 'NONE',  ( 0.000000000000000000, 1.000000000000000000, 1.927470528863118802E-16 ) ) ;
#167 = ORIENTED_EDGE ( 'NONE', *, *, #84, .T. ) ;
#168 = FACE_OUTER_BOUND ( 'NONE', #549, .T. ) ;
#169 = ORIENTED_EDGE ( 'NONE', *, *, #204, .T. ) ;
#170 = EDGE_CURVE ( 'NONE', #282, #802, #869, .T. ) ;
#171 = LINE ( 'NONE', #569, #959 ) ;
#172 = ORIENTED_EDGE ( 'NONE', *, *, #229, .F. ) ;
#173 = PLANE ( 'NONE',  #663 ) ;
#174 = ORIENTED_EDGE ( 'NONE', *, *, #755, .T. ) ;
#175 = CIRCLE ( 'NONE', #972, 2.000000000000000000 ) ;
#176 = DIRECTION ( 'NONE',  ( 0.000000000000000000, -1.000000000000000000, 7.709882115452477180E-16 ) ) ;
#177 = VECTOR ( 'NONE', #416, 1000.000000000000000 ) ;
#178 = CIRCLE ( 'NONE', #278, 62.14999999999999858 ) ;
#179 = ORIENTED_EDGE ( 'NONE', *, *, #795, .F. ) ;
#180 = LINE ( 'NONE', #407, #785 ) ;
#181 = ORIENTED_EDGE ( 'NONE', *, *, #674, .F. ) ;
#182 = DIRECTION ( 'NONE',  ( -1.000000000000000000, 1.156899083503402418E-16, 0.000000000000000000 ) ) ;
#183 = ORIENTED_EDGE ( 'NONE', *, *, #621, .T. ) ;
#184 = DIRECTION ( 'NONE',  ( -1.000000000000000000, -2.775557561562891351E-15, 8.758115402030106693E-47 ) ) ;
#185 = VERTEX_POINT ( 'NONE', #458 ) ;
#186 = DIRECTION ( 'NONE',  ( -1.000000000000000000, 0.000000000000000000, 0.000000000000000000 ) ) ;
#187 = ORIENTED_EDGE ( 'NONE', *, *, #712, .T. ) ;
#188 = DIRECTION ( 'NONE',  ( 0.000000000000000000, -1.000000000000000000, 0.000000000000000000 ) ) ;
#189 = ORIENTED_EDGE ( 'NONE', *, *, #918, .T. ) ;
#190 = DIRECTION ( 'NONE',  ( -0.000000000000000000, -1.000000000000000000, -0.000000000000000000 ) ) ;
#191 = LINE ( 'NONE', #348, #42 ) ;
#192 = STYLED_ITEM ( 'NONE', ( #521 ), #475 ) ;
#193 = DIRECTION ( 'NONE',  ( -1.000000000000000000, 1.156899083503402418E-16, 0.000000000000000000 ) ) ;
#194 = VECTOR ( 'NONE', #708, 1000.000000000000000 ) ;
#195 = DIRECTION ( 'NONE',  ( -1.000000000000000000, 0.000000000000000000, 0.000000000000000000 ) ) ;
#196 = ORIENTED_EDGE ( 'NONE', *, *, #539, .T. ) ;
#197 = EDGE_CURVE ( 'NONE', #477, #87, #158, .T. ) ;
#198 = CARTESIAN_POINT ( 'NONE',  ( -67.73712781673698657, -0.001000000000001198064, 5.000000000000001776 ) ) ;
#199 = SURFACE_SIDE_STYLE ('',( #595 ) ) ;
#200 = DIRECTION ( 'NONE',  ( 0.000000000000000000, 0.000000000000000000, 1.000000000000000000 ) ) ;
#201 = CARTESIAN_POINT ( 'NONE',  ( -5.999999999999998224, 65.00000000000000000, -15.81138830084188918 ) ) ;
#202 = VERTEX_POINT ( 'NONE', #57 ) ;
#203 = FACE_OUTER_BOUND ( 'NONE', #17, .T. ) ;
#204 = EDGE_CURVE ( 'NONE', #390, #219, #314, .T. ) ;
#205 = CARTESIAN_POINT ( 'NONE',  ( -61.75453424648265610, 7.000000000000046185, 22.00000000000000000 ) ) ;
#206 = DIRECTION ( 'NONE',  ( -1.000000000000000000, 0.000000000000000000, 0.000000000000000000 ) ) ;
#207 = EDGE_LOOP ( 'NONE', ( #685, #1040, #736, #928 ) ) ;
#208 = DIRECTION ( 'NONE',  ( -1.000000000000000000, 0.000000000000000000, 0.000000000000000000 ) ) ;
#209 = DIRECTION ( 'NONE',  ( -0.000000000000000000, -1.000000000000000000, 0.000000000000000000 ) ) ;
#210 = EDGE_CURVE ( 'NONE', #570, #683, #301, .T. ) ;
#211 = ADVANCED_FACE ( 'NONE', ( #965 ), #1, .F. ) ;
#212 = ORIENTED_EDGE ( 'NONE', *, *, #649, .F. ) ;
#213 = EDGE_LOOP ( 'NONE', ( #1002, #991 ) ) ;
#214 = CIRCLE ( 'NONE', #8, 5.999999999999999112 ) ;
#215 = LINE ( 'NONE', #437, #327 ) ;
#216 = AXIS2_PLACEMENT_3D ( 'NONE', #387, #555, #804 ) ;
#217 = DIRECTION ( 'NONE',  ( 1.156482317317872218E-16, 1.000000000000000000, -0.000000000000000000 ) ) ;
#218 = EDGE_LOOP ( 'NONE', ( #671, #706, #324, #602 ) ) ;
#219 = VERTEX_POINT ( 'NONE', #503 ) ;
#220 = DIRECTION ( 'NONE',  ( 1.000000000000000000, 0.000000000000000000, 0.000000000000000000 ) ) ;
#221 = FACE_OUTER_BOUND ( 'NONE', #19, .T. ) ;
#222 = DIRECTION ( 'NONE',  ( -1.000000000000000000, 0.000000000000000000, 0.000000000000000000 ) ) ;
#223 = ORIENTED_EDGE ( 'NONE', *, *, #23, .F. ) ;
#224 = PLANE ( 'NONE',  #833 ) ;
#225 = FACE_OUTER_BOUND ( 'NONE', #566, .T. ) ;
#226 = CARTESIAN_POINT ( 'NONE',  ( -57.94854719846141933, 9.000000000000055067, 19.99999999999999645 ) ) ;
#227 = ORIENTED_EDGE ( 'NONE', *, *, #47, .T. ) ;
#228 = CARTESIAN_POINT ( 'NONE',  ( -61.94854719846139091, 2.438440400607187917E-13, 16.00000000000000000 ) ) ;
#229 = EDGE_CURVE ( 'NONE', #533, #667, #612, .T. ) ;
#230 = AXIS2_PLACEMENT_3D ( 'NONE', #479, #871, #69 ) ;
#231 = AXIS2_PLACEMENT_3D ( 'NONE', #935, #43, #608 ) ;
#232 = DIRECTION ( 'NONE',  ( -0.000000000000000000, -1.000000000000000000, 0.000000000000000000 ) ) ;
#233 = PLANE ( 'NONE',  #230 ) ;
#234 = EDGE_LOOP ( 'NONE', ( #355, #717 ) ) ;
#235 = CARTESIAN_POINT ( 'NONE',  ( -61.73960050781705888, 7.131746582264825385, 9.999999999999998224 ) ) ;
#236 = DIRECTION ( 'NONE',  ( -1.000000000000000000, 1.156899083503402418E-16, 0.000000000000000000 ) ) ;
#237 = ORIENTED_EDGE ( 'NONE', *, *, #112, .F. ) ;
#238 = CARTESIAN_POINT ( 'NONE',  ( -76.94854719846139801, 5.000000000000003553, 32.00000000000000000 ) ) ;
#239 = PLANE ( 'NONE',  #80 ) ;
#240 = EDGE_CURVE ( 'NONE', #510, #288, #260, .T. ) ;
#241 = ORIENTED_EDGE ( 'NONE', *, *, #755, .F. ) ;
#242 = DIRECTION ( 'NONE',  ( -1.000000000000000000, 0.000000000000000000, 0.000000000000000000 ) ) ;
#243 = AXIS2_PLACEMENT_3D ( 'NONE', #814, #336, #93 ) ;
#244 = AXIS2_PLACEMENT_3D ( 'NONE', #142, #948, #392 ) ;
#245 = DIRECTION ( 'NONE',  ( -2.139922160430262098E-30, 7.709882115452477180E-16, 1.000000000000000000 ) ) ;
#246 = CIRCLE ( 'NONE', #382, 2.000000000000001776 ) ;
#247 = ORIENTED_EDGE ( 'NONE', *, *, #469, .T. ) ;
#248 = DIRECTION ( 'NONE',  ( 0.000000000000000000, 0.000000000000000000, 1.000000000000000000 ) ) ;
#249 = LINE ( 'NONE', #405, #177 ) ;
#250 = ORIENTED_EDGE ( 'NONE', *, *, #492, .F. ) ;
#251 = CARTESIAN_POINT ( 'NONE',  ( 57.14999999999999858, 6.998856457127124130E-15, 0.000000000000000000 ) ) ;
#252 = ORIENTED_EDGE ( 'NONE', *, *, #867, .F. ) ;
#253 = APPLICATION_CONTEXT ( 'automotive_design' ) ;
#254 = DIRECTION ( 'NONE',  ( 1.156482317317871971E-16, 1.000000000000000000, 0.000000000000000000 ) ) ;
#255 = B_SPLINE_CURVE_WITH_KNOTS ( 'NONE', 3,
 ( #131, #527, #34, #453, #844, #438, #673, #916, #31, #668, #681, #370, #1004, #925 ),
 .UNSPECIFIED., .F., .F.,
 ( 4, 2, 2, 2, 2, 2, 4 ),
 ( 0.000000000000000000, 0.0003921234104358297182, 0.0007842468208716594363, 0.001176370231307489155, 0.001568493641743318873, 0.002352740462614968768, 0.003136987283486617362 ),
 .UNSPECIFIED. ) ;
#256 = VERTEX_POINT ( 'NONE', #499 ) ;
#257 = CARTESIAN_POINT ( 'NONE',  ( 57.14999999999999858, 6.998856457127124130E-15, 32.00000000000000000 ) ) ;
#258 = VERTEX_POINT ( 'NONE', #485 ) ;
#259 = ADVANCED_FACE ( 'NONE', ( #4 ), #328, .T. ) ;
#260 = LINE ( 'NONE', #890, #532 ) ;
#261 = VECTOR ( 'NONE', #778, 1000.000000000000000 ) ;
#262 = CIRCLE ( 'NONE', #992, 1.711419381724404332 ) ;
#263 = ORIENTED_EDGE ( 'NONE', *, *, #423, .F. ) ;
#264 = CARTESIAN_POINT ( 'NONE',  ( -69.44854719846139801, 0.000000000000000000, 5.000000000000001776 ) ) ;
#265 = ORIENTED_EDGE ( 'NONE', *, *, #805, .F. ) ;
#266 = ADVANCED_FACE ( 'NONE', ( #401 ), #648, .F. ) ;
#267 =( NAMED_UNIT ( * ) PLANE_ANGLE_UNIT ( ) SI_UNIT ( $, .RADIAN. ) );
#268 = ORIENTED_EDGE ( 'NONE', *, *, #23, .T. ) ;
#269 = CARTESIAN_POINT ( 'NONE',  ( 0.000000000000000000, 0.000000000000000000, 32.00000000000000000 ) ) ;
#270 = CYLINDRICAL_SURFACE ( 'NONE', #443, 1.711419381724407884 ) ;
#271 = DIRECTION ( 'NONE',  ( -5.349805401075655245E-31, 1.927470528863118802E-16, -1.000000000000000000 ) ) ;
#272 = ORIENTED_EDGE ( 'NONE', *, *, #75, .T. ) ;
#273 = DIRECTION ( 'NONE',  ( -2.139922160430262098E-30, 7.709882115452477180E-16, 1.000000000000000000 ) ) ;
#274 = DIRECTION ( 'NONE',  ( 0.000000000000000000, 1.000000000000000000, 0.000000000000000000 ) ) ;
#275 = AXIS2_PLACEMENT_3D ( 'NONE', #789, #859, #296 ) ;
#276 = ORIENTED_EDGE ( 'NONE', *, *, #448, .T. ) ;
#277 = ADVANCED_FACE ( 'NONE', ( #806 ), #340, .T. ) ;
#278 = AXIS2_PLACEMENT_3D ( 'NONE', #432, #273, #50 ) ;
#279 = ORIENTED_EDGE ( 'NONE', *, *, #832, .T. ) ;
#280 = DIRECTION ( 'NONE',  ( -1.000000000000000000, 0.000000000000000000, 0.000000000000000000 ) ) ;
#281 = DIRECTION ( 'NONE',  ( -0.000000000000000000, -0.000000000000000000, -1.000000000000000000 ) ) ;
#282 = VERTEX_POINT ( 'NONE', #657 ) ;
#283 = EDGE_LOOP ( 'NONE', ( #159, #768, #519, #402 ) ) ;
#284 = CYLINDRICAL_SURFACE ( 'NONE', #905, 1.711419381724407884 ) ;
#285 = CARTESIAN_POINT ( 'NONE',  ( -61.49489816236790318, 9.000000000000047962, 11.99999999999999645 ) ) ;
#286 = CARTESIAN_POINT ( 'NONE',  ( 69.44854719846139801, -0.001000000000016612600, 5.000000000000036415 ) ) ;
#287 = DIRECTION ( 'NONE',  ( -1.000000000000000000, 5.524069506145700694E-16, 0.000000000000000000 ) ) ;
#288 = VERTEX_POINT ( 'NONE', #412 ) ;
#289 = DIRECTION ( 'NONE',  ( -1.000000000000000000, -2.775557561562891351E-15, 0.000000000000000000 ) ) ;
#290 = EDGE_CURVE ( 'NONE', #500, #29, #1008, .T. ) ;
#291 = LINE ( 'NONE', #1028, #146 ) ;
#292 = FACE_BOUND ( 'NONE', #701, .T. ) ;
#293 = ORIENTED_EDGE ( 'NONE', *, *, #567, .F. ) ;
#294 = AXIS2_PLACEMENT_3D ( 'NONE', #699, #973, #182 ) ;
#295 = DIRECTION ( 'NONE',  ( 0.000000000000000000, 1.000000000000000000, 0.000000000000000000 ) ) ;
#296 = DIRECTION ( 'NONE',  ( 0.000000000000000000, 0.000000000000000000, 1.000000000000000000 ) ) ;
#297 = DIRECTION ( 'NONE',  ( 1.156482317317872218E-16, 1.000000000000000000, -0.000000000000000000 ) ) ;
#298 = VERTEX_POINT ( 'NONE', #104 ) ;
#299 = DIRECTION ( 'NONE',  ( 1.156482317317871971E-16, 1.000000000000000000, 0.000000000000000000 ) ) ;
#300 = CARTESIAN_POINT ( 'NONE',  ( -76.94854719846139801, 4.336808689942017736E-15, 0.000000000000000000 ) ) ;
#301 = LINE ( 'NONE', #799, #563 ) ;
#302 = ADVANCED_FACE ( 'NONE', ( #7 ), #86, .T. ) ;
#303 = VERTEX_POINT ( 'NONE', #420 ) ;
#304 = EDGE_CURVE ( 'NONE', #751, #87, #13, .T. ) ;
#305 = PLANE ( 'NONE',  #361 ) ;
#306 = ADVANCED_FACE ( 'NONE', ( #894 ), #239, .T. ) ;
#307 = CARTESIAN_POINT ( 'NONE',  ( -61.94854719846139801, 5.000000000000001776, 0.000000000000000000 ) ) ;
#308 = CARTESIAN_POINT ( 'NONE',  ( -76.94854719846139801, 5.000000000000003553, 0.000000000000000000 ) ) ;
#309 = ORIENTED_EDGE ( 'NONE', *, *, #546, .T. ) ;
#310 = CARTESIAN_POINT ( 'NONE',  ( 0.000000000000000000, 0.000000000000000000, 32.00000000000000000 ) ) ;
#311 = AXIS2_PLACEMENT_3D ( 'NONE', #725, #728, #18 ) ;
#312 = AXIS2_PLACEMENT_3D ( 'NONE', #752, #1009, #33 ) ;
#313 = VECTOR ( 'NONE', #415, 1000.000000000000000 ) ;
#314 = LINE ( 'NONE', #543, #465 ) ;
#315 = APPLICATION_CONTEXT ( 'automotive_design' ) ;
#316 = EDGE_LOOP ( 'NONE', ( #212, #321, #466, #887 ) ) ;
#317 = CARTESIAN_POINT ( 'NONE',  ( 57.14999999999999858, 6.998856457127124130E-15, 32.00000000000000000 ) ) ;
#318 = EDGE_CURVE ( 'NONE', #994, #913, #249, .T. ) ;
#319 = ADVANCED_FACE ( 'NONE', ( #560, #89, #332 ), #739, .F. ) ;
#320 = CARTESIAN_POINT ( 'NONE',  ( -61.49489816236790318, 9.000000000000047962, 32.00000000000000000 ) ) ;
#321 = ORIENTED_EDGE ( 'NONE', *, *, #867, .T. ) ;
#322 = CARTESIAN_POINT ( 'NONE',  ( -5.999999999999998224, 65.00000000000000000, 0.000000000000000000 ) ) ;
#323 = DIRECTION ( 'NONE',  ( -5.349805401075655245E-31, 1.927470528863118802E-16, -1.000000000000000000 ) ) ;
#324 = ORIENTED_EDGE ( 'NONE', *, *, #1016, .F. ) ;
#325 = FACE_OUTER_BOUND ( 'NONE', #283, .T. ) ;
#326 = AXIS2_PLACEMENT_3D ( 'NONE', #1044, #398, #74 ) ;
#327 = VECTOR ( 'NONE', #763, 1000.000000000000000 ) ;
#328 = PLANE ( 'NONE',  #661 ) ;
#329 = ORIENTED_EDGE ( 'NONE', *, *, #641, .T. ) ;
#330 = CARTESIAN_POINT ( 'NONE',  ( 61.94854719846139801, 5.000000000000001776, 32.00000000000000000 ) ) ;
#331 = ORIENTED_EDGE ( 'NONE', *, *, #124, .T. ) ;
#332 = FACE_OUTER_BOUND ( 'NONE', #770, .T. ) ;
#333 = ORIENTED_EDGE ( 'NONE', *, *, #735, .F. ) ;
#334 = EDGE_CURVE ( 'NONE', #15, #491, #171, .T. ) ;
#335 = CARTESIAN_POINT ( 'NONE',  ( -76.94854719846139801, 5.000000000000003553, -15.81138830084188918 ) ) ;
#336 = DIRECTION ( 'NONE',  ( -0.000000000000000000, -1.000000000000000000, 0.000000000000000000 ) ) ;
#337 = EDGE_LOOP ( 'NONE', ( #419, #494, #399, #825 ) ) ;
#338 = CARTESIAN_POINT ( 'NONE',  ( 71.15996658018580945, 4.999999999999986677, 27.00000000000002842 ) ) ;
#339 = EDGE_LOOP ( 'NONE', ( #58, #1013 ) ) ;
#340 = PLANE ( 'NONE',  #801 ) ;
#341 = AXIS2_PLACEMENT_3D ( 'NONE', #120, #604, #352 ) ;
#342 = VECTOR ( 'NONE', #713, 1000.000000000000000 ) ;
#343 = ORIENTED_EDGE ( 'NONE', *, *, #655, .F. ) ;
#344 = CARTESIAN_POINT ( 'NONE',  ( -69.44854719846139801, -0.001000000000001000089, 5.000000000000001776 ) ) ;
#345 = UNCERTAINTY_MEASURE_WITH_UNIT (LENGTH_MEASURE( 1.000000000000000082E-05 ), #919, 'distance_accuracy_value', 'NONE');
#346 = ORIENTED_EDGE ( 'NONE', *, *, #135, .T. ) ;
#347 = EDGE_CURVE ( 'NONE', #164, #882, #644, .T. ) ;
#348 = CARTESIAN_POINT ( 'NONE',  ( -57.14999999999999858, 0.000000000000000000, 32.00000000000000000 ) ) ;
#349 = DIRECTION ( 'NONE',  ( -1.000000000000000000, 0.000000000000000000, 0.000000000000000000 ) ) ;
#350 = APPLICATION_PROTOCOL_DEFINITION ( 'draft international standard', 'automotive_design', 1998, #253 ) ;
#351 = DIRECTION ( 'NONE',  ( 1.156482317317872218E-16, 1.000000000000000000, -0.000000000000000000 ) ) ;
#352 = DIRECTION ( 'NONE',  ( -1.000000000000000000, 0.000000000000000000, 0.000000000000000000 ) ) ;
#353 = EDGE_CURVE ( 'NONE', #821, #984, #652, .T. ) ;
#354 = DIRECTION ( 'NONE',  ( -1.000000000000000000, 1.156899083503402418E-16, 0.000000000000000000 ) ) ;
#355 = ORIENTED_EDGE ( 'NONE', *, *, #526, .F. ) ;
#356 = DIRECTION ( 'NONE',  ( -0.000000000000000000, -0.000000000000000000, -1.000000000000000000 ) ) ;
#357 = CARTESIAN_POINT ( 'NONE',  ( -57.14999999999999858, 0.000000000000000000, 32.00000000000000000 ) ) ;
#358 = AXIS2_PLACEMENT_3D ( 'NONE', #52, #750, #200 ) ;
#359 = VECTOR ( 'NONE', #1039, 1000.000000000000000 ) ;
#360 = ORIENTED_EDGE ( 'NONE', *, *, #448, .F. ) ;
#361 = AXIS2_PLACEMENT_3D ( 'NONE', #228, #78, #482 ) ;
#362 = ORIENTED_EDGE ( 'NONE', *, *, #674, .T. ) ;
#363 = FACE_OUTER_BOUND ( 'NONE', #103, .T. ) ;
#364 = LINE ( 'NONE', #531, #94 ) ;
#365 = ORIENTED_EDGE ( 'NONE', *, *, #621, .F. ) ;
#366 = CARTESIAN_POINT ( 'NONE',  ( 5.999999999999998224, 65.00000000000000000, 0.000000000000000000 ) ) ;
#367 = ORIENTED_EDGE ( 'NONE', *, *, #14, .T. ) ;
#368 = EDGE_CURVE ( 'NONE', #477, #15, #364, .T. ) ;
#369 = LINE ( 'NONE', #830, #631 ) ;
#370 = CARTESIAN_POINT ( 'NONE',  ( -61.69322378968849563, 7.525099039591524708, 21.94722916396736423 ) ) ;
#371 = ORIENTED_EDGE ( 'NONE', *, *, #956, .F. ) ;
#372 = VERTEX_POINT ( 'NONE', #357 ) ;
#373 = FACE_OUTER_BOUND ( 'NONE', #982, .T. ) ;
#374 = DIRECTION ( 'NONE',  ( -1.000000000000000000, -1.156482317317871971E-16, 0.000000000000000000 ) ) ;
#375 = FACE_OUTER_BOUND ( 'NONE', #846, .T. ) ;
#376 = VECTOR ( 'NONE', #40, 1000.000000000000000 ) ;
#377 = VECTOR ( 'NONE', #488, 1000.000000000000000 ) ;
#378 = ORIENTED_EDGE ( 'NONE', *, *, #590, .T. ) ;
#379 = VECTOR ( 'NONE', #969, 1000.000000000000000 ) ;
#380 = CARTESIAN_POINT ( 'NONE',  ( 5.999999999999964473, 61.85970012859745282, 32.00000000000000000 ) ) ;
#381 = CIRCLE ( 'NONE', #516, 1.711419381724405220 ) ;
#382 = AXIS2_PLACEMENT_3D ( 'NONE', #666, #195, #670 ) ;
#383 = DIRECTION ( 'NONE',  ( -1.000000000000000000, 0.000000000000000000, 0.000000000000000000 ) ) ;
#384 = LINE ( 'NONE', #226, #513 ) ;
#385 = ADVANCED_FACE ( 'NONE', ( #434 ), #51, .T. ) ;
#386 = ORIENTED_EDGE ( 'NONE', *, *, #885, .F. ) ;
#387 = CARTESIAN_POINT ( 'NONE',  ( 0.000000000000000000, 0.000000000000000000, 0.000000000000000000 ) ) ;
#388 = CARTESIAN_POINT ( 'NONE',  ( 5.999999999999998224, 65.00000000000000000, 32.00000000000000000 ) ) ;
#389 = CARTESIAN_POINT ( 'NONE',  ( -61.94854719846139801, 5.000000000000001776, 9.999999999999994671 ) ) ;
#390 = VERTEX_POINT ( 'NONE', #835 ) ;
#391 = CARTESIAN_POINT ( 'NONE',  ( -57.94854719846141222, 7.000000000000056843, 22.00000000000000000 ) ) ;
#392 = DIRECTION ( 'NONE',  ( -1.000000000000000000, 1.156899083503402418E-16, 0.000000000000000000 ) ) ;
#393 = DIRECTION ( 'NONE',  ( 1.000000000000000000, 2.775557561562891351E-15, -3.503246160812042677E-46 ) ) ;
#394 = ORIENTED_EDGE ( 'NONE', *, *, #334, .F. ) ;
#395 = CARTESIAN_POINT ( 'NONE',  ( -61.49489816236790318, 9.000000000000047962, 11.99999999999999645 ) ) ;
#396 = AXIS2_PLACEMENT_3D ( 'NONE', #155, #150, #880 ) ;
#397 = VECTOR ( 'NONE', #490, 1000.000000000000000 ) ;
#398 = DIRECTION ( 'NONE',  ( 1.156482317317871971E-16, 1.000000000000000000, -0.000000000000000000 ) ) ;
#399 = ORIENTED_EDGE ( 'NONE', *, *, #831, .F. ) ;
#400 = LINE ( 'NONE', #781, #447 ) ;
#401 = FACE_OUTER_BOUND ( 'NONE', #743, .T. ) ;
#402 = ORIENTED_EDGE ( 'NONE', *, *, #820, .F. ) ;
#403 = FACE_OUTER_BOUND ( 'NONE', #665, .T. ) ;
#404 = EDGE_CURVE ( 'NONE', #524, #598, #902, .T. ) ;
#405 = CARTESIAN_POINT ( 'NONE',  ( 5.999999999999998224, 65.00000000000000000, -15.81138830084188918 ) ) ;
#406 = ORIENTED_EDGE ( 'NONE', *, *, #724, .F. ) ;
#407 = CARTESIAN_POINT ( 'NONE',  ( -57.94854719846141933, 9.000000000000053291, 11.99999999999999822 ) ) ;
#408 = ORIENTED_EDGE ( 'NONE', *, *, #610, .F. ) ;
#409 = CIRCLE ( 'NONE', #358, 1.711419381724404332 ) ;
#410 = VECTOR ( 'NONE', #998, 1000.000000000000000 ) ;
#411 = VECTOR ( 'NONE', #470, 1000.000000000000000 ) ;
#412 = CARTESIAN_POINT ( 'NONE',  ( 71.15996658018580945, 4.999999999999986677, 5.000000000000036415 ) ) ;
#413 = EDGE_CURVE ( 'NONE', #544, #574, #214, .T. ) ;
#414 = ORIENTED_EDGE ( 'NONE', *, *, #829, .F. ) ;
#415 = DIRECTION ( 'NONE',  ( 1.000000000000000000, -0.000000000000000000, -0.000000000000000000 ) ) ;
#416 = DIRECTION ( 'NONE',  ( 0.000000000000000000, 0.000000000000000000, 1.000000000000000000 ) ) ;
#417 = ORIENTED_EDGE ( 'NONE', *, *, #79, .T. ) ;
#418 = CARTESIAN_POINT ( 'NONE',  ( 57.14999999999999858, 0.000000000000000000, 32.00000000000000000 ) ) ;
#419 = ORIENTED_EDGE ( 'NONE', *, *, #353, .F. ) ;
#420 = CARTESIAN_POINT ( 'NONE',  ( -76.94854719846142643, 9.000000000000001776, 11.99999999999999822 ) ) ;
#421 = ORIENTED_EDGE ( 'NONE', *, *, #404, .T. ) ;
#422 = CARTESIAN_POINT ( 'NONE',  ( 69.44854719846139801, 4.999999999999986677, 27.00000000000002842 ) ) ;
#423 = EDGE_CURVE ( 'NONE', #711, #12, #680, .T. ) ;
#424 = CARTESIAN_POINT ( 'NONE',  ( -5.999999999999998224, 65.00000000000000000, 32.00000000000000000 ) ) ;
#425 = ADVANCED_BREP_SHAPE_REPRESENTATION ( 'mocap_stick_holder', ( #475, #647 ), #551 ) ;
#426 = AXIS2_PLACEMENT_3D ( 'NONE', #553, #791, #709 ) ;
#427 = CIRCLE ( 'NONE', #1029, 57.14999999999999858 ) ;
#428 = ORIENTED_EDGE ( 'NONE', *, *, #950, .F. ) ;
#429 = AXIS2_PLACEMENT_3D ( 'NONE', #126, #430, #914 ) ;
#430 = DIRECTION ( 'NONE',  ( 1.156482317317871971E-16, 1.000000000000000000, -0.000000000000000000 ) ) ;
#431 = VERTEX_POINT ( 'NONE', #205 ) ;
#432 = CARTESIAN_POINT ( 'NONE',  ( 0.000000000000000000, 0.000000000000000000, 22.00000000000000711 ) ) ;
#433 = PRODUCT_DEFINITION ( 'UNKNOWN', '', #578, #996 ) ;
#434 = FACE_OUTER_BOUND ( 'NONE', #762, .T. ) ;
#435 = EDGE_LOOP ( 'NONE', ( #861, #41, #669, #955 ) ) ;
#436 = VERTEX_POINT ( 'NONE', #840 ) ;
#437 = CARTESIAN_POINT ( 'NONE',  ( 76.94854719846139801, 5.000000000000003553, 0.000000000000000000 ) ) ;
#438 = CARTESIAN_POINT ( 'NONE',  ( -61.52439023608517488, 8.796277633743001090, 20.88917126185192430 ) ) ;
#439 = CARTESIAN_POINT ( 'NONE',  ( -76.94854719846139801, 6.505213034913026604E-16, 9.999999999999996447 ) ) ;
#440 = VERTEX_POINT ( 'NONE', #285 ) ;
#441 = DIRECTION ( 'NONE',  ( 1.156482317317872218E-16, 1.000000000000000000, -0.000000000000000000 ) ) ;
#442 =( NAMED_UNIT ( * ) SI_UNIT ( $, .STERADIAN. ) SOLID_ANGLE_UNIT ( ) );
#443 = AXIS2_PLACEMENT_3D ( 'NONE', #286, #917, #193 ) ;
#444 = EDGE_CURVE ( 'NONE', #926, #390, #483, .T. ) ;
#445 = CIRCLE ( 'NONE', #1042, 1.711419381724407884 ) ;
#446 = DIRECTION ( 'NONE',  ( 0.000000000000000000, 0.000000000000000000, 1.000000000000000000 ) ) ;
#447 = VECTOR ( 'NONE', #220, 1000.000000000000000 ) ;
#448 = EDGE_CURVE ( 'NONE', #202, #303, #772, .T. ) ;
#449 = CARTESIAN_POINT ( 'NONE',  ( 0.000000000000000000, 0.000000000000000000, 9.999999999999994671 ) ) ;
#450 = ORIENTED_EDGE ( 'NONE', *, *, #444, .T. ) ;
#451 = VECTOR ( 'NONE', #535, 1000.000000000000000 ) ;
#452 = CARTESIAN_POINT ( 'NONE',  ( 0.000000000000000000, 0.000000000000000000, 32.00000000000000000 ) ) ;
#453 = CARTESIAN_POINT ( 'NONE',  ( -61.50426271173526516, 8.935817569289772777, 20.51932275575690667 ) ) ;
#454 = DIRECTION ( 'NONE',  ( -1.000000000000000000, -1.156482317317871971E-16, 0.000000000000000000 ) ) ;
#455 = VERTEX_POINT ( 'NONE', #424 ) ;
#456 = CARTESIAN_POINT ( 'NONE',  ( -5.999999999999998224, 65.00000000000000000, -15.81138830084188918 ) ) ;
#457 = CARTESIAN_POINT ( 'NONE',  ( -61.94854719846139091, 4.445005106148233547E-14, 22.00000000000000000 ) ) ;
#458 = CARTESIAN_POINT ( 'NONE',  ( 67.73712781673698657, 0.000000000000000000, 5.000000000000036415 ) ) ;
#459 = ORIENTED_EDGE ( 'NONE', *, *, #782, .F. ) ;
#460 = CARTESIAN_POINT ( 'NONE',  ( -5.999999999999998224, 65.00000000000000000, 32.00000000000000000 ) ) ;
#461 = EDGE_CURVE ( 'NONE', #505, #431, #255, .T. ) ;
#462 = PLANE ( 'NONE',  #9 ) ;
#463 = CYLINDRICAL_SURFACE ( 'NONE', #764, 1.711419381724407884 ) ;
#464 = VECTOR ( 'NONE', #628, 1000.000000000000000 ) ;
#465 = VECTOR ( 'NONE', #297, 1000.000000000000000 ) ;
#466 = ORIENTED_EDGE ( 'NONE', *, *, #618, .T. ) ;
#467 = PRODUCT_DEFINITION_SHAPE ( 'NONE', 'NONE',  #433 ) ;
#468 = CARTESIAN_POINT ( 'NONE',  ( 69.44854719846139801, 0.000000000000000000, 5.000000000000036415 ) ) ;
#469 = EDGE_CURVE ( 'NONE', #372, #667, #191, .T. ) ;
#470 = DIRECTION ( 'NONE',  ( 1.156482317317872218E-16, 1.000000000000000000, -0.000000000000000000 ) ) ;
#471 = PLANE ( 'NONE',  #326 ) ;
#472 = ORIENTED_EDGE ( 'NONE', *, *, #724, .T. ) ;
#473 = DIRECTION ( 'NONE',  ( -0.000000000000000000, -0.000000000000000000, -1.000000000000000000 ) ) ;
#474 = PLANE ( 'NONE',  #275 ) ;
#475 = MANIFOLD_SOLID_BREP ( '∂Øƒ - âüÇµèoÇµ2', #679 ) ;
#476 = DIRECTION ( 'NONE',  ( 1.000000000000000000, 2.775557561562891351E-15, -8.758115402030106693E-47 ) ) ;
#477 = VERTEX_POINT ( 'NONE', #1023 ) ;
#478 = CARTESIAN_POINT ( 'NONE',  ( -61.59081274243619930, 8.318832763292478560, 10.49080311692419265 ) ) ;
#479 = CARTESIAN_POINT ( 'NONE',  ( 6.000000000000000000, 61.85970012859745282, -15.81138830084188918 ) ) ;
#480 = EDGE_CURVE ( 'NONE', #1046, #994, #514, .T. ) ;
#481 = ORIENTED_EDGE ( 'NONE', *, *, #504, .F. ) ;
#482 = DIRECTION ( 'NONE',  ( -2.775557561562891351E-15, 1.000000000000000000, 0.000000000000000000 ) ) ;
#483 = CIRCLE ( 'NONE', #27, 1.711419381724404332 ) ;
#484 = VECTOR ( 'NONE', #145, 1000.000000000000000 ) ;
#485 = CARTESIAN_POINT ( 'NONE',  ( -76.94854719846139801, 4.336808689942017736E-15, 32.00000000000000000 ) ) ;
#486 = ORIENTED_EDGE ( 'NONE', *, *, #229, .T. ) ;
#487 = CARTESIAN_POINT ( 'NONE',  ( 69.44854719846139801, -0.001000000000016612600, 5.000000000000036415 ) ) ;
#488 = DIRECTION ( 'NONE',  ( 1.000000000000000000, -0.000000000000000000, -0.000000000000000000 ) ) ;
#489 = ORIENTED_EDGE ( 'NONE', *, *, #334, .T. ) ;
#490 = DIRECTION ( 'NONE',  ( -0.000000000000000000, -1.000000000000000000, -0.000000000000000000 ) ) ;
#491 = VERTEX_POINT ( 'NONE', #697 ) ;
#492 = EDGE_CURVE ( 'NONE', #544, #711, #291, .T. ) ;
#493 = DIRECTION ( 'NONE',  ( 0.000000000000000000, 0.000000000000000000, 1.000000000000000000 ) ) ;
#494 = ORIENTED_EDGE ( 'NONE', *, *, #824, .T. ) ;
#495 = LINE ( 'NONE', #97, #313 ) ;
#496 = ORIENTED_EDGE ( 'NONE', *, *, #304, .T. ) ;
#497 = VECTOR ( 'NONE', #565, 1000.000000000000000 ) ;
#498 = VECTOR ( 'NONE', #91, 1000.000000000000000 ) ;
#499 = CARTESIAN_POINT ( 'NONE',  ( 67.73712781673698657, 4.999999999999986677, 27.00000000000002842 ) ) ;
#500 = VERTEX_POINT ( 'NONE', #1038 ) ;
#501 = CYLINDRICAL_SURFACE ( 'NONE', #702, 1.711419381724407884 ) ;
#502 = ORIENTED_EDGE ( 'NONE', *, *, #918, .F. ) ;
#503 = CARTESIAN_POINT ( 'NONE',  ( -71.15996658018580945, 5.000000000000002665, 26.99999999999999289 ) ) ;
#504 = EDGE_CURVE ( 'NONE', #185, #298, #714, .T. ) ;
#505 = VERTEX_POINT ( 'NONE', #73 ) ;
#506 = ADVANCED_FACE ( 'NONE', ( #547 ), #474, .T. ) ;
#507 = EDGE_CURVE ( 'NONE', #29, #500, #445, .T. ) ;
#508 = CARTESIAN_POINT ( 'NONE',  ( 6.000000000000000000, 61.85970012859745282, 32.00000000000000000 ) ) ;
#509 = ORIENTED_EDGE ( 'NONE', *, *, #318, .F. ) ;
#510 = VERTEX_POINT ( 'NONE', #623 ) ;
#511 = CARTESIAN_POINT ( 'NONE',  ( -76.94854719846139801, 4.336808689942017736E-15, 22.00000000000000000 ) ) ;
#512 = AXIS2_PLACEMENT_3D ( 'NONE', #756, #35, #354 ) ;
#513 = VECTOR ( 'NONE', #393, 1000.000000000000000 ) ;
#514 = LINE ( 'NONE', #868, #922 ) ;
#515 = VECTOR ( 'NONE', #67, 1000.000000000000000 ) ;
#516 = AXIS2_PLACEMENT_3D ( 'NONE', #468, #879, #707 ) ;
#517 = DIRECTION ( 'NONE',  ( 3.083952846180990083E-15, -1.000000000000000000, -1.927470528863118802E-16 ) ) ;
#518 = DIRECTION ( 'NONE',  ( 0.000000000000000000, 0.000000000000000000, 1.000000000000000000 ) ) ;
#519 = ORIENTED_EDGE ( 'NONE', *, *, #1030, .F. ) ;
#520 = DIRECTION ( 'NONE',  ( -1.000000000000000000, 1.156482317317871971E-16, 0.000000000000000000 ) ) ;
#521 = PRESENTATION_STYLE_ASSIGNMENT (( #113 ) ) ;
#522 = CARTESIAN_POINT ( 'NONE',  ( 76.94854719846139801, 5.000000000000003553, -15.81138830084188918 ) ) ;
#523 = PRODUCT_CONTEXT ( 'NONE', #315, 'mechanical' ) ;
#524 = VERTEX_POINT ( 'NONE', #794 ) ;
#525 = DIRECTION ( 'NONE',  ( 0.000000000000000000, 0.000000000000000000, 1.000000000000000000 ) ) ;
#526 = EDGE_CURVE ( 'NONE', #390, #926, #128, .T. ) ;
#527 = CARTESIAN_POINT ( 'NONE',  ( -61.49489816236792450, 9.000000000000047962, 20.13259932184879020 ) ) ;
#528 = LINE ( 'NONE', #125, #783 ) ;
#529 = ORIENTED_EDGE ( 'NONE', *, *, #956, .T. ) ;
#530 = DIRECTION ( 'NONE',  ( -0.000000000000000000, -0.000000000000000000, -1.000000000000000000 ) ) ;
#531 = CARTESIAN_POINT ( 'NONE',  ( 76.94854719846139801, 4.336808689942017736E-15, 0.000000000000000000 ) ) ;
#532 = VECTOR ( 'NONE', #163, 1000.000000000000000 ) ;
#533 = VERTEX_POINT ( 'NONE', #300 ) ;
#534 = VECTOR ( 'NONE', #248, 1000.000000000000000 ) ;
#535 = DIRECTION ( 'NONE',  ( -1.000000000000000000, 1.156482317317871971E-16, 5.572713959453807802E-31 ) ) ;
#536 = EDGE_LOOP ( 'NONE', ( #970, #585 ) ) ;
#537 = CARTESIAN_POINT ( 'NONE',  ( -76.94854719846139801, 5.000000000000003553, -15.81138830084188918 ) ) ;
#538 = CARTESIAN_POINT ( 'NONE',  ( 69.44854719846139801, -0.001000000000016612600, 27.00000000000002842 ) ) ;
#539 = EDGE_CURVE ( 'NONE', #821, #904, #784, .T. ) ;
#540 = ORIENTED_EDGE ( 'NONE', *, *, #633, .T. ) ;
#541 = CARTESIAN_POINT ( 'NONE',  ( -61.55403616031745884, 8.586536671887513350, 10.77518745181104798 ) ) ;
#542 = LINE ( 'NONE', #552, #411 ) ;
#543 = CARTESIAN_POINT ( 'NONE',  ( -71.15996658018580945, -0.001000000000000802114, 26.99999999999999289 ) ) ;
#544 = VERTEX_POINT ( 'NONE', #457 ) ;
#545 = CYLINDRICAL_SURFACE ( 'NONE', #62, 57.14999999999999858 ) ;
#546 = EDGE_CURVE ( 'NONE', #491, #939, #627, .T. ) ;
#547 = FACE_OUTER_BOUND ( 'NONE', #582, .T. ) ;
#548 = DIRECTION ( 'NONE',  ( 1.156482317317872218E-16, 1.000000000000000000, -0.000000000000000000 ) ) ;
#549 = EDGE_LOOP ( 'NONE', ( #901, #848, #540, #481 ) ) ;
#550 = CARTESIAN_POINT ( 'NONE',  ( 69.44854719846139801, 4.999999999999986677, 27.00000000000002842 ) ) ;
#551 =( GEOMETRIC_REPRESENTATION_CONTEXT ( 3 ) GLOBAL_UNCERTAINTY_ASSIGNED_CONTEXT ( ( #345 ) ) GLOBAL_UNIT_ASSIGNED_CONTEXT ( ( #919, #606, #684 ) ) REPRESENTATION_CONTEXT ( 'NONE', 'WORKASPACE' ) );
#552 = CARTESIAN_POINT ( 'NONE',  ( 67.73712781673698657, -0.001000000000016414625, 27.00000000000002842 ) ) ;
#553 = CARTESIAN_POINT ( 'NONE',  ( -57.94854719846141222, 7.000000000000053291, 11.99999999999999822 ) ) ;
#554 = ORIENTED_EDGE ( 'NONE', *, *, #526, .T. ) ;
#555 = DIRECTION ( 'NONE',  ( 0.000000000000000000, 0.000000000000000000, 1.000000000000000000 ) ) ;
#556 = ADVANCED_FACE ( 'NONE', ( #221 ), #617, .F. ) ;
#557 = LINE ( 'NONE', #961, #379 ) ;
#558 = ORIENTED_EDGE ( 'NONE', *, *, #118, .T. ) ;
#559 = CARTESIAN_POINT ( 'NONE',  ( -61.69398894127240141, 7.516028709068404368, 10.06335920529277672 ) ) ;
#560 = FACE_BOUND ( 'NONE', #234, .T. ) ;
#561 = ORIENTED_EDGE ( 'NONE', *, *, #210, .F. ) ;
#562 = CYLINDRICAL_SURFACE ( 'NONE', #767, 2.000000000000000000 ) ;
#563 = VECTOR ( 'NONE', #476, 1000.000000000000000 ) ;
#564 = VECTOR ( 'NONE', #1015, 1000.000000000000000 ) ;
#565 = DIRECTION ( 'NONE',  ( 1.000000000000000000, 0.000000000000000000, 0.000000000000000000 ) ) ;
#566 = EDGE_LOOP ( 'NONE', ( #276, #268, #227, #428, #694, #329, #263, #746, #83, #891, #196, #589 ) ) ;
#567 = EDGE_CURVE ( 'NONE', #37, #256, #542, .T. ) ;
#568 = CARTESIAN_POINT ( 'NONE',  ( -76.94854719846139801, 5.000000000000003553, 32.00000000000000000 ) ) ;
#569 = CARTESIAN_POINT ( 'NONE',  ( 76.94854719846139801, 5.000000000000003553, -15.81138830084188918 ) ) ;
#570 = VERTEX_POINT ( 'NONE', #876 ) ;
#571 = DIRECTION ( 'NONE',  ( 0.000000000000000000, 0.000000000000000000, 1.000000000000000000 ) ) ;
#572 = ORIENTED_EDGE ( 'NONE', *, *, #832, .F. ) ;
#573 = DIRECTION ( 'NONE',  ( 1.000000000000000000, -1.156482317317871971E-16, 2.229085583781523121E-30 ) ) ;
#574 = VERTEX_POINT ( 'NONE', #693 ) ;
#575 = CARTESIAN_POINT ( 'NONE',  ( -76.94854719846142643, 7.000000000000003553, 22.00000000000000000 ) ) ;
#576 = ORIENTED_EDGE ( 'NONE', *, *, #75, .F. ) ;
#577 = VECTOR ( 'NONE', #374, 1000.000000000000000 ) ;
#578 = PRODUCT_DEFINITION_FORMATION_WITH_SPECIFIED_SOURCE ( 'ANY', '', #1019, .NOT_KNOWN. ) ;
#579 = CARTESIAN_POINT ( 'NONE',  ( -57.14999999999999858, 0.000000000000000000, 0.000000000000000000 ) ) ;
#580 = ORIENTED_EDGE ( 'NONE', *, *, #692, .T. ) ;
#581 = DIRECTION ( 'NONE',  ( -0.000000000000000000, -1.000000000000000000, 0.000000000000000000 ) ) ;
#582 = EDGE_LOOP ( 'NONE', ( #509, #272, #592, #151 ) ) ;
#583 = CARTESIAN_POINT ( 'NONE',  ( -76.94854719846139801, 2.022106766372753962E-13, 16.00000000000000000 ) ) ;
#584 = ADVANCED_FACE ( 'NONE', ( #225 ), #462, .T. ) ;
#585 = ORIENTED_EDGE ( 'NONE', *, *, #692, .F. ) ;
#586 = CARTESIAN_POINT ( 'NONE',  ( 0.000000000000000000, 0.000000000000000000, 0.000000000000000000 ) ) ;
#587 = DIRECTION ( 'NONE',  ( 0.000000000000000000, 0.000000000000000000, 1.000000000000000000 ) ) ;
#588 =( LENGTH_UNIT ( ) NAMED_UNIT ( * ) SI_UNIT ( .MILLI., .METRE. ) );
#589 = ORIENTED_EDGE ( 'NONE', *, *, #1030, .T. ) ;
#590 = EDGE_CURVE ( 'NONE', #913, #455, #953, .T. ) ;
#591 = DIRECTION ( 'NONE',  ( 0.000000000000000000, 1.000000000000000000, 1.953831750899058630E-16 ) ) ;
#592 = ORIENTED_EDGE ( 'NONE', *, *, #710, .T. ) ;
#593 = DIRECTION ( 'NONE',  ( -0.000000000000000000, 0.000000000000000000, -1.000000000000000000 ) ) ;
#594 = AXIS2_PLACEMENT_3D ( 'NONE', #583, #600, #937 ) ;
#595 = SURFACE_STYLE_FILL_AREA ( #749 ) ;
#596 = CIRCLE ( 'NONE', #818, 1.711419381724404332 ) ;
#597 = ORIENTED_EDGE ( 'NONE', *, *, #413, .F. ) ;
#598 = VERTEX_POINT ( 'NONE', #307 ) ;
#599 = CARTESIAN_POINT ( 'NONE',  ( -57.14999999999999858, 0.000000000000000000, 0.000000000000000000 ) ) ;
#600 = DIRECTION ( 'NONE',  ( -1.000000000000000000, -2.775557561562891351E-15, 0.000000000000000000 ) ) ;
#601 = CARTESIAN_POINT ( 'NONE',  ( 0.000000000000000000, 0.000000000000000000, 32.00000000000000000 ) ) ;
#602 = ORIENTED_EDGE ( 'NONE', *, *, #968, .T. ) ;
#603 = DIRECTION ( 'NONE',  ( -1.000000000000000000, 1.156899083503402418E-16, 0.000000000000000000 ) ) ;
#604 = DIRECTION ( 'NONE',  ( 0.000000000000000000, 0.000000000000000000, 1.000000000000000000 ) ) ;
#605 = LINE ( 'NONE', #439, #25 ) ;
#606 =( NAMED_UNIT ( * ) PLANE_ANGLE_UNIT ( ) SI_UNIT ( $, .RADIAN. ) );
#607 = ORIENTED_EDGE ( 'NONE', *, *, #899, .T. ) ;
#608 = DIRECTION ( 'NONE',  ( 1.000000000000000000, 0.000000000000000000, 0.000000000000000000 ) ) ;
#609 = DIRECTION ( 'NONE',  ( -1.000000000000000000, 0.000000000000000000, 0.000000000000000000 ) ) ;
#610 = EDGE_CURVE ( 'NONE', #219, #436, #130, .T. ) ;
#611 = PRESENTATION_LAYER_ASSIGNMENT (  '', '', ( #192 ) ) ;
#612 = LINE ( 'NONE', #579, #377 ) ;
#613 = CIRCLE ( 'NONE', #162, 1.711419381724407884 ) ;
#614 = ORIENTED_EDGE ( 'NONE', *, *, #368, .F. ) ;
#615 = AXIS2_PLACEMENT_3D ( 'NONE', #201, #287, #115 ) ;
#616 = CARTESIAN_POINT ( 'NONE',  ( -61.75453424648265610, 7.000000000000042633, 9.999999999999996447 ) ) ;
#617 = CYLINDRICAL_SURFACE ( 'NONE', #244, 1.711419381724407884 ) ;
#618 = EDGE_CURVE ( 'NONE', #164, #500, #690, .T. ) ;
#619 = FACE_OUTER_BOUND ( 'NONE', #878, .T. ) ;
#620 = ORIENTED_EDGE ( 'NONE', *, *, #61, .F. ) ;
#621 = EDGE_CURVE ( 'NONE', #372, #751, #427, .T. ) ;
#622 = CARTESIAN_POINT ( 'NONE',  ( -61.50279563420995999, 8.946447566098738591, 11.47135346925116473 ) ) ;
#623 = CARTESIAN_POINT ( 'NONE',  ( 71.15996658018580945, 0.000000000000000000, 5.000000000000036415 ) ) ;
#624 = CARTESIAN_POINT ( 'NONE',  ( -67.73712781673698657, -0.001000000000001198064, 26.99999999999999289 ) ) ;
#625 = ORIENTED_EDGE ( 'NONE', *, *, #805, .T. ) ;
#626 = LINE ( 'NONE', #957, #342 ) ;
#627 = LINE ( 'NONE', #149, #577 ) ;
#628 = DIRECTION ( 'NONE',  ( 1.156482317317872218E-16, 1.000000000000000000, -0.000000000000000000 ) ) ;
#629 = VECTOR ( 'NONE', #1031, 1000.000000000000000 ) ;
#630 = VERTEX_POINT ( 'NONE', #923 ) ;
#631 = VECTOR ( 'NONE', #587, 1000.000000000000000 ) ;
#632 = CARTESIAN_POINT ( 'NONE',  ( -61.64800491752441758, 7.884213333455774020, 10.20131848499531024 ) ) ;
#633 = EDGE_CURVE ( 'NONE', #288, #298, #64, .T. ) ;
#634 = CARTESIAN_POINT ( 'NONE',  ( -71.15996658018580945, 0.000000000000000000, 5.000000000000001776 ) ) ;
#635 = ORIENTED_EDGE ( 'NONE', *, *, #610, .T. ) ;
#636 = DIRECTION ( 'NONE',  ( -0.000000000000000000, -1.000000000000000000, -0.000000000000000000 ) ) ;
#637 = FACE_BOUND ( 'NONE', #897, .T. ) ;
#638 = ORIENTED_EDGE ( 'NONE', *, *, #735, .T. ) ;
#639 = LINE ( 'NONE', #257, #498 ) ;
#640 = CARTESIAN_POINT ( 'NONE',  ( -57.94854719846139091, 5.555451931815724720E-14, 22.00000000000000711 ) ) ;
#641 = EDGE_CURVE ( 'NONE', #533, #12, #672, .T. ) ;
#642 = AXIS2_PLACEMENT_3D ( 'NONE', #601, #932, #206 ) ;
#643 = ORIENTED_EDGE ( 'NONE', *, *, #70, .T. ) ;
#644 = CIRCLE ( 'NONE', #243, 1.711419381724404332 ) ;
#645 = CARTESIAN_POINT ( 'NONE',  ( -57.94854719846141222, 7.000000000000055067, 19.99999999999999645 ) ) ;
#646 = AXIS2_PLACEMENT_3D ( 'NONE', #550, #299, #85 ) ;
#647 = AXIS2_PLACEMENT_3D ( 'NONE', #586, #757, #36 ) ;
#648 = CYLINDRICAL_SURFACE ( 'NONE', #109, 5.999999999999999112 ) ;
#649 = EDGE_CURVE ( 'NONE', #882, #29, #129, .T. ) ;
#650 = EDGE_LOOP ( 'NONE', ( #638, #572, #365, #247 ) ) ;
#651 = LINE ( 'NONE', #322, #30 ) ;
#652 = LINE ( 'NONE', #983, #816 ) ;
#653 = ORIENTED_EDGE ( 'NONE', *, *, #197, .F. ) ;
#654 = LINE ( 'NONE', #28, #906 ) ;
#655 = EDGE_CURVE ( 'NONE', #15, #773, #215, .T. ) ;
#656 = ADVANCED_FACE ( 'NONE', ( #696, #1026 ), #678, .T. ) ;
#657 = CARTESIAN_POINT ( 'NONE',  ( -6.000000000000000000, 61.85970012859745282, 32.00000000000000000 ) ) ;
#658 = ORIENTED_EDGE ( 'NONE', *, *, #404, .F. ) ;
#659 = LINE ( 'NONE', #568, #960 ) ;
#660 = ORIENTED_EDGE ( 'NONE', *, *, #480, .T. ) ;
#661 = AXIS2_PLACEMENT_3D ( 'NONE', #907, #323, #166 ) ;
#662 = VECTOR ( 'NONE', #351, 1000.000000000000000 ) ;
#663 = AXIS2_PLACEMENT_3D ( 'NONE', #418, #731, #11 ) ;
#664 = DIRECTION ( 'NONE',  ( 2.312964634635743056E-15, -1.000000000000000000, 0.000000000000000000 ) ) ;
#665 = EDGE_LOOP ( 'NONE', ( #134, #828, #121, #279 ) ) ;
#666 = CARTESIAN_POINT ( 'NONE',  ( -76.94854719846139801, 7.000000000000001776, 19.99999999999999645 ) ) ;
#667 = VERTEX_POINT ( 'NONE', #599 ) ;
#668 = CARTESIAN_POINT ( 'NONE',  ( -61.60326587547623944, 8.227685727466097276, 21.60021289382662957 ) ) ;
#669 = ORIENTED_EDGE ( 'NONE', *, *, #539, .F. ) ;
#670 = DIRECTION ( 'NONE',  ( 0.000000000000000000, 0.000000000000000000, 1.000000000000000000 ) ) ;
#671 = ORIENTED_EDGE ( 'NONE', *, *, #47, .F. ) ;
#672 = LINE ( 'NONE', #942, #564 ) ;
#673 = CARTESIAN_POINT ( 'NONE',  ( -61.53319788373649857, 8.734612946913507869, 21.00411028364458232 ) ) ;
#674 = EDGE_CURVE ( 'NONE', #1046, #797, #369, .T. ) ;
#675 = LINE ( 'NONE', #761, #376 ) ;
#676 = CARTESIAN_POINT ( 'NONE',  ( -61.94854719846139801, 5.000000000000001776, 22.00000000000000000 ) ) ;
#677 = ORIENTED_EDGE ( 'NONE', *, *, #854, .F. ) ;
#678 = PLANE ( 'NONE',  #803 ) ;
#679 = CLOSED_SHELL ( 'NONE', ( #556, #936, #741, #55, #77, #385, #302, #319, #775, #938, #691, #790, #148, #506, #1014, #306, #22, #656, #584, #718, #259, #277, #266, #777, #100, #930, #211, #140, #39, #987 ) ) ;
#680 = CIRCLE ( 'NONE', #594, 5.999999999999999112 ) ;
#681 = CARTESIAN_POINT ( 'NONE',  ( -61.63279767241391482, 8.004950230422309687, 21.74857240420840299 ) ) ;
#682 = VECTOR ( 'NONE', #295, 1000.000000000000000 ) ;
#683 = VERTEX_POINT ( 'NONE', #858 ) ;
#684 =( NAMED_UNIT ( * ) SI_UNIT ( $, .STERADIAN. ) SOLID_ANGLE_UNIT ( ) );
#685 = ORIENTED_EDGE ( 'NONE', *, *, #240, .F. ) ;
#686 = PLANE ( 'NONE',  #852 ) ;
#687 = CARTESIAN_POINT ( 'NONE',  ( -76.94854719846139801, 6.123233995736875737E-16, 10.00000000000000000 ) ) ;
#688 = FACE_OUTER_BOUND ( 'NONE', #815, .T. ) ;
#689 = ORIENTED_EDGE ( 'NONE', *, *, #968, .F. ) ;
#690 = LINE ( 'NONE', #849, #662 ) ;
#691 = ADVANCED_FACE ( 'NONE', ( #203 ), #38, .F. ) ;
#692 = EDGE_CURVE ( 'NONE', #630, #37, #596, .T. ) ;
#693 = CARTESIAN_POINT ( 'NONE',  ( -61.94854719846139091, 4.224568682301705863E-14, 10.00000000000000000 ) ) ;
#694 = ORIENTED_EDGE ( 'NONE', *, *, #964, .T. ) ;
#695 = ORIENTED_EDGE ( 'NONE', *, *, #70, .F. ) ;
#696 = FACE_BOUND ( 'NONE', #989, .T. ) ;
#697 = CARTESIAN_POINT ( 'NONE',  ( 76.94854719846139801, 5.000000000000003553, 32.00000000000000000 ) ) ;
#698 = AXIS2_PLACEMENT_3D ( 'NONE', #979, #884, #24 ) ;
#699 = CARTESIAN_POINT ( 'NONE',  ( -69.44854719846139801, -0.001000000000001000089, 26.99999999999999289 ) ) ;
#700 = CIRCLE ( 'NONE', #147, 57.14999999999999858 ) ;
#701 = EDGE_LOOP ( 'NONE', ( #71, #459 ) ) ;
#702 = AXIS2_PLACEMENT_3D ( 'NONE', #487, #985, #822 ) ;
#703 = DIRECTION ( 'NONE',  ( -1.000000000000000000, 0.000000000000000000, 0.000000000000000000 ) ) ;
#704 = DIRECTION ( 'NONE',  ( 0.000000000000000000, 0.000000000000000000, 1.000000000000000000 ) ) ;
#705 = CARTESIAN_POINT ( 'NONE',  ( 76.94854719846139801, 4.336808689942017736E-15, -15.81138830084188918 ) ) ;
#706 = ORIENTED_EDGE ( 'NONE', *, *, #210, .T. ) ;
#707 = DIRECTION ( 'NONE',  ( 0.000000000000000000, 0.000000000000000000, 1.000000000000000000 ) ) ;
#708 = DIRECTION ( 'NONE',  ( -1.000000000000000000, 0.000000000000000000, 0.000000000000000000 ) ) ;
#709 = DIRECTION ( 'NONE',  ( 3.469446951953614189E-15, -1.000000000000000000, 0.000000000000000000 ) ) ;
#710 = EDGE_CURVE ( 'NONE', #980, #455, #771, .T. ) ;
#711 = VERTEX_POINT ( 'NONE', #511 ) ;
#712 = EDGE_CURVE ( 'NONE', #431, #984, #178, .T. ) ;
#713 = DIRECTION ( 'NONE',  ( 0.000000000000000000, 0.000000000000000000, 1.000000000000000000 ) ) ;
#714 = LINE ( 'NONE', #56, #730 ) ;
#715 = FACE_OUTER_BOUND ( 'NONE', #855, .T. ) ;
#716 = AXIS2_PLACEMENT_3D ( 'NONE', #1034, #232, #863 ) ;
#717 = ORIENTED_EDGE ( 'NONE', *, *, #444, .F. ) ;
#718 = ADVANCED_FACE ( 'NONE', ( #363 ), #686, .T. ) ;
#719 = CIRCLE ( 'NONE', #646, 1.711419381724407884 ) ;
#720 = CARTESIAN_POINT ( 'NONE',  ( 76.94854719846139801, 4.336808689942017736E-15, 32.00000000000000000 ) ) ;
#721 = LINE ( 'NONE', #320, #943 ) ;
#722 = ORIENTED_EDGE ( 'NONE', *, *, #290, .F. ) ;
#723 = CARTESIAN_POINT ( 'NONE',  ( -61.67842872956557443, 7.642562374652695389, 10.10152640098388055 ) ) ;
#724 = EDGE_CURVE ( 'NONE', #524, #282, #54, .T. ) ;
#725 = CARTESIAN_POINT ( 'NONE',  ( -57.14999999999999858, 0.000000000000000000, 32.00000000000000000 ) ) ;
#726 = ORIENTED_EDGE ( 'NONE', *, *, #154, .T. ) ;
#727 = CARTESIAN_POINT ( 'NONE',  ( -76.94854719846139801, 4.336808689942017736E-15, 32.00000000000000000 ) ) ;
#728 = DIRECTION ( 'NONE',  ( 0.000000000000000000, 1.000000000000000000, -0.000000000000000000 ) ) ;
#729 = ORIENTED_EDGE ( 'NONE', *, *, #318, .T. ) ;
#730 = VECTOR ( 'NONE', #217, 1000.000000000000000 ) ;
#731 = DIRECTION ( 'NONE',  ( 0.000000000000000000, 1.000000000000000000, 0.000000000000000000 ) ) ;
#732 = ORIENTED_EDGE ( 'NONE', *, *, #760, .F. ) ;
#733 = AXIS2_PLACEMENT_3D ( 'NONE', #449, #271, #591 ) ;
#734 = DIRECTION ( 'NONE',  ( -1.000000000000000000, 0.000000000000000000, 0.000000000000000000 ) ) ;
#735 = EDGE_CURVE ( 'NONE', #667, #946, #700, .T. ) ;
#736 = ORIENTED_EDGE ( 'NONE', *, *, #504, .T. ) ;
#737 = DIRECTION ( 'NONE',  ( 0.000000000000000000, 1.836970198721067158E-16, 1.000000000000000000 ) ) ;
#738 = ORIENTED_EDGE ( 'NONE', *, *, #747, .F. ) ;
#739 = PLANE ( 'NONE',  #311 ) ;
#740 = ORIENTED_EDGE ( 'NONE', *, *, #964, .F. ) ;
#741 = ADVANCED_FACE ( 'NONE', ( #373 ), #284, .F. ) ;
#742 = DIRECTION ( 'NONE',  ( 1.156482317317871971E-16, 1.000000000000000000, 0.000000000000000000 ) ) ;
#743 = EDGE_LOOP ( 'NONE', ( #26, #620, #597, #787 ) ) ;
#744 = CARTESIAN_POINT ( 'NONE',  ( 57.14999999999999858, 0.000000000000000000, 32.00000000000000000 ) ) ;
#745 = ORIENTED_EDGE ( 'NONE', *, *, #655, .T. ) ;
#746 = ORIENTED_EDGE ( 'NONE', *, *, #999, .T. ) ;
#747 = EDGE_CURVE ( 'NONE', #185, #510, #977, .T. ) ;
#748 = AXIS2_PLACEMENT_3D ( 'NONE', #811, #3, #903 ) ;
#749 = FILL_AREA_STYLE ('',( #912 ) ) ;
#750 = DIRECTION ( 'NONE',  ( -0.000000000000000000, -1.000000000000000000, -0.000000000000000000 ) ) ;
#751 = VERTEX_POINT ( 'NONE', #317 ) ;
#752 = CARTESIAN_POINT ( 'NONE',  ( -69.44854719846139801, 5.000000000000002665, 26.99999999999999289 ) ) ;
#753 = EDGE_CURVE ( 'NONE', #946, #477, #400, .T. ) ;
#754 = CARTESIAN_POINT ( 'NONE',  ( -61.94854719846139091, 2.438440400607187917E-13, 16.00000000000000000 ) ) ;
#755 = EDGE_CURVE ( 'NONE', #773, #1046, #870, .T. ) ;
#756 = CARTESIAN_POINT ( 'NONE',  ( -69.44854719846139801, -0.001000000000001000089, 26.99999999999999289 ) ) ;
#757 = DIRECTION ( 'NONE',  ( 0.000000000000000000, 0.000000000000000000, 1.000000000000000000 ) ) ;
#758 = ORIENTED_EDGE ( 'NONE', *, *, #507, .F. ) ;
#759 = DIRECTION ( 'NONE',  ( 0.000000000000000000, 0.000000000000000000, 1.000000000000000000 ) ) ;
#760 = EDGE_CURVE ( 'NONE', #87, #491, #60, .T. ) ;
#761 = CARTESIAN_POINT ( 'NONE',  ( -61.94854719846139091, 4.224568682301705863E-14, 10.00000000000000000 ) ) ;
#762 = EDGE_LOOP ( 'NONE', ( #941, #966, #1021, #558, #156, #187, #116, #53, #406, #421 ) ) ;
#763 = DIRECTION ( 'NONE',  ( -1.000000000000000000, -1.156482317317871971E-16, 0.000000000000000000 ) ) ;
#764 = AXIS2_PLACEMENT_3D ( 'NONE', #538, #548, #236 ) ;
#765 = CARTESIAN_POINT ( 'NONE',  ( -76.94854719846142643, 9.000000000000001776, 9.999999999999998224 ) ) ;
#766 = VECTOR ( 'NONE', #165, 1000.000000000000000 ) ;
#767 = AXIS2_PLACEMENT_3D ( 'NONE', #645, #889, #978 ) ;
#768 = ORIENTED_EDGE ( 'NONE', *, *, #124, .F. ) ;
#769 = DIRECTION ( 'NONE',  ( -1.000000000000000000, 1.156899083503402418E-16, 0.000000000000000000 ) ) ;
#770 = EDGE_LOOP ( 'NONE', ( #386, #865, #105, #486, #1032, #371, #976, #250 ) ) ;
#771 = LINE ( 'NONE', #456, #924 ) ;
#772 = LINE ( 'NONE', #765, #410 ) ;
#773 = VERTEX_POINT ( 'NONE', #874 ) ;
#774 = ORIENTED_EDGE ( 'NONE', *, *, #480, .F. ) ;
#775 = ADVANCED_FACE ( 'NONE', ( #160 ), #545, .F. ) ;
#776 = DIRECTION ( 'NONE',  ( -2.775557561562891351E-15, 1.000000000000000000, -1.445602896647339163E-16 ) ) ;
#777 = ADVANCED_FACE ( 'NONE', ( #866 ), #305, .F. ) ;
#778 = DIRECTION ( 'NONE',  ( -3.083952846180990478E-15, 1.000000000000000000, -7.709882115452476194E-16 ) ) ;
#779 = DIRECTION ( 'NONE',  ( 0.000000000000000000, 0.000000000000000000, 1.000000000000000000 ) ) ;
#780 = VERTEX_POINT ( 'NONE', #238 ) ;
#781 = CARTESIAN_POINT ( 'NONE',  ( 57.14999999999999858, 0.000000000000000000, 0.000000000000000000 ) ) ;
#782 = EDGE_CURVE ( 'NONE', #857, #256, #719, .T. ) ;
#783 = VECTOR ( 'NONE', #222, 1000.000000000000000 ) ;
#784 = LINE ( 'NONE', #944, #261 ) ;
#785 = VECTOR ( 'NONE', #184, 1000.000000000000000 ) ;
#786 = LINE ( 'NONE', #1035, #920 ) ;
#787 = ORIENTED_EDGE ( 'NONE', *, *, #492, .T. ) ;
#788 = LINE ( 'NONE', #391, #515 ) ;
#789 = CARTESIAN_POINT ( 'NONE',  ( 5.999999999999998224, 65.00000000000000000, -15.81138830084188918 ) ) ;
#790 = ADVANCED_FACE ( 'NONE', ( #157 ), #224, .T. ) ;
#791 = DIRECTION ( 'NONE',  ( -1.000000000000000000, -2.775557561562891351E-15, 8.758115402030106693E-47 ) ) ;
#792 = ORIENTED_EDGE ( 'NONE', *, *, #347, .F. ) ;
#793 = CARTESIAN_POINT ( 'NONE',  ( -61.63321254114777048, 7.998849362365521465, 10.26239210324404816 ) ) ;
#794 = CARTESIAN_POINT ( 'NONE',  ( -6.000000000000000000, 61.85970012859745282, 0.000000000000000000 ) ) ;
#795 = EDGE_CURVE ( 'NONE', #683, #440, #119, .T. ) ;
#796 = CYLINDRICAL_SURFACE ( 'NONE', #426, 2.000000000000000000 ) ;
#797 = VERTEX_POINT ( 'NONE', #380 ) ;
#798 = CARTESIAN_POINT ( 'NONE',  ( 69.44854719846139801, 0.000000000000000000, 5.000000000000036415 ) ) ;
#799 = CARTESIAN_POINT ( 'NONE',  ( -57.94854719846141222, 7.000000000000053291, 9.999999999999998224 ) ) ;
#800 = AXIS2_PLACEMENT_3D ( 'NONE', #522, #132, #454 ) ;
#801 = AXIS2_PLACEMENT_3D ( 'NONE', #640, #245, #176 ) ;
#802 = VERTEX_POINT ( 'NONE', #152 ) ;
#803 = AXIS2_PLACEMENT_3D ( 'NONE', #537, #1003, #520 ) ;
#804 = DIRECTION ( 'NONE',  ( -1.000000000000000000, 0.000000000000000000, 0.000000000000000000 ) ) ;
#805 = EDGE_CURVE ( 'NONE', #455, #282, #963, .T. ) ;
#806 = FACE_OUTER_BOUND ( 'NONE', #435, .T. ) ;
#807 = ORIENTED_EDGE ( 'NONE', *, *, #831, .T. ) ;
#808 = CARTESIAN_POINT ( 'NONE',  ( -61.94854719846139801, 5.000000000000001776, -15.81138830084188918 ) ) ;
#809 = CARTESIAN_POINT ( 'NONE',  ( -69.44854719846139801, 5.000000000000002665, 5.000000000000001776 ) ) ;
#810 = ORIENTED_EDGE ( 'NONE', *, *, #79, .F. ) ;
#811 = CARTESIAN_POINT ( 'NONE',  ( -69.44854719846139801, 5.000000000000002665, 26.99999999999999289 ) ) ;
#812 = ORIENTED_EDGE ( 'NONE', *, *, #898, .F. ) ;
#813 = EDGE_CURVE ( 'NONE', #510, #185, #381, .T. ) ;
#814 = CARTESIAN_POINT ( 'NONE',  ( -69.44854719846139801, 0.000000000000000000, 5.000000000000001776 ) ) ;
#815 = EDGE_LOOP ( 'NONE', ( #1007, #127, #472, #265 ) ) ;
#816 = VECTOR ( 'NONE', #573, 1000.000000000000000 ) ;
#817 = CARTESIAN_POINT ( 'NONE',  ( 5.999999999999998224, 65.00000000000000000, 32.00000000000000000 ) ) ;
#818 = AXIS2_PLACEMENT_3D ( 'NONE', #136, #190, #525 ) ;
#819 = CARTESIAN_POINT ( 'NONE',  ( 76.94854719846139801, 4.336808689942017736E-15, -15.81138830084188918 ) ) ;
#820 = EDGE_CURVE ( 'NONE', #431, #904, #788, .T. ) ;
#821 = VERTEX_POINT ( 'NONE', #1037 ) ;
#822 = DIRECTION ( 'NONE',  ( -1.000000000000000000, 1.156899083503402418E-16, 0.000000000000000000 ) ) ;
#823 = DIRECTION ( 'NONE',  ( -1.000000000000000000, -2.775557561562891351E-15, -0.000000000000000000 ) ) ;
#824 = EDGE_CURVE ( 'NONE', #821, #780, #626, .T. ) ;
#825 = ORIENTED_EDGE ( 'NONE', *, *, #881, .F. ) ;
#826 = LINE ( 'NONE', #106, #81 ) ;
#827 = CARTESIAN_POINT ( 'NONE',  ( -69.44854719846139801, 0.000000000000000000, 26.99999999999999289 ) ) ;
#828 = ORIENTED_EDGE ( 'NONE', *, *, #197, .T. ) ;
#829 = EDGE_CURVE ( 'NONE', #440, #303, #180, .T. ) ;
#830 = CARTESIAN_POINT ( 'NONE',  ( 6.000000000000000000, 61.85970012859745282, -15.81138830084188918 ) ) ;
#831 = EDGE_CURVE ( 'NONE', #802, #780, #659, .T. ) ;
#832 = EDGE_CURVE ( 'NONE', #751, #946, #639, .T. ) ;
#833 = AXIS2_PLACEMENT_3D ( 'NONE', #1041, #967, #703 ) ;
#834 = CIRCLE ( 'NONE', #733, 62.14999999999999858 ) ;
#835 = CARTESIAN_POINT ( 'NONE',  ( -71.15996658018580945, 0.000000000000000000, 26.99999999999999289 ) ) ;
#836 = FACE_OUTER_BOUND ( 'NONE', #49, .T. ) ;
#837 = SHAPE_DEFINITION_REPRESENTATION ( #467, #425 ) ;
#838 = ORIENTED_EDGE ( 'NONE', *, *, #854, .T. ) ;
#839 = DIRECTION ( 'NONE',  ( 0.000000000000000000, 0.000000000000000000, 1.000000000000000000 ) ) ;
#840 = CARTESIAN_POINT ( 'NONE',  ( -67.73712781673698657, 5.000000000000002665, 26.99999999999999289 ) ) ;
#841 = FACE_OUTER_BOUND ( 'NONE', #92, .T. ) ;
#842 = EDGE_LOOP ( 'NONE', ( #2, #450, #169, #635 ) ) ;
#843 = DIRECTION ( 'NONE',  ( -1.000000000000000000, 0.000000000000000000, 0.000000000000000000 ) ) ;
#844 = CARTESIAN_POINT ( 'NONE',  ( -61.50989031009726915, 8.897105606419716040, 20.64670641598765144 ) ) ;
#845 = EDGE_CURVE ( 'NONE', #780, #258, #20, .T. ) ;
#846 = EDGE_LOOP ( 'NONE', ( #179, #561, #223, #414 ) ) ;
#847 = CYLINDRICAL_SURFACE ( 'NONE', #1045, 1.711419381724407884 ) ;
#848 = ORIENTED_EDGE ( 'NONE', *, *, #240, .T. ) ;
#849 = CARTESIAN_POINT ( 'NONE',  ( -71.15996658018580945, -0.001000000000000802114, 5.000000000000001776 ) ) ;
#850 = VECTOR ( 'NONE', #779, 1000.000000000000000 ) ;
#851 = DIRECTION ( 'NONE',  ( 0.000000000000000000, 0.000000000000000000, 1.000000000000000000 ) ) ;
#852 = AXIS2_PLACEMENT_3D ( 'NONE', #929, #776, #289 ) ;
#853 = VECTOR ( 'NONE', #571, 1000.000000000000000 ) ;
#854 = EDGE_CURVE ( 'NONE', #797, #913, #102, .T. ) ;
#855 = EDGE_LOOP ( 'NONE', ( #810, #580, #90, #607 ) ) ;
#856 = APPLICATION_PROTOCOL_DEFINITION ( 'draft international standard', 'automotive_design', 1998, #315 ) ;
#857 = VERTEX_POINT ( 'NONE', #338 ) ;
#858 = CARTESIAN_POINT ( 'NONE',  ( -61.75453424648265610, 7.000000000000042633, 9.999999999999996447 ) ) ;
#859 = DIRECTION ( 'NONE',  ( 0.000000000000000000, 1.000000000000000000, -0.000000000000000000 ) ) ;
#860 = CARTESIAN_POINT ( 'NONE',  ( 61.94854719846139801, 5.000000000000001776, -15.81138830084188918 ) ) ;
#861 = ORIENTED_EDGE ( 'NONE', *, *, #712, .F. ) ;
#862 = CARTESIAN_POINT ( 'NONE',  ( -61.52445812839448536, 8.795801596586779070, 11.10998430002184811 ) ) ;
#863 = DIRECTION ( 'NONE',  ( 0.000000000000000000, 0.000000000000000000, 1.000000000000000000 ) ) ;
#864 = DIRECTION ( 'NONE',  ( 0.000000000000000000, 0.000000000000000000, 1.000000000000000000 ) ) ;
#865 = ORIENTED_EDGE ( 'NONE', *, *, #61, .T. ) ;
#866 = FACE_OUTER_BOUND ( 'NONE', #339, .T. ) ;
#867 = EDGE_CURVE ( 'NONE', #882, #164, #262, .T. ) ;
#868 = CARTESIAN_POINT ( 'NONE',  ( 6.000000000000000000, 61.85970012859745282, 0.000000000000000000 ) ) ;
#869 = CIRCLE ( 'NONE', #396, 62.14999999999999858 ) ;
#870 = CIRCLE ( 'NONE', #216, 62.14999999999999858 ) ;
#871 = DIRECTION ( 'NONE',  ( 1.000000000000000000, 5.524069506145700694E-16, -0.000000000000000000 ) ) ;
#872 = VECTOR ( 'NONE', #518, 1000.000000000000000 ) ;
#873 = ORIENTED_EDGE ( 'NONE', *, *, #753, .F. ) ;
#874 = CARTESIAN_POINT ( 'NONE',  ( 61.94854719846139801, 5.000000000000001776, 0.000000000000000000 ) ) ;
#875 = PRODUCT_RELATED_PRODUCT_CATEGORY ( 'part', '', ( #1019 ) ) ;
#876 = CARTESIAN_POINT ( 'NONE',  ( -76.94854719846142643, 7.000000000000000888, 9.999999999999998224 ) ) ;
#877 = LINE ( 'NONE', #308, #359 ) ;
#878 = EDGE_LOOP ( 'NONE', ( #689, #237, #346, #144 ) ) ;
#879 = DIRECTION ( 'NONE',  ( -0.000000000000000000, -1.000000000000000000, -0.000000000000000000 ) ) ;
#880 = DIRECTION ( 'NONE',  ( -1.000000000000000000, 0.000000000000000000, 0.000000000000000000 ) ) ;
#881 = EDGE_CURVE ( 'NONE', #984, #802, #909, .T. ) ;
#882 = VERTEX_POINT ( 'NONE', #892 ) ;
#883 = CARTESIAN_POINT ( 'NONE',  ( -61.60465744661787824, 8.215878537866668552, 10.40669505971961151 ) ) ;
#884 = DIRECTION ( 'NONE',  ( -0.000000000000000000, -0.000000000000000000, -1.000000000000000000 ) ) ;
#885 = EDGE_CURVE ( 'NONE', #574, #544, #826, .T. ) ;
#886 = COLOUR_RGB ( '',0.7921568627450980005, 0.8196078431372548767, 0.9333333333333333481 ) ;
#887 = ORIENTED_EDGE ( 'NONE', *, *, #290, .T. ) ;
#888 = CIRCLE ( 'NONE', #748, 1.711419381724407884 ) ;
#889 = DIRECTION ( 'NONE',  ( -1.000000000000000000, -2.775557561562891351E-15, 3.503246160812042677E-46 ) ) ;
#890 = CARTESIAN_POINT ( 'NONE',  ( 71.15996658018580945, -0.001000000000016810576, 5.000000000000036415 ) ) ;
#891 = ORIENTED_EDGE ( 'NONE', *, *, #824, .F. ) ;
#892 = CARTESIAN_POINT ( 'NONE',  ( -67.73712781673698657, 0.000000000000000000, 5.000000000000001776 ) ) ;
#893 = ORIENTED_EDGE ( 'NONE', *, *, #649, .T. ) ;
#894 = FACE_OUTER_BOUND ( 'NONE', #46, .T. ) ;
#895 = ORIENTED_EDGE ( 'NONE', *, *, #170, .T. ) ;
#896 = FACE_BOUND ( 'NONE', #1036, .T. ) ;
#897 = EDGE_LOOP ( 'NONE', ( #722, #758 ) ) ;
#898 = EDGE_CURVE ( 'NONE', #980, #524, #651, .T. ) ;
#899 = EDGE_CURVE ( 'NONE', #256, #857, #613, .T. ) ;
#900 = DIRECTION ( 'NONE',  ( 0.000000000000000000, 0.000000000000000000, -1.000000000000000000 ) ) ;
#901 = ORIENTED_EDGE ( 'NONE', *, *, #747, .T. ) ;
#902 = CIRCLE ( 'NONE', #341, 62.14999999999999858 ) ;
#903 = DIRECTION ( 'NONE',  ( 1.000000000000000000, 0.000000000000000000, 0.000000000000000000 ) ) ;
#904 = VERTEX_POINT ( 'NONE', #575 ) ;
#905 = AXIS2_PLACEMENT_3D ( 'NONE', #123, #441, #603 ) ;
#906 = VECTOR ( 'NONE', #188, 1000.000000000000000 ) ;
#907 = CARTESIAN_POINT ( 'NONE',  ( -57.94854719846139091, 5.338611497318623833E-14, 9.999999999999996447 ) ) ;
#908 = EDGE_LOOP ( 'NONE', ( #695, #10, #174, #362 ) ) ;
#909 = LINE ( 'NONE', #808, #534 ) ;
#910 = UNCERTAINTY_MEASURE_WITH_UNIT (LENGTH_MEASURE( 1.000000000000000082E-05 ), #588, 'distance_accuracy_value', 'NONE');
#911 = ORIENTED_EDGE ( 'NONE', *, *, #118, .F. ) ;
#912 = FILL_AREA_STYLE_COLOUR ( '', #886 ) ;
#913 = VERTEX_POINT ( 'NONE', #817 ) ;
#914 = DIRECTION ( 'NONE',  ( 1.000000000000000000, 0.000000000000000000, 0.000000000000000000 ) ) ;
#915 = CARTESIAN_POINT ( 'NONE',  ( 0.000000000000000000, 0.000000000000000000, 32.00000000000000000 ) ) ;
#916 = CARTESIAN_POINT ( 'NONE',  ( -61.55369065486938496, 8.589008784260670382, 21.22154435894205449 ) ) ;
#917 = DIRECTION ( 'NONE',  ( 1.156482317317872218E-16, 1.000000000000000000, -0.000000000000000000 ) ) ;
#918 = EDGE_CURVE ( 'NONE', #436, #219, #888, .T. ) ;
#919 =( LENGTH_UNIT ( ) NAMED_UNIT ( * ) SI_UNIT ( .MILLI., .METRE. ) );
#920 = VECTOR ( 'NONE', #143, 1000.000000000000000 ) ;
#921 = ORIENTED_EDGE ( 'NONE', *, *, #347, .T. ) ;
#922 = VECTOR ( 'NONE', #68, 1000.000000000000000 ) ;
#923 = CARTESIAN_POINT ( 'NONE',  ( 71.15996658018580945, 0.000000000000000000, 27.00000000000002842 ) ) ;
#924 = VECTOR ( 'NONE', #839, 1000.000000000000000 ) ;
#925 = CARTESIAN_POINT ( 'NONE',  ( -61.75453424648265610, 7.000000000000046185, 22.00000000000000000 ) ) ;
#926 = VERTEX_POINT ( 'NONE', #16 ) ;
#927 = CARTESIAN_POINT ( 'NONE',  ( -76.94854719846139801, 4.336808689942017736E-15, -15.81138830084188918 ) ) ;
#928 = ORIENTED_EDGE ( 'NONE', *, *, #1011, .T. ) ;
#929 = CARTESIAN_POINT ( 'NONE',  ( -57.94854719846141933, 9.000000000000053291, 9.999999999999998224 ) ) ;
#930 = ADVANCED_FACE ( 'NONE', ( #325 ), #562, .T. ) ;
#931 = DIRECTION ( 'NONE',  ( -2.312964634635743056E-15, 1.000000000000000000, 0.000000000000000000 ) ) ;
#932 = DIRECTION ( 'NONE',  ( 0.000000000000000000, 0.000000000000000000, 1.000000000000000000 ) ) ;
#933 = DIRECTION ( 'NONE',  ( 1.156482317317872218E-16, 1.000000000000000000, -0.000000000000000000 ) ) ;
#934 = ORIENTED_EDGE ( 'NONE', *, *, #368, .T. ) ;
#935 = CARTESIAN_POINT ( 'NONE',  ( 69.44854719846139801, 4.999999999999986677, 5.000000000000036415 ) ) ;
#936 = ADVANCED_FACE ( 'NONE', ( #168 ), #501, .F. ) ;
#937 = DIRECTION ( 'NONE',  ( -2.312964634635743056E-15, 1.000000000000000000, 0.000000000000000000 ) ) ;
#938 = ADVANCED_FACE ( 'NONE', ( #896, #88, #403 ), #173, .F. ) ;
#939 = VERTEX_POINT ( 'NONE', #330 ) ;
#940 = LINE ( 'NONE', #927, #872 ) ;
#941 = ORIENTED_EDGE ( 'NONE', *, *, #112, .T. ) ;
#942 = CARTESIAN_POINT ( 'NONE',  ( -76.94854719846139801, 4.336808689942017736E-15, -15.81138830084188918 ) ) ;
#943 = VECTOR ( 'NONE', #864, 1000.000000000000000 ) ;
#944 = CARTESIAN_POINT ( 'NONE',  ( -76.94854719846139801, 2.818925648462311528E-15, 22.00000000000000711 ) ) ;
#945 = CARTESIAN_POINT ( 'NONE',  ( -67.73712781673698657, 5.000000000000002665, 5.000000000000001776 ) ) ;
#946 = VERTEX_POINT ( 'NONE', #251 ) ;
#947 = DIRECTION ( 'NONE',  ( -1.000000000000000000, 0.000000000000000000, 0.000000000000000000 ) ) ;
#948 = DIRECTION ( 'NONE',  ( 1.156482317317872218E-16, 1.000000000000000000, -0.000000000000000000 ) ) ;
#949 = CARTESIAN_POINT ( 'NONE',  ( 76.94854719846139801, 4.336808689942017736E-15, 32.00000000000000000 ) ) ;
#950 = EDGE_CURVE ( 'NONE', #986, #76, #981, .T. ) ;
#951 = EDGE_LOOP ( 'NONE', ( #792, #252 ) ) ;
#952 = DIRECTION ( 'NONE',  ( 0.000000000000000000, 0.000000000000000000, 1.000000000000000000 ) ) ;
#953 = LINE ( 'NONE', #388, #194 ) ;
#954 = CARTESIAN_POINT ( 'NONE',  ( -76.94854719846139801, 5.000000000000003553, 9.999999999999994671 ) ) ;
#955 = ORIENTED_EDGE ( 'NONE', *, *, #353, .T. ) ;
#956 = EDGE_CURVE ( 'NONE', #258, #372, #495, .T. ) ;
#957 = CARTESIAN_POINT ( 'NONE',  ( -76.94854719846139801, 5.000000000000003553, -15.81138830084188918 ) ) ;
#958 = DIRECTION ( 'NONE',  ( -1.000000000000000000, -2.775557561562891351E-15, -0.000000000000000000 ) ) ;
#959 = VECTOR ( 'NONE', #493, 1000.000000000000000 ) ;
#960 = VECTOR ( 'NONE', #990, 1000.000000000000000 ) ;
#961 = CARTESIAN_POINT ( 'NONE',  ( -61.94854719846139801, 5.000000000000001776, -15.81138830084188918 ) ) ;
#962 = ORIENTED_EDGE ( 'NONE', *, *, #546, .F. ) ;
#963 = LINE ( 'NONE', #460, #484 ) ;
#964 = EDGE_CURVE ( 'NONE', #986, #533, #654, .T. ) ;
#965 = FACE_OUTER_BOUND ( 'NONE', #842, .T. ) ;
#966 = ORIENTED_EDGE ( 'NONE', *, *, #1016, .T. ) ;
#967 = DIRECTION ( 'NONE',  ( -0.000000000000000000, 0.000000000000000000, -1.000000000000000000 ) ) ;
#968 = EDGE_CURVE ( 'NONE', #107, #76, #1001, .T. ) ;
#969 = DIRECTION ( 'NONE',  ( 0.000000000000000000, 0.000000000000000000, 1.000000000000000000 ) ) ;
#970 = ORIENTED_EDGE ( 'NONE', *, *, #14, .F. ) ;
#971 = DIRECTION ( 'NONE',  ( 0.000000000000000000, 0.000000000000000000, 1.000000000000000000 ) ) ;
#972 = AXIS2_PLACEMENT_3D ( 'NONE', #1005, #349, #446 ) ;
#973 = DIRECTION ( 'NONE',  ( 1.156482317317872218E-16, 1.000000000000000000, -0.000000000000000000 ) ) ;
#974 = AXIS2_PLACEMENT_3D ( 'NONE', #809, #254, #734 ) ;
#975 = AXIS2_PLACEMENT_3D ( 'NONE', #269, #281, #186 ) ;
#976 = ORIENTED_EDGE ( 'NONE', *, *, #999, .F. ) ;
#977 = CIRCLE ( 'NONE', #1010, 1.711419381724405220 ) ;
#978 = DIRECTION ( 'NONE',  ( 3.469446951953614189E-15, -1.000000000000000000, 0.000000000000000000 ) ) ;
#979 = CARTESIAN_POINT ( 'NONE',  ( 0.000000000000000000, 0.000000000000000000, 32.00000000000000000 ) ) ;
#980 = VERTEX_POINT ( 'NONE', #1020 ) ;
#981 = LINE ( 'NONE', #335, #853 ) ;
#982 = EDGE_LOOP ( 'NONE', ( #367, #417, #96, #293 ) ) ;
#983 = CARTESIAN_POINT ( 'NONE',  ( -76.94854719846139801, 5.000000000000003553, 22.00000000000000000 ) ) ;
#984 = VERTEX_POINT ( 'NONE', #676 ) ;
#985 = DIRECTION ( 'NONE',  ( 1.156482317317872218E-16, 1.000000000000000000, -0.000000000000000000 ) ) ;
#986 = VERTEX_POINT ( 'NONE', #48 ) ;
#987 = ADVANCED_FACE ( 'NONE', ( #133 ), #847, .F. ) ;
#988 = CARTESIAN_POINT ( 'NONE',  ( -61.94854719846139091, 2.438440400607187917E-13, 16.00000000000000000 ) ) ;
#989 = EDGE_LOOP ( 'NONE', ( #408, #502 ) ) ;
#990 = DIRECTION ( 'NONE',  ( -1.000000000000000000, 1.156482317317871971E-16, -0.000000000000000000 ) ) ;
#991 = ORIENTED_EDGE ( 'NONE', *, *, #633, .F. ) ;
#992 = AXIS2_PLACEMENT_3D ( 'NONE', #264, #581, #971 ) ;
#993 = DIRECTION ( 'NONE',  ( -0.000000000000000000, -0.000000000000000000, -1.000000000000000000 ) ) ;
#994 = VERTEX_POINT ( 'NONE', #366 ) ;
#995 = CARTESIAN_POINT ( 'NONE',  ( 6.000000000000000000, 61.85970012859745282, 0.000000000000000000 ) ) ;
#996 = PRODUCT_DEFINITION_CONTEXT ( 'detailed design', #253, 'design' ) ;
#997 = ORIENTED_EDGE ( 'NONE', *, *, #618, .F. ) ;
#998 = DIRECTION ( 'NONE',  ( -0.000000000000000000, -1.445602896647339163E-16, -1.000000000000000000 ) ) ;
#999 = EDGE_CURVE ( 'NONE', #711, #258, #940, .T. ) ;
#1000 = CARTESIAN_POINT ( 'NONE',  ( 76.94854719846139801, 5.000000000000003553, 0.000000000000000000 ) ) ;
#1001 = LINE ( 'NONE', #110, #451 ) ;
#1002 = ORIENTED_EDGE ( 'NONE', *, *, #1011, .F. ) ;
#1003 = DIRECTION ( 'NONE',  ( 1.156482317317871971E-16, 1.000000000000000000, -0.000000000000000000 ) ) ;
#1004 = CARTESIAN_POINT ( 'NONE',  ( -61.72467149382092799, 7.263451483134836018, 22.00000000000000355 ) ) ;
#1005 = CARTESIAN_POINT ( 'NONE',  ( -76.94854719846139801, 7.000000000000000000, 11.99999999999999822 ) ) ;
#1006 = PLANE ( 'NONE',  #615 ) ;
#1007 = ORIENTED_EDGE ( 'NONE', *, *, #710, .F. ) ;
#1008 = CIRCLE ( 'NONE', #974, 1.711419381724407884 ) ;
#1009 = DIRECTION ( 'NONE',  ( 1.156482317317871971E-16, 1.000000000000000000, -0.000000000000000000 ) ) ;
#1010 = AXIS2_PLACEMENT_3D ( 'NONE', #798, #636, #952 ) ;
#1011 = EDGE_CURVE ( 'NONE', #298, #288, #45, .T. ) ;
#1012 = FACE_OUTER_BOUND ( 'NONE', #207, .T. ) ;
#1013 = ORIENTED_EDGE ( 'NONE', *, *, #885, .T. ) ;
#1014 = ADVANCED_FACE ( 'NONE', ( #688 ), #1006, .T. ) ;
#1015 = DIRECTION ( 'NONE',  ( 0.000000000000000000, 0.000000000000000000, 1.000000000000000000 ) ) ;
#1016 = EDGE_CURVE ( 'NONE', #107, #683, #834, .T. ) ;
#1017 = DIRECTION ( 'NONE',  ( -1.000000000000000000, -2.775557561562891351E-15, 0.000000000000000000 ) ) ;
#1018 = CARTESIAN_POINT ( 'NONE',  ( 67.73712781673698657, 0.000000000000000000, 27.00000000000002842 ) ) ;
#1019 = PRODUCT ( 'mocap_stick_holder', 'mocap_stick_holder', '', ( #523 ) ) ;
#1020 = CARTESIAN_POINT ( 'NONE',  ( -5.999999999999998224, 65.00000000000000000, 0.000000000000000000 ) ) ;
#1021 = ORIENTED_EDGE ( 'NONE', *, *, #795, .T. ) ;
#1022 = CARTESIAN_POINT ( 'NONE',  ( 0.000000000000000000, 0.000000000000000000, 0.000000000000000000 ) ) ;
#1023 = CARTESIAN_POINT ( 'NONE',  ( 76.94854719846139801, 4.336808689942017736E-15, 0.000000000000000000 ) ) ;
#1024 = ORIENTED_EDGE ( 'NONE', *, *, #135, .F. ) ;
#1025 = EDGE_LOOP ( 'NONE', ( #181, #660, #729, #677 ) ) ;
#1026 = FACE_OUTER_BOUND ( 'NONE', #337, .T. ) ;
#1027 =( GEOMETRIC_REPRESENTATION_CONTEXT ( 3 ) GLOBAL_UNCERTAINTY_ASSIGNED_CONTEXT ( ( #910 ) ) GLOBAL_UNIT_ASSIGNED_CONTEXT ( ( #588, #267, #442 ) ) REPRESENTATION_CONTEXT ( 'NONE', 'WORKASPACE' ) );
#1028 = CARTESIAN_POINT ( 'NONE',  ( -61.94854719846139091, 4.445005106148233547E-14, 22.00000000000000000 ) ) ;
#1029 = AXIS2_PLACEMENT_3D ( 'NONE', #915, #530, #280 ) ;
#1030 = EDGE_CURVE ( 'NONE', #904, #202, #246, .T. ) ;
#1031 = DIRECTION ( 'NONE',  ( 0.000000000000000000, 0.000000000000000000, 1.000000000000000000 ) ) ;
#1032 = ORIENTED_EDGE ( 'NONE', *, *, #469, .F. ) ;
#1033 = CARTESIAN_POINT ( 'NONE',  ( -61.53340731901004546, 8.733141665869165848, 10.99328039878360919 ) ) ;
#1034 = CARTESIAN_POINT ( 'NONE',  ( -69.44854719846139801, 0.000000000000000000, 26.99999999999999289 ) ) ;
#1035 = CARTESIAN_POINT ( 'NONE',  ( 71.15996658018580945, -0.001000000000016810576, 27.00000000000002842 ) ) ;
#1036 = EDGE_LOOP ( 'NONE', ( #738, #98 ) ) ;
#1037 = CARTESIAN_POINT ( 'NONE',  ( -76.94854719846141222, 5.000000000000003553, 22.00000000000000355 ) ) ;
#1038 = CARTESIAN_POINT ( 'NONE',  ( -71.15996658018580945, 5.000000000000002665, 5.000000000000001776 ) ) ;
#1039 = DIRECTION ( 'NONE',  ( -1.000000000000000000, 1.156482317317871971E-16, 0.000000000000000000 ) ) ;
#1040 = ORIENTED_EDGE ( 'NONE', *, *, #813, .T. ) ;
#1041 = CARTESIAN_POINT ( 'NONE',  ( 0.000000000000000000, 0.000000000000000000, 0.000000000000000000 ) ) ;
#1042 = AXIS2_PLACEMENT_3D ( 'NONE', #137, #153, #609 ) ;
#1043 = AXIS2_PLACEMENT_3D ( 'NONE', #452, #593, #208 ) ;
#1044 = CARTESIAN_POINT ( 'NONE',  ( -76.94854719846139801, 5.000000000000003553, -15.81138830084188918 ) ) ;
#1045 = AXIS2_PLACEMENT_3D ( 'NONE', #344, #933, #769 ) ;
#1046 = VERTEX_POINT ( 'NONE', #995 ) ;
#1047 = CARTESIAN_POINT ( 'NONE',  ( -61.72449288393218580, 7.261262787063111013, 10.01289030186981499 ) ) ;
ENDSEC;
END-ISO-10303-21;
