ISO-10303-21;
HEADER;
FILE_DESCRIPTION (( 'STEP AP214' ),
    '1' );
FILE_NAME ('mocap_angle_fix.STEP',
    '2026-09-14T21:19:37',
    ( '' ),
    ( '' ),
    'SwSTEP 2.0',
    'SolidWorks 2024',
    '' );
FILE_SCHEMA (( 'AUTOMOTIVE_DESIGN' ));
ENDSEC;

DATA;
#1 = ORIENTED_EDGE ( 'NONE', *, *, #348, .F. ) ;
#2 = EDGE_CURVE ( 'NONE', #324, #43, #178, .T. ) ;
#3 = VECTOR ( 'NONE', #424, 1000.000000000000000 ) ;
#4 = ORIENTED_EDGE ( 'NONE', *, *, #97, .F. ) ;
#5 = CARTESIAN_POINT ( 'NONE',  ( 1.040834085586084257E-14, -60.00000000000000000, 0.000000000000000000 ) ) ;
#6 = ORIENTED_EDGE ( 'NONE', *, *, #380, .T. ) ;
#7 = CARTESIAN_POINT ( 'NONE',  ( 5.000000000000000888, -56.99999999999999289, 10.00000000000000000 ) ) ;
#8 = DIRECTION ( 'NONE',  ( 0.000000000000000000, 0.000000000000000000, 1.000000000000000000 ) ) ;
#9 = ORIENTED_EDGE ( 'NONE', *, *, #214, .T. ) ;
#10 = DIRECTION ( 'NONE',  ( -0.000000000000000000, -0.000000000000000000, -1.000000000000000000 ) ) ;
#11 = PRESENTATION_STYLE_ASSIGNMENT (( #387 ) ) ;
#12 =( GEOMETRIC_REPRESENTATION_CONTEXT ( 3 ) GLOBAL_UNCERTAINTY_ASSIGNED_CONTEXT ( ( #238 ) ) GLOBAL_UNIT_ASSIGNED_CONTEXT ( ( #224, #417, #454 ) ) REPRESENTATION_CONTEXT ( 'NONE', 'WORKASPACE' ) );
#13 = ORIENTED_EDGE ( 'NONE', *, *, #367, .T. ) ;
#14 = LINE ( 'NONE', #156, #18 ) ;
#15 = DIRECTION ( 'NONE',  ( 1.000000000000000000, 0.000000000000000000, -0.000000000000000000 ) ) ;
#16 = DIRECTION ( 'NONE',  ( -1.224646799147353454E-16, 1.000000000000000000, 0.000000000000000000 ) ) ;
#17 = CYLINDRICAL_SURFACE ( 'NONE', #245, 2.149999999999999911 ) ;
#18 = VECTOR ( 'NONE', #263, 1000.000000000000000 ) ;
#19 = DIRECTION ( 'NONE',  ( -0.000000000000000000, 1.000000000000000000, -0.000000000000000000 ) ) ;
#20 = DIRECTION ( 'NONE',  ( -5.782411586589359857E-17, 1.000000000000000000, -0.000000000000000000 ) ) ;
#21 = EDGE_CURVE ( 'NONE', #261, #268, #323, .T. ) ;
#22 = DIRECTION ( 'NONE',  ( 0.000000000000000000, 0.000000000000000000, 1.000000000000000000 ) ) ;
#23 = PLANE ( 'NONE',  #118 ) ;
#24 = ORIENTED_EDGE ( 'NONE', *, *, #62, .T. ) ;
#25 = CARTESIAN_POINT ( 'NONE',  ( 0.000000000000000000, 0.000000000000000000, 0.000000000000000000 ) ) ;
#26 = CARTESIAN_POINT ( 'NONE',  ( 5.000000000000000888, -56.99999999999999289, 0.000000000000000000 ) ) ;
#27 = VECTOR ( 'NONE', #105, 1000.000000000000000 ) ;
#28 = ORIENTED_EDGE ( 'NONE', *, *, #391, .T. ) ;
#29 = EDGE_CURVE ( 'NONE', #32, #210, #334, .T. ) ;
#30 = DIRECTION ( 'NONE',  ( -5.782411586589359857E-17, 1.000000000000000000, 0.000000000000000000 ) ) ;
#31 = AXIS2_PLACEMENT_3D ( 'NONE', #209, #30, #465 ) ;
#32 = VERTEX_POINT ( 'NONE', #448 ) ;
#33 = UNCERTAINTY_MEASURE_WITH_UNIT (LENGTH_MEASURE( 1.000000000000000082E-05 ), #449, 'distance_accuracy_value', 'NONE');
#34 = LINE ( 'NONE', #270, #293 ) ;
#35 = VERTEX_POINT ( 'NONE', #96 ) ;
#36 = DIRECTION ( 'NONE',  ( 1.000000000000000000, 0.000000000000000000, 0.000000000000000000 ) ) ;
#37 = STYLED_ITEM ( 'NONE', ( #11 ), #98 ) ;
#38 = AXIS2_PLACEMENT_3D ( 'NONE', #420, #458, #133 ) ;
#39 = CARTESIAN_POINT ( 'NONE',  ( 14.99999999999999467, -60.00000000000000000, 10.00000000000000000 ) ) ;
#40 = VERTEX_POINT ( 'NONE', #388 ) ;
#41 = ORIENTED_EDGE ( 'NONE', *, *, #60, .F. ) ;
#42 = DIRECTION ( 'NONE',  ( -1.000000000000000000, -5.782411586589351722E-16, 0.000000000000000000 ) ) ;
#43 = VERTEX_POINT ( 'NONE', #55 ) ;
#44 = CARTESIAN_POINT ( 'NONE',  ( 4.999999999999992895, 2.999999999999999556, 0.000000000000000000 ) ) ;
#45 = EDGE_LOOP ( 'NONE', ( #146, #280, #412, #302 ) ) ;
#46 = DIRECTION ( 'NONE',  ( -1.000000000000000000, -5.782411586589359857E-17, -0.000000000000000000 ) ) ;
#47 = CARTESIAN_POINT ( 'NONE',  ( 0.000000000000000000, 0.000000000000000000, 10.00000000000000000 ) ) ;
#48 = ORIENTED_EDGE ( 'NONE', *, *, #367, .F. ) ;
#49 = CARTESIAN_POINT ( 'NONE',  ( -10.00000000000000000, 2.999999999999998668, 10.00000000000000000 ) ) ;
#50 = FACE_OUTER_BOUND ( 'NONE', #407, .T. ) ;
#51 = DIRECTION ( 'NONE',  ( -1.000000000000000000, -1.224646799147353454E-16, 0.000000000000000000 ) ) ;
#52 = DIRECTION ( 'NONE',  ( -5.782411586589359857E-17, 1.000000000000000000, 0.000000000000000000 ) ) ;
#53 = CYLINDRICAL_SURFACE ( 'NONE', #38, 1.650000000000000355 ) ;
#54 = LINE ( 'NONE', #193, #310 ) ;
#55 = CARTESIAN_POINT ( 'NONE',  ( -7.150000000000000355, -1.130660799805084471E-15, 5.000000000000000888 ) ) ;
#56 = ADVANCED_FACE ( 'NONE', ( #108 ), #283, .F. ) ;
#57 = LINE ( 'NONE', #350, #395 ) ;
#58 = CARTESIAN_POINT ( 'NONE',  ( 9.999999999999989342, -56.99999999999999289, 5.000000000000000888 ) ) ;
#59 = CARTESIAN_POINT ( 'NONE',  ( 9.999999999999989342, -66.99999999999998579, 5.000000000000000888 ) ) ;
#60 = EDGE_CURVE ( 'NONE', #321, #255, #359, .T. ) ;
#61 = PRODUCT_DEFINITION_FORMATION_WITH_SPECIFIED_SOURCE ( 'ANY', '', #362, .NOT_KNOWN. ) ;
#62 = EDGE_CURVE ( 'NONE', #210, #32, #242, .T. ) ;
#63 = EDGE_LOOP ( 'NONE', ( #174, #187, #48, #28 ) ) ;
#64 = EDGE_CURVE ( 'NONE', #116, #455, #281, .T. ) ;
#65 = ORIENTED_EDGE ( 'NONE', *, *, #130, .F. ) ;
#66 = EDGE_CURVE ( 'NONE', #43, #324, #218, .T. ) ;
#67 = VECTOR ( 'NONE', #212, 1000.000000000000000 ) ;
#68 = CARTESIAN_POINT ( 'NONE',  ( 0.000000000000000000, 0.000000000000000000, 10.00000000000000000 ) ) ;
#69 = ORIENTED_EDGE ( 'NONE', *, *, #195, .T. ) ;
#70 = PLANE ( 'NONE',  #134 ) ;
#71 = ADVANCED_FACE ( 'NONE', ( #288 ), #141, .F. ) ;
#72 = FACE_OUTER_BOUND ( 'NONE', #45, .T. ) ;
#73 = VECTOR ( 'NONE', #10, 1000.000000000000000 ) ;
#74 = EDGE_LOOP ( 'NONE', ( #437, #366, #265, #184 ) ) ;
#75 = CARTESIAN_POINT ( 'NONE',  ( -7.150000000000000355, -7.000000000000000888, 5.000000000000000888 ) ) ;
#76 = ORIENTED_EDGE ( 'NONE', *, *, #317, .F. ) ;
#77 = CARTESIAN_POINT ( 'NONE',  ( 1.040834085586084257E-14, -60.00000000000000000, 10.00000000000000000 ) ) ;
#78 = AXIS2_PLACEMENT_3D ( 'NONE', #161, #16, #158 ) ;
#79 = VECTOR ( 'NONE', #379, 1000.000000000000000 ) ;
#80 = ORIENTED_EDGE ( 'NONE', *, *, #364, .T. ) ;
#81 = ADVANCED_FACE ( 'NONE', ( #328, #463 ), #399, .F. ) ;
#82 = LINE ( 'NONE', #77, #258 ) ;
#83 = DIRECTION ( 'NONE',  ( 0.000000000000000000, 0.000000000000000000, 1.000000000000000000 ) ) ;
#84 = ORIENTED_EDGE ( 'NONE', *, *, #244, .T. ) ;
#85 = CARTESIAN_POINT ( 'NONE',  ( -2.850000000000000089, -7.000000000000000888, 5.000000000000000888 ) ) ;
#86 = AXIS2_PLACEMENT_3D ( 'NONE', #267, #83, #15 ) ;
#87 = EDGE_CURVE ( 'NONE', #152, #304, #34, .T. ) ;
#88 = ORIENTED_EDGE ( 'NONE', *, *, #2, .T. ) ;
#89 = CARTESIAN_POINT ( 'NONE',  ( -10.00000000000000000, 2.999999999999998668, 0.000000000000000000 ) ) ;
#90 = VECTOR ( 'NONE', #189, 1000.000000000000000 ) ;
#91 = ADVANCED_FACE ( 'NONE', ( #160, #50 ), #23, .F. ) ;
#92 = CARTESIAN_POINT ( 'NONE',  ( 0.000000000000000000, 0.000000000000000000, 10.00000000000000000 ) ) ;
#93 = ORIENTED_EDGE ( 'NONE', *, *, #375, .F. ) ;
#94 = CIRCLE ( 'NONE', #107, 1.650000000000000355 ) ;
#95 = DIRECTION ( 'NONE',  ( -0.000000000000000000, -0.000000000000000000, -1.000000000000000000 ) ) ;
#96 = CARTESIAN_POINT ( 'NONE',  ( 9.999999999999989342, -60.00000000000000000, 6.650000000000001243 ) ) ;
#97 = EDGE_CURVE ( 'NONE', #137, #225, #414, .T. ) ;
#98 = MANIFOLD_SOLID_BREP ( '∂Øƒ - âüÇµèoÇµ3', #106 ) ;
#99 = CARTESIAN_POINT ( 'NONE',  ( -5.000000000000000000, -7.000000000000000888, 5.000000000000000888 ) ) ;
#100 = PRODUCT_DEFINITION ( 'UNKNOWN', '', #61, #289 ) ;
#101 = VECTOR ( 'NONE', #46, 1000.000000000000000 ) ;
#102 = APPLICATION_PROTOCOL_DEFINITION ( 'draft international standard', 'automotive_design', 1998, #211 ) ;
#103 = ADVANCED_FACE ( 'NONE', ( #275 ), #308, .T. ) ;
#104 = ORIENTED_EDGE ( 'NONE', *, *, #125, .T. ) ;
#105 = DIRECTION ( 'NONE',  ( -5.782411586589351722E-16, 1.000000000000000000, -0.000000000000000000 ) ) ;
#106 = CLOSED_SHELL ( 'NONE', ( #56, #441, #219, #206, #305, #396, #71, #91, #249, #81, #103, #166, #453, #383 ) ) ;
#107 = AXIS2_PLACEMENT_3D ( 'NONE', #115, #438, #188 ) ;
#108 = FACE_OUTER_BOUND ( 'NONE', #355, .T. ) ;
#109 = EDGE_LOOP ( 'NONE', ( #415, #221, #215, #9 ) ) ;
#110 = CARTESIAN_POINT ( 'NONE',  ( 14.99999999999999467, -60.00000000000000000, 10.00000000000000000 ) ) ;
#111 = AXIS2_PLACEMENT_3D ( 'NONE', #128, #452, #235 ) ;
#112 = VERTEX_POINT ( 'NONE', #273 ) ;
#113 = DIRECTION ( 'NONE',  ( -1.000000000000000000, -0.000000000000000000, -0.000000000000000000 ) ) ;
#114 = EDGE_LOOP ( 'NONE', ( #374, #88 ) ) ;
#115 = CARTESIAN_POINT ( 'NONE',  ( 9.999999999999989342, -60.00000000000000000, 5.000000000000000888 ) ) ;
#116 = VERTEX_POINT ( 'NONE', #186 ) ;
#117 = CARTESIAN_POINT ( 'NONE',  ( 5.000000000000000888, -56.99999999999999289, 10.00000000000000000 ) ) ;
#118 = AXIS2_PLACEMENT_3D ( 'NONE', #354, #346, #183 ) ;
#119 = CARTESIAN_POINT ( 'NONE',  ( 0.000000000000000000, 0.000000000000000000, 0.000000000000000000 ) ) ;
#120 = ORIENTED_EDGE ( 'NONE', *, *, #342, .F. ) ;
#121 = DIRECTION ( 'NONE',  ( -0.000000000000000000, -0.000000000000000000, -1.000000000000000000 ) ) ;
#122 = CARTESIAN_POINT ( 'NONE',  ( 1.040834085586084257E-14, -60.00000000000000000, 10.00000000000000000 ) ) ;
#123 = ORIENTED_EDGE ( 'NONE', *, *, #322, .F. ) ;
#124 = DIRECTION ( 'NONE',  ( -0.000000000000000000, 1.000000000000000000, -0.000000000000000000 ) ) ;
#125 = EDGE_CURVE ( 'NONE', #40, #455, #423, .T. ) ;
#126 = CARTESIAN_POINT ( 'NONE',  ( 5.000000000000000888, -56.99999999999999289, 10.00000000000000000 ) ) ;
#127 = ORIENTED_EDGE ( 'NONE', *, *, #64, .F. ) ;
#128 = CARTESIAN_POINT ( 'NONE',  ( 5.000000000000000888, -56.99999999999999289, 10.00000000000000000 ) ) ;
#129 = ORIENTED_EDGE ( 'NONE', *, *, #138, .F. ) ;
#130 = EDGE_CURVE ( 'NONE', #190, #35, #237, .T. ) ;
#131 = DIRECTION ( 'NONE',  ( 1.734723475976807094E-16, -1.000000000000000000, -0.000000000000000000 ) ) ;
#132 = ORIENTED_EDGE ( 'NONE', *, *, #314, .T. ) ;
#133 = DIRECTION ( 'NONE',  ( 0.000000000000000000, 0.000000000000000000, 1.000000000000000000 ) ) ;
#134 = AXIS2_PLACEMENT_3D ( 'NONE', #144, #36, #329 ) ;
#135 = CARTESIAN_POINT ( 'NONE',  ( 14.99999999999999289, -56.99999999999999289, 0.000000000000000000 ) ) ;
#136 = CARTESIAN_POINT ( 'NONE',  ( -10.00000000000000000, 2.999999999999998668, 10.00000000000000000 ) ) ;
#137 = VERTEX_POINT ( 'NONE', #122 ) ;
#138 = EDGE_CURVE ( 'NONE', #304, #116, #57, .T. ) ;
#139 = AXIS2_PLACEMENT_3D ( 'NONE', #243, #385, #51 ) ;
#140 = LINE ( 'NONE', #251, #150 ) ;
#141 = PLANE ( 'NONE',  #200 ) ;
#142 = PLANE ( 'NONE',  #467 ) ;
#143 = EDGE_LOOP ( 'NONE', ( #65, #228, #24, #204 ) ) ;
#144 = CARTESIAN_POINT ( 'NONE',  ( -10.00000000000000000, -1.224646799147353454E-15, 10.00000000000000000 ) ) ;
#145 = VECTOR ( 'NONE', #413, 1000.000000000000000 ) ;
#146 = ORIENTED_EDGE ( 'NONE', *, *, #262, .T. ) ;
#147 = LINE ( 'NONE', #117, #246 ) ;
#148 = ORIENTED_EDGE ( 'NONE', *, *, #62, .F. ) ;
#149 = DIRECTION ( 'NONE',  ( -0.000000000000000000, -0.000000000000000000, -1.000000000000000000 ) ) ;
#150 = VECTOR ( 'NONE', #333, 1000.000000000000000 ) ;
#151 = DIRECTION ( 'NONE',  ( 0.000000000000000000, 1.000000000000000000, -0.000000000000000000 ) ) ;
#152 = VERTEX_POINT ( 'NONE', #119 ) ;
#153 = LINE ( 'NONE', #256, #425 ) ;
#154 = DIRECTION ( 'NONE',  ( -0.000000000000000000, -1.000000000000000000, -0.000000000000000000 ) ) ;
#155 = VERTEX_POINT ( 'NONE', #227 ) ;
#156 = CARTESIAN_POINT ( 'NONE',  ( 4.999999999999992895, 2.999999999999999556, 10.00000000000000000 ) ) ;
#157 = CARTESIAN_POINT ( 'NONE',  ( -10.00000000000000000, -1.224646799147353454E-15, 10.00000000000000000 ) ) ;
#158 = DIRECTION ( 'NONE',  ( -1.000000000000000000, -1.224646799147353454E-16, 0.000000000000000000 ) ) ;
#159 = FACE_BOUND ( 'NONE', #422, .T. ) ;
#160 = FACE_BOUND ( 'NONE', #240, .T. ) ;
#161 = CARTESIAN_POINT ( 'NONE',  ( -5.000000000000000000, -8.673617379884035472E-16, 5.000000000000000888 ) ) ;
#162 = DIRECTION ( 'NONE',  ( 1.000000000000000000, 0.000000000000000000, 0.000000000000000000 ) ) ;
#163 = VECTOR ( 'NONE', #95, 1000.000000000000000 ) ;
#164 = CARTESIAN_POINT ( 'NONE',  ( 14.99999999999999467, -60.00000000000000000, 10.00000000000000000 ) ) ;
#165 = EDGE_LOOP ( 'NONE', ( #198, #253, #435, #297 ) ) ;
#166 = ADVANCED_FACE ( 'NONE', ( #439 ), #233, .F. ) ;
#167 = CARTESIAN_POINT ( 'NONE',  ( -10.00000000000000000, -1.224646799147353454E-15, 10.00000000000000000 ) ) ;
#168 = MECHANICAL_DESIGN_GEOMETRIC_PRESENTATION_REPRESENTATION (  '', ( #37 ), #12 ) ;
#169 = VERTEX_POINT ( 'NONE', #343 ) ;
#170 = VERTEX_POINT ( 'NONE', #384 ) ;
#171 = ORIENTED_EDGE ( 'NONE', *, *, #404, .F. ) ;
#172 = EDGE_CURVE ( 'NONE', #321, #155, #447, .T. ) ;
#173 = DIRECTION ( 'NONE',  ( 1.301042606982605321E-16, -1.000000000000000000, 0.000000000000000000 ) ) ;
#174 = ORIENTED_EDGE ( 'NONE', *, *, #87, .T. ) ;
#175 = DIRECTION ( 'NONE',  ( 0.000000000000000000, 1.000000000000000000, -0.000000000000000000 ) ) ;
#176 = VERTEX_POINT ( 'NONE', #126 ) ;
#177 = VERTEX_POINT ( 'NONE', #92 ) ;
#178 = CIRCLE ( 'NONE', #78, 2.149999999999999911 ) ;
#179 = DIRECTION ( 'NONE',  ( 5.782411586589351722E-16, -1.000000000000000000, 0.000000000000000000 ) ) ;
#180 = PRESENTATION_LAYER_ASSIGNMENT (  '', '', ( #37 ) ) ;
#181 = ORIENTED_EDGE ( 'NONE', *, *, #130, .T. ) ;
#182 = CARTESIAN_POINT ( 'NONE',  ( -5.000000000000000888, 2.999999999999998668, 5.000000000000000888 ) ) ;
#183 = DIRECTION ( 'NONE',  ( 1.000000000000000000, 5.782411586589359857E-17, 0.000000000000000000 ) ) ;
#184 = ORIENTED_EDGE ( 'NONE', *, *, #291, .T. ) ;
#185 = CARTESIAN_POINT ( 'NONE',  ( -5.000000000000000000, -7.000000000000000888, 5.000000000000000888 ) ) ;
#186 = CARTESIAN_POINT ( 'NONE',  ( 14.99999999999999467, -60.00000000000000000, 0.000000000000000000 ) ) ;
#187 = ORIENTED_EDGE ( 'NONE', *, *, #311, .F. ) ;
#188 = DIRECTION ( 'NONE',  ( 0.000000000000000000, 0.000000000000000000, 1.000000000000000000 ) ) ;
#189 = DIRECTION ( 'NONE',  ( 1.000000000000000000, -0.000000000000000000, -0.000000000000000000 ) ) ;
#190 = VERTEX_POINT ( 'NONE', #231 ) ;
#191 = LINE ( 'NONE', #7, #264 ) ;
#192 =( NAMED_UNIT ( * ) PLANE_ANGLE_UNIT ( ) SI_UNIT ( $, .RADIAN. ) );
#193 = CARTESIAN_POINT ( 'NONE',  ( 9.999999999999989342, -66.99999999999998579, 6.650000000000001243 ) ) ;
#194 = DIRECTION ( 'NONE',  ( -1.000000000000000000, 0.000000000000000000, 0.000000000000000000 ) ) ;
#195 = EDGE_CURVE ( 'NONE', #35, #32, #54, .T. ) ;
#196 = AXIS2_PLACEMENT_3D ( 'NONE', #59, #307, #318 ) ;
#197 = SURFACE_STYLE_FILL_AREA ( #450 ) ;
#198 = ORIENTED_EDGE ( 'NONE', *, *, #375, .T. ) ;
#199 = APPLICATION_PROTOCOL_DEFINITION ( 'draft international standard', 'automotive_design', 1998, #419 ) ;
#200 = AXIS2_PLACEMENT_3D ( 'NONE', #432, #248, #173 ) ;
#201 = CYLINDRICAL_SURFACE ( 'NONE', #196, 1.650000000000000355 ) ;
#202 = ORIENTED_EDGE ( 'NONE', *, *, #404, .T. ) ;
#203 = VECTOR ( 'NONE', #269, 1000.000000000000000 ) ;
#204 = ORIENTED_EDGE ( 'NONE', *, *, #195, .F. ) ;
#205 = CIRCLE ( 'NONE', #31, 2.149999999999999911 ) ;
#206 = ADVANCED_FACE ( 'NONE', ( #363, #428 ), #369, .F. ) ;
#207 = DIRECTION ( 'NONE',  ( -1.224646799147353454E-16, 1.000000000000000000, 0.000000000000000000 ) ) ;
#208 = AXIS2_PLACEMENT_3D ( 'NONE', #110, #175, #247 ) ;
#209 = CARTESIAN_POINT ( 'NONE',  ( -5.000000000000000888, 2.999999999999998668, 5.000000000000000888 ) ) ;
#210 = VERTEX_POINT ( 'NONE', #290 ) ;
#211 = APPLICATION_CONTEXT ( 'automotive_design' ) ;
#212 = DIRECTION ( 'NONE',  ( -0.000000000000000000, -1.000000000000000000, -0.000000000000000000 ) ) ;
#213 = VECTOR ( 'NONE', #124, 1000.000000000000000 ) ;
#214 = EDGE_CURVE ( 'NONE', #225, #116, #398, .T. ) ;
#215 = ORIENTED_EDGE ( 'NONE', *, *, #314, .F. ) ;
#216 = LINE ( 'NONE', #416, #79 ) ;
#217 = ORIENTED_EDGE ( 'NONE', *, *, #87, .F. ) ;
#218 = CIRCLE ( 'NONE', #139, 2.149999999999999911 ) ;
#219 = ADVANCED_FACE ( 'NONE', ( #326 ), #142, .F. ) ;
#220 = CARTESIAN_POINT ( 'NONE',  ( 4.999999999999992895, 2.999999999999999556, 10.00000000000000000 ) ) ;
#221 = ORIENTED_EDGE ( 'NONE', *, *, #125, .F. ) ;
#222 = LINE ( 'NONE', #85, #239 ) ;
#223 = ADVANCED_BREP_SHAPE_REPRESENTATION ( 'mocap_angle_fix', ( #98, #279 ), #285 ) ;
#224 =( LENGTH_UNIT ( ) NAMED_UNIT ( * ) SI_UNIT ( .MILLI., .METRE. ) );
#225 = VERTEX_POINT ( 'NONE', #39 ) ;
#226 = DIRECTION ( 'NONE',  ( -5.782411586589351722E-16, 1.000000000000000000, -0.000000000000000000 ) ) ;
#227 = CARTESIAN_POINT ( 'NONE',  ( -10.00000000000000000, -1.224646799147353454E-15, 10.00000000000000000 ) ) ;
#228 = ORIENTED_EDGE ( 'NONE', *, *, #317, .T. ) ;
#229 = AXIS2_PLACEMENT_3D ( 'NONE', #58, #459, #325 ) ;
#230 = CARTESIAN_POINT ( 'NONE',  ( 9.999999999999989342, -66.99999999999998579, 3.350000000000000533 ) ) ;
#231 = CARTESIAN_POINT ( 'NONE',  ( 9.999999999999989342, -60.00000000000000000, 3.350000000000000089 ) ) ;
#232 = ORIENTED_EDGE ( 'NONE', *, *, #353, .T. ) ;
#233 = PLANE ( 'NONE',  #86 ) ;
#234 = CARTESIAN_POINT ( 'NONE',  ( 9.999999999999989342, -56.99999999999999289, 5.000000000000000888 ) ) ;
#235 = DIRECTION ( 'NONE',  ( 0.000000000000000000, -0.000000000000000000, -1.000000000000000000 ) ) ;
#236 = PLANE ( 'NONE',  #111 ) ;
#237 = CIRCLE ( 'NONE', #320, 1.650000000000000355 ) ;
#238 = UNCERTAINTY_MEASURE_WITH_UNIT (LENGTH_MEASURE( 1.000000000000000082E-05 ), #224, 'distance_accuracy_value', 'NONE');
#239 = VECTOR ( 'NONE', #408, 1000.000000000000000 ) ;
#240 = EDGE_LOOP ( 'NONE', ( #418, #344 ) ) ;
#241 = DIRECTION ( 'NONE',  ( -0.000000000000000000, -0.000000000000000000, -1.000000000000000000 ) ) ;
#242 = CIRCLE ( 'NONE', #373, 1.650000000000000355 ) ;
#243 = CARTESIAN_POINT ( 'NONE',  ( -5.000000000000000000, -8.673617379884035472E-16, 5.000000000000000888 ) ) ;
#244 = EDGE_CURVE ( 'NONE', #169, #321, #140, .T. ) ;
#245 = AXIS2_PLACEMENT_3D ( 'NONE', #185, #341, #442 ) ;
#246 = VECTOR ( 'NONE', #113, 1000.000000000000000 ) ;
#247 = DIRECTION ( 'NONE',  ( 0.000000000000000000, 0.000000000000000000, 1.000000000000000000 ) ) ;
#248 = DIRECTION ( 'NONE',  ( -1.000000000000000000, -1.301042606982605321E-16, 0.000000000000000000 ) ) ;
#249 = ADVANCED_FACE ( 'NONE', ( #72 ), #70, .F. ) ;
#250 = EDGE_LOOP ( 'NONE', ( #76, #120, #69, #282 ) ) ;
#251 = CARTESIAN_POINT ( 'NONE',  ( -10.00000000000000000, 2.999999999999998668, 10.00000000000000000 ) ) ;
#252 = VECTOR ( 'NONE', #154, 1000.000000000000000 ) ;
#253 = ORIENTED_EDGE ( 'NONE', *, *, #391, .F. ) ;
#254 = EDGE_CURVE ( 'NONE', #259, #112, #205, .T. ) ;
#255 = VERTEX_POINT ( 'NONE', #296 ) ;
#256 = CARTESIAN_POINT ( 'NONE',  ( 1.040834085586084257E-14, -60.00000000000000000, 10.00000000000000000 ) ) ;
#257 = CIRCLE ( 'NONE', #339, 2.149999999999999911 ) ;
#258 = VECTOR ( 'NONE', #260, 1000.000000000000000 ) ;
#259 = VERTEX_POINT ( 'NONE', #331 ) ;
#260 = DIRECTION ( 'NONE',  ( 1.734723475976807094E-16, -1.000000000000000000, -0.000000000000000000 ) ) ;
#261 = VERTEX_POINT ( 'NONE', #466 ) ;
#262 = EDGE_CURVE ( 'NONE', #255, #170, #276, .T. ) ;
#263 = DIRECTION ( 'NONE',  ( -1.301042606982605321E-16, 1.000000000000000000, -0.000000000000000000 ) ) ;
#264 = VECTOR ( 'NONE', #149, 1000.000000000000000 ) ;
#265 = ORIENTED_EDGE ( 'NONE', *, *, #322, .T. ) ;
#266 = CARTESIAN_POINT ( 'NONE',  ( 0.000000000000000000, 0.000000000000000000, 10.00000000000000000 ) ) ;
#267 = CARTESIAN_POINT ( 'NONE',  ( 0.000000000000000000, 0.000000000000000000, 0.000000000000000000 ) ) ;
#268 = VERTEX_POINT ( 'NONE', #44 ) ;
#269 = DIRECTION ( 'NONE',  ( -5.782411586589359857E-17, 1.000000000000000000, -0.000000000000000000 ) ) ;
#270 = CARTESIAN_POINT ( 'NONE',  ( 1.040834085586084257E-14, -60.00000000000000000, 0.000000000000000000 ) ) ;
#271 = CARTESIAN_POINT ( 'NONE',  ( 4.999999999999992895, 2.999999999999999556, 0.000000000000000000 ) ) ;
#272 = FACE_OUTER_BOUND ( 'NONE', #143, .T. ) ;
#273 = CARTESIAN_POINT ( 'NONE',  ( -7.150000000000001243, 2.999999999999998668, 5.000000000000000888 ) ) ;
#274 = ORIENTED_EDGE ( 'NONE', *, *, #364, .F. ) ;
#275 = FACE_OUTER_BOUND ( 'NONE', #426, .T. ) ;
#276 = LINE ( 'NONE', #292, #67 ) ;
#277 = EDGE_CURVE ( 'NONE', #324, #259, #222, .T. ) ;
#278 =( NAMED_UNIT ( * ) SI_UNIT ( $, .STERADIAN. ) SOLID_ANGLE_UNIT ( ) );
#279 = AXIS2_PLACEMENT_3D ( 'NONE', #25, #22, #162 ) ;
#280 = ORIENTED_EDGE ( 'NONE', *, *, #430, .F. ) ;
#281 = LINE ( 'NONE', #427, #27 ) ;
#282 = ORIENTED_EDGE ( 'NONE', *, *, #29, .T. ) ;
#283 = CYLINDRICAL_SURFACE ( 'NONE', #402, 2.149999999999999911 ) ;
#284 = EDGE_CURVE ( 'NONE', #169, #268, #300, .T. ) ;
#285 =( GEOMETRIC_REPRESENTATION_CONTEXT ( 3 ) GLOBAL_UNCERTAINTY_ASSIGNED_CONTEXT ( ( #33 ) ) GLOBAL_UNIT_ASSIGNED_CONTEXT ( ( #449, #192, #278 ) ) REPRESENTATION_CONTEXT ( 'NONE', 'WORKASPACE' ) );
#286 = ORIENTED_EDGE ( 'NONE', *, *, #2, .F. ) ;
#287 = DIRECTION ( 'NONE',  ( -1.734723475976807094E-16, 1.000000000000000000, 0.000000000000000000 ) ) ;
#288 = FACE_OUTER_BOUND ( 'NONE', #337, .T. ) ;
#289 = PRODUCT_DEFINITION_CONTEXT ( 'detailed design', #419, 'design' ) ;
#290 = CARTESIAN_POINT ( 'NONE',  ( 9.999999999999989342, -56.99999999999999289, 3.350000000000000089 ) ) ;
#291 = EDGE_CURVE ( 'NONE', #112, #259, #257, .T. ) ;
#292 = CARTESIAN_POINT ( 'NONE',  ( -10.00000000000000000, -1.224646799147353454E-15, 0.000000000000000000 ) ) ;
#293 = VECTOR ( 'NONE', #131, 1000.000000000000000 ) ;
#294 = ORIENTED_EDGE ( 'NONE', *, *, #284, .F. ) ;
#295 = AXIS2_PLACEMENT_3D ( 'NONE', #47, #421, #443 ) ;
#296 = CARTESIAN_POINT ( 'NONE',  ( -10.00000000000000000, 2.999999999999998668, 0.000000000000000000 ) ) ;
#297 = ORIENTED_EDGE ( 'NONE', *, *, #430, .T. ) ;
#298 = DIRECTION ( 'NONE',  ( -1.000000000000000000, 0.000000000000000000, 0.000000000000000000 ) ) ;
#299 = EDGE_LOOP ( 'NONE', ( #217, #93, #332, #378, #444, #171, #127, #129 ) ) ;
#300 = LINE ( 'NONE', #220, #73 ) ;
#301 = DIRECTION ( 'NONE',  ( 1.000000000000000000, -0.000000000000000000, -0.000000000000000000 ) ) ;
#302 = ORIENTED_EDGE ( 'NONE', *, *, #60, .T. ) ;
#303 = PLANE ( 'NONE',  #400 ) ;
#304 = VERTEX_POINT ( 'NONE', #5 ) ;
#305 = ADVANCED_FACE ( 'NONE', ( #410 ), #303, .F. ) ;
#306 = LINE ( 'NONE', #266, #145 ) ;
#307 = DIRECTION ( 'NONE',  ( -0.000000000000000000, 1.000000000000000000, -0.000000000000000000 ) ) ;
#308 = PLANE ( 'NONE',  #295 ) ;
#309 = ORIENTED_EDGE ( 'NONE', *, *, #311, .T. ) ;
#310 = VECTOR ( 'NONE', #19, 1000.000000000000000 ) ;
#311 = EDGE_CURVE ( 'NONE', #137, #304, #153, .T. ) ;
#312 = FILL_AREA_STYLE_COLOUR ( '', #358 ) ;
#313 = DIRECTION ( 'NONE',  ( -0.000000000000000000, -0.000000000000000000, -1.000000000000000000 ) ) ;
#314 = EDGE_CURVE ( 'NONE', #225, #40, #382, .T. ) ;
#315 = SURFACE_SIDE_STYLE ('',( #197 ) ) ;
#316 = ORIENTED_EDGE ( 'NONE', *, *, #29, .F. ) ;
#317 = EDGE_CURVE ( 'NONE', #190, #210, #436, .T. ) ;
#318 = DIRECTION ( 'NONE',  ( 0.000000000000000000, 0.000000000000000000, 1.000000000000000000 ) ) ;
#319 = VECTOR ( 'NONE', #313, 1000.000000000000000 ) ;
#320 = AXIS2_PLACEMENT_3D ( 'NONE', #377, #151, #8 ) ;
#321 = VERTEX_POINT ( 'NONE', #49 ) ;
#322 = EDGE_CURVE ( 'NONE', #43, #112, #406, .T. ) ;
#323 = LINE ( 'NONE', #271, #3 ) ;
#324 = VERTEX_POINT ( 'NONE', #338 ) ;
#325 = DIRECTION ( 'NONE',  ( 0.000000000000000000, 0.000000000000000000, 1.000000000000000000 ) ) ;
#326 = FACE_OUTER_BOUND ( 'NONE', #63, .T. ) ;
#327 = AXIS2_PLACEMENT_3D ( 'NONE', #68, #207, #365 ) ;
#328 = FACE_BOUND ( 'NONE', #114, .T. ) ;
#329 = DIRECTION ( 'NONE',  ( 0.000000000000000000, 0.000000000000000000, -1.000000000000000000 ) ) ;
#330 = PRODUCT_DEFINITION_SHAPE ( 'NONE', 'NONE',  #100 ) ;
#331 = CARTESIAN_POINT ( 'NONE',  ( -2.850000000000000977, 2.999999999999998668, 5.000000000000000888 ) ) ;
#332 = ORIENTED_EDGE ( 'NONE', *, *, #262, .F. ) ;
#333 = DIRECTION ( 'NONE',  ( -1.000000000000000000, -5.782411586589359857E-17, -0.000000000000000000 ) ) ;
#334 = CIRCLE ( 'NONE', #229, 1.650000000000000355 ) ;
#335 = ORIENTED_EDGE ( 'NONE', *, *, #214, .F. ) ;
#336 = LINE ( 'NONE', #345, #370 ) ;
#337 = EDGE_LOOP ( 'NONE', ( #347, #294, #274, #232 ) ) ;
#338 = CARTESIAN_POINT ( 'NONE',  ( -2.850000000000000089, -6.040626761717226237E-16, 5.000000000000000888 ) ) ;
#339 = AXIS2_PLACEMENT_3D ( 'NONE', #182, #52, #298 ) ;
#340 = EDGE_LOOP ( 'NONE', ( #202, #371, #1, #104 ) ) ;
#341 = DIRECTION ( 'NONE',  ( -5.782411586589359857E-17, 1.000000000000000000, -0.000000000000000000 ) ) ;
#342 = EDGE_CURVE ( 'NONE', #35, #190, #94, .T. ) ;
#343 = CARTESIAN_POINT ( 'NONE',  ( 4.999999999999992895, 2.999999999999999556, 10.00000000000000000 ) ) ;
#344 = ORIENTED_EDGE ( 'NONE', *, *, #254, .F. ) ;
#345 = CARTESIAN_POINT ( 'NONE',  ( 0.000000000000000000, 0.000000000000000000, 10.00000000000000000 ) ) ;
#346 = DIRECTION ( 'NONE',  ( 5.782411586589359857E-17, -1.000000000000000000, 0.000000000000000000 ) ) ;
#347 = ORIENTED_EDGE ( 'NONE', *, *, #21, .T. ) ;
#348 = EDGE_CURVE ( 'NONE', #40, #176, #147, .T. ) ;
#349 = DIRECTION ( 'NONE',  ( 1.000000000000000000, 1.224646799147353454E-16, -0.000000000000000000 ) ) ;
#350 = CARTESIAN_POINT ( 'NONE',  ( 14.99999999999999467, -60.00000000000000000, 0.000000000000000000 ) ) ;
#351 = ORIENTED_EDGE ( 'NONE', *, *, #348, .T. ) ;
#352 = LINE ( 'NONE', #167, #394 ) ;
#353 = EDGE_CURVE ( 'NONE', #176, #261, #191, .T. ) ;
#354 = CARTESIAN_POINT ( 'NONE',  ( -10.00000000000000000, 2.999999999999998668, 10.00000000000000000 ) ) ;
#355 = EDGE_LOOP ( 'NONE', ( #286, #464, #433, #123 ) ) ;
#356 = DIRECTION ( 'NONE',  ( -1.000000000000000000, -0.000000000000000000, -0.000000000000000000 ) ) ;
#357 = SHAPE_DEFINITION_REPRESENTATION ( #330, #223 ) ;
#358 = COLOUR_RGB ( '',0.7921568627450980005, 0.8196078431372548767, 0.9333333333333333481 ) ;
#359 = LINE ( 'NONE', #136, #319 ) ;
#360 = EDGE_CURVE ( 'NONE', #155, #177, #336, .T. ) ;
#361 = ORIENTED_EDGE ( 'NONE', *, *, #360, .T. ) ;
#362 = PRODUCT ( 'mocap_angle_fix', 'mocap_angle_fix', '', ( #393 ) ) ;
#363 = FACE_BOUND ( 'NONE', #405, .T. ) ;
#364 = EDGE_CURVE ( 'NONE', #176, #169, #14, .T. ) ;
#365 = DIRECTION ( 'NONE',  ( -1.000000000000000000, -1.224646799147353454E-16, 0.000000000000000000 ) ) ;
#366 = ORIENTED_EDGE ( 'NONE', *, *, #66, .F. ) ;
#367 = EDGE_CURVE ( 'NONE', #177, #137, #82, .T. ) ;
#368 = ORIENTED_EDGE ( 'NONE', *, *, #342, .T. ) ;
#369 = PLANE ( 'NONE',  #208 ) ;
#370 = VECTOR ( 'NONE', #349, 1000.000000000000000 ) ;
#371 = ORIENTED_EDGE ( 'NONE', *, *, #353, .F. ) ;
#372 = CARTESIAN_POINT ( 'NONE',  ( 14.99999999999999289, -56.99999999999999289, 10.00000000000000000 ) ) ;
#373 = AXIS2_PLACEMENT_3D ( 'NONE', #234, #390, #429 ) ;
#374 = ORIENTED_EDGE ( 'NONE', *, *, #66, .T. ) ;
#375 = EDGE_CURVE ( 'NONE', #170, #152, #216, .T. ) ;
#376 = LINE ( 'NONE', #89, #101 ) ;
#377 = CARTESIAN_POINT ( 'NONE',  ( 9.999999999999989342, -60.00000000000000000, 5.000000000000000888 ) ) ;
#378 = ORIENTED_EDGE ( 'NONE', *, *, #380, .F. ) ;
#379 = DIRECTION ( 'NONE',  ( 1.000000000000000000, 1.224646799147353454E-16, -0.000000000000000000 ) ) ;
#380 = EDGE_CURVE ( 'NONE', #268, #255, #376, .T. ) ;
#381 = ORIENTED_EDGE ( 'NONE', *, *, #284, .T. ) ;
#382 = LINE ( 'NONE', #445, #456 ) ;
#383 = ADVANCED_FACE ( 'NONE', ( #386 ), #17, .F. ) ;
#384 = CARTESIAN_POINT ( 'NONE',  ( -10.00000000000000000, -1.224646799147353454E-15, 0.000000000000000000 ) ) ;
#385 = DIRECTION ( 'NONE',  ( -1.224646799147353454E-16, 1.000000000000000000, 0.000000000000000000 ) ) ;
#386 = FACE_OUTER_BOUND ( 'NONE', #74, .T. ) ;
#387 = SURFACE_STYLE_USAGE ( .BOTH. , #315 ) ;
#388 = CARTESIAN_POINT ( 'NONE',  ( 14.99999999999999289, -56.99999999999999289, 10.00000000000000000 ) ) ;
#389 = FACE_OUTER_BOUND ( 'NONE', #250, .T. ) ;
#390 = DIRECTION ( 'NONE',  ( 0.000000000000000000, 1.000000000000000000, 0.000000000000000000 ) ) ;
#391 = EDGE_CURVE ( 'NONE', #177, #152, #306, .T. ) ;
#392 = LINE ( 'NONE', #26, #462 ) ;
#393 = PRODUCT_CONTEXT ( 'NONE', #211, 'mechanical' ) ;
#394 = VECTOR ( 'NONE', #446, 1000.000000000000000 ) ;
#395 = VECTOR ( 'NONE', #301, 1000.000000000000000 ) ;
#396 = ADVANCED_FACE ( 'NONE', ( #159, #434 ), #236, .F. ) ;
#397 = ORIENTED_EDGE ( 'NONE', *, *, #172, .T. ) ;
#398 = LINE ( 'NONE', #431, #457 ) ;
#399 = PLANE ( 'NONE',  #327 ) ;
#400 = AXIS2_PLACEMENT_3D ( 'NONE', #372, #42, #179 ) ;
#401 = PRODUCT_RELATED_PRODUCT_CATEGORY ( 'part', '', ( #362 ) ) ;
#402 = AXIS2_PLACEMENT_3D ( 'NONE', #99, #20, #194 ) ;
#403 = CARTESIAN_POINT ( 'NONE',  ( 1.040834085586084257E-14, -60.00000000000000000, 10.00000000000000000 ) ) ;
#404 = EDGE_CURVE ( 'NONE', #455, #261, #392, .T. ) ;
#405 = EDGE_LOOP ( 'NONE', ( #368, #181 ) ) ;
#406 = LINE ( 'NONE', #75, #203 ) ;
#407 = EDGE_LOOP ( 'NONE', ( #6, #41, #460, #381 ) ) ;
#408 = DIRECTION ( 'NONE',  ( -5.782411586589359857E-17, 1.000000000000000000, -0.000000000000000000 ) ) ;
#409 = EDGE_LOOP ( 'NONE', ( #440, #335, #4, #309 ) ) ;
#410 = FACE_OUTER_BOUND ( 'NONE', #109, .T. ) ;
#411 = CARTESIAN_POINT ( 'NONE',  ( 14.99999999999999289, -56.99999999999999289, 10.00000000000000000 ) ) ;
#412 = ORIENTED_EDGE ( 'NONE', *, *, #172, .F. ) ;
#413 = DIRECTION ( 'NONE',  ( -0.000000000000000000, -0.000000000000000000, -1.000000000000000000 ) ) ;
#414 = LINE ( 'NONE', #164, #90 ) ;
#415 = ORIENTED_EDGE ( 'NONE', *, *, #64, .T. ) ;
#416 = CARTESIAN_POINT ( 'NONE',  ( 0.000000000000000000, 0.000000000000000000, 0.000000000000000000 ) ) ;
#417 =( NAMED_UNIT ( * ) PLANE_ANGLE_UNIT ( ) SI_UNIT ( $, .RADIAN. ) );
#418 = ORIENTED_EDGE ( 'NONE', *, *, #291, .F. ) ;
#419 = APPLICATION_CONTEXT ( 'automotive_design' ) ;
#420 = CARTESIAN_POINT ( 'NONE',  ( 9.999999999999989342, -66.99999999999998579, 5.000000000000000888 ) ) ;
#421 = DIRECTION ( 'NONE',  ( 0.000000000000000000, 0.000000000000000000, 1.000000000000000000 ) ) ;
#422 = EDGE_LOOP ( 'NONE', ( #316, #148 ) ) ;
#423 = LINE ( 'NONE', #411, #163 ) ;
#424 = DIRECTION ( 'NONE',  ( -1.301042606982605321E-16, 1.000000000000000000, -0.000000000000000000 ) ) ;
#425 = VECTOR ( 'NONE', #121, 1000.000000000000000 ) ;
#426 = EDGE_LOOP ( 'NONE', ( #13, #451, #132, #351, #80, #84, #397, #361 ) ) ;
#427 = CARTESIAN_POINT ( 'NONE',  ( 14.99999999999999289, -56.99999999999999289, 0.000000000000000000 ) ) ;
#428 = FACE_OUTER_BOUND ( 'NONE', #409, .T. ) ;
#429 = DIRECTION ( 'NONE',  ( 0.000000000000000000, 0.000000000000000000, 1.000000000000000000 ) ) ;
#430 = EDGE_CURVE ( 'NONE', #155, #170, #352, .T. ) ;
#431 = CARTESIAN_POINT ( 'NONE',  ( 14.99999999999999467, -60.00000000000000000, 10.00000000000000000 ) ) ;
#432 = CARTESIAN_POINT ( 'NONE',  ( 4.999999999999992895, 2.999999999999999556, 10.00000000000000000 ) ) ;
#433 = ORIENTED_EDGE ( 'NONE', *, *, #254, .T. ) ;
#434 = FACE_OUTER_BOUND ( 'NONE', #340, .T. ) ;
#435 = ORIENTED_EDGE ( 'NONE', *, *, #360, .F. ) ;
#436 = LINE ( 'NONE', #230, #213 ) ;
#437 = ORIENTED_EDGE ( 'NONE', *, *, #277, .F. ) ;
#438 = DIRECTION ( 'NONE',  ( 0.000000000000000000, 1.000000000000000000, -0.000000000000000000 ) ) ;
#439 = FACE_OUTER_BOUND ( 'NONE', #299, .T. ) ;
#440 = ORIENTED_EDGE ( 'NONE', *, *, #138, .T. ) ;
#441 = ADVANCED_FACE ( 'NONE', ( #272 ), #201, .F. ) ;
#442 = DIRECTION ( 'NONE',  ( -1.000000000000000000, 0.000000000000000000, 0.000000000000000000 ) ) ;
#443 = DIRECTION ( 'NONE',  ( 1.000000000000000000, 0.000000000000000000, -0.000000000000000000 ) ) ;
#444 = ORIENTED_EDGE ( 'NONE', *, *, #21, .F. ) ;
#445 = CARTESIAN_POINT ( 'NONE',  ( 14.99999999999999289, -56.99999999999999289, 10.00000000000000000 ) ) ;
#446 = DIRECTION ( 'NONE',  ( -0.000000000000000000, -0.000000000000000000, -1.000000000000000000 ) ) ;
#447 = LINE ( 'NONE', #157, #252 ) ;
#448 = CARTESIAN_POINT ( 'NONE',  ( 9.999999999999989342, -56.99999999999999289, 6.650000000000001243 ) ) ;
#449 =( LENGTH_UNIT ( ) NAMED_UNIT ( * ) SI_UNIT ( .MILLI., .METRE. ) );
#450 = FILL_AREA_STYLE ('',( #312 ) ) ;
#451 = ORIENTED_EDGE ( 'NONE', *, *, #97, .T. ) ;
#452 = DIRECTION ( 'NONE',  ( 0.000000000000000000, -1.000000000000000000, 0.000000000000000000 ) ) ;
#453 = ADVANCED_FACE ( 'NONE', ( #389 ), #53, .F. ) ;
#454 =( NAMED_UNIT ( * ) SI_UNIT ( $, .STERADIAN. ) SOLID_ANGLE_UNIT ( ) );
#455 = VERTEX_POINT ( 'NONE', #135 ) ;
#456 = VECTOR ( 'NONE', #226, 1000.000000000000000 ) ;
#457 = VECTOR ( 'NONE', #241, 1000.000000000000000 ) ;
#458 = DIRECTION ( 'NONE',  ( -0.000000000000000000, 1.000000000000000000, -0.000000000000000000 ) ) ;
#459 = DIRECTION ( 'NONE',  ( 0.000000000000000000, 1.000000000000000000, 0.000000000000000000 ) ) ;
#460 = ORIENTED_EDGE ( 'NONE', *, *, #244, .F. ) ;
#461 = DIRECTION ( 'NONE',  ( 1.000000000000000000, 1.734723475976807094E-16, -0.000000000000000000 ) ) ;
#462 = VECTOR ( 'NONE', #356, 1000.000000000000000 ) ;
#463 = FACE_OUTER_BOUND ( 'NONE', #165, .T. ) ;
#464 = ORIENTED_EDGE ( 'NONE', *, *, #277, .T. ) ;
#465 = DIRECTION ( 'NONE',  ( -1.000000000000000000, 0.000000000000000000, 0.000000000000000000 ) ) ;
#466 = CARTESIAN_POINT ( 'NONE',  ( 5.000000000000000888, -56.99999999999999289, 0.000000000000000000 ) ) ;
#467 = AXIS2_PLACEMENT_3D ( 'NONE', #403, #461, #287 ) ;
ENDSEC;
END-ISO-10303-21;
