ISO-10303-21;
HEADER;
FILE_DESCRIPTION (( 'STEP AP214' ),
    '1' );
FILE_NAME ('sensor_pipe_holder_top.STEP',
    '2026-08-26T04:39:04',
    ( '' ),
    ( '' ),
    'SwSTEP 2.0',
    'SolidWorks 2024',
    '' );
FILE_SCHEMA (( 'AUTOMOTIVE_DESIGN' ));
ENDSEC;

DATA;
#1 = VECTOR ( 'NONE', #380, 1000.000000000000000 ) ;
#2 = CIRCLE ( 'NONE', #266, 19.10000000000000142 ) ;
#3 = CARTESIAN_POINT ( 'NONE',  ( 0.000000000000000000, 0.000000000000000000, 28.00000000000000000 ) ) ;
#4 = ORIENTED_EDGE ( 'NONE', *, *, #199, .F. ) ;
#5 = ADVANCED_FACE ( 'NONE', ( #13 ), #533, .F. ) ;
#6 = LINE ( 'NONE', #398, #469 ) ;
#7 = ORIENTED_EDGE ( 'NONE', *, *, #337, .F. ) ;
#8 = EDGE_CURVE ( 'NONE', #276, #419, #219, .T. ) ;
#9 = DIRECTION ( 'NONE',  ( -1.000000000000000000, 0.000000000000000000, 0.000000000000000000 ) ) ;
#10 = ORIENTED_EDGE ( 'NONE', *, *, #225, .F. ) ;
#11 = FACE_OUTER_BOUND ( 'NONE', #486, .T. ) ;
#12 = CLOSED_SHELL ( 'NONE', ( #5, #350, #432, #217, #236, #381, #18, #305, #315, #539, #474, #523, #182, #157, #154, #342, #103 ) ) ;
#13 = FACE_OUTER_BOUND ( 'NONE', #181, .T. ) ;
#14 = SURFACE_SIDE_STYLE ('',( #534 ) ) ;
#15 = ORIENTED_EDGE ( 'NONE', *, *, #408, .T. ) ;
#16 = CARTESIAN_POINT ( 'NONE',  ( -22.49999999999997868, 10.00000000000000000, 31.00000000000000000 ) ) ;
#17 = ORIENTED_EDGE ( 'NONE', *, *, #178, .F. ) ;
#18 = ADVANCED_FACE ( 'NONE', ( #165 ), #203, .F. ) ;
#19 = LINE ( 'NONE', #195, #273 ) ;
#20 = EDGE_LOOP ( 'NONE', ( #498, #133, #282, #170 ) ) ;
#21 = VECTOR ( 'NONE', #9, 1000.000000000000000 ) ;
#22 = VECTOR ( 'NONE', #467, 1000.000000000000000 ) ;
#23 = CYLINDRICAL_SURFACE ( 'NONE', #60, 1.649999999999998579 ) ;
#24 = VERTEX_POINT ( 'NONE', #128 ) ;
#25 = EDGE_CURVE ( 'NONE', #449, #456, #293, .T. ) ;
#26 = PRODUCT_DEFINITION_SHAPE ( 'NONE', 'NONE',  #371 ) ;
#27 = LINE ( 'NONE', #73, #431 ) ;
#28 = DIRECTION ( 'NONE',  ( -0.000000000000000000, -0.000000000000000000, 1.000000000000000000 ) ) ;
#29 = FACE_OUTER_BOUND ( 'NONE', #465, .T. ) ;
#30 = EDGE_CURVE ( 'NONE', #403, #518, #477, .T. ) ;
#31 = LINE ( 'NONE', #427, #365 ) ;
#32 = ORIENTED_EDGE ( 'NONE', *, *, #462, .T. ) ;
#33 = VECTOR ( 'NONE', #341, 1000.000000000000000 ) ;
#34 = DIRECTION ( 'NONE',  ( 0.000000000000000000, 0.000000000000000000, -1.000000000000000000 ) ) ;
#35 = CARTESIAN_POINT ( 'NONE',  ( -30.49999999999997868, 0.000000000000000000, 31.00000000000000000 ) ) ;
#36 = DIRECTION ( 'NONE',  ( 0.000000000000000000, 0.000000000000000000, 1.000000000000000000 ) ) ;
#37 = CARTESIAN_POINT ( 'NONE',  ( 22.49999999999999289, 10.00000000000000000, 51.00000000000000711 ) ) ;
#38 = EDGE_LOOP ( 'NONE', ( #301, #44, #224, #321 ) ) ;
#39 = DIRECTION ( 'NONE',  ( 1.000000000000000000, 0.000000000000000000, 0.000000000000000000 ) ) ;
#40 = DIRECTION ( 'NONE',  ( 1.000000000000000000, -0.000000000000000000, -0.000000000000000000 ) ) ;
#41 = AXIS2_PLACEMENT_3D ( 'NONE', #363, #543, #197 ) ;
#42 = CARTESIAN_POINT ( 'NONE',  ( -22.49999999999997868, 10.00000000000000000, 51.00000000000000711 ) ) ;
#43 = DIRECTION ( 'NONE',  ( 0.000000000000000000, 0.000000000000000000, 1.000000000000000000 ) ) ;
#44 = ORIENTED_EDGE ( 'NONE', *, *, #515, .F. ) ;
#45 = APPLICATION_PROTOCOL_DEFINITION ( 'draft international standard', 'automotive_design', 1998, #94 ) ;
#46 = CARTESIAN_POINT ( 'NONE',  ( -19.09999999999999076, 10.00000000000000000, 28.00000000000000000 ) ) ;
#47 = ORIENTED_EDGE ( 'NONE', *, *, #422, .F. ) ;
#48 = DIRECTION ( 'NONE',  ( -0.000000000000000000, -0.000000000000000000, -1.000000000000000000 ) ) ;
#49 = CIRCLE ( 'NONE', #255, 1.649999999999998579 ) ;
#50 = DIRECTION ( 'NONE',  ( -1.156482317317873105E-15, 0.000000000000000000, -1.000000000000000000 ) ) ;
#51 = ORIENTED_EDGE ( 'NONE', *, *, #130, .F. ) ;
#52 = EDGE_CURVE ( 'NONE', #297, #100, #78, .T. ) ;
#53 = DIRECTION ( 'NONE',  ( 1.000000000000000000, 0.000000000000000000, 0.000000000000000000 ) ) ;
#54 = VERTEX_POINT ( 'NONE', #84 ) ;
#55 = EDGE_CURVE ( 'NONE', #458, #297, #383, .T. ) ;
#56 = CARTESIAN_POINT ( 'NONE',  ( -26.49999999999998224, 5.000000000000000000, -0.001000000000001000089 ) ) ;
#57 = EDGE_LOOP ( 'NONE', ( #405, #156, #482, #175 ) ) ;
#58 = DIRECTION ( 'NONE',  ( -1.156482317317873105E-15, -0.000000000000000000, 1.000000000000000000 ) ) ;
#59 = AXIS2_PLACEMENT_3D ( 'NONE', #186, #479, #389 ) ;
#60 = AXIS2_PLACEMENT_3D ( 'NONE', #446, #101, #269 ) ;
#61 = ORIENTED_EDGE ( 'NONE', *, *, #483, .T. ) ;
#62 = EDGE_CURVE ( 'NONE', #562, #527, #506, .T. ) ;
#63 = CARTESIAN_POINT ( 'NONE',  ( 19.10000000000001208, 0.000000000000000000, 28.00000000000000000 ) ) ;
#64 = EDGE_LOOP ( 'NONE', ( #10, #412 ) ) ;
#65 = DIRECTION ( 'NONE',  ( 0.000000000000000000, 0.000000000000000000, -1.000000000000000000 ) ) ;
#66 = ORIENTED_EDGE ( 'NONE', *, *, #241, .T. ) ;
#67 = EDGE_CURVE ( 'NONE', #313, #177, #333, .T. ) ;
#68 = VERTEX_POINT ( 'NONE', #211 ) ;
#69 = AXIS2_PLACEMENT_3D ( 'NONE', #260, #529, #221 ) ;
#70 = EDGE_CURVE ( 'NONE', #449, #313, #31, .T. ) ;
#71 = LINE ( 'NONE', #242, #366 ) ;
#72 = DIRECTION ( 'NONE',  ( -0.000000000000000000, -0.000000000000000000, 1.000000000000000000 ) ) ;
#73 = CARTESIAN_POINT ( 'NONE',  ( 22.49999999999999289, 0.000000000000000000, 51.00000000000000711 ) ) ;
#74 = DIRECTION ( 'NONE',  ( -0.000000000000000000, -0.000000000000000000, 1.000000000000000000 ) ) ;
#75 = ORIENTED_EDGE ( 'NONE', *, *, #277, .T. ) ;
#76 = EDGE_CURVE ( 'NONE', #456, #562, #468, .T. ) ;
#77 = CARTESIAN_POINT ( 'NONE',  ( -30.49999999999997868, 0.000000000000000000, 31.00000000000000000 ) ) ;
#78 = LINE ( 'NONE', #246, #179 ) ;
#79 = AXIS2_PLACEMENT_3D ( 'NONE', #231, #395, #180 ) ;
#80 = CARTESIAN_POINT ( 'NONE',  ( 0.000000000000000000, 10.00000000000000000, 28.00000000000000000 ) ) ;
#81 = EDGE_CURVE ( 'NONE', #419, #276, #409, .T. ) ;
#82 = CARTESIAN_POINT ( 'NONE',  ( 30.49999999999999645, 10.00000000000000000, 28.00000000000000000 ) ) ;
#83 = CARTESIAN_POINT ( 'NONE',  ( 30.50000000000000000, 10.00000000000000000, 31.00000000000000711 ) ) ;
#84 = CARTESIAN_POINT ( 'NONE',  ( -30.49999999999997513, 10.00000000000000000, 28.00000000000000000 ) ) ;
#85 = DIRECTION ( 'NONE',  ( -0.000000000000000000, -1.000000000000000000, -0.000000000000000000 ) ) ;
#86 = PRESENTATION_LAYER_ASSIGNMENT (  '', '', ( #97 ) ) ;
#87 = CARTESIAN_POINT ( 'NONE',  ( 22.49999999999999289, 10.00000000000000000, 51.00000000000000711 ) ) ;
#88 = VECTOR ( 'NONE', #164, 1000.000000000000000 ) ;
#89 = LINE ( 'NONE', #146, #441 ) ;
#90 = ORIENTED_EDGE ( 'NONE', *, *, #256, .T. ) ;
#91 = SHAPE_DEFINITION_REPRESENTATION ( #26, #134 ) ;
#92 = PLANE ( 'NONE',  #501 ) ;
#93 = ORIENTED_EDGE ( 'NONE', *, *, #510, .F. ) ;
#94 = APPLICATION_CONTEXT ( 'automotive_design' ) ;
#95 = DIRECTION ( 'NONE',  ( 0.000000000000000000, 1.000000000000000000, -0.000000000000000000 ) ) ;
#96 = ORIENTED_EDGE ( 'NONE', *, *, #408, .F. ) ;
#97 = STYLED_ITEM ( 'NONE', ( #360 ), #336 ) ;
#98 = AXIS2_PLACEMENT_3D ( 'NONE', #286, #166, #158 ) ;
#99 = LINE ( 'NONE', #475, #509 ) ;
#100 = VERTEX_POINT ( 'NONE', #385 ) ;
#101 = DIRECTION ( 'NONE',  ( -0.000000000000000000, -0.000000000000000000, 1.000000000000000000 ) ) ;
#102 = ORIENTED_EDGE ( 'NONE', *, *, #25, .F. ) ;
#103 = ADVANCED_FACE ( 'NONE', ( #338 ), #289, .F. ) ;
#104 = FACE_OUTER_BOUND ( 'NONE', #570, .T. ) ;
#105 = EDGE_LOOP ( 'NONE', ( #396, #490, #399, #453 ) ) ;
#106 = VECTOR ( 'NONE', #167, 1000.000000000000000 ) ;
#107 = ORIENTED_EDGE ( 'NONE', *, *, #252, .T. ) ;
#108 = CARTESIAN_POINT ( 'NONE',  ( -28.14999999999998082, 5.000000000000000000, 28.00000000000000000 ) ) ;
#109 = ORIENTED_EDGE ( 'NONE', *, *, #528, .F. ) ;
#110 = LINE ( 'NONE', #404, #296 ) ;
#111 = ORIENTED_EDGE ( 'NONE', *, *, #209, .F. ) ;
#112 = PLANE ( 'NONE',  #136 ) ;
#113 = EDGE_LOOP ( 'NONE', ( #522, #359, #192, #93, #204, #15, #361, #233, #235, #185, #227 ) ) ;
#114 = VECTOR ( 'NONE', #28, 1000.000000000000000 ) ;
#115 = CIRCLE ( 'NONE', #443, 19.10000000000000142 ) ;
#116 = DIRECTION ( 'NONE',  ( 0.000000000000000000, -1.000000000000000000, 0.000000000000000000 ) ) ;
#117 = CARTESIAN_POINT ( 'NONE',  ( -30.49999999999997868, 10.00000000000000000, 31.00000000000000000 ) ) ;
#118 = ORIENTED_EDGE ( 'NONE', *, *, #76, .F. ) ;
#119 = CARTESIAN_POINT ( 'NONE',  ( 22.50000000000000000, 0.000000000000000000, 31.00000000000000711 ) ) ;
#120 = DIRECTION ( 'NONE',  ( 1.000000000000000000, 0.000000000000000000, 0.000000000000000000 ) ) ;
#121 = ORIENTED_EDGE ( 'NONE', *, *, #569, .F. ) ;
#122 = EDGE_CURVE ( 'NONE', #24, #456, #377, .T. ) ;
#123 = LINE ( 'NONE', #207, #421 ) ;
#124 = CARTESIAN_POINT ( 'NONE',  ( 22.50000000000000000, 0.000000000000000000, 31.00000000000000711 ) ) ;
#125 = VECTOR ( 'NONE', #172, 1000.000000000000000 ) ;
#126 = PRODUCT_DEFINITION_FORMATION_WITH_SPECIFIED_SOURCE ( 'ANY', '', #542, .NOT_KNOWN. ) ;
#127 = PLANE ( 'NONE',  #451 ) ;
#128 = CARTESIAN_POINT ( 'NONE',  ( -30.49999999999997513, 0.000000000000000000, 28.00000000000000000 ) ) ;
#129 = LINE ( 'NONE', #206, #212 ) ;
#130 = EDGE_CURVE ( 'NONE', #346, #419, #129, .T. ) ;
#131 = CARTESIAN_POINT ( 'NONE',  ( -22.49999999999997868, 0.000000000000000000, 31.00000000000000000 ) ) ;
#132 = CARTESIAN_POINT ( 'NONE',  ( -24.84999999999998366, 5.000000000000000000, 31.00000000000000000 ) ) ;
#133 = ORIENTED_EDGE ( 'NONE', *, *, #277, .F. ) ;
#134 = ADVANCED_BREP_SHAPE_REPRESENTATION ( 'sensor_pipe_holder_top', ( #336, #520 ), #386 ) ;
#135 = VECTOR ( 'NONE', #452, 1000.000000000000000 ) ;
#136 = AXIS2_PLACEMENT_3D ( 'NONE', #414, #556, #168 ) ;
#137 = PRODUCT_CONTEXT ( 'NONE', #362, 'mechanical' ) ;
#138 = DIRECTION ( 'NONE',  ( 0.000000000000000000, 0.000000000000000000, 1.000000000000000000 ) ) ;
#139 = EDGE_LOOP ( 'NONE', ( #218, #552, #537, #141 ) ) ;
#140 = CARTESIAN_POINT ( 'NONE',  ( 30.50000000000000000, 10.00000000000000000, 31.00000000000000711 ) ) ;
#141 = ORIENTED_EDGE ( 'NONE', *, *, #462, .F. ) ;
#142 = CARTESIAN_POINT ( 'NONE',  ( -19.09999999999999076, 0.000000000000000000, 28.00000000000000000 ) ) ;
#143 = VERTEX_POINT ( 'NONE', #82 ) ;
#144 = AXIS2_PLACEMENT_3D ( 'NONE', #425, #504, #423 ) ;
#145 = VECTOR ( 'NONE', #550, 1000.000000000000000 ) ;
#146 = CARTESIAN_POINT ( 'NONE',  ( 22.50000000000000000, 10.00000000000000000, 31.00000000000000711 ) ) ;
#147 = EDGE_LOOP ( 'NONE', ( #488, #544, #435, #352 ) ) ;
#148 = CARTESIAN_POINT ( 'NONE',  ( 26.50000000000000000, 5.000000000000000000, -0.001000000000001000089 ) ) ;
#149 = EDGE_CURVE ( 'NONE', #191, #194, #248, .T. ) ;
#150 = CYLINDRICAL_SURFACE ( 'NONE', #41, 19.10000000000000142 ) ;
#151 = EDGE_LOOP ( 'NONE', ( #268, #261, #17, #461 ) ) ;
#152 = AXIS2_PLACEMENT_3D ( 'NONE', #514, #208, #287 ) ;
#153 = VERTEX_POINT ( 'NONE', #37 ) ;
#154 = ADVANCED_FACE ( 'NONE', ( #513 ), #201, .F. ) ;
#155 = FACE_BOUND ( 'NONE', #187, .T. ) ;
#156 = ORIENTED_EDGE ( 'NONE', *, *, #130, .T. ) ;
#157 = ADVANCED_FACE ( 'NONE', ( #161 ), #325, .F. ) ;
#158 = DIRECTION ( 'NONE',  ( -1.000000000000000000, 0.000000000000000000, -0.000000000000000000 ) ) ;
#159 = EDGE_LOOP ( 'NONE', ( #541, #368 ) ) ;
#160 = LINE ( 'NONE', #545, #394 ) ;
#161 = FACE_OUTER_BOUND ( 'NONE', #531, .T. ) ;
#162 = AXIS2_PLACEMENT_3D ( 'NONE', #290, #505, #200 ) ;
#163 = ORIENTED_EDGE ( 'NONE', *, *, #30, .T. ) ;
#164 = DIRECTION ( 'NONE',  ( -0.000000000000000000, -1.000000000000000000, -0.000000000000000000 ) ) ;
#165 = FACE_OUTER_BOUND ( 'NONE', #566, .T. ) ;
#166 = DIRECTION ( 'NONE',  ( 0.000000000000000000, 0.000000000000000000, -1.000000000000000000 ) ) ;
#167 = DIRECTION ( 'NONE',  ( -0.000000000000000000, -1.000000000000000000, -0.000000000000000000 ) ) ;
#168 = DIRECTION ( 'NONE',  ( 0.000000000000000000, 0.000000000000000000, -1.000000000000000000 ) ) ;
#169 = CARTESIAN_POINT ( 'NONE',  ( -22.49999999999997868, 0.000000000000000000, 51.00000000000000711 ) ) ;
#170 = ORIENTED_EDGE ( 'NONE', *, *, #515, .T. ) ;
#171 = CIRCLE ( 'NONE', #79, 1.649999999999998579 ) ;
#172 = DIRECTION ( 'NONE',  ( 1.000000000000000000, -0.000000000000000000, -0.000000000000000000 ) ) ;
#173 = VERTEX_POINT ( 'NONE', #354 ) ;
#174 = CARTESIAN_POINT ( 'NONE',  ( 22.49999999999999289, 0.000000000000000000, 51.00000000000000711 ) ) ;
#175 = ORIENTED_EDGE ( 'NONE', *, *, #256, .F. ) ;
#176 = DIRECTION ( 'NONE',  ( 1.000000000000000000, 0.000000000000000000, -0.000000000000000000 ) ) ;
#177 = VERTEX_POINT ( 'NONE', #42 ) ;
#178 = EDGE_CURVE ( 'NONE', #285, #143, #439, .T. ) ;
#179 = VECTOR ( 'NONE', #415, 1000.000000000000000 ) ;
#180 = DIRECTION ( 'NONE',  ( 1.000000000000000000, 0.000000000000000000, 0.000000000000000000 ) ) ;
#181 = EDGE_LOOP ( 'NONE', ( #258, #264, #163, #401 ) ) ;
#182 = ADVANCED_FACE ( 'NONE', ( #348, #184 ), #214, .F. ) ;
#183 =( NAMED_UNIT ( * ) SI_UNIT ( $, .STERADIAN. ) SOLID_ANGLE_UNIT ( ) );
#184 = FACE_OUTER_BOUND ( 'NONE', #38, .T. ) ;
#185 = ORIENTED_EDGE ( 'NONE', *, *, #555, .T. ) ;
#186 = CARTESIAN_POINT ( 'NONE',  ( -26.49999999999998224, 5.000000000000000000, 28.00000000000000000 ) ) ;
#187 = EDGE_LOOP ( 'NONE', ( #238, #438 ) ) ;
#188 = VECTOR ( 'NONE', #120, 1000.000000000000000 ) ;
#189 = CIRCLE ( 'NONE', #410, 19.10000000000000142 ) ;
#190 = FACE_OUTER_BOUND ( 'NONE', #525, .T. ) ;
#191 = VERTEX_POINT ( 'NONE', #142 ) ;
#192 = ORIENTED_EDGE ( 'NONE', *, *, #358, .F. ) ;
#193 = SURFACE_STYLE_USAGE ( .BOTH. , #14 ) ;
#194 = VERTEX_POINT ( 'NONE', #46 ) ;
#195 = CARTESIAN_POINT ( 'NONE',  ( 22.49999999999999289, 10.00000000000000000, 51.00000000000000711 ) ) ;
#196 = ORIENTED_EDGE ( 'NONE', *, *, #353, .T. ) ;
#197 = DIRECTION ( 'NONE',  ( 0.000000000000000000, 0.000000000000000000, 1.000000000000000000 ) ) ;
#198 = ORIENTED_EDGE ( 'NONE', *, *, #122, .T. ) ;
#199 = EDGE_CURVE ( 'NONE', #173, #285, #89, .T. ) ;
#200 = DIRECTION ( 'NONE',  ( 0.000000000000000000, 0.000000000000000000, 1.000000000000000000 ) ) ;
#201 = PLANE ( 'NONE',  #519 ) ;
#202 = CYLINDRICAL_SURFACE ( 'NONE', #162, 19.10000000000000142 ) ;
#203 = CYLINDRICAL_SURFACE ( 'NONE', #559, 1.649999999999998579 ) ;
#204 = ORIENTED_EDGE ( 'NONE', *, *, #259, .T. ) ;
#205 = CARTESIAN_POINT ( 'NONE',  ( 26.50000000000000000, 5.000000000000000000, 28.00000000000000000 ) ) ;
#206 = CARTESIAN_POINT ( 'NONE',  ( -28.14999999999998082, 5.000000000000000000, -0.001000000000001000089 ) ) ;
#207 = CARTESIAN_POINT ( 'NONE',  ( -22.49999999999997868, 10.00000000000000000, 31.00000000000000000 ) ) ;
#208 = DIRECTION ( 'NONE',  ( 0.000000000000000000, 0.000000000000000000, 1.000000000000000000 ) ) ;
#209 = EDGE_CURVE ( 'NONE', #303, #403, #391, .T. ) ;
#210 = DIRECTION ( 'NONE',  ( -1.000000000000000000, 0.000000000000000000, 0.000000000000000000 ) ) ;
#211 = CARTESIAN_POINT ( 'NONE',  ( 1.040834085586084257E-14, 0.000000000000000000, 47.10000000000000853 ) ) ;
#212 = VECTOR ( 'NONE', #72, 1000.000000000000000 ) ;
#213 = CARTESIAN_POINT ( 'NONE',  ( -24.84999999999998366, 5.000000000000000000, -0.001000000000001000089 ) ) ;
#214 = PLANE ( 'NONE',  #69 ) ;
#215 = VERTEX_POINT ( 'NONE', #300 ) ;
#216 = DIRECTION ( 'NONE',  ( -0.000000000000000000, -0.000000000000000000, 1.000000000000000000 ) ) ;
#217 = ADVANCED_FACE ( 'NONE', ( #524, #223 ), #92, .F. ) ;
#218 = ORIENTED_EDGE ( 'NONE', *, *, #259, .F. ) ;
#219 = CIRCLE ( 'NONE', #152, 1.649999999999998579 ) ;
#220 = CIRCLE ( 'NONE', #376, 19.10000000000000142 ) ;
#221 = DIRECTION ( 'NONE',  ( -1.000000000000000000, 0.000000000000000000, -0.000000000000000000 ) ) ;
#222 = ORIENTED_EDGE ( 'NONE', *, *, #52, .F. ) ;
#223 = FACE_OUTER_BOUND ( 'NONE', #139, .T. ) ;
#224 = ORIENTED_EDGE ( 'NONE', *, *, #70, .F. ) ;
#225 = EDGE_CURVE ( 'NONE', #279, #346, #459, .T. ) ;
#226 =( NAMED_UNIT ( * ) PLANE_ANGLE_UNIT ( ) SI_UNIT ( $, .RADIAN. ) );
#227 = ORIENTED_EDGE ( 'NONE', *, *, #199, .T. ) ;
#228 = AXIS2_PLACEMENT_3D ( 'NONE', #481, #43, #302 ) ;
#229 = EDGE_CURVE ( 'NONE', #445, #303, #171, .T. ) ;
#230 = CARTESIAN_POINT ( 'NONE',  ( 24.85000000000000142, 5.000000000000000000, 28.00000000000000000 ) ) ;
#231 = CARTESIAN_POINT ( 'NONE',  ( 26.50000000000000000, 5.000000000000000000, 28.00000000000000000 ) ) ;
#232 = FACE_OUTER_BOUND ( 'NONE', #105, .T. ) ;
#233 = ORIENTED_EDGE ( 'NONE', *, *, #67, .T. ) ;
#234 = DIRECTION ( 'NONE',  ( -1.000000000000000000, 0.000000000000000000, 0.000000000000000000 ) ) ;
#235 = ORIENTED_EDGE ( 'NONE', *, *, #337, .T. ) ;
#236 = ADVANCED_FACE ( 'NONE', ( #257, #568 ), #526, .F. ) ;
#237 = DIRECTION ( 'NONE',  ( 0.000000000000000000, 1.000000000000000000, 0.000000000000000000 ) ) ;
#238 = ORIENTED_EDGE ( 'NONE', *, *, #252, .F. ) ;
#239 = LINE ( 'NONE', #328, #145 ) ;
#240 = CARTESIAN_POINT ( 'NONE',  ( -19.09999999999999076, -29.99999999999999289, 28.00000000000000000 ) ) ;
#241 = EDGE_CURVE ( 'NONE', #215, #349, #6, .T. ) ;
#242 = CARTESIAN_POINT ( 'NONE',  ( -22.49999999999997868, 0.000000000000000000, 51.00000000000000711 ) ) ;
#243 = CARTESIAN_POINT ( 'NONE',  ( -30.49999999999997868, 10.00000000000000000, 31.00000000000000000 ) ) ;
#244 = LINE ( 'NONE', #507, #22 ) ;
#245 = VECTOR ( 'NONE', #50, 1000.000000000000000 ) ;
#246 = CARTESIAN_POINT ( 'NONE',  ( 30.50000000000000000, 0.000000000000000000, 31.00000000000000711 ) ) ;
#247 = FACE_OUTER_BOUND ( 'NONE', #500, .T. ) ;
#248 = LINE ( 'NONE', #240, #1 ) ;
#249 = ORIENTED_EDGE ( 'NONE', *, *, #294, .F. ) ;
#250 = DIRECTION ( 'NONE',  ( -0.000000000000000000, -0.000000000000000000, -1.000000000000000000 ) ) ;
#251 = DIRECTION ( 'NONE',  ( -0.000000000000000000, -0.000000000000000000, 1.000000000000000000 ) ) ;
#252 = EDGE_CURVE ( 'NONE', #518, #403, #549, .T. ) ;
#253 = LINE ( 'NONE', #430, #332 ) ;
#254 = VECTOR ( 'NONE', #95, 1000.000000000000000 ) ;
#255 = AXIS2_PLACEMENT_3D ( 'NONE', #433, #48, #335 ) ;
#256 = EDGE_CURVE ( 'NONE', #279, #276, #437, .T. ) ;
#257 = FACE_BOUND ( 'NONE', #159, .T. ) ;
#258 = ORIENTED_EDGE ( 'NONE', *, *, #229, .T. ) ;
#259 = EDGE_CURVE ( 'NONE', #194, #54, #306, .T. ) ;
#260 = CARTESIAN_POINT ( 'NONE',  ( -22.49999999999997868, 10.00000000000000000, 31.00000000000000000 ) ) ;
#261 = ORIENTED_EDGE ( 'NONE', *, *, #291, .T. ) ;
#262 = CARTESIAN_POINT ( 'NONE',  ( 1.040834085586084257E-14, 0.000000000000000000, 28.00000000000000711 ) ) ;
#263 = DIRECTION ( 'NONE',  ( 0.000000000000000000, 0.000000000000000000, 1.000000000000000000 ) ) ;
#264 = ORIENTED_EDGE ( 'NONE', *, *, #209, .T. ) ;
#265 = AXIS2_PLACEMENT_3D ( 'NONE', #148, #492, #272 ) ;
#266 = AXIS2_PLACEMENT_3D ( 'NONE', #420, #424, #36 ) ;
#267 = LINE ( 'NONE', #485, #254 ) ;
#268 = ORIENTED_EDGE ( 'NONE', *, *, #52, .T. ) ;
#269 = DIRECTION ( 'NONE',  ( 1.000000000000000000, 0.000000000000000000, 0.000000000000000000 ) ) ;
#270 = ORIENTED_EDGE ( 'NONE', *, *, #496, .T. ) ;
#271 = CARTESIAN_POINT ( 'NONE',  ( -22.49999999999997868, 10.00000000000000000, 51.00000000000000711 ) ) ;
#272 = DIRECTION ( 'NONE',  ( 1.000000000000000000, 0.000000000000000000, 0.000000000000000000 ) ) ;
#273 = VECTOR ( 'NONE', #491, 1000.000000000000000 ) ;
#274 = FILL_AREA_STYLE_COLOUR ( '', #324 ) ;
#275 = UNCERTAINTY_MEASURE_WITH_UNIT (LENGTH_MEASURE( 1.000000000000000082E-05 ), #304, 'distance_accuracy_value', 'NONE');
#276 = VERTEX_POINT ( 'NONE', #132 ) ;
#277 = EDGE_CURVE ( 'NONE', #177, #527, #99, .T. ) ;
#278 = DIRECTION ( 'NONE',  ( -0.000000000000000000, -0.000000000000000000, 1.000000000000000000 ) ) ;
#279 = VERTEX_POINT ( 'NONE', #444 ) ;
#280 = VERTEX_POINT ( 'NONE', #174 ) ;
#281 = DIRECTION ( 'NONE',  ( 3.469446951953613696E-16, 0.000000000000000000, -1.000000000000000000 ) ) ;
#282 = ORIENTED_EDGE ( 'NONE', *, *, #67, .F. ) ;
#283 = DIRECTION ( 'NONE',  ( 0.000000000000000000, -0.000000000000000000, -1.000000000000000000 ) ) ;
#284 = CARTESIAN_POINT ( 'NONE',  ( 30.50000000000000000, 10.00000000000000000, 31.00000000000000711 ) ) ;
#285 = VERTEX_POINT ( 'NONE', #140 ) ;
#286 = CARTESIAN_POINT ( 'NONE',  ( -22.49999999999997868, 10.00000000000000000, 51.00000000000000711 ) ) ;
#287 = DIRECTION ( 'NONE',  ( 1.000000000000000000, 0.000000000000000000, 0.000000000000000000 ) ) ;
#288 = CARTESIAN_POINT ( 'NONE',  ( -30.49999999999997868, 10.00000000000000000, 31.00000000000000000 ) ) ;
#289 = PLANE ( 'NONE',  #144 ) ;
#290 = CARTESIAN_POINT ( 'NONE',  ( 1.040834085586084257E-14, -29.99999999999999289, 28.00000000000000711 ) ) ;
#291 = EDGE_CURVE ( 'NONE', #100, #143, #267, .T. ) ;
#292 = CARTESIAN_POINT ( 'NONE',  ( 26.50000000000000000, 5.000000000000000000, 31.00000000000000000 ) ) ;
#293 = LINE ( 'NONE', #243, #106 ) ;
#294 = EDGE_CURVE ( 'NONE', #191, #24, #253, .T. ) ;
#295 = DIRECTION ( 'NONE',  ( 1.156482317317873105E-15, 0.000000000000000000, -1.000000000000000000 ) ) ;
#296 = VECTOR ( 'NONE', #234, 1000.000000000000000 ) ;
#297 = VERTEX_POINT ( 'NONE', #565 ) ;
#298 = VECTOR ( 'NONE', #210, 1000.000000000000000 ) ;
#299 = DIRECTION ( 'NONE',  ( 0.000000000000000000, 0.000000000000000000, -1.000000000000000000 ) ) ;
#300 = CARTESIAN_POINT ( 'NONE',  ( 19.10000000000001208, 10.00000000000000000, 28.00000000000000000 ) ) ;
#301 = ORIENTED_EDGE ( 'NONE', *, *, #76, .T. ) ;
#302 = DIRECTION ( 'NONE',  ( 1.000000000000000000, 0.000000000000000000, 0.000000000000000000 ) ) ;
#303 = VERTEX_POINT ( 'NONE', #230 ) ;
#304 =( LENGTH_UNIT ( ) NAMED_UNIT ( * ) SI_UNIT ( .MILLI., .METRE. ) );
#305 = ADVANCED_FACE ( 'NONE', ( #232 ), #150, .F. ) ;
#306 = LINE ( 'NONE', #487, #21 ) ;
#307 = ORIENTED_EDGE ( 'NONE', *, *, #428, .T. ) ;
#308 = VECTOR ( 'NONE', #557, 1000.000000000000000 ) ;
#309 = AXIS2_PLACEMENT_3D ( 'NONE', #205, #250, #39 ) ;
#310 = PLANE ( 'NONE',  #345 ) ;
#311 = EDGE_LOOP ( 'NONE', ( #370, #407 ) ) ;
#312 = DIRECTION ( 'NONE',  ( 0.000000000000000000, -0.000000000000000000, -1.000000000000000000 ) ) ;
#313 = VERTEX_POINT ( 'NONE', #16 ) ;
#314 = ORIENTED_EDGE ( 'NONE', *, *, #428, .F. ) ;
#315 = ADVANCED_FACE ( 'NONE', ( #104 ), #367, .T. ) ;
#316 =( NAMED_UNIT ( * ) SI_UNIT ( $, .STERADIAN. ) SOLID_ANGLE_UNIT ( ) );
#317 = ORIENTED_EDGE ( 'NONE', *, *, #358, .T. ) ;
#318 = CARTESIAN_POINT ( 'NONE',  ( 22.50000000000000000, 10.00000000000000000, 31.00000000000000711 ) ) ;
#319 = ORIENTED_EDGE ( 'NONE', *, *, #455, .T. ) ;
#320 = DIRECTION ( 'NONE',  ( 0.000000000000000000, -1.000000000000000000, 0.000000000000000000 ) ) ;
#321 = ORIENTED_EDGE ( 'NONE', *, *, #25, .T. ) ;
#322 = MECHANICAL_DESIGN_GEOMETRIC_PRESENTATION_REPRESENTATION (  '', ( #97 ), #374 ) ;
#323 = DIRECTION ( 'NONE',  ( -0.000000000000000000, -1.000000000000000000, -0.000000000000000000 ) ) ;
#324 = COLOUR_RGB ( '',0.7921568627450980005, 0.8196078431372548767, 0.9333333333333333481 ) ;
#325 = PLANE ( 'NONE',  #494 ) ;
#326 = LINE ( 'NONE', #416, #512 ) ;
#327 = DIRECTION ( 'NONE',  ( 0.000000000000000000, 0.000000000000000000, 1.000000000000000000 ) ) ;
#328 = CARTESIAN_POINT ( 'NONE',  ( -30.49999999999997513, 10.00000000000000000, 28.00000000000000000 ) ) ;
#329 = DIRECTION ( 'NONE',  ( 1.000000000000000000, 0.000000000000000000, 0.000000000000000000 ) ) ;
#330 = EDGE_CURVE ( 'NONE', #100, #349, #110, .T. ) ;
#331 = CARTESIAN_POINT ( 'NONE',  ( -22.49999999999997868, 0.000000000000000000, 51.00000000000000711 ) ) ;
#332 = VECTOR ( 'NONE', #387, 1000.000000000000000 ) ;
#333 = LINE ( 'NONE', #508, #450 ) ;
#334 = CIRCLE ( 'NONE', #309, 1.649999999999998579 ) ;
#335 = DIRECTION ( 'NONE',  ( 1.000000000000000000, 0.000000000000000000, 0.000000000000000000 ) ) ;
#336 = MANIFOLD_SOLID_BREP ( '•”•i•ªŠ„1[1]', #12 ) ;
#337 = EDGE_CURVE ( 'NONE', #177, #153, #540, .T. ) ;
#338 = FACE_OUTER_BOUND ( 'NONE', #548, .T. ) ;
#339 = ORIENTED_EDGE ( 'NONE', *, *, #496, .F. ) ;
#340 = LINE ( 'NONE', #87, #502 ) ;
#341 = DIRECTION ( 'NONE',  ( -0.000000000000000000, -0.000000000000000000, 1.000000000000000000 ) ) ;
#342 = ADVANCED_FACE ( 'NONE', ( #155, #190 ), #310, .F. ) ;
#343 = ORIENTED_EDGE ( 'NONE', *, *, #440, .T. ) ;
#344 = DIRECTION ( 'NONE',  ( 0.000000000000000000, -1.000000000000000000, 0.000000000000000000 ) ) ;
#345 = AXIS2_PLACEMENT_3D ( 'NONE', #318, #65, #489 ) ;
#346 = VERTEX_POINT ( 'NONE', #108 ) ;
#347 = APPLICATION_PROTOCOL_DEFINITION ( 'draft international standard', 'automotive_design', 1998, #362 ) ;
#348 = FACE_BOUND ( 'NONE', #311, .T. ) ;
#349 = VERTEX_POINT ( 'NONE', #63 ) ;
#350 = ADVANCED_FACE ( 'NONE', ( #400 ), #457, .F. ) ;
#351 = CARTESIAN_POINT ( 'NONE',  ( 24.85000000000000142, 5.000000000000000000, -0.001000000000001000089 ) ) ;
#352 = ORIENTED_EDGE ( 'NONE', *, *, #291, .F. ) ;
#353 = EDGE_CURVE ( 'NONE', #153, #280, #19, .T. ) ;
#354 = CARTESIAN_POINT ( 'NONE',  ( 22.50000000000000000, 10.00000000000000000, 31.00000000000000711 ) ) ;
#355 = ORIENTED_EDGE ( 'NONE', *, *, #413, .F. ) ;
#356 = AXIS2_PLACEMENT_3D ( 'NONE', #454, #369, #312 ) ;
#357 = CARTESIAN_POINT ( 'NONE',  ( 24.85000000000000142, 5.000000000000000000, 31.00000000000000000 ) ) ;
#358 = EDGE_CURVE ( 'NONE', #447, #215, #115, .T. ) ;
#359 = ORIENTED_EDGE ( 'NONE', *, *, #466, .T. ) ;
#360 = PRESENTATION_STYLE_ASSIGNMENT (( #193 ) ) ;
#361 = ORIENTED_EDGE ( 'NONE', *, *, #70, .T. ) ;
#362 = APPLICATION_CONTEXT ( 'automotive_design' ) ;
#363 = CARTESIAN_POINT ( 'NONE',  ( 1.040834085586084257E-14, -29.99999999999999289, 28.00000000000000711 ) ) ;
#364 = ORIENTED_EDGE ( 'NONE', *, *, #528, .T. ) ;
#365 = VECTOR ( 'NONE', #40, 1000.000000000000000 ) ;
#366 = VECTOR ( 'NONE', #472, 1000.000000000000000 ) ;
#367 = PLANE ( 'NONE',  #356 ) ;
#368 = ORIENTED_EDGE ( 'NONE', *, *, #440, .F. ) ;
#369 = DIRECTION ( 'NONE',  ( 0.000000000000000000, -1.000000000000000000, 0.000000000000000000 ) ) ;
#370 = ORIENTED_EDGE ( 'NONE', *, *, #8, .F. ) ;
#371 = PRODUCT_DEFINITION ( 'UNKNOWN', '', #126, #417 ) ;
#372 = DIRECTION ( 'NONE',  ( -0.000000000000000000, -1.000000000000000000, -0.000000000000000000 ) ) ;
#373 = DIRECTION ( 'NONE',  ( -1.000000000000000000, 0.000000000000000000, 1.156482317317873105E-15 ) ) ;
#374 =( GEOMETRIC_REPRESENTATION_CONTEXT ( 3 ) GLOBAL_UNCERTAINTY_ASSIGNED_CONTEXT ( ( #564 ) ) GLOBAL_UNIT_ASSIGNED_CONTEXT ( ( #536, #226, #316 ) ) REPRESENTATION_CONTEXT ( 'NONE', 'WORKASPACE' ) );
#375 = DIRECTION ( 'NONE',  ( -0.000000000000000000, -0.000000000000000000, 1.000000000000000000 ) ) ;
#376 = AXIS2_PLACEMENT_3D ( 'NONE', #463, #320, #34 ) ;
#377 = LINE ( 'NONE', #35, #308 ) ;
#378 = ORIENTED_EDGE ( 'NONE', *, *, #413, .T. ) ;
#379 = LINE ( 'NONE', #80, #298 ) ;
#380 = DIRECTION ( 'NONE',  ( -0.000000000000000000, 1.000000000000000000, -0.000000000000000000 ) ) ;
#381 = ADVANCED_FACE ( 'NONE', ( #11 ), #23, .F. ) ;
#382 = CARTESIAN_POINT ( 'NONE',  ( 28.14999999999999858, 5.000000000000000000, 31.00000000000000000 ) ) ;
#383 = LINE ( 'NONE', #124, #188 ) ;
#384 = PLANE ( 'NONE',  #98 ) ;
#385 = CARTESIAN_POINT ( 'NONE',  ( 30.49999999999999645, 0.000000000000000000, 28.00000000000000000 ) ) ;
#386 =( GEOMETRIC_REPRESENTATION_CONTEXT ( 3 ) GLOBAL_UNCERTAINTY_ASSIGNED_CONTEXT ( ( #275 ) ) GLOBAL_UNIT_ASSIGNED_CONTEXT ( ( #304, #436, #183 ) ) REPRESENTATION_CONTEXT ( 'NONE', 'WORKASPACE' ) );
#387 = DIRECTION ( 'NONE',  ( -1.000000000000000000, 0.000000000000000000, 0.000000000000000000 ) ) ;
#388 = ORIENTED_EDGE ( 'NONE', *, *, #55, .T. ) ;
#389 = DIRECTION ( 'NONE',  ( 1.000000000000000000, 0.000000000000000000, 0.000000000000000000 ) ) ;
#390 = ORIENTED_EDGE ( 'NONE', *, *, #55, .F. ) ;
#391 = LINE ( 'NONE', #351, #33 ) ;
#392 = AXIS2_PLACEMENT_3D ( 'NONE', #292, #554, #329 ) ;
#393 = ORIENTED_EDGE ( 'NONE', *, *, #8, .T. ) ;
#394 = VECTOR ( 'NONE', #323, 1000.000000000000000 ) ;
#395 = DIRECTION ( 'NONE',  ( -0.000000000000000000, -0.000000000000000000, -1.000000000000000000 ) ) ;
#396 = ORIENTED_EDGE ( 'NONE', *, *, #483, .F. ) ;
#397 = PRODUCT_RELATED_PRODUCT_CATEGORY ( 'part', '', ( #542 ) ) ;
#398 = CARTESIAN_POINT ( 'NONE',  ( 19.10000000000001208, -29.99999999999999289, 28.00000000000000000 ) ) ;
#399 = ORIENTED_EDGE ( 'NONE', *, *, #149, .T. ) ;
#400 = FACE_OUTER_BOUND ( 'NONE', #57, .T. ) ;
#401 = ORIENTED_EDGE ( 'NONE', *, *, #455, .F. ) ;
#402 = FILL_AREA_STYLE ('',( #274 ) ) ;
#403 = VERTEX_POINT ( 'NONE', #357 ) ;
#404 = CARTESIAN_POINT ( 'NONE',  ( 0.000000000000000000, 0.000000000000000000, 28.00000000000000000 ) ) ;
#405 = ORIENTED_EDGE ( 'NONE', *, *, #225, .T. ) ;
#406 = DIRECTION ( 'NONE',  ( 1.000000000000000000, 0.000000000000000000, 0.000000000000000000 ) ) ;
#407 = ORIENTED_EDGE ( 'NONE', *, *, #81, .F. ) ;
#408 = EDGE_CURVE ( 'NONE', #54, #449, #532, .T. ) ;
#409 = CIRCLE ( 'NONE', #429, 1.649999999999998579 ) ;
#410 = AXIS2_PLACEMENT_3D ( 'NONE', #262, #516, #299 ) ;
#411 = DIRECTION ( 'NONE',  ( 0.000000000000000000, 0.000000000000000000, 1.000000000000000000 ) ) ;
#412 = ORIENTED_EDGE ( 'NONE', *, *, #546, .F. ) ;
#413 = EDGE_CURVE ( 'NONE', #280, #458, #27, .T. ) ;
#414 = CARTESIAN_POINT ( 'NONE',  ( -22.49999999999997868, 10.00000000000000000, 51.00000000000000711 ) ) ;
#415 = DIRECTION ( 'NONE',  ( -1.156482317317873105E-15, 0.000000000000000000, -1.000000000000000000 ) ) ;
#416 = CARTESIAN_POINT ( 'NONE',  ( 28.14999999999999858, 5.000000000000000000, -0.001000000000001000089 ) ) ;
#417 = PRODUCT_DEFINITION_CONTEXT ( 'detailed design', #94, 'design' ) ;
#418 = DIRECTION ( 'NONE',  ( 1.000000000000000000, 0.000000000000000000, 0.000000000000000000 ) ) ;
#419 = VERTEX_POINT ( 'NONE', #426 ) ;
#420 = CARTESIAN_POINT ( 'NONE',  ( 1.040834085586084257E-14, 10.00000000000000000, 28.00000000000000711 ) ) ;
#421 = VECTOR ( 'NONE', #372, 1000.000000000000000 ) ;
#422 = EDGE_CURVE ( 'NONE', #285, #297, #460, .T. ) ;
#423 = DIRECTION ( 'NONE',  ( -3.469446951953613696E-16, 0.000000000000000000, 1.000000000000000000 ) ) ;
#424 = DIRECTION ( 'NONE',  ( 0.000000000000000000, 1.000000000000000000, 0.000000000000000000 ) ) ;
#425 = CARTESIAN_POINT ( 'NONE',  ( 22.49999999999999289, 10.00000000000000000, 51.00000000000000711 ) ) ;
#426 = CARTESIAN_POINT ( 'NONE',  ( -28.14999999999998082, 5.000000000000000000, 31.00000000000000000 ) ) ;
#427 = CARTESIAN_POINT ( 'NONE',  ( -22.49999999999997868, 10.00000000000000000, 31.00000000000000000 ) ) ;
#428 = EDGE_CURVE ( 'NONE', #527, #280, #71, .T. ) ;
#429 = AXIS2_PLACEMENT_3D ( 'NONE', #471, #327, #418 ) ;
#430 = CARTESIAN_POINT ( 'NONE',  ( 0.000000000000000000, 0.000000000000000000, 28.00000000000000000 ) ) ;
#431 = VECTOR ( 'NONE', #281, 1000.000000000000000 ) ;
#432 = ADVANCED_FACE ( 'NONE', ( #29 ), #202, .F. ) ;
#433 = CARTESIAN_POINT ( 'NONE',  ( -26.49999999999998224, 5.000000000000000000, 28.00000000000000000 ) ) ;
#434 = CARTESIAN_POINT ( 'NONE',  ( 0.000000000000000000, 0.000000000000000000, 28.00000000000000000 ) ) ;
#435 = ORIENTED_EDGE ( 'NONE', *, *, #466, .F. ) ;
#436 =( NAMED_UNIT ( * ) PLANE_ANGLE_UNIT ( ) SI_UNIT ( $, .RADIAN. ) );
#437 = LINE ( 'NONE', #213, #538 ) ;
#438 = ORIENTED_EDGE ( 'NONE', *, *, #30, .F. ) ;
#439 = LINE ( 'NONE', #521, #245 ) ;
#440 = EDGE_CURVE ( 'NONE', #303, #445, #334, .T. ) ;
#441 = VECTOR ( 'NONE', #53, 1000.000000000000000 ) ;
#442 = ORIENTED_EDGE ( 'NONE', *, *, #62, .F. ) ;
#443 = AXIS2_PLACEMENT_3D ( 'NONE', #497, #237, #411 ) ;
#444 = CARTESIAN_POINT ( 'NONE',  ( -24.84999999999998366, 5.000000000000000000, 28.00000000000000000 ) ) ;
#445 = VERTEX_POINT ( 'NONE', #470 ) ;
#446 = CARTESIAN_POINT ( 'NONE',  ( 26.50000000000000000, 5.000000000000000000, -0.001000000000001000089 ) ) ;
#447 = VERTEX_POINT ( 'NONE', #553 ) ;
#448 = CARTESIAN_POINT ( 'NONE',  ( -30.49999999999997868, 10.00000000000000000, 31.00000000000000000 ) ) ;
#449 = VERTEX_POINT ( 'NONE', #288 ) ;
#450 = VECTOR ( 'NONE', #251, 1000.000000000000000 ) ;
#451 = AXIS2_PLACEMENT_3D ( 'NONE', #503, #116, #283 ) ;
#452 = DIRECTION ( 'NONE',  ( 1.000000000000000000, 0.000000000000000000, 0.000000000000000000 ) ) ;
#453 = ORIENTED_EDGE ( 'NONE', *, *, #510, .T. ) ;
#454 = CARTESIAN_POINT ( 'NONE',  ( 0.000000000000000000, 0.000000000000000000, 0.000000000000000000 ) ) ;
#455 = EDGE_CURVE ( 'NONE', #445, #518, #326, .T. ) ;
#456 = VERTEX_POINT ( 'NONE', #77 ) ;
#457 = CYLINDRICAL_SURFACE ( 'NONE', #478, 1.649999999999998579 ) ;
#458 = VERTEX_POINT ( 'NONE', #119 ) ;
#459 = CIRCLE ( 'NONE', #59, 1.649999999999998579 ) ;
#460 = LINE ( 'NONE', #83, #88 ) ;
#461 = ORIENTED_EDGE ( 'NONE', *, *, #422, .T. ) ;
#462 = EDGE_CURVE ( 'NONE', #54, #24, #239, .T. ) ;
#463 = CARTESIAN_POINT ( 'NONE',  ( 1.040834085586084257E-14, 0.000000000000000000, 28.00000000000000711 ) ) ;
#464 = DIRECTION ( 'NONE',  ( 1.000000000000000000, -0.000000000000000000, 1.156482317317873105E-15 ) ) ;
#465 = EDGE_LOOP ( 'NONE', ( #270, #61, #317, #66 ) ) ;
#466 = EDGE_CURVE ( 'NONE', #143, #215, #379, .T. ) ;
#467 = DIRECTION ( 'NONE',  ( -0.000000000000000000, 1.000000000000000000, -0.000000000000000000 ) ) ;
#468 = LINE ( 'NONE', #551, #125 ) ;
#469 = VECTOR ( 'NONE', #344, 1000.000000000000000 ) ;
#470 = CARTESIAN_POINT ( 'NONE',  ( 28.14999999999999858, 5.000000000000000000, 28.00000000000000000 ) ) ;
#471 = CARTESIAN_POINT ( 'NONE',  ( -26.49999999999998224, 5.000000000000000000, 31.00000000000000000 ) ) ;
#472 = DIRECTION ( 'NONE',  ( 1.000000000000000000, 0.000000000000000000, 0.000000000000000000 ) ) ;
#473 = CARTESIAN_POINT ( 'NONE',  ( -26.49999999999998224, 5.000000000000000000, -0.001000000000001000089 ) ) ;
#474 = ADVANCED_FACE ( 'NONE', ( #247 ), #384, .F. ) ;
#475 = CARTESIAN_POINT ( 'NONE',  ( -22.49999999999997868, 10.00000000000000000, 51.00000000000000711 ) ) ;
#476 = DIRECTION ( 'NONE',  ( 0.000000000000000000, 0.000000000000000000, 1.000000000000000000 ) ) ;
#477 = CIRCLE ( 'NONE', #392, 1.649999999999998579 ) ;
#478 = AXIS2_PLACEMENT_3D ( 'NONE', #56, #278, #406 ) ;
#479 = DIRECTION ( 'NONE',  ( -0.000000000000000000, -0.000000000000000000, -1.000000000000000000 ) ) ;
#480 = ORIENTED_EDGE ( 'NONE', *, *, #122, .F. ) ;
#481 = CARTESIAN_POINT ( 'NONE',  ( 26.50000000000000000, 5.000000000000000000, 31.00000000000000000 ) ) ;
#482 = ORIENTED_EDGE ( 'NONE', *, *, #81, .T. ) ;
#483 = EDGE_CURVE ( 'NONE', #68, #447, #244, .T. ) ;
#484 = DIRECTION ( 'NONE',  ( 1.000000000000000000, 0.000000000000000000, 0.000000000000000000 ) ) ;
#485 = CARTESIAN_POINT ( 'NONE',  ( 30.49999999999999645, 10.00000000000000000, 28.00000000000000000 ) ) ;
#486 = EDGE_LOOP ( 'NONE', ( #111, #343, #319, #107 ) ) ;
#487 = CARTESIAN_POINT ( 'NONE',  ( 0.000000000000000000, 10.00000000000000000, 28.00000000000000000 ) ) ;
#488 = ORIENTED_EDGE ( 'NONE', *, *, #330, .T. ) ;
#489 = DIRECTION ( 'NONE',  ( -1.000000000000000000, 0.000000000000000000, -0.000000000000000000 ) ) ;
#490 = ORIENTED_EDGE ( 'NONE', *, *, #569, .T. ) ;
#491 = DIRECTION ( 'NONE',  ( -0.000000000000000000, -1.000000000000000000, -0.000000000000000000 ) ) ;
#492 = DIRECTION ( 'NONE',  ( -0.000000000000000000, -0.000000000000000000, 1.000000000000000000 ) ) ;
#493 = ORIENTED_EDGE ( 'NONE', *, *, #546, .T. ) ;
#494 = AXIS2_PLACEMENT_3D ( 'NONE', #117, #464, #295 ) ;
#495 = ORIENTED_EDGE ( 'NONE', *, *, #330, .F. ) ;
#496 = EDGE_CURVE ( 'NONE', #349, #68, #220, .T. ) ;
#497 = CARTESIAN_POINT ( 'NONE',  ( 1.040834085586084257E-14, 10.00000000000000000, 28.00000000000000711 ) ) ;
#498 = ORIENTED_EDGE ( 'NONE', *, *, #62, .T. ) ;
#499 = FACE_OUTER_BOUND ( 'NONE', #20, .T. ) ;
#500 = EDGE_LOOP ( 'NONE', ( #307, #535, #7, #75 ) ) ;
#501 = AXIS2_PLACEMENT_3D ( 'NONE', #3, #263, #517 ) ;
#502 = VECTOR ( 'NONE', #567, 1000.000000000000000 ) ;
#503 = CARTESIAN_POINT ( 'NONE',  ( 0.000000000000000000, 10.00000000000000000, 0.000000000000000000 ) ) ;
#504 = DIRECTION ( 'NONE',  ( -1.000000000000000000, 0.000000000000000000, -3.469446951953613696E-16 ) ) ;
#505 = DIRECTION ( 'NONE',  ( -0.000000000000000000, 1.000000000000000000, -0.000000000000000000 ) ) ;
#506 = LINE ( 'NONE', #169, #114 ) ;
#507 = CARTESIAN_POINT ( 'NONE',  ( 1.040834085586084257E-14, -29.99999999999999289, 47.10000000000000853 ) ) ;
#508 = CARTESIAN_POINT ( 'NONE',  ( -22.49999999999997868, 10.00000000000000000, 51.00000000000000711 ) ) ;
#509 = VECTOR ( 'NONE', #85, 1000.000000000000000 ) ;
#510 = EDGE_CURVE ( 'NONE', #194, #447, #2, .T. ) ;
#511 = FACE_OUTER_BOUND ( 'NONE', #113, .T. ) ;
#512 = VECTOR ( 'NONE', #375, 1000.000000000000000 ) ;
#513 = FACE_OUTER_BOUND ( 'NONE', #151, .T. ) ;
#514 = CARTESIAN_POINT ( 'NONE',  ( -26.49999999999998224, 5.000000000000000000, 31.00000000000000000 ) ) ;
#515 = EDGE_CURVE ( 'NONE', #313, #562, #123, .T. ) ;
#516 = DIRECTION ( 'NONE',  ( 0.000000000000000000, -1.000000000000000000, 0.000000000000000000 ) ) ;
#517 = DIRECTION ( 'NONE',  ( 1.000000000000000000, 0.000000000000000000, -0.000000000000000000 ) ) ;
#518 = VERTEX_POINT ( 'NONE', #382 ) ;
#519 = AXIS2_PLACEMENT_3D ( 'NONE', #284, #373, #547 ) ;
#520 = AXIS2_PLACEMENT_3D ( 'NONE', #563, #476, #484 ) ;
#521 = CARTESIAN_POINT ( 'NONE',  ( 30.50000000000000000, 10.00000000000000000, 31.00000000000000711 ) ) ;
#522 = ORIENTED_EDGE ( 'NONE', *, *, #178, .T. ) ;
#523 = ADVANCED_FACE ( 'NONE', ( #499 ), #112, .F. ) ;
#524 = FACE_BOUND ( 'NONE', #64, .T. ) ;
#525 = EDGE_LOOP ( 'NONE', ( #388, #47, #4, #364 ) ) ;
#526 = PLANE ( 'NONE',  #530 ) ;
#527 = VERTEX_POINT ( 'NONE', #331 ) ;
#528 = EDGE_CURVE ( 'NONE', #173, #458, #160, .T. ) ;
#529 = DIRECTION ( 'NONE',  ( 0.000000000000000000, 0.000000000000000000, -1.000000000000000000 ) ) ;
#530 = AXIS2_PLACEMENT_3D ( 'NONE', #434, #138, #176 ) ;
#531 = EDGE_LOOP ( 'NONE', ( #96, #32, #198, #102 ) ) ;
#532 = LINE ( 'NONE', #448, #560 ) ;
#533 = CYLINDRICAL_SURFACE ( 'NONE', #265, 1.649999999999998579 ) ;
#534 = SURFACE_STYLE_FILL_AREA ( #402 ) ;
#535 = ORIENTED_EDGE ( 'NONE', *, *, #353, .F. ) ;
#536 =( LENGTH_UNIT ( ) NAMED_UNIT ( * ) SI_UNIT ( .MILLI., .METRE. ) );
#537 = ORIENTED_EDGE ( 'NONE', *, *, #294, .T. ) ;
#538 = VECTOR ( 'NONE', #216, 1000.000000000000000 ) ;
#539 = ADVANCED_FACE ( 'NONE', ( #511 ), #127, .F. ) ;
#540 = LINE ( 'NONE', #271, #135 ) ;
#541 = ORIENTED_EDGE ( 'NONE', *, *, #229, .F. ) ;
#542 = PRODUCT ( 'sensor_pipe_holder_top', 'sensor_pipe_holder_top', '', ( #137 ) ) ;
#543 = DIRECTION ( 'NONE',  ( -0.000000000000000000, 1.000000000000000000, -0.000000000000000000 ) ) ;
#544 = ORIENTED_EDGE ( 'NONE', *, *, #241, .F. ) ;
#545 = CARTESIAN_POINT ( 'NONE',  ( 22.50000000000000000, 10.00000000000000000, 31.00000000000000711 ) ) ;
#546 = EDGE_CURVE ( 'NONE', #346, #279, #49, .T. ) ;
#547 = DIRECTION ( 'NONE',  ( 1.156482317317873105E-15, 0.000000000000000000, 1.000000000000000000 ) ) ;
#548 = EDGE_LOOP ( 'NONE', ( #378, #109, #558, #196 ) ) ;
#549 = CIRCLE ( 'NONE', #228, 1.649999999999998579 ) ;
#550 = DIRECTION ( 'NONE',  ( -0.000000000000000000, -1.000000000000000000, 0.000000000000000000 ) ) ;
#551 = CARTESIAN_POINT ( 'NONE',  ( -22.49999999999997868, 0.000000000000000000, 31.00000000000000000 ) ) ;
#552 = ORIENTED_EDGE ( 'NONE', *, *, #149, .F. ) ;
#553 = CARTESIAN_POINT ( 'NONE',  ( 1.040834085586084257E-14, 10.00000000000000000, 47.10000000000000853 ) ) ;
#554 = DIRECTION ( 'NONE',  ( 0.000000000000000000, 0.000000000000000000, 1.000000000000000000 ) ) ;
#555 = EDGE_CURVE ( 'NONE', #153, #173, #340, .T. ) ;
#556 = DIRECTION ( 'NONE',  ( 1.000000000000000000, -0.000000000000000000, 0.000000000000000000 ) ) ;
#557 = DIRECTION ( 'NONE',  ( -1.156482317317873105E-15, -0.000000000000000000, 1.000000000000000000 ) ) ;
#558 = ORIENTED_EDGE ( 'NONE', *, *, #555, .F. ) ;
#559 = AXIS2_PLACEMENT_3D ( 'NONE', #473, #74, #561 ) ;
#560 = VECTOR ( 'NONE', #58, 1000.000000000000000 ) ;
#561 = DIRECTION ( 'NONE',  ( 1.000000000000000000, 0.000000000000000000, 0.000000000000000000 ) ) ;
#562 = VERTEX_POINT ( 'NONE', #131 ) ;
#563 = CARTESIAN_POINT ( 'NONE',  ( 0.000000000000000000, 0.000000000000000000, 0.000000000000000000 ) ) ;
#564 = UNCERTAINTY_MEASURE_WITH_UNIT (LENGTH_MEASURE( 1.000000000000000082E-05 ), #536, 'distance_accuracy_value', 'NONE');
#565 = CARTESIAN_POINT ( 'NONE',  ( 30.50000000000000000, 0.000000000000000000, 31.00000000000000711 ) ) ;
#566 = EDGE_LOOP ( 'NONE', ( #51, #493, #90, #393 ) ) ;
#567 = DIRECTION ( 'NONE',  ( 3.469446951953613696E-16, 0.000000000000000000, -1.000000000000000000 ) ) ;
#568 = FACE_OUTER_BOUND ( 'NONE', #147, .T. ) ;
#569 = EDGE_CURVE ( 'NONE', #68, #191, #189, .T. ) ;
#570 = EDGE_LOOP ( 'NONE', ( #495, #222, #390, #355, #314, #442, #118, #480, #249, #121, #339 ) ) ;
ENDSEC;
END-ISO-10303-21;
