ISO-10303-21;
HEADER;
FILE_DESCRIPTION (( 'STEP AP214' ),
    '1' );
FILE_NAME ('sensor_board.STEP',
    '2026-08-27T19:58:58',
    ( '' ),
    ( '' ),
    'SwSTEP 2.0',
    'SolidWorks 2024',
    '' );
FILE_SCHEMA (( 'AUTOMOTIVE_DESIGN' ));
ENDSEC;

DATA;
#1 = ORIENTED_EDGE ( 'NONE', *, *, #153, .F. ) ;
#2 = VERTEX_POINT ( 'NONE', #923 ) ;
#3 = CARTESIAN_POINT ( 'NONE',  ( 114.9999999999999858, 55.00000000000000000, 10.00000000000000000 ) ) ;
#4 = DIRECTION ( 'NONE',  ( 1.000000000000000000, 0.000000000000000000, 0.000000000000000000 ) ) ;
#5 = EDGE_CURVE ( 'NONE', #506, #208, #1022, .T. ) ;
#6 = EDGE_CURVE ( 'NONE', #440, #645, #769, .T. ) ;
#7 = EDGE_LOOP ( 'NONE', ( #567, #938 ) ) ;
#8 = ORIENTED_EDGE ( 'NONE', *, *, #169, .F. ) ;
#9 = ADVANCED_FACE ( 'NONE', ( #677 ), #112, .F. ) ;
#10 = DIRECTION ( 'NONE',  ( -0.000000000000000000, -0.000000000000000000, 1.000000000000000000 ) ) ;
#11 = DIRECTION ( 'NONE',  ( 1.000000000000000000, 0.000000000000000000, 0.000000000000000000 ) ) ;
#12 = CIRCLE ( 'NONE', #64, 3.249999999999999556 ) ;
#13 = DIRECTION ( 'NONE',  ( 0.000000000000000000, 0.000000000000000000, 1.000000000000000000 ) ) ;
#14 = ORIENTED_EDGE ( 'NONE', *, *, #434, .T. ) ;
#15 = AXIS2_PLACEMENT_3D ( 'NONE', #796, #1052, #884 ) ;
#16 = ADVANCED_FACE ( 'NONE', ( #870 ), #186, .T. ) ;
#17 = ORIENTED_EDGE ( 'NONE', *, *, #868, .T. ) ;
#18 = AXIS2_PLACEMENT_3D ( 'NONE', #396, #1075, #977 ) ;
#19 = LINE ( 'NONE', #265, #973 ) ;
#20 = DIRECTION ( 'NONE',  ( 1.000000000000000000, 0.000000000000000000, 0.000000000000000000 ) ) ;
#21 = FACE_BOUND ( 'NONE', #345, .T. ) ;
#22 = DIRECTION ( 'NONE',  ( -1.000000000000000000, -0.000000000000000000, -0.000000000000000000 ) ) ;
#23 = ORIENTED_EDGE ( 'NONE', *, *, #202, .T. ) ;
#24 = DIRECTION ( 'NONE',  ( -1.000000000000000000, 0.000000000000000000, 0.000000000000000000 ) ) ;
#25 = DIRECTION ( 'NONE',  ( 1.000000000000000000, 0.000000000000000000, -0.000000000000000000 ) ) ;
#26 = DIRECTION ( 'NONE',  ( -0.000000000000000000, -1.000000000000000000, -0.000000000000000000 ) ) ;
#27 = CARTESIAN_POINT ( 'NONE',  ( 64.00000000000000000, 52.50000000000000711, 10.00000000000000000 ) ) ;
#28 = CARTESIAN_POINT ( 'NONE',  ( 60.00000000000000000, 52.50000000000000711, 4.000000000000000000 ) ) ;
#29 = VERTEX_POINT ( 'NONE', #272 ) ;
#30 = DIRECTION ( 'NONE',  ( 1.000000000000000000, 0.000000000000000000, 0.000000000000000000 ) ) ;
#31 = CARTESIAN_POINT ( 'NONE',  ( 79.48557158514982746, 18.74999999999991473, 0.000000000000000000 ) ) ;
#32 = DIRECTION ( 'NONE',  ( -1.000000000000000000, 0.000000000000000000, -0.000000000000000000 ) ) ;
#33 = VECTOR ( 'NONE', #569, 1000.000000000000000 ) ;
#34 = VECTOR ( 'NONE', #129, 1000.000000000000000 ) ;
#35 = ADVANCED_FACE ( 'NONE', ( #21, #108, #1038, #774, #526, #671, #442, #446 ), #509, .T. ) ;
#36 = FACE_BOUND ( 'NONE', #81, .T. ) ;
#37 = DIRECTION ( 'NONE',  ( 0.000000000000000000, 0.000000000000000000, 1.000000000000000000 ) ) ;
#38 = DIRECTION ( 'NONE',  ( 0.000000000000000000, 1.000000000000000000, 0.000000000000000000 ) ) ;
#39 = EDGE_LOOP ( 'NONE', ( #232, #999 ) ) ;
#40 = EDGE_CURVE ( 'NONE', #1024, #551, #585, .T. ) ;
#41 = CARTESIAN_POINT ( 'NONE',  ( 44.51442841485017965, 18.74999999999990763, 4.000000000000000000 ) ) ;
#42 = CARTESIAN_POINT ( 'NONE',  ( 79.48557158514982746, 18.74999999999991473, 4.000000000000000000 ) ) ;
#43 = EDGE_CURVE ( 'NONE', #325, #854, #185, .T. ) ;
#44 = ORIENTED_EDGE ( 'NONE', *, *, #5, .T. ) ;
#45 = ORIENTED_EDGE ( 'NONE', *, *, #974, .F. ) ;
#46 = EDGE_CURVE ( 'NONE', #222, #2, #356, .T. ) ;
#47 = FACE_OUTER_BOUND ( 'NONE', #505, .T. ) ;
#48 = EDGE_CURVE ( 'NONE', #854, #981, #604, .T. ) ;
#49 = CIRCLE ( 'NONE', #858, 5.000000000000000000 ) ;
#50 = APPLICATION_PROTOCOL_DEFINITION ( 'draft international standard', 'automotive_design', 1998, #366 ) ;
#51 = VERTEX_POINT ( 'NONE', #421 ) ;
#52 = AXIS2_PLACEMENT_3D ( 'NONE', #59, #728, #898 ) ;
#53 = DIRECTION ( 'NONE',  ( 0.000000000000000000, 0.000000000000000000, 1.000000000000000000 ) ) ;
#54 = CARTESIAN_POINT ( 'NONE',  ( 0.000000000000000000, 0.000000000000000000, 10.00000000000000000 ) ) ;
#55 = EDGE_CURVE ( 'NONE', #848, #752, #696, .T. ) ;
#56 = DIRECTION ( 'NONE',  ( -0.000000000000000000, -0.000000000000000000, 1.000000000000000000 ) ) ;
#57 = ORIENTED_EDGE ( 'NONE', *, *, #46, .F. ) ;
#58 = ORIENTED_EDGE ( 'NONE', *, *, #40, .T. ) ;
#59 = CARTESIAN_POINT ( 'NONE',  ( 60.00000000000000000, 52.50000000000000711, 4.000000000000000000 ) ) ;
#60 = CARTESIAN_POINT ( 'NONE',  ( 114.9999999999999858, 60.00000000000000000, 0.000000000000000000 ) ) ;
#61 = EDGE_LOOP ( 'NONE', ( #705, #759, #139, #176 ) ) ;
#62 = ORIENTED_EDGE ( 'NONE', *, *, #201, .T. ) ;
#63 = CLOSED_SHELL ( 'NONE', ( #443, #616, #933, #1045, #1047, #1083, #896, #610, #571, #79, #622, #124, #299, #94, #313, #776, #393, #746, #35, #573, #9, #467, #204, #687, #502, #490, #504, #780, #580, #699, #1058, #16, #803 ) ) ;
#64 = AXIS2_PLACEMENT_3D ( 'NONE', #123, #627, #382 ) ;
#65 = CARTESIAN_POINT ( 'NONE',  ( 60.00000000000000000, 52.50000000000000711, 0.000000000000000000 ) ) ;
#66 = CARTESIAN_POINT ( 'NONE',  ( 0.000000000000000000, 55.00000000000000000, 10.00000000000000000 ) ) ;
#67 = CIRCLE ( 'NONE', #887, 4.000000000000003553 ) ;
#68 = CIRCLE ( 'NONE', #324, 4.000000000000003553 ) ;
#69 = AXIS2_PLACEMENT_3D ( 'NONE', #1035, #362, #688 ) ;
#70 = EDGE_LOOP ( 'NONE', ( #146, #582, #76, #1073 ) ) ;
#71 = ORIENTED_EDGE ( 'NONE', *, *, #951, .T. ) ;
#72 = FACE_OUTER_BOUND ( 'NONE', #771, .T. ) ;
#73 = CARTESIAN_POINT ( 'NONE',  ( 77.23557158514982746, 18.74999999999991473, 4.000000000000000000 ) ) ;
#74 = DIRECTION ( 'NONE',  ( -0.000000000000000000, -0.000000000000000000, 1.000000000000000000 ) ) ;
#75 = ORIENTED_EDGE ( 'NONE', *, *, #307, .F. ) ;
#76 = ORIENTED_EDGE ( 'NONE', *, *, #434, .F. ) ;
#77 = LINE ( 'NONE', #548, #888 ) ;
#78 = DIRECTION ( 'NONE',  ( -0.000000000000000000, -0.000000000000000000, -1.000000000000000000 ) ) ;
#79 = ADVANCED_FACE ( 'NONE', ( #529 ), #877, .F. ) ;
#80 = FACE_OUTER_BOUND ( 'NONE', #550, .T. ) ;
#81 = EDGE_LOOP ( 'NONE', ( #844, #402 ) ) ;
#82 = EDGE_LOOP ( 'NONE', ( #159, #766, #1042, #910 ) ) ;
#83 = DIRECTION ( 'NONE',  ( -0.000000000000000000, -0.000000000000000000, 1.000000000000000000 ) ) ;
#84 = CARTESIAN_POINT ( 'NONE',  ( 10.00000000000000355, 19.99999999999999645, 0.000000000000000000 ) ) ;
#85 = AXIS2_PLACEMENT_3D ( 'NONE', #765, #206, #530 ) ;
#86 = CARTESIAN_POINT ( 'NONE',  ( 114.9999999999999858, 0.000000000000000000, 0.000000000000000000 ) ) ;
#87 = ORIENTED_EDGE ( 'NONE', *, *, #153, .T. ) ;
#88 = ORIENTED_EDGE ( 'NONE', *, *, #872, .T. ) ;
#89 = EDGE_CURVE ( 'NONE', #227, #631, #12, .T. ) ;
#90 = DIRECTION ( 'NONE',  ( -0.000000000000000000, -0.000000000000000000, 1.000000000000000000 ) ) ;
#91 = DIRECTION ( 'NONE',  ( 1.000000000000000000, 0.000000000000000000, 0.000000000000000000 ) ) ;
#92 = ORIENTED_EDGE ( 'NONE', *, *, #974, .T. ) ;
#93 = ORIENTED_EDGE ( 'NONE', *, *, #979, .F. ) ;
#94 = ADVANCED_FACE ( 'NONE', ( #452 ), #1043, .F. ) ;
#95 = CYLINDRICAL_SURFACE ( 'NONE', #1080, 3.249999999999999556 ) ;
#96 = DIRECTION ( 'NONE',  ( 0.000000000000000000, 0.000000000000000000, 1.000000000000000000 ) ) ;
#97 = FACE_OUTER_BOUND ( 'NONE', #295, .T. ) ;
#98 = ORIENTED_EDGE ( 'NONE', *, *, #384, .F. ) ;
#99 = ORIENTED_EDGE ( 'NONE', *, *, #605, .F. ) ;
#100 = CARTESIAN_POINT ( 'NONE',  ( 62.25000000000000000, 52.50000000000000711, 4.000000000000000000 ) ) ;
#101 = DIRECTION ( 'NONE',  ( -1.000000000000000000, 0.000000000000000000, 0.000000000000000000 ) ) ;
#102 = DIRECTION ( 'NONE',  ( -0.000000000000000000, -0.000000000000000000, 1.000000000000000000 ) ) ;
#103 = FACE_BOUND ( 'NONE', #636, .T. ) ;
#104 = ORIENTED_EDGE ( 'NONE', *, *, #611, .F. ) ;
#105 = VECTOR ( 'NONE', #846, 1000.000000000000000 ) ;
#106 = VERTEX_POINT ( 'NONE', #544 ) ;
#107 = DIRECTION ( 'NONE',  ( -1.000000000000000000, 0.000000000000000000, 0.000000000000000000 ) ) ;
#108 = FACE_BOUND ( 'NONE', #455, .T. ) ;
#109 = CARTESIAN_POINT ( 'NONE',  ( 120.0000000000000000, 0.000000000000000000, 0.000000000000000000 ) ) ;
#110 = ORIENTED_EDGE ( 'NONE', *, *, #1002, .F. ) ;
#111 = CARTESIAN_POINT ( 'NONE',  ( 60.00000000000000000, 52.50000000000000711, 4.000000000000000000 ) ) ;
#112 = CYLINDRICAL_SURFACE ( 'NONE', #852, 3.250000000000002665 ) ;
#113 = DIRECTION ( 'NONE',  ( 0.000000000000000000, 0.000000000000000000, -1.000000000000000000 ) ) ;
#114 = EDGE_CURVE ( 'NONE', #394, #639, #373, .T. ) ;
#115 = CARTESIAN_POINT ( 'NONE',  ( 114.9999999999999858, 5.000000000000000000, 10.00000000000000000 ) ) ;
#116 = DIRECTION ( 'NONE',  ( -1.000000000000000000, 0.000000000000000000, 0.000000000000000000 ) ) ;
#117 = CARTESIAN_POINT ( 'NONE',  ( 36.51442841485017254, 18.74999999999990763, 10.00000000000000000 ) ) ;
#118 = CIRCLE ( 'NONE', #151, 2.249999999999988010 ) ;
#119 = CIRCLE ( 'NONE', #531, 2.249999999999995115 ) ;
#120 = ORIENTED_EDGE ( 'NONE', *, *, #89, .T. ) ;
#121 = CIRCLE ( 'NONE', #1051, 5.000000000000004441 ) ;
#122 = EDGE_CURVE ( 'NONE', #588, #451, #254, .T. ) ;
#123 = CARTESIAN_POINT ( 'NONE',  ( 10.00000000000000355, 19.99999999999999645, 10.00000000000000000 ) ) ;
#124 = ADVANCED_FACE ( 'NONE', ( #963 ), #1061, .F. ) ;
#125 = CARTESIAN_POINT ( 'NONE',  ( 62.25000000000000000, 52.50000000000000711, 0.000000000000000000 ) ) ;
#126 = ORIENTED_EDGE ( 'NONE', *, *, #384, .T. ) ;
#127 = ORIENTED_EDGE ( 'NONE', *, *, #469, .T. ) ;
#128 = CARTESIAN_POINT ( 'NONE',  ( 5.000000000000000000, 60.00000000000000000, 10.00000000000000000 ) ) ;
#129 = DIRECTION ( 'NONE',  ( 0.000000000000000000, 0.000000000000000000, -1.000000000000000000 ) ) ;
#130 = CYLINDRICAL_SURFACE ( 'NONE', #15, 3.249999999999999556 ) ;
#131 = DIRECTION ( 'NONE',  ( -1.000000000000000000, 0.000000000000000000, 0.000000000000000000 ) ) ;
#132 = CARTESIAN_POINT ( 'NONE',  ( 10.00000000000000355, 19.99999999999999645, 0.000000000000000000 ) ) ;
#133 = CARTESIAN_POINT ( 'NONE',  ( 40.51442841485017254, 18.74999999999990763, 4.000000000000000000 ) ) ;
#134 = DIRECTION ( 'NONE',  ( -0.000000000000000000, -0.000000000000000000, -1.000000000000000000 ) ) ;
#135 = AXIS2_PLACEMENT_3D ( 'NONE', #768, #445, #30 ) ;
#136 = STYLED_ITEM ( 'NONE', ( #675 ), #968 ) ;
#137 = DIRECTION ( 'NONE',  ( 1.000000000000000000, 0.000000000000000000, 0.000000000000000000 ) ) ;
#138 = EDGE_CURVE ( 'NONE', #1069, #403, #555, .T. ) ;
#139 = ORIENTED_EDGE ( 'NONE', *, *, #48, .T. ) ;
#140 = DIRECTION ( 'NONE',  ( -0.000000000000000000, -0.000000000000000000, 1.000000000000000000 ) ) ;
#141 = ORIENTED_EDGE ( 'NONE', *, *, #417, .F. ) ;
#142 = ORIENTED_EDGE ( 'NONE', *, *, #969, .T. ) ;
#143 = CARTESIAN_POINT ( 'NONE',  ( 110.0000000000000000, 19.99999999999999645, 10.00000000000000000 ) ) ;
#144 = PLANE ( 'NONE',  #629 ) ;
#145 = FACE_OUTER_BOUND ( 'NONE', #483, .T. ) ;
#146 = ORIENTED_EDGE ( 'NONE', *, *, #1055, .F. ) ;
#147 = EDGE_LOOP ( 'NONE', ( #739, #593, #652, #998 ) ) ;
#148 = CIRCLE ( 'NONE', #218, 3.249999999999999556 ) ;
#149 = DIRECTION ( 'NONE',  ( 0.000000000000000000, 0.000000000000000000, 1.000000000000000000 ) ) ;
#150 = DIRECTION ( 'NONE',  ( -0.000000000000000000, -0.000000000000000000, 1.000000000000000000 ) ) ;
#151 = AXIS2_PLACEMENT_3D ( 'NONE', #408, #743, #1007 ) ;
#152 = CIRCLE ( 'NONE', #763, 2.250000000000001776 ) ;
#153 = EDGE_CURVE ( 'NONE', #511, #752, #1059, .T. ) ;
#154 = EDGE_LOOP ( 'NONE', ( #71, #315 ) ) ;
#155 = ORIENTED_EDGE ( 'NONE', *, *, #897, .T. ) ;
#156 = LINE ( 'NONE', #825, #815 ) ;
#157 = LINE ( 'NONE', #651, #273 ) ;
#158 = ORIENTED_EDGE ( 'NONE', *, *, #346, .T. ) ;
#159 = ORIENTED_EDGE ( 'NONE', *, *, #361, .F. ) ;
#160 = CARTESIAN_POINT ( 'NONE',  ( 44.51442841485017965, 18.74999999999990763, 4.000000000000000000 ) ) ;
#161 = DIRECTION ( 'NONE',  ( 1.000000000000000000, 0.000000000000000000, 0.000000000000000000 ) ) ;
#162 = CARTESIAN_POINT ( 'NONE',  ( 6.750000000000004441, 19.99999999999999645, 10.00000000000000000 ) ) ;
#163 = EDGE_LOOP ( 'NONE', ( #57, #674 ) ) ;
#164 = EDGE_CURVE ( 'NONE', #731, #581, #533, .T. ) ;
#165 = ORIENTED_EDGE ( 'NONE', *, *, #48, .F. ) ;
#166 = DIRECTION ( 'NONE',  ( 1.000000000000000000, 0.000000000000000000, 0.000000000000000000 ) ) ;
#167 = LINE ( 'NONE', #734, #834 ) ;
#168 = AXIS2_PLACEMENT_3D ( 'NONE', #540, #379, #886 ) ;
#169 = EDGE_CURVE ( 'NONE', #849, #551, #892, .T. ) ;
#170 = VECTOR ( 'NONE', #995, 1000.000000000000000 ) ;
#171 = VERTEX_POINT ( 'NONE', #880 ) ;
#172 = ORIENTED_EDGE ( 'NONE', *, *, #417, .T. ) ;
#173 = CARTESIAN_POINT ( 'NONE',  ( 40.51442841485017254, 18.74999999999990763, 0.000000000000000000 ) ) ;
#174 = DIRECTION ( 'NONE',  ( 1.000000000000000000, 0.000000000000000000, 0.000000000000000000 ) ) ;
#175 = ORIENTED_EDGE ( 'NONE', *, *, #772, .T. ) ;
#176 = ORIENTED_EDGE ( 'NONE', *, *, #579, .F. ) ;
#177 = FILL_AREA_STYLE_COLOUR ( '', #498 ) ;
#178 = CARTESIAN_POINT ( 'NONE',  ( 42.76442841485016544, 18.74999999999990763, 4.000000000000000000 ) ) ;
#179 = CARTESIAN_POINT ( 'NONE',  ( 36.51442841485017254, 18.74999999999990763, 4.000000000000000000 ) ) ;
#180 = CARTESIAN_POINT ( 'NONE',  ( 40.51442841485017254, 18.74999999999990763, 4.000000000000000000 ) ) ;
#181 = ORIENTED_EDGE ( 'NONE', *, *, #43, .T. ) ;
#182 = EDGE_LOOP ( 'NONE', ( #925, #126 ) ) ;
#183 = LINE ( 'NONE', #246, #649 ) ;
#184 = LINE ( 'NONE', #515, #646 ) ;
#185 = CIRCLE ( 'NONE', #832, 2.250000000000001776 ) ;
#186 = CYLINDRICAL_SURFACE ( 'NONE', #856, 5.000000000000000000 ) ;
#187 = CIRCLE ( 'NONE', #959, 5.000000000000004441 ) ;
#188 = AXIS2_PLACEMENT_3D ( 'NONE', #428, #96, #25 ) ;
#189 = FACE_BOUND ( 'NONE', #7, .T. ) ;
#190 = AXIS2_PLACEMENT_3D ( 'NONE', #268, #941, #439 ) ;
#191 = ORIENTED_EDGE ( 'NONE', *, *, #122, .F. ) ;
#192 = CIRCLE ( 'NONE', #630, 2.249999999999995115 ) ;
#193 = CARTESIAN_POINT ( 'NONE',  ( 110.0000000000000000, 19.99999999999999645, 10.00000000000000000 ) ) ;
#194 = CARTESIAN_POINT ( 'NONE',  ( 110.0000000000000000, 40.00000000000000000, 10.00000000000000000 ) ) ;
#195 = EDGE_CURVE ( 'NONE', #1008, #511, #296, .T. ) ;
#196 = DIRECTION ( 'NONE',  ( 1.000000000000000000, 0.000000000000000000, 0.000000000000000000 ) ) ;
#197 = CARTESIAN_POINT ( 'NONE',  ( 110.0000000000000000, 19.99999999999999645, 0.000000000000000000 ) ) ;
#198 = CARTESIAN_POINT ( 'NONE',  ( 120.0000000000000000, 55.00000000000000000, 0.000000000000000000 ) ) ;
#199 = DIRECTION ( 'NONE',  ( -0.000000000000000000, -0.000000000000000000, 1.000000000000000000 ) ) ;
#200 = CARTESIAN_POINT ( 'NONE',  ( 81.73557158514981325, 18.74999999999991473, 0.000000000000000000 ) ) ;
#201 = EDGE_CURVE ( 'NONE', #1048, #29, #187, .T. ) ;
#202 = EDGE_CURVE ( 'NONE', #528, #368, #614, .T. ) ;
#203 = ORIENTED_EDGE ( 'NONE', *, *, #270, .T. ) ;
#204 = ADVANCED_FACE ( 'NONE', ( #47 ), #1053, .F. ) ;
#205 = VECTOR ( 'NONE', #364, 1000.000000000000000 ) ;
#206 = DIRECTION ( 'NONE',  ( -1.000000000000000000, 0.000000000000000000, 0.000000000000000000 ) ) ;
#207 = AXIS2_PLACEMENT_3D ( 'NONE', #706, #288, #1050 ) ;
#208 = VERTEX_POINT ( 'NONE', #799 ) ;
#209 = ORIENTED_EDGE ( 'NONE', *, *, #937, .T. ) ;
#210 = EDGE_CURVE ( 'NONE', #982, #758, #907, .T. ) ;
#211 = CARTESIAN_POINT ( 'NONE',  ( 79.48557158514982746, 18.74999999999991473, 0.000000000000000000 ) ) ;
#212 = CARTESIAN_POINT ( 'NONE',  ( 106.7500000000000000, 19.99999999999999645, 0.000000000000000000 ) ) ;
#213 = SHAPE_DEFINITION_REPRESENTATION ( #751, #520 ) ;
#214 = DIRECTION ( 'NONE',  ( 1.000000000000000000, 0.000000000000000000, 0.000000000000000000 ) ) ;
#215 = ORIENTED_EDGE ( 'NONE', *, *, #307, .T. ) ;
#216 = DIRECTION ( 'NONE',  ( -1.000000000000000000, 0.000000000000000000, 0.000000000000000000 ) ) ;
#217 = AXIS2_PLACEMENT_3D ( 'NONE', #278, #438, #782 ) ;
#218 = AXIS2_PLACEMENT_3D ( 'NONE', #970, #372, #468 ) ;
#219 = CIRCLE ( 'NONE', #340, 3.249999999999999556 ) ;
#220 = CARTESIAN_POINT ( 'NONE',  ( 114.9999999999999858, 5.000000000000000000, 10.00000000000000000 ) ) ;
#221 = EDGE_CURVE ( 'NONE', #319, #645, #429, .T. ) ;
#222 = VERTEX_POINT ( 'NONE', #978 ) ;
#223 = VERTEX_POINT ( 'NONE', #456 ) ;
#224 = CARTESIAN_POINT ( 'NONE',  ( 13.25000000000000355, 40.00000000000000000, 0.000000000000000000 ) ) ;
#225 = DIRECTION ( 'NONE',  ( 1.000000000000000000, 0.000000000000000000, 0.000000000000000000 ) ) ;
#226 = VERTEX_POINT ( 'NONE', #298 ) ;
#227 = VERTEX_POINT ( 'NONE', #369 ) ;
#228 = EDGE_CURVE ( 'NONE', #639, #492, #625, .T. ) ;
#229 = DIRECTION ( 'NONE',  ( -1.000000000000000000, 0.000000000000000000, 0.000000000000000000 ) ) ;
#230 = CARTESIAN_POINT ( 'NONE',  ( 40.51442841485017254, 18.74999999999990763, 4.000000000000000000 ) ) ;
#231 = ORIENTED_EDGE ( 'NONE', *, *, #786, .F. ) ;
#232 = ORIENTED_EDGE ( 'NONE', *, *, #420, .T. ) ;
#233 = VECTOR ( 'NONE', #702, 1000.000000000000000 ) ;
#234 = CARTESIAN_POINT ( 'NONE',  ( 5.000000000000000000, 55.00000000000000000, 10.00000000000000000 ) ) ;
#235 = CARTESIAN_POINT ( 'NONE',  ( 10.00000000000000355, 19.99999999999999645, 0.000000000000000000 ) ) ;
#236 = CIRCLE ( 'NONE', #517, 3.249999999999999556 ) ;
#237 = AXIS2_PLACEMENT_3D ( 'NONE', #669, #412, #575 ) ;
#238 = ORIENTED_EDGE ( 'NONE', *, *, #889, .T. ) ;
#239 = ORIENTED_EDGE ( 'NONE', *, *, #701, .F. ) ;
#240 = CARTESIAN_POINT ( 'NONE',  ( 0.000000000000000000, 5.000000000000000000, 0.000000000000000000 ) ) ;
#241 = DIRECTION ( 'NONE',  ( 0.000000000000000000, 0.000000000000000000, 1.000000000000000000 ) ) ;
#242 = LINE ( 'NONE', #847, #961 ) ;
#243 = EDGE_LOOP ( 'NONE', ( #264, #838, #310, #911 ) ) ;
#244 = EDGE_LOOP ( 'NONE', ( #482, #44, #1041, #640 ) ) ;
#245 = EDGE_CURVE ( 'NONE', #631, #227, #148, .T. ) ;
#246 = CARTESIAN_POINT ( 'NONE',  ( 13.25000000000000355, 40.00000000000000000, 0.000000000000000000 ) ) ;
#247 = DIRECTION ( 'NONE',  ( -0.000000000000000000, -0.000000000000000000, 1.000000000000000000 ) ) ;
#248 = DIRECTION ( 'NONE',  ( -0.000000000000000000, -0.000000000000000000, 1.000000000000000000 ) ) ;
#249 = ORIENTED_EDGE ( 'NONE', *, *, #537, .T. ) ;
#250 = ORIENTED_EDGE ( 'NONE', *, *, #730, .T. ) ;
#251 = VECTOR ( 'NONE', #267, 1000.000000000000000 ) ;
#252 = SURFACE_STYLE_FILL_AREA ( #1014 ) ;
#253 = DIRECTION ( 'NONE',  ( -0.000000000000000000, -0.000000000000000000, 1.000000000000000000 ) ) ;
#254 = CIRCLE ( 'NONE', #207, 2.249999999999995115 ) ;
#255 = CIRCLE ( 'NONE', #719, 4.000000000000003553 ) ;
#256 = AXIS2_PLACEMENT_3D ( 'NONE', #1025, #332, #563 ) ;
#257 = FACE_OUTER_BOUND ( 'NONE', #475, .T. ) ;
#258 = ORIENTED_EDGE ( 'NONE', *, *, #656, .T. ) ;
#259 = ORIENTED_EDGE ( 'NONE', *, *, #40, .F. ) ;
#260 =( NAMED_UNIT ( * ) SI_UNIT ( $, .STERADIAN. ) SOLID_ANGLE_UNIT ( ) );
#261 = LINE ( 'NONE', #681, #541 ) ;
#262 = FACE_OUTER_BOUND ( 'NONE', #745, .T. ) ;
#263 = ORIENTED_EDGE ( 'NONE', *, *, #813, .T. ) ;
#264 = ORIENTED_EDGE ( 'NONE', *, *, #565, .F. ) ;
#265 = CARTESIAN_POINT ( 'NONE',  ( 77.23557158514982746, 18.74999999999991473, 0.000000000000000000 ) ) ;
#266 = DIRECTION ( 'NONE',  ( 0.000000000000000000, 0.000000000000000000, 1.000000000000000000 ) ) ;
#267 = DIRECTION ( 'NONE',  ( -0.000000000000000000, -0.000000000000000000, 1.000000000000000000 ) ) ;
#268 = CARTESIAN_POINT ( 'NONE',  ( 10.00000000000000355, 40.00000000000000000, 0.000000000000000000 ) ) ;
#269 = VERTEX_POINT ( 'NONE', #60 ) ;
#270 = EDGE_CURVE ( 'NONE', #394, #891, #157, .T. ) ;
#271 = CARTESIAN_POINT ( 'NONE',  ( 6.750000000000004441, 19.99999999999999645, 0.000000000000000000 ) ) ;
#272 = CARTESIAN_POINT ( 'NONE',  ( 120.0000000000000000, 5.000000000000000000, 10.00000000000000000 ) ) ;
#273 = VECTOR ( 'NONE', #247, 1000.000000000000000 ) ;
#274 = AXIS2_PLACEMENT_3D ( 'NONE', #355, #940, #174 ) ;
#275 = DIRECTION ( 'NONE',  ( 1.000000000000000000, 0.000000000000000000, 0.000000000000000000 ) ) ;
#276 = CIRCLE ( 'NONE', #800, 4.000000000000003553 ) ;
#277 = DIRECTION ( 'NONE',  ( 1.000000000000000000, 0.000000000000000000, 0.000000000000000000 ) ) ;
#278 = CARTESIAN_POINT ( 'NONE',  ( 0.000000000000000000, 0.000000000000000000, 0.000000000000000000 ) ) ;
#279 = EDGE_CURVE ( 'NONE', #51, #588, #167, .T. ) ;
#280 = PLANE ( 'NONE',  #342 ) ;
#281 = PRODUCT_CONTEXT ( 'NONE', #893, 'mechanical' ) ;
#282 = ORIENTED_EDGE ( 'NONE', *, *, #114, .F. ) ;
#283 = EDGE_CURVE ( 'NONE', #368, #1024, #857, .T. ) ;
#284 = CARTESIAN_POINT ( 'NONE',  ( 0.000000000000000000, 0.000000000000000000, 10.00000000000000000 ) ) ;
#285 = DIRECTION ( 'NONE',  ( -1.000000000000000000, -0.000000000000000000, -0.000000000000000000 ) ) ;
#286 = ORIENTED_EDGE ( 'NONE', *, *, #210, .T. ) ;
#287 = ORIENTED_EDGE ( 'NONE', *, *, #626, .T. ) ;
#288 = DIRECTION ( 'NONE',  ( -0.000000000000000000, -0.000000000000000000, -1.000000000000000000 ) ) ;
#289 = DIRECTION ( 'NONE',  ( -1.000000000000000000, 0.000000000000000000, 0.000000000000000000 ) ) ;
#290 = AXIS2_PLACEMENT_3D ( 'NONE', #328, #150, #489 ) ;
#291 = CIRCLE ( 'NONE', #495, 3.250000000000002665 ) ;
#292 = ORIENTED_EDGE ( 'NONE', *, *, #474, .F. ) ;
#293 = VECTOR ( 'NONE', #1028, 1000.000000000000000 ) ;
#294 = ORIENTED_EDGE ( 'NONE', *, *, #169, .T. ) ;
#295 = EDGE_LOOP ( 'NONE', ( #1003, #750 ) ) ;
#296 = LINE ( 'NONE', #41, #644 ) ;
#297 = ORIENTED_EDGE ( 'NONE', *, *, #43, .F. ) ;
#298 = CARTESIAN_POINT ( 'NONE',  ( 113.2500000000000000, 19.99999999999999645, 0.000000000000000000 ) ) ;
#299 = ADVANCED_FACE ( 'NONE', ( #560 ), #413, .F. ) ;
#300 = DIRECTION ( 'NONE',  ( -0.000000000000000000, -0.000000000000000000, 1.000000000000000000 ) ) ;
#301 = FACE_OUTER_BOUND ( 'NONE', #621, .T. ) ;
#302 = ORIENTED_EDGE ( 'NONE', *, *, #785, .F. ) ;
#303 = AXIS2_PLACEMENT_3D ( 'NONE', #111, #441, #277 ) ;
#304 = VECTOR ( 'NONE', #747, 1000.000000000000000 ) ;
#305 = CARTESIAN_POINT ( 'NONE',  ( 42.76442841485016544, 18.74999999999990763, 0.000000000000000000 ) ) ;
#306 = DIRECTION ( 'NONE',  ( -0.000000000000000000, -0.000000000000000000, 1.000000000000000000 ) ) ;
#307 = EDGE_CURVE ( 'NONE', #572, #528, #374, .T. ) ;
#308 = ORIENTED_EDGE ( 'NONE', *, *, #1013, .F. ) ;
#309 = EDGE_CURVE ( 'NONE', #914, #915, #513, .T. ) ;
#310 = ORIENTED_EDGE ( 'NONE', *, *, #545, .T. ) ;
#311 = DIRECTION ( 'NONE',  ( 1.000000000000000000, 0.000000000000000000, 0.000000000000000000 ) ) ;
#312 = FACE_OUTER_BOUND ( 'NONE', #816, .T. ) ;
#313 = ADVANCED_FACE ( 'NONE', ( #333 ), #831, .F. ) ;
#314 = ORIENTED_EDGE ( 'NONE', *, *, #316, .F. ) ;
#315 = ORIENTED_EDGE ( 'NONE', *, *, #579, .T. ) ;
#316 = EDGE_CURVE ( 'NONE', #572, #849, #497, .T. ) ;
#317 = DIRECTION ( 'NONE',  ( 0.000000000000000000, 0.000000000000000000, -1.000000000000000000 ) ) ;
#318 = CARTESIAN_POINT ( 'NONE',  ( 6.750000000000004441, 40.00000000000000000, 0.000000000000000000 ) ) ;
#319 = VERTEX_POINT ( 'NONE', #481 ) ;
#320 = ORIENTED_EDGE ( 'NONE', *, *, #872, .F. ) ;
#321 = AXIS2_PLACEMENT_3D ( 'NONE', #996, #1001, #564 ) ;
#322 = DIRECTION ( 'NONE',  ( -0.000000000000000000, -0.000000000000000000, 1.000000000000000000 ) ) ;
#323 = DIRECTION ( 'NONE',  ( 0.000000000000000000, 0.000000000000000000, 1.000000000000000000 ) ) ;
#324 = AXIS2_PLACEMENT_3D ( 'NONE', #1023, #13, #275 ) ;
#325 = VERTEX_POINT ( 'NONE', #810 ) ;
#326 = ORIENTED_EDGE ( 'NONE', *, *, #868, .F. ) ;
#327 = CARTESIAN_POINT ( 'NONE',  ( 55.99999999999999289, 52.50000000000000711, 4.000000000000000000 ) ) ;
#328 = CARTESIAN_POINT ( 'NONE',  ( 60.00000000000000000, 52.50000000000000711, 0.000000000000000000 ) ) ;
#329 = CARTESIAN_POINT ( 'NONE',  ( 57.74999999999999289, 52.50000000000000711, 4.000000000000000000 ) ) ;
#330 = ORIENTED_EDGE ( 'NONE', *, *, #361, .T. ) ;
#331 = VERTEX_POINT ( 'NONE', #655 ) ;
#332 = DIRECTION ( 'NONE',  ( 0.000000000000000000, 0.000000000000000000, 1.000000000000000000 ) ) ;
#333 = FACE_OUTER_BOUND ( 'NONE', #493, .T. ) ;
#334 = CARTESIAN_POINT ( 'NONE',  ( 83.48557158514982746, 18.74999999999991473, 4.000000000000000000 ) ) ;
#335 = ORIENTED_EDGE ( 'NONE', *, *, #387, .F. ) ;
#336 = ORIENTED_EDGE ( 'NONE', *, *, #1016, .F. ) ;
#337 = UNCERTAINTY_MEASURE_WITH_UNIT (LENGTH_MEASURE( 1.000000000000000082E-05 ), #1040, 'distance_accuracy_value', 'NONE');
#338 = CARTESIAN_POINT ( 'NONE',  ( 55.99999999999999289, 52.50000000000000711, 4.000000000000000000 ) ) ;
#339 = VECTOR ( 'NONE', #795, 1000.000000000000000 ) ;
#340 = AXIS2_PLACEMENT_3D ( 'NONE', #1021, #351, #1036 ) ;
#341 = CARTESIAN_POINT ( 'NONE',  ( 5.000000000000000000, 5.000000000000000000, 10.00000000000000000 ) ) ;
#342 = AXIS2_PLACEMENT_3D ( 'NONE', #953, #113, #32 ) ;
#343 = DIRECTION ( 'NONE',  ( 0.000000000000000000, 0.000000000000000000, 1.000000000000000000 ) ) ;
#344 = EDGE_LOOP ( 'NONE', ( #543, #955 ) ) ;
#345 = EDGE_LOOP ( 'NONE', ( #209, #181 ) ) ;
#346 = EDGE_CURVE ( 'NONE', #1024, #572, #1076, .T. ) ;
#347 = DIRECTION ( 'NONE',  ( 1.000000000000000000, 0.000000000000000000, 0.000000000000000000 ) ) ;
#348 = DIRECTION ( 'NONE',  ( 0.000000000000000000, 0.000000000000000000, 1.000000000000000000 ) ) ;
#349 = ORIENTED_EDGE ( 'NONE', *, *, #534, .T. ) ;
#350 = CARTESIAN_POINT ( 'NONE',  ( 0.000000000000000000, 0.000000000000000000, 10.00000000000000000 ) ) ;
#351 = DIRECTION ( 'NONE',  ( 0.000000000000000000, 0.000000000000000000, 1.000000000000000000 ) ) ;
#352 = DIRECTION ( 'NONE',  ( 0.000000000000000000, 0.000000000000000000, 1.000000000000000000 ) ) ;
#353 = LINE ( 'NONE', #609, #450 ) ;
#354 = ORIENTED_EDGE ( 'NONE', *, *, #697, .F. ) ;
#355 = CARTESIAN_POINT ( 'NONE',  ( 60.00000000000000000, 52.50000000000000711, 10.00000000000000000 ) ) ;
#356 = CIRCLE ( 'NONE', #666, 3.250000000000002665 ) ;
#357 = CARTESIAN_POINT ( 'NONE',  ( 38.26442841485017965, 18.74999999999990763, 4.000000000000000000 ) ) ;
#358 = AXIS2_PLACEMENT_3D ( 'NONE', #491, #835, #663 ) ;
#359 = CYLINDRICAL_SURFACE ( 'NONE', #542, 5.000000000000004441 ) ;
#360 = CIRCLE ( 'NONE', #390, 4.000000000000003553 ) ;
#361 = EDGE_CURVE ( 'NONE', #471, #106, #777, .T. ) ;
#362 = DIRECTION ( 'NONE',  ( -0.000000000000000000, -0.000000000000000000, 1.000000000000000000 ) ) ;
#363 = CYLINDRICAL_SURFACE ( 'NONE', #430, 4.000000000000003553 ) ;
#364 = DIRECTION ( 'NONE',  ( -0.000000000000000000, -0.000000000000000000, 1.000000000000000000 ) ) ;
#365 = CYLINDRICAL_SURFACE ( 'NONE', #388, 2.250000000000001776 ) ;
#366 = APPLICATION_CONTEXT ( 'automotive_design' ) ;
#367 = LINE ( 'NONE', #432, #1078 ) ;
#368 = VERTEX_POINT ( 'NONE', #917 ) ;
#369 = CARTESIAN_POINT ( 'NONE',  ( 13.25000000000000355, 19.99999999999999645, 10.00000000000000000 ) ) ;
#370 = FACE_OUTER_BOUND ( 'NONE', #1020, .T. ) ;
#371 = EDGE_LOOP ( 'NONE', ( #477, #539, #512, #727 ) ) ;
#372 = DIRECTION ( 'NONE',  ( 0.000000000000000000, 0.000000000000000000, 1.000000000000000000 ) ) ;
#373 = CIRCLE ( 'NONE', #168, 4.000000000000003553 ) ;
#374 = CIRCLE ( 'NONE', #321, 5.000000000000000000 ) ;
#375 = CIRCLE ( 'NONE', #991, 2.250000000000001776 ) ;
#376 = CIRCLE ( 'NONE', #648, 4.000000000000003553 ) ;
#377 = DIRECTION ( 'NONE',  ( 0.000000000000000000, 0.000000000000000000, -1.000000000000000000 ) ) ;
#378 = EDGE_CURVE ( 'NONE', #1008, #848, #447, .T. ) ;
#379 = DIRECTION ( 'NONE',  ( 0.000000000000000000, 0.000000000000000000, 1.000000000000000000 ) ) ;
#380 = VERTEX_POINT ( 'NONE', #742 ) ;
#381 = DIRECTION ( 'NONE',  ( 1.000000000000000000, 0.000000000000000000, 0.000000000000000000 ) ) ;
#382 = DIRECTION ( 'NONE',  ( -1.000000000000000000, 0.000000000000000000, 0.000000000000000000 ) ) ;
#383 = EDGE_CURVE ( 'NONE', #836, #331, #668, .T. ) ;
#384 = EDGE_CURVE ( 'NONE', #915, #914, #924, .T. ) ;
#385 = ORIENTED_EDGE ( 'NONE', *, *, #346, .F. ) ;
#386 = ORIENTED_EDGE ( 'NONE', *, *, #195, .F. ) ;
#387 = EDGE_CURVE ( 'NONE', #451, #588, #574, .T. ) ;
#388 = AXIS2_PLACEMENT_3D ( 'NONE', #866, #692, #871 ) ;
#389 = EDGE_CURVE ( 'NONE', #471, #631, #1072, .T. ) ;
#390 = AXIS2_PLACEMENT_3D ( 'NONE', #583, #418, #436 ) ;
#391 = DIRECTION ( 'NONE',  ( 1.000000000000000000, 0.000000000000000000, 0.000000000000000000 ) ) ;
#392 = DIRECTION ( 'NONE',  ( 1.000000000000000000, 0.000000000000000000, 0.000000000000000000 ) ) ;
#393 = ADVANCED_FACE ( 'NONE', ( #312 ), #144, .F. ) ;
#394 = VERTEX_POINT ( 'NONE', #905 ) ;
#395 = ORIENTED_EDGE ( 'NONE', *, *, #811, .F. ) ;
#396 = CARTESIAN_POINT ( 'NONE',  ( 10.00000000000000355, 40.00000000000000000, 0.000000000000000000 ) ) ;
#397 = DIRECTION ( 'NONE',  ( -0.000000000000000000, -1.000000000000000000, -0.000000000000000000 ) ) ;
#398 = EDGE_LOOP ( 'NONE', ( #239, #14, #885, #561, #519, #874, #314, #215 ) ) ;
#399 = EDGE_LOOP ( 'NONE', ( #93, #985, #175, #794 ) ) ;
#400 = LINE ( 'NONE', #650, #34 ) ;
#401 = DIRECTION ( 'NONE',  ( 0.000000000000000000, -0.000000000000000000, -1.000000000000000000 ) ) ;
#402 = ORIENTED_EDGE ( 'NONE', *, *, #821, .T. ) ;
#403 = VERTEX_POINT ( 'NONE', #73 ) ;
#404 = AXIS2_PLACEMENT_3D ( 'NONE', #748, #642, #899 ) ;
#405 = CARTESIAN_POINT ( 'NONE',  ( 10.00000000000000355, 19.99999999999999645, 0.000000000000000000 ) ) ;
#406 = DIRECTION ( 'NONE',  ( -0.000000000000000000, -0.000000000000000000, 1.000000000000000000 ) ) ;
#407 = AXIS2_PLACEMENT_3D ( 'NONE', #234, #716, #983 ) ;
#408 = CARTESIAN_POINT ( 'NONE',  ( 79.48557158514982746, 18.74999999999991473, 0.000000000000000000 ) ) ;
#409 = EDGE_LOOP ( 'NONE', ( #1011, #294, #259, #158 ) ) ;
#410 = VERTEX_POINT ( 'NONE', #318 ) ;
#411 = EDGE_CURVE ( 'NONE', #106, #471, #236, .T. ) ;
#412 = DIRECTION ( 'NONE',  ( 0.000000000000000000, 0.000000000000000000, -1.000000000000000000 ) ) ;
#413 = CYLINDRICAL_SURFACE ( 'NONE', #290, 2.250000000000001776 ) ;
#414 = DIRECTION ( 'NONE',  ( 1.000000000000000000, 0.000000000000000000, 0.000000000000000000 ) ) ;
#415 = ORIENTED_EDGE ( 'NONE', *, *, #195, .T. ) ;
#416 = ORIENTED_EDGE ( 'NONE', *, *, #785, .T. ) ;
#417 = EDGE_CURVE ( 'NONE', #855, #902, #557, .T. ) ;
#418 = DIRECTION ( 'NONE',  ( 0.000000000000000000, 0.000000000000000000, 1.000000000000000000 ) ) ;
#419 = DIRECTION ( 'NONE',  ( 0.000000000000000000, 0.000000000000000000, -1.000000000000000000 ) ) ;
#420 = EDGE_CURVE ( 'NONE', #808, #410, #219, .T. ) ;
#421 = CARTESIAN_POINT ( 'NONE',  ( 38.26442841485017965, 18.74999999999990763, 0.000000000000000000 ) ) ;
#422 = EDGE_CURVE ( 'NONE', #29, #319, #261, .T. ) ;
#423 = FACE_BOUND ( 'NONE', #1070, .T. ) ;
#424 = ORIENTED_EDGE ( 'NONE', *, *, #715, .T. ) ;
#425 = ORIENTED_EDGE ( 'NONE', *, *, #660, .T. ) ;
#426 = PRODUCT_DEFINITION ( 'UNKNOWN', '', #578, #987 ) ;
#427 = LINE ( 'NONE', #830, #876 ) ;
#428 = CARTESIAN_POINT ( 'NONE',  ( 79.48557158514982746, 18.74999999999991473, 4.000000000000000000 ) ) ;
#429 = CIRCLE ( 'NONE', #476, 5.000000000000004441 ) ;
#430 = AXIS2_PLACEMENT_3D ( 'NONE', #851, #689, #20 ) ;
#431 = VECTOR ( 'NONE', #472, 1000.000000000000000 ) ;
#432 = CARTESIAN_POINT ( 'NONE',  ( 0.000000000000000000, 60.00000000000000000, 10.00000000000000000 ) ) ;
#433 = ORIENTED_EDGE ( 'NONE', *, *, #789, .T. ) ;
#434 = EDGE_CURVE ( 'NONE', #269, #506, #596, .T. ) ;
#435 = ORIENTED_EDGE ( 'NONE', *, *, #1030, .F. ) ;
#436 = DIRECTION ( 'NONE',  ( 1.000000000000000000, 0.000000000000000000, 0.000000000000000000 ) ) ;
#437 = CARTESIAN_POINT ( 'NONE',  ( 83.48557158514982746, 18.74999999999991473, 10.00000000000000000 ) ) ;
#438 = DIRECTION ( 'NONE',  ( 0.000000000000000000, 0.000000000000000000, -1.000000000000000000 ) ) ;
#439 = DIRECTION ( 'NONE',  ( 1.000000000000000000, 0.000000000000000000, 0.000000000000000000 ) ) ;
#440 = VERTEX_POINT ( 'NONE', #590 ) ;
#441 = DIRECTION ( 'NONE',  ( -0.000000000000000000, -0.000000000000000000, 1.000000000000000000 ) ) ;
#442 = FACE_BOUND ( 'NONE', #39, .T. ) ;
#443 = ADVANCED_FACE ( 'NONE', ( #773 ), #1026, .F. ) ;
#444 = DIRECTION ( 'NONE',  ( -1.000000000000000000, 0.000000000000000000, 0.000000000000000000 ) ) ;
#445 = DIRECTION ( 'NONE',  ( -0.000000000000000000, -0.000000000000000000, 1.000000000000000000 ) ) ;
#446 = FACE_OUTER_BOUND ( 'NONE', #398, .T. ) ;
#447 = CIRCLE ( 'NONE', #718, 4.000000000000003553 ) ;
#448 = CARTESIAN_POINT ( 'NONE',  ( 114.9999999999999858, 0.000000000000000000, 10.00000000000000000 ) ) ;
#449 = FACE_OUTER_BOUND ( 'NONE', #244, .T. ) ;
#450 = VECTOR ( 'NONE', #867, 1000.000000000000000 ) ;
#451 = VERTEX_POINT ( 'NONE', #178 ) ;
#452 = FACE_OUTER_BOUND ( 'NONE', #409, .T. ) ;
#453 = CARTESIAN_POINT ( 'NONE',  ( 106.7500000000000000, 19.99999999999999645, 10.00000000000000000 ) ) ;
#454 = DIRECTION ( 'NONE',  ( 0.000000000000000000, 0.000000000000000000, -1.000000000000000000 ) ) ;
#455 = EDGE_LOOP ( 'NONE', ( #286, #425 ) ) ;
#456 = CARTESIAN_POINT ( 'NONE',  ( 42.76442841485016544, 18.74999999999990763, 0.000000000000000000 ) ) ;
#457 = CARTESIAN_POINT ( 'NONE',  ( 75.48557158514981325, 18.74999999999991473, 10.00000000000000000 ) ) ;
#458 = DIRECTION ( 'NONE',  ( 1.000000000000000000, 0.000000000000000000, 0.000000000000000000 ) ) ;
#459 = DIRECTION ( 'NONE',  ( 1.000000000000000000, 0.000000000000000000, 0.000000000000000000 ) ) ;
#460 = EDGE_CURVE ( 'NONE', #1046, #171, #1032, .T. ) ;
#461 = AXIS2_PLACEMENT_3D ( 'NONE', #133, #535, #459 ) ;
#462 = AXIS2_PLACEMENT_3D ( 'NONE', #143, #733, #289 ) ;
#463 = CYLINDRICAL_SURFACE ( 'NONE', #461, 4.000000000000003553 ) ;
#464 =( GEOMETRIC_REPRESENTATION_CONTEXT ( 3 ) GLOBAL_UNCERTAINTY_ASSIGNED_CONTEXT ( ( #337 ) ) GLOBAL_UNIT_ASSIGNED_CONTEXT ( ( #1040, #882, #704 ) ) REPRESENTATION_CONTEXT ( 'NONE', 'WORKASPACE' ) );
#465 = DIRECTION ( 'NONE',  ( 1.000000000000000000, 0.000000000000000000, 0.000000000000000000 ) ) ;
#466 = ORIENTED_EDGE ( 'NONE', *, *, #270, .F. ) ;
#467 = ADVANCED_FACE ( 'NONE', ( #950 ), #508, .F. ) ;
#468 = DIRECTION ( 'NONE',  ( -1.000000000000000000, 0.000000000000000000, 0.000000000000000000 ) ) ;
#469 = EDGE_CURVE ( 'NONE', #752, #511, #255, .T. ) ;
#470 = ORIENTED_EDGE ( 'NONE', *, *, #55, .F. ) ;
#471 = VERTEX_POINT ( 'NONE', #271 ) ;
#472 = DIRECTION ( 'NONE',  ( -0.000000000000000000, -0.000000000000000000, 1.000000000000000000 ) ) ;
#473 = DIRECTION ( 'NONE',  ( 0.000000000000000000, -1.000000000000000000, 0.000000000000000000 ) ) ;
#474 = EDGE_CURVE ( 'NONE', #581, #171, #738, .T. ) ;
#475 = EDGE_LOOP ( 'NONE', ( #433, #142 ) ) ;
#476 = AXIS2_PLACEMENT_3D ( 'NONE', #802, #377, #711 ) ;
#477 = ORIENTED_EDGE ( 'NONE', *, *, #660, .F. ) ;
#478 = AXIS2_PLACEMENT_3D ( 'NONE', #657, #822, #414 ) ;
#479 = AXIS2_PLACEMENT_3D ( 'NONE', #633, #149, #229 ) ;
#480 = CARTESIAN_POINT ( 'NONE',  ( 120.0000000000000000, 0.000000000000000000, 10.00000000000000000 ) ) ;
#481 = CARTESIAN_POINT ( 'NONE',  ( 120.0000000000000000, 5.000000000000000000, 0.000000000000000000 ) ) ;
#482 = ORIENTED_EDGE ( 'NONE', *, *, #783, .T. ) ;
#483 = EDGE_LOOP ( 'NONE', ( #470, #546, #415, #87 ) ) ;
#484 = CYLINDRICAL_SURFACE ( 'NONE', #407, 5.000000000000000000 ) ;
#485 = CARTESIAN_POINT ( 'NONE',  ( 5.000000000000000000, 55.00000000000000000, 10.00000000000000000 ) ) ;
#486 = EDGE_LOOP ( 'NONE', ( #986, #547, #88, #191 ) ) ;
#487 = EDGE_LOOP ( 'NONE', ( #292, #99 ) ) ;
#488 = SURFACE_SIDE_STYLE ('',( #252 ) ) ;
#489 = DIRECTION ( 'NONE',  ( 1.000000000000000000, 0.000000000000000000, 0.000000000000000000 ) ) ;
#490 = ADVANCED_FACE ( 'NONE', ( #1015, #36 ), #595, .T. ) ;
#491 = CARTESIAN_POINT ( 'NONE',  ( 110.0000000000000000, 40.00000000000000000, 10.00000000000000000 ) ) ;
#492 = VERTEX_POINT ( 'NONE', #437 ) ;
#493 = EDGE_LOOP ( 'NONE', ( #1066, #1019, #665, #1037 ) ) ;
#494 = VECTOR ( 'NONE', #397, 1000.000000000000000 ) ;
#495 = AXIS2_PLACEMENT_3D ( 'NONE', #197, #523, #444 ) ;
#496 = CARTESIAN_POINT ( 'NONE',  ( 114.9999999999999858, 0.000000000000000000, 10.00000000000000000 ) ) ;
#497 = LINE ( 'NONE', #553, #494 ) ;
#498 = COLOUR_RGB ( '',0.7921568627450980005, 0.8196078431372548767, 0.9333333333333333481 ) ;
#499 = AXIS2_PLACEMENT_3D ( 'NONE', #694, #949, #797 ) ;
#500 = ORIENTED_EDGE ( 'NONE', *, *, #411, .T. ) ;
#501 = ORIENTED_EDGE ( 'NONE', *, *, #715, .F. ) ;
#502 = ADVANCED_FACE ( 'NONE', ( #946 ), #521, .F. ) ;
#503 = DIRECTION ( 'NONE',  ( 1.000000000000000000, 0.000000000000000000, 0.000000000000000000 ) ) ;
#504 = ADVANCED_FACE ( 'NONE', ( #603 ), #363, .F. ) ;
#505 = EDGE_LOOP ( 'NONE', ( #903, #929, #287, #120 ) ) ;
#506 = VERTEX_POINT ( 'NONE', #198 ) ;
#507 =( NAMED_UNIT ( * ) PLANE_ANGLE_UNIT ( ) SI_UNIT ( $, .RADIAN. ) );
#508 = CYLINDRICAL_SURFACE ( 'NONE', #135, 3.250000000000002665 ) ;
#509 = PLANE ( 'NONE',  #217 ) ;
#510 = DIRECTION ( 'NONE',  ( 0.000000000000000000, 0.000000000000000000, 1.000000000000000000 ) ) ;
#511 = VERTEX_POINT ( 'NONE', #695 ) ;
#512 = ORIENTED_EDGE ( 'NONE', *, *, #138, .F. ) ;
#513 = CIRCLE ( 'NONE', #943, 3.250000000000002665 ) ;
#514 = CARTESIAN_POINT ( 'NONE',  ( 81.73557158514981325, 18.74999999999991473, 0.000000000000000000 ) ) ;
#515 = CARTESIAN_POINT ( 'NONE',  ( 113.2500000000000000, 40.00000000000000000, 0.000000000000000000 ) ) ;
#516 = AXIS2_PLACEMENT_3D ( 'NONE', #584, #864, #101 ) ;
#517 = AXIS2_PLACEMENT_3D ( 'NONE', #235, #323, #116 ) ;
#518 = CARTESIAN_POINT ( 'NONE',  ( 0.000000000000000000, 60.00000000000000000, 0.000000000000000000 ) ) ;
#519 = ORIENTED_EDGE ( 'NONE', *, *, #6, .F. ) ;
#520 = ADVANCED_BREP_SHAPE_REPRESENTATION ( 'sensor_board', ( #968, #499 ), #464 ) ;
#521 = CYLINDRICAL_SURFACE ( 'NONE', #303, 4.000000000000003553 ) ;
#522 = DIRECTION ( 'NONE',  ( 1.000000000000000000, 0.000000000000000000, 0.000000000000000000 ) ) ;
#523 = DIRECTION ( 'NONE',  ( 0.000000000000000000, 0.000000000000000000, 1.000000000000000000 ) ) ;
#524 = CYLINDRICAL_SURFACE ( 'NONE', #599, 5.000000000000004441 ) ;
#525 = CARTESIAN_POINT ( 'NONE',  ( 5.000000000000000000, 60.00000000000000000, 0.000000000000000000 ) ) ;
#526 = FACE_BOUND ( 'NONE', #566, .T. ) ;
#527 = LINE ( 'NONE', #518, #1062 ) ;
#528 = VERTEX_POINT ( 'NONE', #525 ) ;
#529 = FACE_OUTER_BOUND ( 'NONE', #787, .T. ) ;
#530 = DIRECTION ( 'NONE',  ( 0.000000000000000000, 0.000000000000000000, 1.000000000000000000 ) ) ;
#531 = AXIS2_PLACEMENT_3D ( 'NONE', #173, #845, #680 ) ;
#532 = ORIENTED_EDGE ( 'NONE', *, *, #537, .F. ) ;
#533 = LINE ( 'NONE', #634, #628 ) ;
#534 = EDGE_CURVE ( 'NONE', #492, #891, #67, .T. ) ;
#535 = DIRECTION ( 'NONE',  ( -0.000000000000000000, -0.000000000000000000, 1.000000000000000000 ) ) ;
#536 = LINE ( 'NONE', #480, #1012 ) ;
#537 = EDGE_CURVE ( 'NONE', #551, #380, #49, .T. ) ;
#538 = DIRECTION ( 'NONE',  ( -0.000000000000000000, -0.000000000000000000, 1.000000000000000000 ) ) ;
#539 = ORIENTED_EDGE ( 'NONE', *, *, #979, .T. ) ;
#540 = CARTESIAN_POINT ( 'NONE',  ( 79.48557158514982746, 18.74999999999991473, 4.000000000000000000 ) ) ;
#541 = VECTOR ( 'NONE', #419, 1000.000000000000000 ) ;
#542 = AXIS2_PLACEMENT_3D ( 'NONE', #948, #1039, #693 ) ;
#543 = ORIENTED_EDGE ( 'NONE', *, *, #980, .T. ) ;
#544 = CARTESIAN_POINT ( 'NONE',  ( 13.25000000000000355, 19.99999999999999645, 0.000000000000000000 ) ) ;
#545 = EDGE_CURVE ( 'NONE', #914, #222, #184, .T. ) ;
#546 = ORIENTED_EDGE ( 'NONE', *, *, #378, .F. ) ;
#547 = ORIENTED_EDGE ( 'NONE', *, *, #980, .F. ) ;
#548 = CARTESIAN_POINT ( 'NONE',  ( 113.2500000000000000, 19.99999999999999645, 0.000000000000000000 ) ) ;
#549 = CARTESIAN_POINT ( 'NONE',  ( 83.48557158514982746, 18.74999999999991473, 4.000000000000000000 ) ) ;
#550 = EDGE_LOOP ( 'NONE', ( #282, #203, #829, #1004 ) ) ;
#551 = VERTEX_POINT ( 'NONE', #620 ) ;
#552 = DIRECTION ( 'NONE',  ( -0.000000000000000000, -0.000000000000000000, -1.000000000000000000 ) ) ;
#553 = CARTESIAN_POINT ( 'NONE',  ( 0.000000000000000000, 0.000000000000000000, 0.000000000000000000 ) ) ;
#554 = EDGE_LOOP ( 'NONE', ( #501, #863, #155, #172 ) ) ;
#555 = CIRCLE ( 'NONE', #798, 2.249999999999988010 ) ;
#556 = EDGE_LOOP ( 'NONE', ( #466, #966, #700, #349 ) ) ;
#557 = CIRCLE ( 'NONE', #814, 3.250000000000002665 ) ;
#558 = AXIS2_PLACEMENT_3D ( 'NONE', #723, #552, #311 ) ;
#559 = CARTESIAN_POINT ( 'NONE',  ( 10.00000000000000355, 40.00000000000000000, 10.00000000000000000 ) ) ;
#560 = FACE_OUTER_BOUND ( 'NONE', #61, .T. ) ;
#561 = ORIENTED_EDGE ( 'NONE', *, *, #221, .T. ) ;
#562 = EDGE_LOOP ( 'NONE', ( #336, #824, #127, #386 ) ) ;
#563 = DIRECTION ( 'NONE',  ( 1.000000000000000000, 0.000000000000000000, 0.000000000000000000 ) ) ;
#564 = DIRECTION ( 'NONE',  ( -1.000000000000000000, 0.000000000000000000, 0.000000000000000000 ) ) ;
#565 = EDGE_CURVE ( 'NONE', #915, #2, #602, .T. ) ;
#566 = EDGE_LOOP ( 'NONE', ( #960, #994 ) ) ;
#567 = ORIENTED_EDGE ( 'NONE', *, *, #534, .F. ) ;
#568 = DIRECTION ( 'NONE',  ( -0.000000000000000000, -0.000000000000000000, 1.000000000000000000 ) ) ;
#569 = DIRECTION ( 'NONE',  ( 0.000000000000000000, 0.000000000000000000, -1.000000000000000000 ) ) ;
#570 = ORIENTED_EDGE ( 'NONE', *, *, #383, .T. ) ;
#571 = ADVANCED_FACE ( 'NONE', ( #624 ), #712, .F. ) ;
#572 = VERTEX_POINT ( 'NONE', #1064 ) ;
#573 = ADVANCED_FACE ( 'NONE', ( #301 ), #130, .F. ) ;
#574 = CIRCLE ( 'NONE', #1010, 2.249999999999995115 ) ;
#575 = DIRECTION ( 'NONE',  ( -1.000000000000000000, 0.000000000000000000, 0.000000000000000000 ) ) ;
#576 = CARTESIAN_POINT ( 'NONE',  ( 40.51442841485017254, 18.74999999999990763, 10.00000000000000000 ) ) ;
#577 =( GEOMETRIC_REPRESENTATION_CONTEXT ( 3 ) GLOBAL_UNCERTAINTY_ASSIGNED_CONTEXT ( ( #753 ) ) GLOBAL_UNIT_ASSIGNED_CONTEXT ( ( #754, #507, #260 ) ) REPRESENTATION_CONTEXT ( 'NONE', 'WORKASPACE' ) );
#578 = PRODUCT_DEFINITION_FORMATION_WITH_SPECIFIED_SOURCE ( 'ANY', '', #764, .NOT_KNOWN. ) ;
#579 = EDGE_CURVE ( 'NONE', #613, #981, #375, .T. ) ;
#580 = ADVANCED_FACE ( 'NONE', ( #145 ), #463, .F. ) ;
#581 = VERTEX_POINT ( 'NONE', #27 ) ;
#582 = ORIENTED_EDGE ( 'NONE', *, *, #5, .F. ) ;
#583 = CARTESIAN_POINT ( 'NONE',  ( 60.00000000000000000, 52.50000000000000711, 4.000000000000000000 ) ) ;
#584 = CARTESIAN_POINT ( 'NONE',  ( 114.9999999999999858, 55.00000000000000000, 0.000000000000000000 ) ) ;
#585 = LINE ( 'NONE', #284, #643 ) ;
#586 = LINE ( 'NONE', #200, #293 ) ;
#587 = ORIENTED_EDGE ( 'NONE', *, *, #789, .F. ) ;
#588 = VERTEX_POINT ( 'NONE', #357 ) ;
#589 = DIRECTION ( 'NONE',  ( -0.000000000000000000, -0.000000000000000000, 1.000000000000000000 ) ) ;
#590 = CARTESIAN_POINT ( 'NONE',  ( 5.000000000000000000, 0.000000000000000000, 0.000000000000000000 ) ) ;
#591 = DIRECTION ( 'NONE',  ( 1.000000000000000000, 0.000000000000000000, 0.000000000000000000 ) ) ;
#592 = FACE_BOUND ( 'NONE', #823, .T. ) ;
#593 = ORIENTED_EDGE ( 'NONE', *, *, #460, .T. ) ;
#594 = VECTOR ( 'NONE', #306, 1000.000000000000000 ) ;
#595 = PLANE ( 'NONE',  #188 ) ;
#596 = CIRCLE ( 'NONE', #516, 5.000000000000004441 ) ;
#597 = CIRCLE ( 'NONE', #558, 2.250000000000001776 ) ;
#598 = DIRECTION ( 'NONE',  ( 0.000000000000000000, 0.000000000000000000, -1.000000000000000000 ) ) ;
#599 = AXIS2_PLACEMENT_3D ( 'NONE', #115, #454, #131 ) ;
#600 = CARTESIAN_POINT ( 'NONE',  ( 60.00000000000000000, 52.50000000000000711, 10.00000000000000000 ) ) ;
#601 = FACE_BOUND ( 'NONE', #487, .T. ) ;
#602 = LINE ( 'NONE', #954, #690 ) ;
#603 = FACE_OUTER_BOUND ( 'NONE', #556, .T. ) ;
#604 = LINE ( 'NONE', #952, #205 ) ;
#605 = EDGE_CURVE ( 'NONE', #171, #581, #944, .T. ) ;
#606 = CARTESIAN_POINT ( 'NONE',  ( 64.00000000000000000, 52.50000000000000711, 4.000000000000000000 ) ) ;
#607 = EDGE_LOOP ( 'NONE', ( #664, #673 ) ) ;
#608 = DIRECTION ( 'NONE',  ( -0.000000000000000000, -0.000000000000000000, 1.000000000000000000 ) ) ;
#609 = CARTESIAN_POINT ( 'NONE',  ( 106.7500000000000000, 19.99999999999999645, 0.000000000000000000 ) ) ;
#610 = ADVANCED_FACE ( 'NONE', ( #683 ), #365, .F. ) ;
#611 = EDGE_CURVE ( 'NONE', #645, #1048, #1033, .T. ) ;
#612 = FACE_OUTER_BOUND ( 'NONE', #722, .T. ) ;
#613 = VERTEX_POINT ( 'NONE', #329 ) ;
#614 = LINE ( 'NONE', #128, #339 ) ;
#615 = AXIS2_PLACEMENT_3D ( 'NONE', #211, #806, #458 ) ;
#616 = ADVANCED_FACE ( 'NONE', ( #80 ), #749, .F. ) ;
#617 = CIRCLE ( 'NONE', #358, 3.250000000000002665 ) ;
#618 = CARTESIAN_POINT ( 'NONE',  ( 114.9999999999999858, 60.00000000000000000, 10.00000000000000000 ) ) ;
#619 = CIRCLE ( 'NONE', #479, 3.250000000000002665 ) ;
#620 = CARTESIAN_POINT ( 'NONE',  ( 0.000000000000000000, 5.000000000000000000, 10.00000000000000000 ) ) ;
#621 = EDGE_LOOP ( 'NONE', ( #435, #635, #92, #263 ) ) ;
#622 = ADVANCED_FACE ( 'NONE', ( #842 ), #997, .F. ) ;
#623 = DIRECTION ( 'NONE',  ( -0.000000000000000000, -0.000000000000000000, 1.000000000000000000 ) ) ;
#624 = FACE_OUTER_BOUND ( 'NONE', #371, .T. ) ;
#625 = LINE ( 'NONE', #549, #233 ) ;
#626 = EDGE_CURVE ( 'NONE', #106, #227, #242, .T. ) ;
#627 = DIRECTION ( 'NONE',  ( 0.000000000000000000, 0.000000000000000000, 1.000000000000000000 ) ) ;
#628 = VECTOR ( 'NONE', #538, 1000.000000000000000 ) ;
#629 = AXIS2_PLACEMENT_3D ( 'NONE', #984, #473, #401 ) ;
#630 = AXIS2_PLACEMENT_3D ( 'NONE', #850, #767, #24 ) ;
#631 = VERTEX_POINT ( 'NONE', #162 ) ;
#632 = AXIS2_PLACEMENT_3D ( 'NONE', #840, #568, #166 ) ;
#633 = CARTESIAN_POINT ( 'NONE',  ( 110.0000000000000000, 19.99999999999999645, 0.000000000000000000 ) ) ;
#634 = CARTESIAN_POINT ( 'NONE',  ( 64.00000000000000000, 52.50000000000000711, 4.000000000000000000 ) ) ;
#635 = ORIENTED_EDGE ( 'NONE', *, *, #420, .F. ) ;
#636 = EDGE_LOOP ( 'NONE', ( #1, #685 ) ) ;
#637 = CARTESIAN_POINT ( 'NONE',  ( 57.74999999999999289, 52.50000000000000711, 0.000000000000000000 ) ) ;
#638 = DIRECTION ( 'NONE',  ( -0.000000000000000000, -0.000000000000000000, 1.000000000000000000 ) ) ;
#639 = VERTEX_POINT ( 'NONE', #334 ) ;
#640 = ORIENTED_EDGE ( 'NONE', *, *, #422, .T. ) ;
#641 = FACE_OUTER_BOUND ( 'NONE', #147, .T. ) ;
#642 = DIRECTION ( 'NONE',  ( 0.000000000000000000, 1.000000000000000000, 0.000000000000000000 ) ) ;
#643 = VECTOR ( 'NONE', #26, 1000.000000000000000 ) ;
#644 = VECTOR ( 'NONE', #140, 1000.000000000000000 ) ;
#645 = VERTEX_POINT ( 'NONE', #86 ) ;
#646 = VECTOR ( 'NONE', #860, 1000.000000000000000 ) ;
#647 = ORIENTED_EDGE ( 'NONE', *, *, #283, .T. ) ;
#648 = AXIS2_PLACEMENT_3D ( 'NONE', #770, #343, #1034 ) ;
#649 = VECTOR ( 'NONE', #90, 1000.000000000000000 ) ;
#650 = CARTESIAN_POINT ( 'NONE',  ( 5.000000000000000000, 0.000000000000000000, 10.00000000000000000 ) ) ;
#651 = CARTESIAN_POINT ( 'NONE',  ( 75.48557158514981325, 18.74999999999991473, 4.000000000000000000 ) ) ;
#652 = ORIENTED_EDGE ( 'NONE', *, *, #605, .T. ) ;
#653 = ORIENTED_EDGE ( 'NONE', *, *, #922, .T. ) ;
#654 = FACE_OUTER_BOUND ( 'NONE', #1081, .T. ) ;
#655 = CARTESIAN_POINT ( 'NONE',  ( 13.25000000000000355, 40.00000000000000000, 10.00000000000000000 ) ) ;
#656 = EDGE_CURVE ( 'NONE', #2, #222, #617, .T. ) ;
#657 = CARTESIAN_POINT ( 'NONE',  ( 40.51442841485017254, 18.74999999999990763, 0.000000000000000000 ) ) ;
#658 = EDGE_LOOP ( 'NONE', ( #1074, #104, #1057, #993 ) ) ;
#659 = ORIENTED_EDGE ( 'NONE', *, *, #202, .F. ) ;
#660 = EDGE_CURVE ( 'NONE', #758, #982, #118, .T. ) ;
#661 = DIRECTION ( 'NONE',  ( -0.000000000000000000, -0.000000000000000000, 1.000000000000000000 ) ) ;
#662 = CARTESIAN_POINT ( 'NONE',  ( 110.0000000000000000, 40.00000000000000000, 0.000000000000000000 ) ) ;
#663 = DIRECTION ( 'NONE',  ( 1.000000000000000000, 0.000000000000000000, 0.000000000000000000 ) ) ;
#664 = ORIENTED_EDGE ( 'NONE', *, *, #813, .F. ) ;
#665 = ORIENTED_EDGE ( 'NONE', *, *, #1009, .F. ) ;
#666 = AXIS2_PLACEMENT_3D ( 'NONE', #194, #957, #865 ) ;
#667 = AXIS2_PLACEMENT_3D ( 'NONE', #54, #717, #967 ) ;
#668 = CIRCLE ( 'NONE', #708, 3.249999999999999556 ) ;
#669 = CARTESIAN_POINT ( 'NONE',  ( 5.000000000000000000, 5.000000000000000000, 0.000000000000000000 ) ) ;
#670 = DIRECTION ( 'NONE',  ( 1.000000000000000000, 0.000000000000000000, 0.000000000000000000 ) ) ;
#671 = FACE_BOUND ( 'NONE', #182, .T. ) ;
#672 = FACE_BOUND ( 'NONE', #793, .T. ) ;
#673 = ORIENTED_EDGE ( 'NONE', *, *, #383, .F. ) ;
#674 = ORIENTED_EDGE ( 'NONE', *, *, #656, .F. ) ;
#675 = PRESENTATION_STYLE_ASSIGNMENT (( #939 ) ) ;
#676 = DIRECTION ( 'NONE',  ( -1.000000000000000000, 0.000000000000000000, 0.000000000000000000 ) ) ;
#677 = FACE_OUTER_BOUND ( 'NONE', #243, .T. ) ;
#678 = PLANE ( 'NONE',  #691 ) ;
#679 = EDGE_LOOP ( 'NONE', ( #250, #894 ) ) ;
#680 = DIRECTION ( 'NONE',  ( -1.000000000000000000, 0.000000000000000000, 0.000000000000000000 ) ) ;
#681 = CARTESIAN_POINT ( 'NONE',  ( 120.0000000000000000, 5.000000000000000000, 10.00000000000000000 ) ) ;
#682 = CARTESIAN_POINT ( 'NONE',  ( 120.0000000000000000, 55.00000000000000000, 10.00000000000000000 ) ) ;
#683 = FACE_OUTER_BOUND ( 'NONE', #942, .T. ) ;
#684 = DIRECTION ( 'NONE',  ( 0.000000000000000000, 0.000000000000000000, 1.000000000000000000 ) ) ;
#685 = ORIENTED_EDGE ( 'NONE', *, *, #469, .F. ) ;
#686 = AXIS2_PLACEMENT_3D ( 'NONE', #756, #102, #11 ) ;
#687 = ADVANCED_FACE ( 'NONE', ( #257, #928 ), #873, .T. ) ;
#688 = DIRECTION ( 'NONE',  ( 1.000000000000000000, 0.000000000000000000, 0.000000000000000000 ) ) ;
#689 = DIRECTION ( 'NONE',  ( -0.000000000000000000, -0.000000000000000000, 1.000000000000000000 ) ) ;
#690 = VECTOR ( 'NONE', #710, 1000.000000000000000 ) ;
#691 = AXIS2_PLACEMENT_3D ( 'NONE', #180, #510, #784 ) ;
#692 = DIRECTION ( 'NONE',  ( -0.000000000000000000, -0.000000000000000000, 1.000000000000000000 ) ) ;
#693 = DIRECTION ( 'NONE',  ( -1.000000000000000000, 0.000000000000000000, 0.000000000000000000 ) ) ;
#694 = CARTESIAN_POINT ( 'NONE',  ( 0.000000000000000000, 0.000000000000000000, 0.000000000000000000 ) ) ;
#695 = CARTESIAN_POINT ( 'NONE',  ( 44.51442841485017965, 18.74999999999990763, 10.00000000000000000 ) ) ;
#696 = LINE ( 'NONE', #179, #906 ) ;
#697 = EDGE_CURVE ( 'NONE', #919, #226, #291, .T. ) ;
#698 = FACE_OUTER_BOUND ( 'NONE', #70, .T. ) ;
#699 = ADVANCED_FACE ( 'NONE', ( #698 ), #359, .T. ) ;
#700 = ORIENTED_EDGE ( 'NONE', *, *, #228, .T. ) ;
#701 = EDGE_CURVE ( 'NONE', #269, #528, #527, .T. ) ;
#702 = DIRECTION ( 'NONE',  ( -0.000000000000000000, -0.000000000000000000, 1.000000000000000000 ) ) ;
#703 = CYLINDRICAL_SURFACE ( 'NONE', #18, 3.249999999999999556 ) ;
#704 =( NAMED_UNIT ( * ) SI_UNIT ( $, .STERADIAN. ) SOLID_ANGLE_UNIT ( ) );
#705 = ORIENTED_EDGE ( 'NONE', *, *, #889, .F. ) ;
#706 = CARTESIAN_POINT ( 'NONE',  ( 40.51442841485017254, 18.74999999999990763, 4.000000000000000000 ) ) ;
#707 = AXIS2_PLACEMENT_3D ( 'NONE', #132, #300, #214 ) ;
#708 = AXIS2_PLACEMENT_3D ( 'NONE', #724, #841, #4 ) ;
#709 = CIRCLE ( 'NONE', #237, 5.000000000000000000 ) ;
#710 = DIRECTION ( 'NONE',  ( -0.000000000000000000, -0.000000000000000000, 1.000000000000000000 ) ) ;
#711 = DIRECTION ( 'NONE',  ( -1.000000000000000000, 0.000000000000000000, 0.000000000000000000 ) ) ;
#712 = CYLINDRICAL_SURFACE ( 'NONE', #837, 2.249999999999988010 ) ;
#713 = CARTESIAN_POINT ( 'NONE',  ( 79.48557158514982746, 18.74999999999991473, 4.000000000000000000 ) ) ;
#714 = ORIENTED_EDGE ( 'NONE', *, *, #1055, .T. ) ;
#715 = EDGE_CURVE ( 'NONE', #919, #902, #353, .T. ) ;
#716 = DIRECTION ( 'NONE',  ( 0.000000000000000000, 0.000000000000000000, -1.000000000000000000 ) ) ;
#717 = DIRECTION ( 'NONE',  ( 1.000000000000000000, 0.000000000000000000, 0.000000000000000000 ) ) ;
#718 = AXIS2_PLACEMENT_3D ( 'NONE', #230, #729, #820 ) ;
#719 = AXIS2_PLACEMENT_3D ( 'NONE', #576, #266, #670 ) ;
#720 = CIRCLE ( 'NONE', #256, 4.000000000000003553 ) ;
#721 = ORIENTED_EDGE ( 'NONE', *, *, #122, .T. ) ;
#722 = EDGE_LOOP ( 'NONE', ( #98, #725, #258, #1065 ) ) ;
#723 = CARTESIAN_POINT ( 'NONE',  ( 60.00000000000000000, 52.50000000000000711, 4.000000000000000000 ) ) ;
#724 = CARTESIAN_POINT ( 'NONE',  ( 10.00000000000000355, 40.00000000000000000, 10.00000000000000000 ) ) ;
#725 = ORIENTED_EDGE ( 'NONE', *, *, #565, .T. ) ;
#726 = EDGE_CURVE ( 'NONE', #891, #492, #68, .T. ) ;
#727 = ORIENTED_EDGE ( 'NONE', *, *, #772, .F. ) ;
#728 = DIRECTION ( 'NONE',  ( -0.000000000000000000, -0.000000000000000000, 1.000000000000000000 ) ) ;
#729 = DIRECTION ( 'NONE',  ( 0.000000000000000000, 0.000000000000000000, 1.000000000000000000 ) ) ;
#730 = EDGE_CURVE ( 'NONE', #639, #394, #376, .T. ) ;
#731 = VERTEX_POINT ( 'NONE', #606 ) ;
#732 = ORIENTED_EDGE ( 'NONE', *, *, #1030, .T. ) ;
#733 = DIRECTION ( 'NONE',  ( 0.000000000000000000, 0.000000000000000000, 1.000000000000000000 ) ) ;
#734 = CARTESIAN_POINT ( 'NONE',  ( 38.26442841485017965, 18.74999999999990763, 0.000000000000000000 ) ) ;
#735 = AXIS2_PLACEMENT_3D ( 'NONE', #31, #53, #465 ) ;
#736 = DIRECTION ( 'NONE',  ( -0.000000000000000000, -0.000000000000000000, 1.000000000000000000 ) ) ;
#737 = EDGE_LOOP ( 'NONE', ( #976, #587, #1082, #930 ) ) ;
#738 = CIRCLE ( 'NONE', #274, 4.000000000000003553 ) ;
#739 = ORIENTED_EDGE ( 'NONE', *, *, #969, .F. ) ;
#740 = CIRCLE ( 'NONE', #190, 3.249999999999999556 ) ;
#741 = DIRECTION ( 'NONE',  ( -0.000000000000000000, -0.000000000000000000, 1.000000000000000000 ) ) ;
#742 = CARTESIAN_POINT ( 'NONE',  ( 5.000000000000000000, 0.000000000000000000, 10.00000000000000000 ) ) ;
#743 = DIRECTION ( 'NONE',  ( 0.000000000000000000, 0.000000000000000000, 1.000000000000000000 ) ) ;
#744 = ORIENTED_EDGE ( 'NONE', *, *, #951, .F. ) ;
#745 = EDGE_LOOP ( 'NONE', ( #653, #714, #416, #647, #58, #249, #936, #62 ) ) ;
#746 = ADVANCED_FACE ( 'NONE', ( #601, #189, #103, #592, #672, #775, #935, #262 ), #280, .F. ) ;
#747 = DIRECTION ( 'NONE',  ( 1.000000000000000000, 0.000000000000000000, 0.000000000000000000 ) ) ;
#748 = CARTESIAN_POINT ( 'NONE',  ( 0.000000000000000000, 0.000000000000000000, 10.00000000000000000 ) ) ;
#749 = CYLINDRICAL_SURFACE ( 'NONE', #972, 4.000000000000003553 ) ;
#750 = ORIENTED_EDGE ( 'NONE', *, *, #1016, .T. ) ;
#751 = PRODUCT_DEFINITION_SHAPE ( 'NONE', 'NONE',  #426 ) ;
#752 = VERTEX_POINT ( 'NONE', #117 ) ;
#753 = UNCERTAINTY_MEASURE_WITH_UNIT (LENGTH_MEASURE( 1.000000000000000082E-05 ), #754, 'distance_accuracy_value', 'NONE');
#754 =( LENGTH_UNIT ( ) NAMED_UNIT ( * ) SI_UNIT ( .MILLI., .METRE. ) );
#755 = CARTESIAN_POINT ( 'NONE',  ( 5.000000000000000000, 5.000000000000000000, 10.00000000000000000 ) ) ;
#756 = CARTESIAN_POINT ( 'NONE',  ( 40.51442841485017254, 18.74999999999990763, 0.000000000000000000 ) ) ;
#757 = LINE ( 'NONE', #109, #781 ) ;
#758 = VERTEX_POINT ( 'NONE', #958 ) ;
#759 = ORIENTED_EDGE ( 'NONE', *, *, #937, .F. ) ;
#760 = AXIS2_PLACEMENT_3D ( 'NONE', #485, #638, #1085 ) ;
#761 = AXIS2_PLACEMENT_3D ( 'NONE', #853, #348, #1018 ) ;
#762 = DIRECTION ( 'NONE',  ( 0.000000000000000000, 0.000000000000000000, 1.000000000000000000 ) ) ;
#763 = AXIS2_PLACEMENT_3D ( 'NONE', #65, #1071, #391 ) ;
#764 = PRODUCT ( 'sensor_board', 'sensor_board', '', ( #281 ) ) ;
#765 = CARTESIAN_POINT ( 'NONE',  ( 120.0000000000000000, 0.000000000000000000, 10.00000000000000000 ) ) ;
#766 = ORIENTED_EDGE ( 'NONE', *, *, #389, .T. ) ;
#767 = DIRECTION ( 'NONE',  ( 0.000000000000000000, 0.000000000000000000, 1.000000000000000000 ) ) ;
#768 = CARTESIAN_POINT ( 'NONE',  ( 110.0000000000000000, 19.99999999999999645, 0.000000000000000000 ) ) ;
#769 = LINE ( 'NONE', #861, #988 ) ;
#770 = CARTESIAN_POINT ( 'NONE',  ( 79.48557158514982746, 18.74999999999991473, 4.000000000000000000 ) ) ;
#771 = EDGE_LOOP ( 'NONE', ( #817, #659, #75, #385 ) ) ;
#772 = EDGE_CURVE ( 'NONE', #982, #1069, #586, .T. ) ;
#773 = FACE_OUTER_BOUND ( 'NONE', #562, .T. ) ;
#774 = FACE_BOUND ( 'NONE', #791, .T. ) ;
#775 = FACE_BOUND ( 'NONE', #163, .T. ) ;
#776 = ADVANCED_FACE ( 'NONE', ( #449 ), #862, .F. ) ;
#777 = CIRCLE ( 'NONE', #921, 3.249999999999999556 ) ;
#778 = CYLINDRICAL_SURFACE ( 'NONE', #69, 3.250000000000002665 ) ;
#779 = DIRECTION ( 'NONE',  ( -0.000000000000000000, -0.000000000000000000, 1.000000000000000000 ) ) ;
#780 = ADVANCED_FACE ( 'NONE', ( #97, #423 ), #678, .T. ) ;
#781 = VECTOR ( 'NONE', #38, 1000.000000000000000 ) ;
#782 = DIRECTION ( 'NONE',  ( -1.000000000000000000, 0.000000000000000000, -0.000000000000000000 ) ) ;
#783 = EDGE_CURVE ( 'NONE', #319, #506, #757, .T. ) ;
#784 = DIRECTION ( 'NONE',  ( 1.000000000000000000, 0.000000000000000000, -0.000000000000000000 ) ) ;
#785 = EDGE_CURVE ( 'NONE', #828, #368, #367, .T. ) ;
#786 = EDGE_CURVE ( 'NONE', #410, #808, #740, .T. ) ;
#787 = EDGE_LOOP ( 'NONE', ( #308, #918, #335, #320 ) ) ;
#788 = DIRECTION ( 'NONE',  ( 0.000000000000000000, 0.000000000000000000, 1.000000000000000000 ) ) ;
#789 = EDGE_CURVE ( 'NONE', #731, #1046, #276, .T. ) ;
#790 = DIRECTION ( 'NONE',  ( 0.000000000000000000, 0.000000000000000000, 1.000000000000000000 ) ) ;
#791 = EDGE_LOOP ( 'NONE', ( #500, #330 ) ) ;
#792 = APPLICATION_PROTOCOL_DEFINITION ( 'draft international standard', 'automotive_design', 1998, #893 ) ;
#793 = EDGE_LOOP ( 'NONE', ( #141, #326 ) ) ;
#794 = ORIENTED_EDGE ( 'NONE', *, *, #821, .F. ) ;
#795 = DIRECTION ( 'NONE',  ( -0.000000000000000000, -0.000000000000000000, 1.000000000000000000 ) ) ;
#796 = CARTESIAN_POINT ( 'NONE',  ( 10.00000000000000355, 40.00000000000000000, 0.000000000000000000 ) ) ;
#797 = DIRECTION ( 'NONE',  ( 1.000000000000000000, 0.000000000000000000, 0.000000000000000000 ) ) ;
#798 = AXIS2_PLACEMENT_3D ( 'NONE', #713, #971, #137 ) ;
#799 = CARTESIAN_POINT ( 'NONE',  ( 120.0000000000000000, 55.00000000000000000, 10.00000000000000000 ) ) ;
#800 = AXIS2_PLACEMENT_3D ( 'NONE', #28, #684, #381 ) ;
#801 = EDGE_LOOP ( 'NONE', ( #532, #8, #110, #395 ) ) ;
#802 = CARTESIAN_POINT ( 'NONE',  ( 114.9999999999999858, 5.000000000000000000, 0.000000000000000000 ) ) ;
#803 = ADVANCED_FACE ( 'NONE', ( #72 ), #484, .T. ) ;
#804 = ORIENTED_EDGE ( 'NONE', *, *, #89, .F. ) ;
#805 = CARTESIAN_POINT ( 'NONE',  ( 113.2500000000000000, 40.00000000000000000, 0.000000000000000000 ) ) ;
#806 = DIRECTION ( 'NONE',  ( -0.000000000000000000, -0.000000000000000000, 1.000000000000000000 ) ) ;
#807 = ORIENTED_EDGE ( 'NONE', *, *, #897, .F. ) ;
#808 = VERTEX_POINT ( 'NONE', #224 ) ;
#809 = CYLINDRICAL_SURFACE ( 'NONE', #52, 4.000000000000003553 ) ;
#810 = CARTESIAN_POINT ( 'NONE',  ( 57.74999999999999289, 52.50000000000000711, 0.000000000000000000 ) ) ;
#811 = EDGE_CURVE ( 'NONE', #380, #440, #400, .T. ) ;
#812 = AXIS2_PLACEMENT_3D ( 'NONE', #1054, #788, #225 ) ;
#813 = EDGE_CURVE ( 'NONE', #331, #836, #962, .T. ) ;
#814 = AXIS2_PLACEMENT_3D ( 'NONE', #193, #762, #107 ) ;
#815 = VECTOR ( 'NONE', #317, 1000.000000000000000 ) ;
#816 = EDGE_LOOP ( 'NONE', ( #302, #956, #843, #23 ) ) ;
#817 = ORIENTED_EDGE ( 'NONE', *, *, #283, .F. ) ;
#818 = EDGE_CURVE ( 'NONE', #226, #919, #619, .T. ) ;
#819 = CARTESIAN_POINT ( 'NONE',  ( 113.2500000000000000, 19.99999999999999645, 10.00000000000000000 ) ) ;
#820 = DIRECTION ( 'NONE',  ( 1.000000000000000000, 0.000000000000000000, 0.000000000000000000 ) ) ;
#821 = EDGE_CURVE ( 'NONE', #403, #1069, #992, .T. ) ;
#822 = DIRECTION ( 'NONE',  ( -0.000000000000000000, -0.000000000000000000, 1.000000000000000000 ) ) ;
#823 = EDGE_LOOP ( 'NONE', ( #804, #895 ) ) ;
#824 = ORIENTED_EDGE ( 'NONE', *, *, #55, .T. ) ;
#825 = CARTESIAN_POINT ( 'NONE',  ( 114.9999999999999858, 60.00000000000000000, 10.00000000000000000 ) ) ;
#826 = DIRECTION ( 'NONE',  ( -1.000000000000000000, 0.000000000000000000, 0.000000000000000000 ) ) ;
#827 = CARTESIAN_POINT ( 'NONE',  ( 79.48557158514982746, 18.74999999999991473, 4.000000000000000000 ) ) ;
#828 = VERTEX_POINT ( 'NONE', #618 ) ;
#829 = ORIENTED_EDGE ( 'NONE', *, *, #726, .T. ) ;
#830 = CARTESIAN_POINT ( 'NONE',  ( 6.750000000000004441, 40.00000000000000000, 0.000000000000000000 ) ) ;
#831 = PLANE ( 'NONE',  #404 ) ;
#832 = AXIS2_PLACEMENT_3D ( 'NONE', #934, #37, #947 ) ;
#833 = EDGE_CURVE ( 'NONE', #828, #269, #156, .T. ) ;
#834 = VECTOR ( 'NONE', #406, 1000.000000000000000 ) ;
#835 = DIRECTION ( 'NONE',  ( 0.000000000000000000, 0.000000000000000000, 1.000000000000000000 ) ) ;
#836 = VERTEX_POINT ( 'NONE', #878 ) ;
#837 = AXIS2_PLACEMENT_3D ( 'NONE', #890, #56, #1056 ) ;
#838 = ORIENTED_EDGE ( 'NONE', *, *, #309, .F. ) ;
#839 = AXIS2_PLACEMENT_3D ( 'NONE', #42, #912, #1067 ) ;
#840 = CARTESIAN_POINT ( 'NONE',  ( 110.0000000000000000, 19.99999999999999645, 0.000000000000000000 ) ) ;
#841 = DIRECTION ( 'NONE',  ( 0.000000000000000000, 0.000000000000000000, 1.000000000000000000 ) ) ;
#842 = FACE_OUTER_BOUND ( 'NONE', #486, .T. ) ;
#843 = ORIENTED_EDGE ( 'NONE', *, *, #701, .T. ) ;
#844 = ORIENTED_EDGE ( 'NONE', *, *, #138, .T. ) ;
#845 = DIRECTION ( 'NONE',  ( 0.000000000000000000, 0.000000000000000000, 1.000000000000000000 ) ) ;
#846 = DIRECTION ( 'NONE',  ( -0.000000000000000000, -0.000000000000000000, 1.000000000000000000 ) ) ;
#847 = CARTESIAN_POINT ( 'NONE',  ( 13.25000000000000355, 19.99999999999999645, 0.000000000000000000 ) ) ;
#848 = VERTEX_POINT ( 'NONE', #1060 ) ;
#849 = VERTEX_POINT ( 'NONE', #240 ) ;
#850 = CARTESIAN_POINT ( 'NONE',  ( 40.51442841485017254, 18.74999999999990763, 0.000000000000000000 ) ) ;
#851 = CARTESIAN_POINT ( 'NONE',  ( 79.48557158514982746, 18.74999999999991473, 4.000000000000000000 ) ) ;
#852 = AXIS2_PLACEMENT_3D ( 'NONE', #1017, #199, #591 ) ;
#853 = CARTESIAN_POINT ( 'NONE',  ( 60.00000000000000000, 52.50000000000000711, 4.000000000000000000 ) ) ;
#854 = VERTEX_POINT ( 'NONE', #125 ) ;
#855 = VERTEX_POINT ( 'NONE', #819 ) ;
#856 = AXIS2_PLACEMENT_3D ( 'NONE', #341, #598, #1027 ) ;
#857 = CIRCLE ( 'NONE', #760, 5.000000000000000000 ) ;
#858 = AXIS2_PLACEMENT_3D ( 'NONE', #755, #10, #676 ) ;
#859 = LINE ( 'NONE', #350, #304 ) ;
#860 = DIRECTION ( 'NONE',  ( -0.000000000000000000, -0.000000000000000000, 1.000000000000000000 ) ) ;
#861 = CARTESIAN_POINT ( 'NONE',  ( 0.000000000000000000, 0.000000000000000000, 0.000000000000000000 ) ) ;
#862 = PLANE ( 'NONE',  #85 ) ;
#863 = ORIENTED_EDGE ( 'NONE', *, *, #818, .F. ) ;
#864 = DIRECTION ( 'NONE',  ( 0.000000000000000000, 0.000000000000000000, -1.000000000000000000 ) ) ;
#865 = DIRECTION ( 'NONE',  ( 1.000000000000000000, 0.000000000000000000, 0.000000000000000000 ) ) ;
#866 = CARTESIAN_POINT ( 'NONE',  ( 60.00000000000000000, 52.50000000000000711, 0.000000000000000000 ) ) ;
#867 = DIRECTION ( 'NONE',  ( -0.000000000000000000, -0.000000000000000000, 1.000000000000000000 ) ) ;
#868 = EDGE_CURVE ( 'NONE', #902, #855, #909, .T. ) ;
#869 = CARTESIAN_POINT ( 'NONE',  ( 79.48557158514982746, 18.74999999999991473, 10.00000000000000000 ) ) ;
#870 = FACE_OUTER_BOUND ( 'NONE', #801, .T. ) ;
#871 = DIRECTION ( 'NONE',  ( 1.000000000000000000, 0.000000000000000000, 0.000000000000000000 ) ) ;
#872 = EDGE_CURVE ( 'NONE', #223, #451, #1044, .T. ) ;
#873 = PLANE ( 'NONE',  #761 ) ;
#874 = ORIENTED_EDGE ( 'NONE', *, *, #1002, .T. ) ;
#875 = AXIS2_PLACEMENT_3D ( 'NONE', #662, #241, #91 ) ;
#876 = VECTOR ( 'NONE', #83, 1000.000000000000000 ) ;
#877 = CYLINDRICAL_SURFACE ( 'NONE', #686, 2.249999999999995115 ) ;
#878 = CARTESIAN_POINT ( 'NONE',  ( 6.750000000000004441, 40.00000000000000000, 10.00000000000000000 ) ) ;
#879 = ORIENTED_EDGE ( 'NONE', *, *, #387, .T. ) ;
#880 = CARTESIAN_POINT ( 'NONE',  ( 55.99999999999999289, 52.50000000000000711, 10.00000000000000000 ) ) ;
#881 = DIRECTION ( 'NONE',  ( 0.000000000000000000, 1.000000000000000000, 0.000000000000000000 ) ) ;
#882 =( NAMED_UNIT ( * ) PLANE_ANGLE_UNIT ( ) SI_UNIT ( $, .RADIAN. ) );
#883 = CARTESIAN_POINT ( 'NONE',  ( 0.000000000000000000, 5.000000000000000000, 10.00000000000000000 ) ) ;
#884 = DIRECTION ( 'NONE',  ( 1.000000000000000000, 0.000000000000000000, 0.000000000000000000 ) ) ;
#885 = ORIENTED_EDGE ( 'NONE', *, *, #783, .F. ) ;
#886 = DIRECTION ( 'NONE',  ( 1.000000000000000000, 0.000000000000000000, 0.000000000000000000 ) ) ;
#887 = AXIS2_PLACEMENT_3D ( 'NONE', #869, #927, #347 ) ;
#888 = VECTOR ( 'NONE', #322, 1000.000000000000000 ) ;
#889 = EDGE_CURVE ( 'NONE', #325, #613, #989, .T. ) ;
#890 = CARTESIAN_POINT ( 'NONE',  ( 79.48557158514982746, 18.74999999999991473, 0.000000000000000000 ) ) ;
#891 = VERTEX_POINT ( 'NONE', #457 ) ;
#892 = LINE ( 'NONE', #883, #594 ) ;
#893 = APPLICATION_CONTEXT ( 'automotive_design' ) ;
#894 = ORIENTED_EDGE ( 'NONE', *, *, #114, .T. ) ;
#895 = ORIENTED_EDGE ( 'NONE', *, *, #245, .F. ) ;
#896 = ADVANCED_FACE ( 'NONE', ( #370 ), #703, .F. ) ;
#897 = EDGE_CURVE ( 'NONE', #226, #855, #77, .T. ) ;
#898 = DIRECTION ( 'NONE',  ( 1.000000000000000000, 0.000000000000000000, 0.000000000000000000 ) ) ;
#899 = DIRECTION ( 'NONE',  ( 0.000000000000000000, -0.000000000000000000, 1.000000000000000000 ) ) ;
#900 = PRODUCT_RELATED_PRODUCT_CATEGORY ( 'part', '', ( #764 ) ) ;
#901 = DIRECTION ( 'NONE',  ( 1.000000000000000000, 0.000000000000000000, 0.000000000000000000 ) ) ;
#902 = VERTEX_POINT ( 'NONE', #453 ) ;
#903 = ORIENTED_EDGE ( 'NONE', *, *, #389, .F. ) ;
#904 = DIRECTION ( 'NONE',  ( 1.000000000000000000, 0.000000000000000000, 0.000000000000000000 ) ) ;
#905 = CARTESIAN_POINT ( 'NONE',  ( 75.48557158514981325, 18.74999999999991473, 4.000000000000000000 ) ) ;
#906 = VECTOR ( 'NONE', #608, 1000.000000000000000 ) ;
#907 = CIRCLE ( 'NONE', #735, 2.249999999999988010 ) ;
#908 = VECTOR ( 'NONE', #253, 1000.000000000000000 ) ;
#909 = CIRCLE ( 'NONE', #462, 3.250000000000002665 ) ;
#910 = ORIENTED_EDGE ( 'NONE', *, *, #626, .F. ) ;
#911 = ORIENTED_EDGE ( 'NONE', *, *, #46, .T. ) ;
#912 = DIRECTION ( 'NONE',  ( -0.000000000000000000, -0.000000000000000000, -1.000000000000000000 ) ) ;
#913 = DIRECTION ( 'NONE',  ( 0.000000000000000000, 0.000000000000000000, 1.000000000000000000 ) ) ;
#914 = VERTEX_POINT ( 'NONE', #805 ) ;
#915 = VERTEX_POINT ( 'NONE', #964 ) ;
#916 = FACE_OUTER_BOUND ( 'NONE', #82, .T. ) ;
#917 = CARTESIAN_POINT ( 'NONE',  ( 5.000000000000000000, 60.00000000000000000, 10.00000000000000000 ) ) ;
#918 = ORIENTED_EDGE ( 'NONE', *, *, #279, .T. ) ;
#919 = VERTEX_POINT ( 'NONE', #212 ) ;
#920 = DIRECTION ( 'NONE',  ( 0.000000000000000000, 0.000000000000000000, 1.000000000000000000 ) ) ;
#921 = AXIS2_PLACEMENT_3D ( 'NONE', #84, #920, #826 ) ;
#922 = EDGE_CURVE ( 'NONE', #29, #208, #536, .T. ) ;
#923 = CARTESIAN_POINT ( 'NONE',  ( 106.7500000000000000, 40.00000000000000000, 10.00000000000000000 ) ) ;
#924 = CIRCLE ( 'NONE', #875, 3.250000000000002665 ) ;
#925 = ORIENTED_EDGE ( 'NONE', *, *, #309, .T. ) ;
#926 = PRESENTATION_LAYER_ASSIGNMENT (  '', '', ( #136 ) ) ;
#927 = DIRECTION ( 'NONE',  ( 0.000000000000000000, 0.000000000000000000, 1.000000000000000000 ) ) ;
#928 = FACE_BOUND ( 'NONE', #154, .T. ) ;
#929 = ORIENTED_EDGE ( 'NONE', *, *, #411, .F. ) ;
#930 = ORIENTED_EDGE ( 'NONE', *, *, #474, .T. ) ;
#931 = CARTESIAN_POINT ( 'NONE',  ( 0.000000000000000000, 55.00000000000000000, 10.00000000000000000 ) ) ;
#932 = CARTESIAN_POINT ( 'NONE',  ( 40.51442841485017254, 18.74999999999990763, 4.000000000000000000 ) ) ;
#933 = ADVANCED_FACE ( 'NONE', ( #641 ), #809, .F. ) ;
#934 = CARTESIAN_POINT ( 'NONE',  ( 60.00000000000000000, 52.50000000000000711, 0.000000000000000000 ) ) ;
#935 = FACE_BOUND ( 'NONE', #607, .T. ) ;
#936 = ORIENTED_EDGE ( 'NONE', *, *, #1009, .T. ) ;
#937 = EDGE_CURVE ( 'NONE', #854, #325, #152, .T. ) ;
#938 = ORIENTED_EDGE ( 'NONE', *, *, #726, .F. ) ;
#939 = SURFACE_STYLE_USAGE ( .BOTH. , #488 ) ;
#940 = DIRECTION ( 'NONE',  ( 0.000000000000000000, 0.000000000000000000, 1.000000000000000000 ) ) ;
#941 = DIRECTION ( 'NONE',  ( 0.000000000000000000, 0.000000000000000000, 1.000000000000000000 ) ) ;
#942 = EDGE_LOOP ( 'NONE', ( #297, #238, #744, #165 ) ) ;
#943 = AXIS2_PLACEMENT_3D ( 'NONE', #990, #913, #161 ) ;
#944 = CIRCLE ( 'NONE', #1077, 4.000000000000003553 ) ;
#945 = FACE_OUTER_BOUND ( 'NONE', #658, .T. ) ;
#946 = FACE_OUTER_BOUND ( 'NONE', #737, .T. ) ;
#947 = DIRECTION ( 'NONE',  ( 1.000000000000000000, 0.000000000000000000, 0.000000000000000000 ) ) ;
#948 = CARTESIAN_POINT ( 'NONE',  ( 114.9999999999999858, 55.00000000000000000, 10.00000000000000000 ) ) ;
#949 = DIRECTION ( 'NONE',  ( 0.000000000000000000, 0.000000000000000000, 1.000000000000000000 ) ) ;
#950 = FACE_OUTER_BOUND ( 'NONE', #554, .T. ) ;
#951 = EDGE_CURVE ( 'NONE', #981, #613, #597, .T. ) ;
#952 = CARTESIAN_POINT ( 'NONE',  ( 62.25000000000000000, 52.50000000000000711, 0.000000000000000000 ) ) ;
#953 = CARTESIAN_POINT ( 'NONE',  ( 0.000000000000000000, 0.000000000000000000, 10.00000000000000000 ) ) ;
#954 = CARTESIAN_POINT ( 'NONE',  ( 106.7500000000000000, 40.00000000000000000, 0.000000000000000000 ) ) ;
#955 = ORIENTED_EDGE ( 'NONE', *, *, #1013, .T. ) ;
#956 = ORIENTED_EDGE ( 'NONE', *, *, #833, .T. ) ;
#957 = DIRECTION ( 'NONE',  ( 0.000000000000000000, 0.000000000000000000, 1.000000000000000000 ) ) ;
#958 = CARTESIAN_POINT ( 'NONE',  ( 77.23557158514982746, 18.74999999999991473, 0.000000000000000000 ) ) ;
#959 = AXIS2_PLACEMENT_3D ( 'NONE', #220, #623, #216 ) ;
#960 = ORIENTED_EDGE ( 'NONE', *, *, #818, .T. ) ;
#961 = VECTOR ( 'NONE', #74, 1000.000000000000000 ) ;
#962 = CIRCLE ( 'NONE', #1063, 3.249999999999999556 ) ;
#963 = FACE_OUTER_BOUND ( 'NONE', #399, .T. ) ;
#964 = CARTESIAN_POINT ( 'NONE',  ( 106.7500000000000000, 40.00000000000000000, 0.000000000000000000 ) ) ;
#965 = CARTESIAN_POINT ( 'NONE',  ( 81.73557158514981325, 18.74999999999991473, 4.000000000000000000 ) ) ;
#966 = ORIENTED_EDGE ( 'NONE', *, *, #730, .F. ) ;
#967 = DIRECTION ( 'NONE',  ( 0.000000000000000000, 0.000000000000000000, -1.000000000000000000 ) ) ;
#968 = MANIFOLD_SOLID_BREP ( '̨گ�1', #63 ) ;
#969 = EDGE_CURVE ( 'NONE', #1046, #731, #360, .T. ) ;
#970 = CARTESIAN_POINT ( 'NONE',  ( 10.00000000000000355, 19.99999999999999645, 10.00000000000000000 ) ) ;
#971 = DIRECTION ( 'NONE',  ( -0.000000000000000000, -0.000000000000000000, -1.000000000000000000 ) ) ;
#972 = AXIS2_PLACEMENT_3D ( 'NONE', #827, #736, #1079 ) ;
#973 = VECTOR ( 'NONE', #589, 1000.000000000000000 ) ;
#974 = EDGE_CURVE ( 'NONE', #808, #331, #183, .T. ) ;
#975 = CARTESIAN_POINT ( 'NONE',  ( 60.00000000000000000, 52.50000000000000711, 4.000000000000000000 ) ) ;
#976 = ORIENTED_EDGE ( 'NONE', *, *, #460, .F. ) ;
#977 = DIRECTION ( 'NONE',  ( 1.000000000000000000, 0.000000000000000000, 0.000000000000000000 ) ) ;
#978 = CARTESIAN_POINT ( 'NONE',  ( 113.2500000000000000, 40.00000000000000000, 10.00000000000000000 ) ) ;
#979 = EDGE_CURVE ( 'NONE', #758, #403, #19, .T. ) ;
#980 = EDGE_CURVE ( 'NONE', #223, #51, #192, .T. ) ;
#981 = VERTEX_POINT ( 'NONE', #100 ) ;
#982 = VERTEX_POINT ( 'NONE', #514 ) ;
#983 = DIRECTION ( 'NONE',  ( -1.000000000000000000, 0.000000000000000000, 0.000000000000000000 ) ) ;
#984 = CARTESIAN_POINT ( 'NONE',  ( 0.000000000000000000, 60.00000000000000000, 10.00000000000000000 ) ) ;
#985 = ORIENTED_EDGE ( 'NONE', *, *, #210, .F. ) ;
#986 = ORIENTED_EDGE ( 'NONE', *, *, #279, .F. ) ;
#987 = PRODUCT_DEFINITION_CONTEXT ( 'detailed design', #366, 'design' ) ;
#988 = VECTOR ( 'NONE', #522, 1000.000000000000000 ) ;
#989 = LINE ( 'NONE', #637, #431 ) ;
#990 = CARTESIAN_POINT ( 'NONE',  ( 110.0000000000000000, 40.00000000000000000, 0.000000000000000000 ) ) ;
#991 = AXIS2_PLACEMENT_3D ( 'NONE', #975, #134, #901 ) ;
#992 = CIRCLE ( 'NONE', #839, 2.249999999999988010 ) ;
#993 = ORIENTED_EDGE ( 'NONE', *, *, #422, .F. ) ;
#994 = ORIENTED_EDGE ( 'NONE', *, *, #697, .T. ) ;
#995 = DIRECTION ( 'NONE',  ( -0.000000000000000000, -0.000000000000000000, 1.000000000000000000 ) ) ;
#996 = CARTESIAN_POINT ( 'NONE',  ( 5.000000000000000000, 55.00000000000000000, 0.000000000000000000 ) ) ;
#997 = CYLINDRICAL_SURFACE ( 'NONE', #478, 2.249999999999995115 ) ;
#998 = ORIENTED_EDGE ( 'NONE', *, *, #164, .F. ) ;
#999 = ORIENTED_EDGE ( 'NONE', *, *, #786, .T. ) ;
#1000 = CYLINDRICAL_SURFACE ( 'NONE', #632, 3.250000000000002665 ) ;
#1001 = DIRECTION ( 'NONE',  ( 0.000000000000000000, 0.000000000000000000, -1.000000000000000000 ) ) ;
#1002 = EDGE_CURVE ( 'NONE', #440, #849, #709, .T. ) ;
#1003 = ORIENTED_EDGE ( 'NONE', *, *, #378, .T. ) ;
#1004 = ORIENTED_EDGE ( 'NONE', *, *, #228, .F. ) ;
#1005 = DIRECTION ( 'NONE',  ( -1.000000000000000000, 0.000000000000000000, 0.000000000000000000 ) ) ;
#1006 = CARTESIAN_POINT ( 'NONE',  ( 40.51442841485017254, 18.74999999999990763, 4.000000000000000000 ) ) ;
#1007 = DIRECTION ( 'NONE',  ( 1.000000000000000000, 0.000000000000000000, 0.000000000000000000 ) ) ;
#1008 = VERTEX_POINT ( 'NONE', #160 ) ;
#1009 = EDGE_CURVE ( 'NONE', #380, #1048, #859, .T. ) ;
#1010 = AXIS2_PLACEMENT_3D ( 'NONE', #1006, #78, #392 ) ;
#1011 = ORIENTED_EDGE ( 'NONE', *, *, #316, .T. ) ;
#1012 = VECTOR ( 'NONE', #881, 1000.000000000000000 ) ;
#1013 = EDGE_CURVE ( 'NONE', #51, #223, #119, .T. ) ;
#1014 = FILL_AREA_STYLE ('',( #177 ) ) ;
#1015 = FACE_OUTER_BOUND ( 'NONE', #679, .T. ) ;
#1016 = EDGE_CURVE ( 'NONE', #848, #1008, #720, .T. ) ;
#1017 = CARTESIAN_POINT ( 'NONE',  ( 110.0000000000000000, 40.00000000000000000, 0.000000000000000000 ) ) ;
#1018 = DIRECTION ( 'NONE',  ( 1.000000000000000000, 0.000000000000000000, -0.000000000000000000 ) ) ;
#1019 = ORIENTED_EDGE ( 'NONE', *, *, #611, .T. ) ;
#1020 = EDGE_LOOP ( 'NONE', ( #231, #732, #570, #45 ) ) ;
#1021 = CARTESIAN_POINT ( 'NONE',  ( 10.00000000000000355, 40.00000000000000000, 0.000000000000000000 ) ) ;
#1022 = LINE ( 'NONE', #682, #251 ) ;
#1023 = CARTESIAN_POINT ( 'NONE',  ( 79.48557158514982746, 18.74999999999991473, 10.00000000000000000 ) ) ;
#1024 = VERTEX_POINT ( 'NONE', #931 ) ;
#1025 = CARTESIAN_POINT ( 'NONE',  ( 40.51442841485017254, 18.74999999999990763, 4.000000000000000000 ) ) ;
#1026 = CYLINDRICAL_SURFACE ( 'NONE', #1049, 4.000000000000003553 ) ;
#1027 = DIRECTION ( 'NONE',  ( -1.000000000000000000, 0.000000000000000000, 0.000000000000000000 ) ) ;
#1028 = DIRECTION ( 'NONE',  ( -0.000000000000000000, -0.000000000000000000, 1.000000000000000000 ) ) ;
#1029 = VECTOR ( 'NONE', #248, 1000.000000000000000 ) ;
#1030 = EDGE_CURVE ( 'NONE', #410, #836, #427, .T. ) ;
#1031 = MECHANICAL_DESIGN_GEOMETRIC_PRESENTATION_REPRESENTATION (  '', ( #136 ), #577 ) ;
#1032 = LINE ( 'NONE', #338, #105 ) ;
#1033 = LINE ( 'NONE', #448, #1029 ) ;
#1034 = DIRECTION ( 'NONE',  ( 1.000000000000000000, 0.000000000000000000, 0.000000000000000000 ) ) ;
#1035 = CARTESIAN_POINT ( 'NONE',  ( 110.0000000000000000, 40.00000000000000000, 0.000000000000000000 ) ) ;
#1036 = DIRECTION ( 'NONE',  ( 1.000000000000000000, 0.000000000000000000, 0.000000000000000000 ) ) ;
#1037 = ORIENTED_EDGE ( 'NONE', *, *, #811, .T. ) ;
#1038 = FACE_BOUND ( 'NONE', #344, .T. ) ;
#1039 = DIRECTION ( 'NONE',  ( 0.000000000000000000, 0.000000000000000000, -1.000000000000000000 ) ) ;
#1040 =( LENGTH_UNIT ( ) NAMED_UNIT ( * ) SI_UNIT ( .MILLI., .METRE. ) );
#1041 = ORIENTED_EDGE ( 'NONE', *, *, #922, .F. ) ;
#1042 = ORIENTED_EDGE ( 'NONE', *, *, #245, .T. ) ;
#1043 = PLANE ( 'NONE',  #667 ) ;
#1044 = LINE ( 'NONE', #305, #170 ) ;
#1045 = ADVANCED_FACE ( 'NONE', ( #916 ), #95, .F. ) ;
#1046 = VERTEX_POINT ( 'NONE', #327 ) ;
#1047 = ADVANCED_FACE ( 'NONE', ( #654 ), #1000, .F. ) ;
#1048 = VERTEX_POINT ( 'NONE', #496 ) ;
#1049 = AXIS2_PLACEMENT_3D ( 'NONE', #932, #779, #503 ) ;
#1050 = DIRECTION ( 'NONE',  ( 1.000000000000000000, 0.000000000000000000, 0.000000000000000000 ) ) ;
#1051 = AXIS2_PLACEMENT_3D ( 'NONE', #3, #661, #1005 ) ;
#1052 = DIRECTION ( 'NONE',  ( -0.000000000000000000, -0.000000000000000000, 1.000000000000000000 ) ) ;
#1053 = CYLINDRICAL_SURFACE ( 'NONE', #707, 3.249999999999999556 ) ;
#1054 = CARTESIAN_POINT ( 'NONE',  ( 40.51442841485017254, 18.74999999999990763, 10.00000000000000000 ) ) ;
#1055 = EDGE_CURVE ( 'NONE', #208, #828, #121, .T. ) ;
#1056 = DIRECTION ( 'NONE',  ( 1.000000000000000000, 0.000000000000000000, 0.000000000000000000 ) ) ;
#1057 = ORIENTED_EDGE ( 'NONE', *, *, #221, .F. ) ;
#1058 = ADVANCED_FACE ( 'NONE', ( #945 ), #524, .T. ) ;
#1059 = CIRCLE ( 'NONE', #812, 4.000000000000003553 ) ;
#1060 = CARTESIAN_POINT ( 'NONE',  ( 36.51442841485017254, 18.74999999999990763, 4.000000000000000000 ) ) ;
#1061 = CYLINDRICAL_SURFACE ( 'NONE', #615, 2.249999999999988010 ) ;
#1062 = VECTOR ( 'NONE', #285, 1000.000000000000000 ) ;
#1063 = AXIS2_PLACEMENT_3D ( 'NONE', #559, #790, #904 ) ;
#1064 = CARTESIAN_POINT ( 'NONE',  ( 0.000000000000000000, 55.00000000000000000, 0.000000000000000000 ) ) ;
#1065 = ORIENTED_EDGE ( 'NONE', *, *, #545, .F. ) ;
#1066 = ORIENTED_EDGE ( 'NONE', *, *, #6, .T. ) ;
#1067 = DIRECTION ( 'NONE',  ( 1.000000000000000000, 0.000000000000000000, 0.000000000000000000 ) ) ;
#1068 = CARTESIAN_POINT ( 'NONE',  ( 6.750000000000004441, 19.99999999999999645, 0.000000000000000000 ) ) ;
#1069 = VERTEX_POINT ( 'NONE', #965 ) ;
#1070 = EDGE_LOOP ( 'NONE', ( #879, #721 ) ) ;
#1071 = DIRECTION ( 'NONE',  ( 0.000000000000000000, 0.000000000000000000, 1.000000000000000000 ) ) ;
#1072 = LINE ( 'NONE', #1068, #908 ) ;
#1073 = ORIENTED_EDGE ( 'NONE', *, *, #833, .F. ) ;
#1074 = ORIENTED_EDGE ( 'NONE', *, *, #201, .F. ) ;
#1075 = DIRECTION ( 'NONE',  ( -0.000000000000000000, -0.000000000000000000, 1.000000000000000000 ) ) ;
#1076 = LINE ( 'NONE', #66, #33 ) ;
#1077 = AXIS2_PLACEMENT_3D ( 'NONE', #600, #352, #196 ) ;
#1078 = VECTOR ( 'NONE', #22, 1000.000000000000000 ) ;
#1079 = DIRECTION ( 'NONE',  ( 1.000000000000000000, 0.000000000000000000, 0.000000000000000000 ) ) ;
#1080 = AXIS2_PLACEMENT_3D ( 'NONE', #405, #741, #1084 ) ;
#1081 = EDGE_LOOP ( 'NONE', ( #354, #424, #17, #807 ) ) ;
#1082 = ORIENTED_EDGE ( 'NONE', *, *, #164, .T. ) ;
#1083 = ADVANCED_FACE ( 'NONE', ( #612 ), #778, .F. ) ;
#1084 = DIRECTION ( 'NONE',  ( 1.000000000000000000, 0.000000000000000000, 0.000000000000000000 ) ) ;
#1085 = DIRECTION ( 'NONE',  ( -1.000000000000000000, 0.000000000000000000, 0.000000000000000000 ) ) ;
ENDSEC;
END-ISO-10303-21;
