ISO-10303-21;
HEADER;
FILE_DESCRIPTION (( 'STEP AP214' ),
    '1' );
FILE_NAME ('sensor_pipe_holder_down.STEP',
    '2026-08-26T04:39:22',
    ( '' ),
    ( '' ),
    'SwSTEP 2.0',
    'SolidWorks 2024',
    '' );
FILE_SCHEMA (( 'AUTOMOTIVE_DESIGN' ));
ENDSEC;

DATA;
#1 = ORIENTED_EDGE ( 'NONE', *, *, #1264, .T. ) ;
#2 = DIRECTION ( 'NONE',  ( 1.000000000000000000, -0.000000000000000000, 1.156482317317873105E-15 ) ) ;
#3 = CARTESIAN_POINT ( 'NONE',  ( 22.49999999999999645, 10.00000000000000000, 5.000000000000026645 ) ) ;
#4 = EDGE_CURVE ( 'NONE', #165, #947, #259, .T. ) ;
#5 = ORIENTED_EDGE ( 'NONE', *, *, #1364, .F. ) ;
#6 = CARTESIAN_POINT ( 'NONE',  ( -29.99999999999998934, -29.99999999999999645, 5.000000000000000000 ) ) ;
#7 = ORIENTED_EDGE ( 'NONE', *, *, #1013, .T. ) ;
#8 = CARTESIAN_POINT ( 'NONE',  ( 22.50000000000000000, 0.000000000000000000, 25.00000000000001421 ) ) ;
#9 = DIRECTION ( 'NONE',  ( -0.000000000000000000, -0.000000000000000000, -1.000000000000000000 ) ) ;
#10 = CIRCLE ( 'NONE', #166, 19.10000000000000142 ) ;
#11 = VECTOR ( 'NONE', #358, 1000.000000000000000 ) ;
#12 = EDGE_LOOP ( 'NONE', ( #278, #460, #806, #1199 ) ) ;
#13 = LINE ( 'NONE', #954, #1121 ) ;
#14 = ORIENTED_EDGE ( 'NONE', *, *, #537, .T. ) ;
#15 = DIRECTION ( 'NONE',  ( 1.000000000000000000, -0.000000000000000000, -0.000000000000000000 ) ) ;
#16 = DIRECTION ( 'NONE',  ( -0.000000000000000000, 1.000000000000000000, -0.000000000000000000 ) ) ;
#17 = VECTOR ( 'NONE', #606, 1000.000000000000000 ) ;
#18 = ORIENTED_EDGE ( 'NONE', *, *, #492, .F. ) ;
#19 = DIRECTION ( 'NONE',  ( 0.000000000000000000, -1.000000000000000000, 0.000000000000000000 ) ) ;
#20 = AXIS2_PLACEMENT_3D ( 'NONE', #957, #9, #433 ) ;
#21 = ORIENTED_EDGE ( 'NONE', *, *, #332, .F. ) ;
#22 = ADVANCED_FACE ( 'NONE', ( #25 ), #357, .F. ) ;
#23 = CARTESIAN_POINT ( 'NONE',  ( -26.49999999999998224, 5.000000000000000000, -0.001000000000001000089 ) ) ;
#24 = DIRECTION ( 'NONE',  ( 0.000000000000000000, -0.000000000000000000, -1.000000000000000000 ) ) ;
#25 = FACE_OUTER_BOUND ( 'NONE', #1224, .T. ) ;
#26 = FACE_OUTER_BOUND ( 'NONE', #112, .T. ) ;
#27 = VERTEX_POINT ( 'NONE', #895 ) ;
#28 = CYLINDRICAL_SURFACE ( 'NONE', #186, 2.250000000001230127 ) ;
#29 = ORIENTED_EDGE ( 'NONE', *, *, #990, .T. ) ;
#30 = EDGE_CURVE ( 'NONE', #138, #335, #365, .T. ) ;
#31 = CARTESIAN_POINT ( 'NONE',  ( 19.10000000000001208, -29.99999999999999289, 28.00000000000000000 ) ) ;
#32 = VERTEX_POINT ( 'NONE', #793 ) ;
#33 = FACE_BOUND ( 'NONE', #140, .T. ) ;
#34 = VECTOR ( 'NONE', #472, 1000.000000000000000 ) ;
#35 = ORIENTED_EDGE ( 'NONE', *, *, #844, .T. ) ;
#36 = CARTESIAN_POINT ( 'NONE',  ( -26.49999999999998224, 5.000000000000000000, 25.00000000000000711 ) ) ;
#37 = ORIENTED_EDGE ( 'NONE', *, *, #943, .T. ) ;
#38 = LINE ( 'NONE', #894, #484 ) ;
#39 = EDGE_CURVE ( 'NONE', #1257, #1296, #466, .T. ) ;
#40 = ORIENTED_EDGE ( 'NONE', *, *, #369, .F. ) ;
#41 = ORIENTED_EDGE ( 'NONE', *, *, #83, .T. ) ;
#42 = AXIS2_PLACEMENT_3D ( 'NONE', #65, #1128, #613 ) ;
#43 = CARTESIAN_POINT ( 'NONE',  ( 22.50000000000000000, 10.00000000000000000, 25.00000000000001421 ) ) ;
#44 = AXIS2_PLACEMENT_3D ( 'NONE', #53, #245, #266 ) ;
#45 = ORIENTED_EDGE ( 'NONE', *, *, #952, .T. ) ;
#46 = LINE ( 'NONE', #257, #887 ) ;
#47 = CARTESIAN_POINT ( 'NONE',  ( -29.99999999999998934, -29.99999999999999645, 0.000000000000000000 ) ) ;
#48 = PLANE ( 'NONE',  #432 ) ;
#49 = EDGE_CURVE ( 'NONE', #1195, #1157, #239, .T. ) ;
#50 = ORIENTED_EDGE ( 'NONE', *, *, #474, .F. ) ;
#51 = VERTEX_POINT ( 'NONE', #552 ) ;
#52 = FACE_OUTER_BOUND ( 'NONE', #557, .T. ) ;
#53 = CARTESIAN_POINT ( 'NONE',  ( 19.48557158515130183, -11.24999999999917044, 0.000000000000000000 ) ) ;
#54 = PLANE ( 'NONE',  #121 ) ;
#55 = ORIENTED_EDGE ( 'NONE', *, *, #30, .F. ) ;
#56 = VECTOR ( 'NONE', #15, 1000.000000000000000 ) ;
#57 = EDGE_CURVE ( 'NONE', #1296, #1257, #415, .T. ) ;
#58 = FACE_OUTER_BOUND ( 'NONE', #637, .T. ) ;
#59 = CARTESIAN_POINT ( 'NONE',  ( -30.49999999999997868, 0.000000000000000000, 31.00000000000000000 ) ) ;
#60 = DIRECTION ( 'NONE',  ( -0.000000000000000000, -0.000000000000000000, -1.000000000000000000 ) ) ;
#61 = ORIENTED_EDGE ( 'NONE', *, *, #890, .F. ) ;
#62 = VECTOR ( 'NONE', #805, 1000.000000000000000 ) ;
#63 = CIRCLE ( 'NONE', #440, 1.649999999999998579 ) ;
#64 = EDGE_CURVE ( 'NONE', #1219, #635, #948, .T. ) ;
#65 = CARTESIAN_POINT ( 'NONE',  ( 26.50000000000000000, 5.000000000000000000, 28.00000000000000000 ) ) ;
#66 = VECTOR ( 'NONE', #471, 1000.000000000000000 ) ;
#67 = DIRECTION ( 'NONE',  ( -0.000000000000000000, 1.000000000000000000, -0.000000000000000000 ) ) ;
#68 = DIRECTION ( 'NONE',  ( 0.000000000000000000, 1.000000000000000000, -0.000000000000000000 ) ) ;
#69 = ORIENTED_EDGE ( 'NONE', *, *, #1007, .F. ) ;
#70 = FACE_OUTER_BOUND ( 'NONE', #785, .T. ) ;
#71 = CARTESIAN_POINT ( 'NONE',  ( -19.48557158514844545, -11.25000000000082245, 0.000000000000000000 ) ) ;
#72 = EDGE_CURVE ( 'NONE', #424, #165, #918, .T. ) ;
#73 = DIRECTION ( 'NONE',  ( -1.000000000000000000, -0.000000000000000000, -0.000000000000000000 ) ) ;
#74 = DIRECTION ( 'NONE',  ( 0.000000000000000000, 0.000000000000000000, 1.000000000000000000 ) ) ;
#75 = EDGE_CURVE ( 'NONE', #677, #443, #1360, .T. ) ;
#76 = EDGE_LOOP ( 'NONE', ( #516, #658 ) ) ;
#77 = CARTESIAN_POINT ( 'NONE',  ( -22.49999999999999645, -19.99999999999999645, 4.999999999999999112 ) ) ;
#78 = AXIS2_PLACEMENT_3D ( 'NONE', #301, #603, #714 ) ;
#79 = AXIS2_PLACEMENT_3D ( 'NONE', #336, #1079, #749 ) ;
#80 = CARTESIAN_POINT ( 'NONE',  ( 30.49999999999999289, 0.000000000000000000, 25.00000000000001421 ) ) ;
#81 = CARTESIAN_POINT ( 'NONE',  ( 22.49999999999999645, -19.99999999999999645, 5.000000000000026645 ) ) ;
#82 = CYLINDRICAL_SURFACE ( 'NONE', #1284, 1.649999999999998579 ) ;
#83 = EDGE_CURVE ( 'NONE', #411, #885, #1228, .T. ) ;
#84 = ORIENTED_EDGE ( 'NONE', *, *, #455, .F. ) ;
#85 = FACE_BOUND ( 'NONE', #1302, .T. ) ;
#86 = VECTOR ( 'NONE', #1150, 1000.000000000000000 ) ;
#87 = LINE ( 'NONE', #499, #1196 ) ;
#88 = AXIS2_PLACEMENT_3D ( 'NONE', #761, #981, #24 ) ;
#89 = CARTESIAN_POINT ( 'NONE',  ( -29.99999999999998934, 29.99999999999999645, 0.000000000000000000 ) ) ;
#90 = FACE_OUTER_BOUND ( 'NONE', #1138, .T. ) ;
#91 = ORIENTED_EDGE ( 'NONE', *, *, #519, .T. ) ;
#92 = FACE_OUTER_BOUND ( 'NONE', #373, .T. ) ;
#93 = EDGE_CURVE ( 'NONE', #1073, #32, #1244, .T. ) ;
#94 = FACE_OUTER_BOUND ( 'NONE', #355, .T. ) ;
#95 = LINE ( 'NONE', #843, #819 ) ;
#96 = LINE ( 'NONE', #622, #1373 ) ;
#97 = ORIENTED_EDGE ( 'NONE', *, *, #650, .F. ) ;
#98 = DIRECTION ( 'NONE',  ( 0.000000000000000000, 0.000000000000000000, 1.000000000000000000 ) ) ;
#99 = LINE ( 'NONE', #949, #587 ) ;
#100 = AXIS2_PLACEMENT_3D ( 'NONE', #1205, #459, #438 ) ;
#101 = DIRECTION ( 'NONE',  ( 1.000000000000000000, 0.000000000000000000, 0.000000000000000000 ) ) ;
#102 = VERTEX_POINT ( 'NONE', #906 ) ;
#103 = DIRECTION ( 'NONE',  ( 1.000000000000000000, 0.000000000000000000, 0.000000000000000000 ) ) ;
#104 = ORIENTED_EDGE ( 'NONE', *, *, #57, .F. ) ;
#105 = DIRECTION ( 'NONE',  ( 0.000000000000000000, -0.000000000000000000, 1.000000000000000000 ) ) ;
#106 = ORIENTED_EDGE ( 'NONE', *, *, #904, .T. ) ;
#107 = EDGE_CURVE ( 'NONE', #1157, #1195, #820, .T. ) ;
#108 = LINE ( 'NONE', #439, #1222 ) ;
#109 = AXIS2_PLACEMENT_3D ( 'NONE', #1346, #1140, #586 ) ;
#110 = ORIENTED_EDGE ( 'NONE', *, *, #1082, .T. ) ;
#111 = CARTESIAN_POINT ( 'NONE',  ( -28.14999999999998792, -24.99999999999999289, -0.001000000000001000089 ) ) ;
#112 = EDGE_LOOP ( 'NONE', ( #888, #434, #451, #1362 ) ) ;
#113 = LINE ( 'NONE', #8, #791 ) ;
#114 = CARTESIAN_POINT ( 'NONE',  ( -22.49999999999997868, 10.00000000000000000, 25.00000000000000711 ) ) ;
#115 = ORIENTED_EDGE ( 'NONE', *, *, #1169, .T. ) ;
#116 = CARTESIAN_POINT ( 'NONE',  ( 30.49999999999999289, 10.00000000000000000, 25.00000000000001421 ) ) ;
#117 = ORIENTED_EDGE ( 'NONE', *, *, #880, .T. ) ;
#118 = CARTESIAN_POINT ( 'NONE',  ( -30.49999999999997513, 10.00000000000000000, 28.00000000000000000 ) ) ;
#119 = FACE_OUTER_BOUND ( 'NONE', #262, .T. ) ;
#120 = AXIS2_PLACEMENT_3D ( 'NONE', #23, #274, #868 ) ;
#121 = AXIS2_PLACEMENT_3D ( 'NONE', #882, #164, #260 ) ;
#122 = ORIENTED_EDGE ( 'NONE', *, *, #445, .T. ) ;
#123 = CARTESIAN_POINT ( 'NONE',  ( 30.00000000000000355, -29.99999999999999645, 0.000000000000000000 ) ) ;
#124 = ADVANCED_FACE ( 'NONE', ( #588 ), #176, .F. ) ;
#125 = ORIENTED_EDGE ( 'NONE', *, *, #1024, .T. ) ;
#126 = CYLINDRICAL_SURFACE ( 'NONE', #807, 2.250000000001802558 ) ;
#127 = DIRECTION ( 'NONE',  ( -1.000000000000000000, 0.000000000000000000, 1.734723475976808327E-16 ) ) ;
#128 = DIRECTION ( 'NONE',  ( 1.000000000000000000, 0.000000000000000000, 0.000000000000000000 ) ) ;
#129 = VECTOR ( 'NONE', #816, 1000.000000000000000 ) ;
#130 = ORIENTED_EDGE ( 'NONE', *, *, #214, .T. ) ;
#131 = FACE_OUTER_BOUND ( 'NONE', #154, .T. ) ;
#132 = CIRCLE ( 'NONE', #619, 2.250000000001230127 ) ;
#133 = ORIENTED_EDGE ( 'NONE', *, *, #607, .T. ) ;
#134 = EDGE_CURVE ( 'NONE', #102, #1226, #699, .T. ) ;
#135 = LINE ( 'NONE', #556, #960 ) ;
#136 = EDGE_LOOP ( 'NONE', ( #933, #962, #685, #220 ) ) ;
#137 = LINE ( 'NONE', #446, #506 ) ;
#138 = VERTEX_POINT ( 'NONE', #482 ) ;
#139 = SURFACE_SIDE_STYLE ('',( #1378 ) ) ;
#140 = EDGE_LOOP ( 'NONE', ( #748, #1304 ) ) ;
#141 = FACE_OUTER_BOUND ( 'NONE', #756, .T. ) ;
#142 = EDGE_LOOP ( 'NONE', ( #1315, #1012, #510, #867 ) ) ;
#143 = ADVANCED_FACE ( 'NONE', ( #182 ), #605, .F. ) ;
#144 = CARTESIAN_POINT ( 'NONE',  ( -22.49999999999997868, 0.000000000000000000, 25.00000000000000711 ) ) ;
#145 = VECTOR ( 'NONE', #723, 1000.000000000000000 ) ;
#146 = DIRECTION ( 'NONE',  ( 1.000000000000000000, 0.000000000000000000, 0.000000000000000000 ) ) ;
#147 = FACE_OUTER_BOUND ( 'NONE', #573, .T. ) ;
#148 = VECTOR ( 'NONE', #772, 1000.000000000000000 ) ;
#149 = ORIENTED_EDGE ( 'NONE', *, *, #1281, .F. ) ;
#150 = LINE ( 'NONE', #444, #477 ) ;
#151 = ORIENTED_EDGE ( 'NONE', *, *, #1204, .T. ) ;
#152 = CARTESIAN_POINT ( 'NONE',  ( 22.50000000000000000, 10.00000000000000000, 25.00000000000001421 ) ) ;
#153 = EDGE_CURVE ( 'NONE', #467, #595, #1248, .T. ) ;
#154 = EDGE_LOOP ( 'NONE', ( #40, #240, #860, #91 ) ) ;
#155 = ORIENTED_EDGE ( 'NONE', *, *, #716, .T. ) ;
#156 = VECTOR ( 'NONE', #1269, 1000.000000000000000 ) ;
#157 = CIRCLE ( 'NONE', #329, 2.249999999999999556 ) ;
#158 = ORIENTED_EDGE ( 'NONE', *, *, #134, .T. ) ;
#159 = DIRECTION ( 'NONE',  ( -0.000000000000000000, -0.000000000000000000, -1.000000000000000000 ) ) ;
#160 = ORIENTED_EDGE ( 'NONE', *, *, #361, .F. ) ;
#161 = ORIENTED_EDGE ( 'NONE', *, *, #564, .T. ) ;
#162 = LINE ( 'NONE', #375, #665 ) ;
#163 = FACE_OUTER_BOUND ( 'NONE', #12, .T. ) ;
#164 = DIRECTION ( 'NONE',  ( 0.000000000000000000, 0.000000000000000000, -1.000000000000000000 ) ) ;
#165 = VERTEX_POINT ( 'NONE', #809 ) ;
#166 = AXIS2_PLACEMENT_3D ( 'NONE', #751, #541, #835 ) ;
#167 = ADVANCED_FACE ( 'NONE', ( #1025 ), #829, .T. ) ;
#168 = LINE ( 'NONE', #599, #1043 ) ;
#169 = LINE ( 'NONE', #592, #597 ) ;
#170 = DIRECTION ( 'NONE',  ( 1.000000000000000000, 0.000000000000000000, 0.000000000000000000 ) ) ;
#171 = ORIENTED_EDGE ( 'NONE', *, *, #75, .F. ) ;
#172 = DIRECTION ( 'NONE',  ( 1.000000000000000000, 0.000000000000000000, 0.000000000000000000 ) ) ;
#173 = EDGE_CURVE ( 'NONE', #205, #314, #157, .T. ) ;
#174 = VECTOR ( 'NONE', #264, 1000.000000000000000 ) ;
#175 = DIRECTION ( 'NONE',  ( 1.000000000000000000, 0.000000000000000000, 0.000000000000000000 ) ) ;
#176 = PLANE ( 'NONE',  #1355 ) ;
#177 = DIRECTION ( 'NONE',  ( 0.000000000000000000, -1.000000000000000000, 0.000000000000000000 ) ) ;
#178 = ORIENTED_EDGE ( 'NONE', *, *, #970, .T. ) ;
#179 = CARTESIAN_POINT ( 'NONE',  ( 26.50000000000000000, 5.000000000000000000, 25.00000000000001421 ) ) ;
#180 = LINE ( 'NONE', #395, #465 ) ;
#181 = EDGE_CURVE ( 'NONE', #581, #914, #189, .T. ) ;
#182 = FACE_OUTER_BOUND ( 'NONE', #1377, .T. ) ;
#183 = DIRECTION ( 'NONE',  ( 1.000000000000000000, 0.000000000000000000, 0.000000000000000000 ) ) ;
#184 = ORIENTED_EDGE ( 'NONE', *, *, #762, .T. ) ;
#185 = CARTESIAN_POINT ( 'NONE',  ( -24.84999999999999076, -24.99999999999999289, 28.00000000000000000 ) ) ;
#186 = AXIS2_PLACEMENT_3D ( 'NONE', #1076, #562, #1189 ) ;
#187 = CYLINDRICAL_SURFACE ( 'NONE', #263, 2.249999999999999556 ) ;
#188 = ADVANCED_FACE ( 'NONE', ( #163, #1039 ), #508, .T. ) ;
#189 = LINE ( 'NONE', #59, #1110 ) ;
#190 = CARTESIAN_POINT ( 'NONE',  ( -28.14999999999998082, 5.000000000000000000, 28.00000000000000000 ) ) ;
#191 = ORIENTED_EDGE ( 'NONE', *, *, #837, .T. ) ;
#192 = CARTESIAN_POINT ( 'NONE',  ( 22.49999999999999645, -19.99999999999999645, 5.000000000000026645 ) ) ;
#193 = LINE ( 'NONE', #118, #853 ) ;
#194 = DIRECTION ( 'NONE',  ( 0.000000000000000000, 0.000000000000000000, 1.000000000000000000 ) ) ;
#195 = LINE ( 'NONE', #1368, #62 ) ;
#196 = EDGE_LOOP ( 'NONE', ( #720, #342 ) ) ;
#197 = DIRECTION ( 'NONE',  ( -0.000000000000000000, 0.000000000000000000, -1.000000000000000000 ) ) ;
#198 = EDGE_CURVE ( 'NONE', #311, #1092, #169, .T. ) ;
#199 = ADVANCED_BREP_SHAPE_REPRESENTATION ( 'sensor_pipe_holder_down', ( #1147, #1015 ), #302 ) ;
#200 = CARTESIAN_POINT ( 'NONE',  ( -26.49999999999998934, -24.99999999999999289, 28.00000000000000000 ) ) ;
#201 = DIRECTION ( 'NONE',  ( 0.000000000000000000, 0.000000000000000000, 1.000000000000000000 ) ) ;
#202 = CARTESIAN_POINT ( 'NONE',  ( 0.000000000000000000, 0.000000000000000000, 0.000000000000000000 ) ) ;
#203 = EDGE_LOOP ( 'NONE', ( #1181, #523, #226, #1172 ) ) ;
#204 = CARTESIAN_POINT ( 'NONE',  ( 30.49999999999999645, -19.99999999999999645, 28.00000000000000000 ) ) ;
#205 = VERTEX_POINT ( 'NONE', #912 ) ;
#206 = EDGE_CURVE ( 'NONE', #925, #677, #1340, .T. ) ;
#207 = DIRECTION ( 'NONE',  ( 1.000000000000000000, 0.000000000000000000, 0.000000000000000000 ) ) ;
#208 = ORIENTED_EDGE ( 'NONE', *, *, #1264, .F. ) ;
#209 = CIRCLE ( 'NONE', #542, 2.250000000001802558 ) ;
#210 = CARTESIAN_POINT ( 'NONE',  ( -22.49999999999999645, -29.99999999999999645, 4.999999999999999112 ) ) ;
#211 = ORIENTED_EDGE ( 'NONE', *, *, #416, .T. ) ;
#212 = CARTESIAN_POINT ( 'NONE',  ( 19.48557158515130183, -11.24999999999917044, 0.000000000000000000 ) ) ;
#213 = EDGE_LOOP ( 'NONE', ( #980, #1214, #45, #1321 ) ) ;
#214 = EDGE_CURVE ( 'NONE', #925, #458, #705, .T. ) ;
#215 = DIRECTION ( 'NONE',  ( 1.000000000000000000, 0.000000000000000000, -0.000000000000000000 ) ) ;
#216 = CARTESIAN_POINT ( 'NONE',  ( 22.50000000000000000, -19.99999999999999645, 25.00000000000001421 ) ) ;
#217 = CIRCLE ( 'NONE', #1267, 2.250000000001802558 ) ;
#218 = ORIENTED_EDGE ( 'NONE', *, *, #555, .F. ) ;
#219 = LINE ( 'NONE', #320, #986 ) ;
#220 = ORIENTED_EDGE ( 'NONE', *, *, #1169, .F. ) ;
#221 = FACE_OUTER_BOUND ( 'NONE', #845, .T. ) ;
#222 = CARTESIAN_POINT ( 'NONE',  ( -19.48557158514844545, -11.25000000000082245, 5.000000000000000000 ) ) ;
#223 = EDGE_CURVE ( 'NONE', #233, #102, #95, .T. ) ;
#224 = VERTEX_POINT ( 'NONE', #1283 ) ;
#225 = DIRECTION ( 'NONE',  ( -0.000000000000000000, -1.000000000000000000, -0.000000000000000000 ) ) ;
#226 = ORIENTED_EDGE ( 'NONE', *, *, #4, .F. ) ;
#227 = DIRECTION ( 'NONE',  ( 0.000000000000000000, 0.000000000000000000, 1.000000000000000000 ) ) ;
#228 = LINE ( 'NONE', #1314, #1109 ) ;
#229 = CIRCLE ( 'NONE', #100, 1.649999999999998579 ) ;
#230 = ADVANCED_FACE ( 'NONE', ( #857 ), #944, .F. ) ;
#231 = ORIENTED_EDGE ( 'NONE', *, *, #680, .F. ) ;
#232 = LINE ( 'NONE', #328, #608 ) ;
#233 = VERTEX_POINT ( 'NONE', #1071 ) ;
#234 = CARTESIAN_POINT ( 'NONE',  ( 30.50000000000000000, 0.000000000000000000, 31.00000000000000711 ) ) ;
#235 = ORIENTED_EDGE ( 'NONE', *, *, #844, .F. ) ;
#236 = DIRECTION ( 'NONE',  ( -0.000000000000000000, -1.000000000000000000, -0.000000000000000000 ) ) ;
#237 = AXIS2_PLACEMENT_3D ( 'NONE', #1256, #824, #718 ) ;
#238 = ORIENTED_EDGE ( 'NONE', *, *, #1066, .F. ) ;
#239 = CIRCLE ( 'NONE', #44, 2.250000000001230127 ) ;
#240 = ORIENTED_EDGE ( 'NONE', *, *, #107, .F. ) ;
#241 = EDGE_CURVE ( 'NONE', #138, #165, #108, .T. ) ;
#242 = CYLINDRICAL_SURFACE ( 'NONE', #120, 1.649999999999998579 ) ;
#243 = ORIENTED_EDGE ( 'NONE', *, *, #861, .T. ) ;
#244 = CARTESIAN_POINT ( 'NONE',  ( 30.49999999999999289, -29.99999999999999645, 25.00000000000001421 ) ) ;
#245 = DIRECTION ( 'NONE',  ( 0.000000000000000000, 0.000000000000000000, 1.000000000000000000 ) ) ;
#246 = DIRECTION ( 'NONE',  ( 0.000000000000000000, 0.000000000000000000, 1.000000000000000000 ) ) ;
#247 = ORIENTED_EDGE ( 'NONE', *, *, #107, .T. ) ;
#248 = EDGE_CURVE ( 'NONE', #1209, #771, #752, .T. ) ;
#249 = LINE ( 'NONE', #662, #1008 ) ;
#250 = ORIENTED_EDGE ( 'NONE', *, *, #1090, .F. ) ;
#251 = FACE_OUTER_BOUND ( 'NONE', #532, .T. ) ;
#252 = VECTOR ( 'NONE', #782, 1000.000000000000000 ) ;
#253 = ORIENTED_EDGE ( 'NONE', *, *, #952, .F. ) ;
#254 = PRESENTATION_STYLE_ASSIGNMENT (( #889 ) ) ;
#255 = ORIENTED_EDGE ( 'NONE', *, *, #280, .T. ) ;
#256 = EDGE_LOOP ( 'NONE', ( #21, #238, #429, #379 ) ) ;
#257 = CARTESIAN_POINT ( 'NONE',  ( -24.84999999999998366, 5.000000000000000000, -0.001000000000001000089 ) ) ;
#258 = EDGE_CURVE ( 'NONE', #224, #850, #305, .T. ) ;
#259 = LINE ( 'NONE', #47, #66 ) ;
#260 = DIRECTION ( 'NONE',  ( -1.000000000000000000, 0.000000000000000000, -0.000000000000000000 ) ) ;
#261 = VECTOR ( 'NONE', #398, 1000.000000000000000 ) ;
#262 = EDGE_LOOP ( 'NONE', ( #456, #683, #479, #869 ) ) ;
#263 = AXIS2_PLACEMENT_3D ( 'NONE', #1016, #694, #1234 ) ;
#264 = DIRECTION ( 'NONE',  ( -1.000000000000000000, 0.000000000000000000, 0.000000000000000000 ) ) ;
#265 = EDGE_CURVE ( 'NONE', #1055, #424, #333, .T. ) ;
#266 = DIRECTION ( 'NONE',  ( 1.000000000000000000, 0.000000000000000000, 0.000000000000000000 ) ) ;
#267 = FACE_OUTER_BOUND ( 'NONE', #422, .T. ) ;
#268 = ORIENTED_EDGE ( 'NONE', *, *, #1348, .T. ) ;
#269 = DIRECTION ( 'NONE',  ( -0.000000000000000000, -0.000000000000000000, 1.000000000000000000 ) ) ;
#270 = DIRECTION ( 'NONE',  ( 0.000000000000000000, 0.000000000000000000, 1.000000000000000000 ) ) ;
#271 = LINE ( 'NONE', #1243, #1331 ) ;
#272 = ADVANCED_FACE ( 'NONE', ( #1149 ), #1163, .F. ) ;
#273 = ORIENTED_EDGE ( 'NONE', *, *, #1161, .T. ) ;
#274 = DIRECTION ( 'NONE',  ( -0.000000000000000000, -0.000000000000000000, 1.000000000000000000 ) ) ;
#275 = CARTESIAN_POINT ( 'NONE',  ( -29.99999999999998934, -29.99999999999999645, 5.000000000000000000 ) ) ;
#276 = DIRECTION ( 'NONE',  ( -0.000000000000000000, -1.000000000000000000, -0.000000000000000000 ) ) ;
#277 = LINE ( 'NONE', #298, #86 ) ;
#278 = ORIENTED_EDGE ( 'NONE', *, *, #1298, .F. ) ;
#279 = LINE ( 'NONE', #934, #1164 ) ;
#280 = EDGE_CURVE ( 'NONE', #1226, #893, #732, .T. ) ;
#281 = VECTOR ( 'NONE', #1240, 1000.000000000000000 ) ;
#282 = CARTESIAN_POINT ( 'NONE',  ( 22.49999999999999645, -29.99999999999999645, 5.000000000000026645 ) ) ;
#283 = CLOSED_SHELL ( 'NONE', ( #950, #1254, #709, #1111, #487, #852, #1334, #872, #1127, #143, #462, #22, #1215, #1120, #1260, #1049, #672, #1358, #670, #512, #428, #928, #272, #689, #797, #626, #322, #781, #827, #230, #167, #935, #1239, #1194, #124, #724, #1056, #188, #409, #376, #299 ) ) ;
#284 = CARTESIAN_POINT ( 'NONE',  ( 19.48557158515130183, -11.24999999999917044, 0.000000000000000000 ) ) ;
#285 = CARTESIAN_POINT ( 'NONE',  ( -28.14999999999998082, 5.000000000000000000, 25.00000000000000711 ) ) ;
#286 = EDGE_LOOP ( 'NONE', ( #14, #873 ) ) ;
#287 = DIRECTION ( 'NONE',  ( -0.000000000000000000, -0.000000000000000000, 1.000000000000000000 ) ) ;
#288 = PRODUCT_RELATED_PRODUCT_CATEGORY ( 'part', '', ( #612 ) ) ;
#289 = DIRECTION ( 'NONE',  ( -0.000000000000000000, -0.000000000000000000, -1.000000000000000000 ) ) ;
#290 = CARTESIAN_POINT ( 'NONE',  ( 0.000000000000000000, 22.50000000000000000, 5.000000000000000000 ) ) ;
#291 = LINE ( 'NONE', #810, #17 ) ;
#292 = EDGE_LOOP ( 'NONE', ( #1270, #184 ) ) ;
#293 = DIRECTION ( 'NONE',  ( -1.156482317317873105E-15, -0.000000000000000000, 1.000000000000000000 ) ) ;
#294 = CIRCLE ( 'NONE', #654, 1.649999999999998579 ) ;
#295 =( GEOMETRIC_REPRESENTATION_CONTEXT ( 3 ) GLOBAL_UNCERTAINTY_ASSIGNED_CONTEXT ( ( #832 ) ) GLOBAL_UNIT_ASSIGNED_CONTEXT ( ( #1193, #577, #1011 ) ) REPRESENTATION_CONTEXT ( 'NONE', 'WORKASPACE' ) );
#296 = PLANE ( 'NONE',  #641 ) ;
#297 = DIRECTION ( 'NONE',  ( 1.000000000000000000, 0.000000000000000000, 0.000000000000000000 ) ) ;
#298 = CARTESIAN_POINT ( 'NONE',  ( 22.49999999999999645, -19.99999999999999645, 5.000000000000026645 ) ) ;
#299 = ADVANCED_FACE ( 'NONE', ( #119, #514 ), #1051, .T. ) ;
#300 = ORIENTED_EDGE ( 'NONE', *, *, #531, .T. ) ;
#301 = CARTESIAN_POINT ( 'NONE',  ( 26.50000000000000000, -24.99999999999999289, -0.001000000000001000089 ) ) ;
#302 =( GEOMETRIC_REPRESENTATION_CONTEXT ( 3 ) GLOBAL_UNCERTAINTY_ASSIGNED_CONTEXT ( ( #522 ) ) GLOBAL_UNIT_ASSIGNED_CONTEXT ( ( #494, #1262, #418 ) ) REPRESENTATION_CONTEXT ( 'NONE', 'WORKASPACE' ) );
#303 = CARTESIAN_POINT ( 'NONE',  ( -30.49999999999997158, 10.00000000000000000, 25.00000000000000711 ) ) ;
#304 = AXIS2_PLACEMENT_3D ( 'NONE', #621, #755, #1178 ) ;
#305 = LINE ( 'NONE', #864, #908 ) ;
#306 = EDGE_CURVE ( 'NONE', #679, #760, #217, .T. ) ;
#307 = ORIENTED_EDGE ( 'NONE', *, *, #1014, .F. ) ;
#308 = LINE ( 'NONE', #818, #741 ) ;
#309 = PLANE ( 'NONE',  #876 ) ;
#310 = DIRECTION ( 'NONE',  ( 1.156482317317873105E-15, 0.000000000000000000, 1.000000000000000000 ) ) ;
#311 = VERTEX_POINT ( 'NONE', #425 ) ;
#312 = DIRECTION ( 'NONE',  ( 1.000000000000000000, 0.000000000000000000, 0.000000000000000000 ) ) ;
#313 = EDGE_CURVE ( 'NONE', #812, #399, #63, .T. ) ;
#314 = VERTEX_POINT ( 'NONE', #628 ) ;
#315 = VECTOR ( 'NONE', #671, 1000.000000000000000 ) ;
#316 = FACE_OUTER_BOUND ( 'NONE', #142, .T. ) ;
#317 = COLOUR_RGB ( '',0.7921568627450980005, 0.8196078431372548767, 0.9333333333333333481 ) ;
#318 = LINE ( 'NONE', #746, #350 ) ;
#319 = VERTEX_POINT ( 'NONE', #210 ) ;
#320 = CARTESIAN_POINT ( 'NONE',  ( -22.50000000000000000, -19.99999999999999645, 25.00000000000000000 ) ) ;
#321 = ORIENTED_EDGE ( 'NONE', *, *, #1134, .T. ) ;
#322 = ADVANCED_FACE ( 'NONE', ( #649 ), #1374, .F. ) ;
#323 = FACE_OUTER_BOUND ( 'NONE', #701, .T. ) ;
#324 = AXIS2_PLACEMENT_3D ( 'NONE', #684, #786, #1341 ) ;
#325 = DIRECTION ( 'NONE',  ( -0.000000000000000000, -0.000000000000000000, -1.000000000000000000 ) ) ;
#326 = VECTOR ( 'NONE', #236, 1000.000000000000000 ) ;
#327 = VERTEX_POINT ( 'NONE', #738 ) ;
#328 = CARTESIAN_POINT ( 'NONE',  ( 30.49999999999999289, -29.99999999999999645, 25.00000000000001421 ) ) ;
#329 = AXIS2_PLACEMENT_3D ( 'NONE', #290, #1255, #717 ) ;
#330 = ORIENTED_EDGE ( 'NONE', *, *, #49, .T. ) ;
#331 = DIRECTION ( 'NONE',  ( -0.000000000000000000, 0.000000000000000000, -1.000000000000000000 ) ) ;
#332 = EDGE_CURVE ( 'NONE', #436, #760, #1058, .T. ) ;
#333 = LINE ( 'NONE', #836, #156 ) ;
#334 = APPLICATION_CONTEXT ( 'automotive_design' ) ;
#335 = VERTEX_POINT ( 'NONE', #1275 ) ;
#336 = CARTESIAN_POINT ( 'NONE',  ( -29.99999999999998934, -29.99999999999999645, 5.000000000000000000 ) ) ;
#337 = EDGE_LOOP ( 'NONE', ( #982, #29, #534, #117 ) ) ;
#338 = PLANE ( 'NONE',  #1141 ) ;
#339 = EDGE_LOOP ( 'NONE', ( #1211, #243, #801, #1273 ) ) ;
#340 = CARTESIAN_POINT ( 'NONE',  ( 28.14999999999999858, 5.000000000000000000, 28.00000000000000000 ) ) ;
#341 = VECTOR ( 'NONE', #1246, 1000.000000000000000 ) ;
#342 = ORIENTED_EDGE ( 'NONE', *, *, #744, .T. ) ;
#343 = CYLINDRICAL_SURFACE ( 'NONE', #567, 2.250000000001230127 ) ;
#344 = ORIENTED_EDGE ( 'NONE', *, *, #30, .T. ) ;
#345 = CARTESIAN_POINT ( 'NONE',  ( 30.49999999999999645, -19.99999999999999645, 28.00000000000000000 ) ) ;
#346 = ORIENTED_EDGE ( 'NONE', *, *, #384, .T. ) ;
#347 = CARTESIAN_POINT ( 'NONE',  ( -22.49999999999996803, 10.00000000000000000, 5.000000000000020428 ) ) ;
#348 = CARTESIAN_POINT ( 'NONE',  ( -26.49999999999998224, 5.000000000000000000, 28.00000000000000000 ) ) ;
#349 = DIRECTION ( 'NONE',  ( 0.000000000000000000, 1.000000000000000000, 0.000000000000000000 ) ) ;
#350 = VECTOR ( 'NONE', #1171, 1000.000000000000000 ) ;
#351 = EDGE_CURVE ( 'NONE', #1369, #679, #318, .T. ) ;
#352 = VECTOR ( 'NONE', #823, 1000.000000000000000 ) ;
#353 = ORIENTED_EDGE ( 'NONE', *, *, #39, .T. ) ;
#354 = LINE ( 'NONE', #234, #252 ) ;
#355 = EDGE_LOOP ( 'NONE', ( #1114, #559, #825, #321 ) ) ;
#356 = DIRECTION ( 'NONE',  ( 1.000000000000000000, 0.000000000000000000, -0.000000000000000000 ) ) ;
#357 = PLANE ( 'NONE',  #579 ) ;
#358 = DIRECTION ( 'NONE',  ( -1.000000000000000000, 0.000000000000000000, 0.000000000000000000 ) ) ;
#359 = VERTEX_POINT ( 'NONE', #216 ) ;
#360 = DIRECTION ( 'NONE',  ( -0.000000000000000000, -0.000000000000000000, 1.000000000000000000 ) ) ;
#361 = EDGE_CURVE ( 'NONE', #635, #1219, #485, .T. ) ;
#362 = ORIENTED_EDGE ( 'NONE', *, *, #1134, .F. ) ;
#363 = DIRECTION ( 'NONE',  ( 0.000000000000000000, -1.000000000000000000, 0.000000000000000000 ) ) ;
#364 = AXIS2_PLACEMENT_3D ( 'NONE', #179, #197, #1036 ) ;
#365 = LINE ( 'NONE', #1307, #1063 ) ;
#366 = DIRECTION ( 'NONE',  ( 1.000000000000000000, 0.000000000000000000, 0.000000000000000000 ) ) ;
#367 = VECTOR ( 'NONE', #1060, 1000.000000000000000 ) ;
#368 = ORIENTED_EDGE ( 'NONE', *, *, #313, .F. ) ;
#369 = EDGE_CURVE ( 'NONE', #1195, #735, #1093, .T. ) ;
#370 = CARTESIAN_POINT ( 'NONE',  ( 19.48557158515130183, -11.24999999999917044, 5.000000000000000000 ) ) ;
#371 = ORIENTED_EDGE ( 'NONE', *, *, #703, .F. ) ;
#372 = LINE ( 'NONE', #1000, #34 ) ;
#373 = EDGE_LOOP ( 'NONE', ( #149, #546, #1075, #1 ) ) ;
#374 = CIRCLE ( 'NONE', #578, 2.250000000001802558 ) ;
#375 = CARTESIAN_POINT ( 'NONE',  ( -24.84999999999999076, -24.99999999999999289, -0.001000000000001000089 ) ) ;
#376 = ADVANCED_FACE ( 'NONE', ( #1077, #776 ), #1183, .T. ) ;
#377 = DIRECTION ( 'NONE',  ( -0.000000000000000000, -0.000000000000000000, -1.000000000000000000 ) ) ;
#378 = LINE ( 'NONE', #799, #1325 ) ;
#379 = ORIENTED_EDGE ( 'NONE', *, *, #306, .T. ) ;
#380 = CARTESIAN_POINT ( 'NONE',  ( -19.09999999999999076, -29.99999999999999289, 28.00000000000000000 ) ) ;
#381 = DIRECTION ( 'NONE',  ( 1.000000000000000000, 0.000000000000000000, 0.000000000000000000 ) ) ;
#382 = DIRECTION ( 'NONE',  ( 1.156482317317873105E-15, 0.000000000000000000, 1.000000000000000000 ) ) ;
#383 = VECTOR ( 'NONE', #1238, 1000.000000000000000 ) ;
#384 = EDGE_CURVE ( 'NONE', #760, #679, #374, .T. ) ;
#385 = VERTEX_POINT ( 'NONE', #244 ) ;
#386 = CARTESIAN_POINT ( 'NONE',  ( 22.49999999999999645, 10.00000000000000000, 5.000000000000026645 ) ) ;
#387 = VECTOR ( 'NONE', #907, 1000.000000000000000 ) ;
#388 = LINE ( 'NONE', #1332, #1333 ) ;
#389 = CARTESIAN_POINT ( 'NONE',  ( 22.49999999999999645, 0.000000000000000000, 5.000000000000026645 ) ) ;
#390 = CARTESIAN_POINT ( 'NONE',  ( -17.23557158514664067, -11.25000000000082245, 0.000000000000000000 ) ) ;
#391 = VERTEX_POINT ( 'NONE', #886 ) ;
#392 = CARTESIAN_POINT ( 'NONE',  ( 30.49999999999999645, 10.00000000000000000, 28.00000000000000000 ) ) ;
#393 = EDGE_CURVE ( 'NONE', #988, #773, #1208, .T. ) ;
#394 = VECTOR ( 'NONE', #558, 1000.000000000000000 ) ;
#395 = CARTESIAN_POINT ( 'NONE',  ( 0.000000000000000000, 0.000000000000000000, 28.00000000000000000 ) ) ;
#396 = VECTOR ( 'NONE', #377, 1000.000000000000000 ) ;
#397 = DIRECTION ( 'NONE',  ( -1.734723475976808327E-16, 0.000000000000000000, -1.000000000000000000 ) ) ;
#398 = DIRECTION ( 'NONE',  ( 1.000000000000000000, -0.000000000000000000, -0.000000000000000000 ) ) ;
#399 = VERTEX_POINT ( 'NONE', #989 ) ;
#400 = CARTESIAN_POINT ( 'NONE',  ( -29.99999999999998934, -29.99999999999999645, 0.000000000000000000 ) ) ;
#401 = EDGE_CURVE ( 'NONE', #458, #583, #228, .T. ) ;
#402 = LINE ( 'NONE', #513, #1324 ) ;
#403 = CARTESIAN_POINT ( 'NONE',  ( -29.99999999999998934, -29.99999999999999645, 5.000000000000000000 ) ) ;
#404 = PLANE ( 'NONE',  #237 ) ;
#405 = VERTEX_POINT ( 'NONE', #144 ) ;
#406 = LINE ( 'NONE', #490, #985 ) ;
#407 = VECTOR ( 'NONE', #834, 1000.000000000000000 ) ;
#408 = CARTESIAN_POINT ( 'NONE',  ( 17.23557158515007259, -11.24999999999917044, 5.000000000000000000 ) ) ;
#409 = ADVANCED_FACE ( 'NONE', ( #566, #582 ), #657, .T. ) ;
#410 = DIRECTION ( 'NONE',  ( 0.000000000000000000, 0.000000000000000000, 1.000000000000000000 ) ) ;
#411 = VERTEX_POINT ( 'NONE', #664 ) ;
#412 = CARTESIAN_POINT ( 'NONE',  ( 22.50000000000000000, -19.99999999999999645, 25.00000000000001421 ) ) ;
#413 = DIRECTION ( 'NONE',  ( 1.000000000000000000, 0.000000000000000000, 0.000000000000000000 ) ) ;
#414 = AXIS2_PLACEMENT_3D ( 'NONE', #1115, #591, #481 ) ;
#415 = CIRCLE ( 'NONE', #754, 1.649999999999998579 ) ;
#416 = EDGE_CURVE ( 'NONE', #411, #1055, #38, .T. ) ;
#417 = CARTESIAN_POINT ( 'NONE',  ( 30.50000000000000000, 10.00000000000000000, 31.00000000000000711 ) ) ;
#418 =( NAMED_UNIT ( * ) SI_UNIT ( $, .STERADIAN. ) SOLID_ANGLE_UNIT ( ) );
#419 = EDGE_CURVE ( 'NONE', #969, #224, #784, .T. ) ;
#420 = EDGE_LOOP ( 'NONE', ( #151, #1069, #653, #1250 ) ) ;
#421 = CARTESIAN_POINT ( 'NONE',  ( -19.09999999999999076, 10.00000000000000000, 28.00000000000000000 ) ) ;
#422 = EDGE_LOOP ( 'NONE', ( #544, #993, #307, #208 ) ) ;
#423 = FACE_BOUND ( 'NONE', #1278, .T. ) ;
#424 = VERTEX_POINT ( 'NONE', #1328 ) ;
#425 = CARTESIAN_POINT ( 'NONE',  ( -19.09999999999999076, 0.000000000000000000, 28.00000000000000000 ) ) ;
#426 = ORIENTED_EDGE ( 'NONE', *, *, #64, .T. ) ;
#427 = DIRECTION ( 'NONE',  ( 1.000000000000000000, 0.000000000000000000, 0.000000000000000000 ) ) ;
#428 = ADVANCED_FACE ( 'NONE', ( #251 ), #1102, .F. ) ;
#429 = ORIENTED_EDGE ( 'NONE', *, *, #351, .T. ) ;
#430 = AXIS2_PLACEMENT_3D ( 'NONE', #1268, #1372, #1274 ) ;
#431 = DIRECTION ( 'NONE',  ( 1.000000000000000000, 0.000000000000000000, -0.000000000000000000 ) ) ;
#432 = AXIS2_PLACEMENT_3D ( 'NONE', #794, #464, #560 ) ;
#433 = DIRECTION ( 'NONE',  ( 1.000000000000000000, 0.000000000000000000, 0.000000000000000000 ) ) ;
#434 = ORIENTED_EDGE ( 'NONE', *, *, #1072, .F. ) ;
#435 = DIRECTION ( 'NONE',  ( -0.000000000000000000, 0.000000000000000000, -1.000000000000000000 ) ) ;
#436 = VERTEX_POINT ( 'NONE', #574 ) ;
#437 = EDGE_CURVE ( 'NONE', #311, #790, #1310, .T. ) ;
#438 = DIRECTION ( 'NONE',  ( -1.000000000000000000, 0.000000000000000000, 0.000000000000000000 ) ) ;
#439 = CARTESIAN_POINT ( 'NONE',  ( -29.99999999999998934, 29.99999999999999645, 5.000000000000000000 ) ) ;
#440 = AXIS2_PLACEMENT_3D ( 'NONE', #1367, #410, #636 ) ;
#441 = ORIENTED_EDGE ( 'NONE', *, *, #943, .F. ) ;
#442 = FACE_OUTER_BOUND ( 'NONE', #1288, .T. ) ;
#443 = VERTEX_POINT ( 'NONE', #1216 ) ;
#444 = CARTESIAN_POINT ( 'NONE',  ( -22.49999999999999645, -29.99999999999999645, 4.999999999999999112 ) ) ;
#445 = EDGE_CURVE ( 'NONE', #327, #1296, #46, .T. ) ;
#446 = CARTESIAN_POINT ( 'NONE',  ( 30.00000000000000355, 29.99999999999999645, 5.000000000000000000 ) ) ;
#447 = CARTESIAN_POINT ( 'NONE',  ( -26.49999999999998224, 5.000000000000000000, 28.00000000000000000 ) ) ;
#448 = DIRECTION ( 'NONE',  ( -0.000000000000000000, 1.000000000000000000, -0.000000000000000000 ) ) ;
#449 = ORIENTED_EDGE ( 'NONE', *, *, #680, .T. ) ;
#450 = CARTESIAN_POINT ( 'NONE',  ( -24.84999999999999076, -24.99999999999999289, 25.00000000000000000 ) ) ;
#451 = ORIENTED_EDGE ( 'NONE', *, *, #1151, .F. ) ;
#452 = AXIS2_PLACEMENT_3D ( 'NONE', #1099, #227, #1182 ) ;
#453 = CARTESIAN_POINT ( 'NONE',  ( -30.49999999999997158, 0.000000000000000000, 25.00000000000000711 ) ) ;
#454 = VECTOR ( 'NONE', #1289, 1000.000000000000000 ) ;
#455 = EDGE_CURVE ( 'NONE', #885, #424, #137, .T. ) ;
#456 = ORIENTED_EDGE ( 'NONE', *, *, #492, .T. ) ;
#457 = FACE_BOUND ( 'NONE', #76, .T. ) ;
#458 = VERTEX_POINT ( 'NONE', #347 ) ;
#459 = DIRECTION ( 'NONE',  ( 0.000000000000000000, 0.000000000000000000, 1.000000000000000000 ) ) ;
#460 = ORIENTED_EDGE ( 'NONE', *, *, #650, .T. ) ;
#461 = DIRECTION ( 'NONE',  ( -0.000000000000000000, -0.000000000000000000, -1.000000000000000000 ) ) ;
#462 = ADVANCED_FACE ( 'NONE', ( #52 ), #476, .F. ) ;
#463 = ORIENTED_EDGE ( 'NONE', *, *, #1204, .F. ) ;
#464 = DIRECTION ( 'NONE',  ( 1.000000000000000000, 0.000000000000000000, -1.156482317317873105E-15 ) ) ;
#465 = VECTOR ( 'NONE', #822, 1000.000000000000000 ) ;
#466 = CIRCLE ( 'NONE', #929, 1.649999999999998579 ) ;
#467 = VERTEX_POINT ( 'NONE', #871 ) ;
#468 = DIRECTION ( 'NONE',  ( -0.000000000000000000, -0.000000000000000000, 1.000000000000000000 ) ) ;
#469 = VERTEX_POINT ( 'NONE', #1297 ) ;
#470 = DIRECTION ( 'NONE',  ( -5.204170427930424241E-16, -0.000000000000000000, 1.000000000000000000 ) ) ;
#471 = DIRECTION ( 'NONE',  ( -0.000000000000000000, -1.000000000000000000, -0.000000000000000000 ) ) ;
#472 = DIRECTION ( 'NONE',  ( 1.000000000000000000, -0.000000000000000000, 6.167905692361982533E-16 ) ) ;
#473 = VERTEX_POINT ( 'NONE', #340 ) ;
#474 = EDGE_CURVE ( 'NONE', #405, #581, #769, .T. ) ;
#475 = ORIENTED_EDGE ( 'NONE', *, *, #575, .F. ) ;
#476 = PLANE ( 'NONE',  #88 ) ;
#477 = VECTOR ( 'NONE', #884, 1000.000000000000000 ) ;
#478 = VERTEX_POINT ( 'NONE', #380 ) ;
#479 = ORIENTED_EDGE ( 'NONE', *, *, #1306, .F. ) ;
#480 = EDGE_CURVE ( 'NONE', #554, #473, #1263, .T. ) ;
#481 = DIRECTION ( 'NONE',  ( 1.000000000000000000, 0.000000000000000000, 0.000000000000000000 ) ) ;
#482 = CARTESIAN_POINT ( 'NONE',  ( -29.99999999999998934, 29.99999999999999645, 5.000000000000000000 ) ) ;
#483 = VERTEX_POINT ( 'NONE', #1023 ) ;
#484 = VECTOR ( 'NONE', #461, 1000.000000000000000 ) ;
#485 = CIRCLE ( 'NONE', #20, 1.649999999999998579 ) ;
#486 = CARTESIAN_POINT ( 'NONE',  ( 0.000000000000000000, 10.00000000000000000, 28.00000000000000000 ) ) ;
#487 = ADVANCED_FACE ( 'NONE', ( #58 ), #187, .F. ) ;
#488 = CARTESIAN_POINT ( 'NONE',  ( -24.84999999999998366, 5.000000000000000000, 28.00000000000000000 ) ) ;
#489 = ORIENTED_EDGE ( 'NONE', *, *, #660, .F. ) ;
#490 = CARTESIAN_POINT ( 'NONE',  ( -22.49999999999999645, -19.99999999999999645, 4.999999999999999112 ) ) ;
#491 = DIRECTION ( 'NONE',  ( 1.000000000000000000, 0.000000000000000000, 0.000000000000000000 ) ) ;
#492 = EDGE_CURVE ( 'NONE', #1092, #1237, #168, .T. ) ;
#493 = DIRECTION ( 'NONE',  ( -0.000000000000000000, -0.000000000000000000, -1.000000000000000000 ) ) ;
#494 =( LENGTH_UNIT ( ) NAMED_UNIT ( * ) SI_UNIT ( .MILLI., .METRE. ) );
#495 = AXIS2_PLACEMENT_3D ( 'NONE', #36, #1126, #172 ) ;
#496 = ORIENTED_EDGE ( 'NONE', *, *, #480, .F. ) ;
#497 = CARTESIAN_POINT ( 'NONE',  ( -30.49999999999997513, 0.000000000000000000, 28.00000000000000000 ) ) ;
#498 = VECTOR ( 'NONE', #1104, 1000.000000000000000 ) ;
#499 = CARTESIAN_POINT ( 'NONE',  ( 0.000000000000000000, -19.99999999999999645, 28.00000000000000000 ) ) ;
#500 = DIRECTION ( 'NONE',  ( 1.000000000000000000, 0.000000000000000000, 0.000000000000000000 ) ) ;
#501 = DIRECTION ( 'NONE',  ( -0.000000000000000000, -0.000000000000000000, -1.000000000000000000 ) ) ;
#502 = ORIENTED_EDGE ( 'NONE', *, *, #1159, .T. ) ;
#503 = VECTOR ( 'NONE', #1354, 1000.000000000000000 ) ;
#504 = CARTESIAN_POINT ( 'NONE',  ( 0.000000000000000000, 0.000000000000000000, 5.000000000000000000 ) ) ;
#505 = EDGE_CURVE ( 'NONE', #1152, #969, #87, .T. ) ;
#506 = VECTOR ( 'NONE', #159, 1000.000000000000000 ) ;
#507 = DIRECTION ( 'NONE',  ( -1.000000000000000000, 0.000000000000000000, 0.000000000000000000 ) ) ;
#508 = PLANE ( 'NONE',  #666 ) ;
#509 = LINE ( 'NONE', #1034, #503 ) ;
#510 = ORIENTED_EDGE ( 'NONE', *, *, #598, .T. ) ;
#511 = CARTESIAN_POINT ( 'NONE',  ( -30.49999999999999289, -29.99999999999999645, 25.00000000000000000 ) ) ;
#512 = ADVANCED_FACE ( 'NONE', ( #930 ), #604, .F. ) ;
#513 = CARTESIAN_POINT ( 'NONE',  ( -28.14999999999998082, 5.000000000000000000, -0.001000000000001000089 ) ) ;
#514 = FACE_BOUND ( 'NONE', #1035, .T. ) ;
#515 = DIRECTION ( 'NONE',  ( -0.000000000000000000, -0.000000000000000000, 1.000000000000000000 ) ) ;
#516 = ORIENTED_EDGE ( 'NONE', *, *, #1066, .T. ) ;
#517 = LINE ( 'NONE', #412, #1030 ) ;
#518 = CIRCLE ( 'NONE', #495, 1.649999999999998579 ) ;
#519 = EDGE_CURVE ( 'NONE', #713, #735, #132, .T. ) ;
#520 = DIRECTION ( 'NONE',  ( -0.000000000000000000, -0.000000000000000000, 1.000000000000000000 ) ) ;
#521 = DIRECTION ( 'NONE',  ( 0.000000000000000000, 0.000000000000000000, 1.000000000000000000 ) ) ;
#522 = UNCERTAINTY_MEASURE_WITH_UNIT (LENGTH_MEASURE( 1.000000000000000082E-05 ), #494, 'distance_accuracy_value', 'NONE');
#523 = ORIENTED_EDGE ( 'NONE', *, *, #1272, .F. ) ;
#524 = FILL_AREA_STYLE_COLOUR ( '', #317 ) ;
#525 = ORIENTED_EDGE ( 'NONE', *, *, #505, .F. ) ;
#526 = DIRECTION ( 'NONE',  ( -0.000000000000000000, -0.000000000000000000, 1.000000000000000000 ) ) ;
#527 = VECTOR ( 'NONE', #849, 1000.000000000000000 ) ;
#528 = ORIENTED_EDGE ( 'NONE', *, *, #351, .F. ) ;
#529 = AXIS2_PLACEMENT_3D ( 'NONE', #1242, #923, #804 ) ;
#530 = CARTESIAN_POINT ( 'NONE',  ( -21.73557158515024668, -11.25000000000082245, 0.000000000000000000 ) ) ;
#531 = EDGE_CURVE ( 'NONE', #335, #947, #796, .T. ) ;
#532 = EDGE_LOOP ( 'NONE', ( #449, #1168, #235, #858 ) ) ;
#533 = DIRECTION ( 'NONE',  ( -0.000000000000000000, -0.000000000000000000, 1.000000000000000000 ) ) ;
#534 = ORIENTED_EDGE ( 'NONE', *, *, #575, .T. ) ;
#535 = CARTESIAN_POINT ( 'NONE',  ( 22.49999999999999645, 0.000000000000000000, 5.000000000000026645 ) ) ;
#536 = DIRECTION ( 'NONE',  ( 0.000000000000000000, -1.000000000000000000, 0.000000000000000000 ) ) ;
#537 = EDGE_CURVE ( 'NONE', #473, #554, #1154, .T. ) ;
#538 = ORIENTED_EDGE ( 'NONE', *, *, #762, .F. ) ;
#539 = CARTESIAN_POINT ( 'NONE',  ( 1.040834085586084257E-14, -29.99999999999999289, 28.00000000000000711 ) ) ;
#540 = EDGE_LOOP ( 'NONE', ( #61, #920 ) ) ;
#541 = DIRECTION ( 'NONE',  ( 0.000000000000000000, 1.000000000000000000, 0.000000000000000000 ) ) ;
#542 = AXIS2_PLACEMENT_3D ( 'NONE', #859, #1180, #630 ) ;
#543 = DIRECTION ( 'NONE',  ( -1.000000000000000000, 0.000000000000000000, 1.156482317317873105E-15 ) ) ;
#544 = ORIENTED_EDGE ( 'NONE', *, *, #1317, .T. ) ;
#545 = DIRECTION ( 'NONE',  ( -0.000000000000000000, -0.000000000000000000, 1.000000000000000000 ) ) ;
#546 = ORIENTED_EDGE ( 'NONE', *, *, #904, .F. ) ;
#547 = EDGE_CURVE ( 'NONE', #436, #1369, #1376, .T. ) ;
#548 = CARTESIAN_POINT ( 'NONE',  ( -19.48557158514844545, -11.25000000000082245, 0.000000000000000000 ) ) ;
#549 = DIRECTION ( 'NONE',  ( -0.000000000000000000, -0.000000000000000000, 1.000000000000000000 ) ) ;
#550 = PRODUCT_CONTEXT ( 'NONE', #334, 'mechanical' ) ;
#551 = AXIS2_PLACEMENT_3D ( 'NONE', #715, #704, #175 ) ;
#552 = CARTESIAN_POINT ( 'NONE',  ( 30.49999999999999645, 0.000000000000000000, 28.00000000000000000 ) ) ;
#553 = LINE ( 'NONE', #1167, #148 ) ;
#554 = VERTEX_POINT ( 'NONE', #1009 ) ;
#555 = EDGE_CURVE ( 'NONE', #1309, #554, #388, .T. ) ;
#556 = CARTESIAN_POINT ( 'NONE',  ( 19.10000000000001208, -29.99999999999999289, 28.00000000000000000 ) ) ;
#557 = EDGE_LOOP ( 'NONE', ( #854, #1330, #489, #758 ) ) ;
#558 = DIRECTION ( 'NONE',  ( -0.000000000000000000, -0.000000000000000000, 1.000000000000000000 ) ) ;
#559 = ORIENTED_EDGE ( 'NONE', *, *, #598, .F. ) ;
#560 = DIRECTION ( 'NONE',  ( -1.156482317317873105E-15, 0.000000000000000000, -1.000000000000000000 ) ) ;
#561 = VERTEX_POINT ( 'NONE', #80 ) ;
#562 = DIRECTION ( 'NONE',  ( -0.000000000000000000, -0.000000000000000000, 1.000000000000000000 ) ) ;
#563 = ORIENTED_EDGE ( 'NONE', *, *, #919, .T. ) ;
#564 = EDGE_CURVE ( 'NONE', #812, #995, #162, .T. ) ;
#565 = AXIS2_PLACEMENT_3D ( 'NONE', #1282, #648, #627 ) ;
#566 = FACE_OUTER_BOUND ( 'NONE', #580, .T. ) ;
#567 = AXIS2_PLACEMENT_3D ( 'NONE', #212, #1173, #103 ) ;
#568 = EDGE_CURVE ( 'NONE', #595, #988, #1227, .T. ) ;
#569 = ORIENTED_EDGE ( 'NONE', *, *, #181, .F. ) ;
#570 = CARTESIAN_POINT ( 'NONE',  ( 28.14999999999999858, -24.99999999999999289, 28.00000000000000000 ) ) ;
#571 = ORIENTED_EDGE ( 'NONE', *, *, #1206, .T. ) ;
#572 = CARTESIAN_POINT ( 'NONE',  ( 0.000000000000000000, 0.000000000000000000, 0.000000000000000000 ) ) ;
#573 = EDGE_LOOP ( 'NONE', ( #838, #1047, #268, #160 ) ) ;
#574 = CARTESIAN_POINT ( 'NONE',  ( -21.73557158515024668, -11.25000000000082245, 0.000000000000000000 ) ) ;
#575 = EDGE_CURVE ( 'NONE', #467, #483, #698, .T. ) ;
#576 = ORIENTED_EDGE ( 'NONE', *, *, #919, .F. ) ;
#577 =( NAMED_UNIT ( * ) PLANE_ANGLE_UNIT ( ) SI_UNIT ( $, .RADIAN. ) );
#578 = AXIS2_PLACEMENT_3D ( 'NONE', #1200, #974, #879 ) ;
#579 = AXIS2_PLACEMENT_3D ( 'NONE', #798, #1116, #881 ) ;
#580 = EDGE_LOOP ( 'NONE', ( #976, #1188, #891, #617 ) ) ;
#581 = VERTEX_POINT ( 'NONE', #916 ) ;
#582 = FACE_BOUND ( 'NONE', #875, .T. ) ;
#583 = VERTEX_POINT ( 'NONE', #922 ) ;
#584 = EDGE_CURVE ( 'NONE', #771, #1209, #708, .T. ) ;
#585 = ORIENTED_EDGE ( 'NONE', *, *, #911, .F. ) ;
#586 = DIRECTION ( 'NONE',  ( -1.000000000000000000, 0.000000000000000000, 0.000000000000000000 ) ) ;
#587 = VECTOR ( 'NONE', #207, 1000.000000000000000 ) ;
#588 = FACE_OUTER_BOUND ( 'NONE', #1103, .T. ) ;
#589 = CARTESIAN_POINT ( 'NONE',  ( -22.49999999999996803, 10.00000000000000000, 5.000000000000020428 ) ) ;
#590 = ORIENTED_EDGE ( 'NONE', *, *, #1317, .F. ) ;
#591 = DIRECTION ( 'NONE',  ( -0.000000000000000000, -0.000000000000000000, 1.000000000000000000 ) ) ;
#592 = CARTESIAN_POINT ( 'NONE',  ( -19.09999999999999076, -29.99999999999999289, 28.00000000000000000 ) ) ;
#593 = CARTESIAN_POINT ( 'NONE',  ( 24.85000000000000142, 5.000000000000000000, 25.00000000000001421 ) ) ;
#594 = CIRCLE ( 'NONE', #1106, 1.649999999999998579 ) ;
#595 = VERTEX_POINT ( 'NONE', #910 ) ;
#596 = FACE_BOUND ( 'NONE', #1119, .T. ) ;
#597 = VECTOR ( 'NONE', #67, 1000.000000000000000 ) ;
#598 = EDGE_CURVE ( 'NONE', #901, #581, #1338, .T. ) ;
#599 = CARTESIAN_POINT ( 'NONE',  ( 0.000000000000000000, 10.00000000000000000, 28.00000000000000000 ) ) ;
#600 = CARTESIAN_POINT ( 'NONE',  ( 30.50000000000000000, 10.00000000000000000, 31.00000000000000711 ) ) ;
#601 = LINE ( 'NONE', #924, #687 ) ;
#602 = EDGE_LOOP ( 'NONE', ( #1179, #783, #346, #528 ) ) ;
#603 = DIRECTION ( 'NONE',  ( -0.000000000000000000, -0.000000000000000000, 1.000000000000000000 ) ) ;
#604 = CYLINDRICAL_SURFACE ( 'NONE', #414, 1.649999999999998579 ) ;
#605 = CYLINDRICAL_SURFACE ( 'NONE', #841, 2.249999999999999556 ) ;
#606 = DIRECTION ( 'NONE',  ( -0.000000000000000000, -0.000000000000000000, 1.000000000000000000 ) ) ;
#607 = EDGE_CURVE ( 'NONE', #391, #1201, #1351, .T. ) ;
#608 = VECTOR ( 'NONE', #652, 1000.000000000000000 ) ;
#609 = EDGE_LOOP ( 'NONE', ( #538, #693, #833, #733 ) ) ;
#610 = LINE ( 'NONE', #624, #899 ) ;
#611 = VECTOR ( 'NONE', #779, 1000.000000000000000 ) ;
#612 = PRODUCT ( 'sensor_pipe_holder_down', 'sensor_pipe_holder_down', '', ( #550 ) ) ;
#613 = DIRECTION ( 'NONE',  ( 1.000000000000000000, 0.000000000000000000, 0.000000000000000000 ) ) ;
#614 = DIRECTION ( 'NONE',  ( -1.156482317317873105E-15, -0.000000000000000000, 1.000000000000000000 ) ) ;
#615 = CARTESIAN_POINT ( 'NONE',  ( -26.49999999999998224, 5.000000000000000000, -0.001000000000001000089 ) ) ;
#616 = EDGE_CURVE ( 'NONE', #51, #790, #180, .T. ) ;
#617 = ORIENTED_EDGE ( 'NONE', *, *, #505, .T. ) ;
#618 = CARTESIAN_POINT ( 'NONE',  ( 21.73557158515253107, -11.24999999999917044, 0.000000000000000000 ) ) ;
#619 = AXIS2_PLACEMENT_3D ( 'NONE', #370, #1029, #905 ) ;
#620 = PLANE ( 'NONE',  #1366 ) ;
#621 = CARTESIAN_POINT ( 'NONE',  ( 26.50000000000000000, -24.99999999999999289, 25.00000000000001421 ) ) ;
#622 = CARTESIAN_POINT ( 'NONE',  ( -30.49999999999999289, -19.99999999999999645, 28.00000000000000000 ) ) ;
#623 = ORIENTED_EDGE ( 'NONE', *, *, #369, .T. ) ;
#624 = CARTESIAN_POINT ( 'NONE',  ( 28.14999999999999858, 5.000000000000000000, -0.001000000000001000089 ) ) ;
#625 = EDGE_CURVE ( 'NONE', #443, #405, #1247, .T. ) ;
#626 = ADVANCED_FACE ( 'NONE', ( #316 ), #296, .F. ) ;
#627 = DIRECTION ( 'NONE',  ( 1.000000000000000000, 0.000000000000000000, 0.000000000000000000 ) ) ;
#628 = CARTESIAN_POINT ( 'NONE',  ( -2.249999999999999556, 22.50000000000000000, 5.000000000000000000 ) ) ;
#629 = ORIENTED_EDGE ( 'NONE', *, *, #811, .T. ) ;
#630 = DIRECTION ( 'NONE',  ( 1.000000000000000000, 0.000000000000000000, 0.000000000000000000 ) ) ;
#631 = CIRCLE ( 'NONE', #565, 2.249999999999999556 ) ;
#632 = ORIENTED_EDGE ( 'NONE', *, *, #811, .F. ) ;
#633 = EDGE_CURVE ( 'NONE', #483, #1092, #10, .T. ) ;
#634 = DIRECTION ( 'NONE',  ( -5.204170427930424241E-16, -0.000000000000000000, 1.000000000000000000 ) ) ;
#635 = VERTEX_POINT ( 'NONE', #1148 ) ;
#636 = DIRECTION ( 'NONE',  ( -1.000000000000000000, 0.000000000000000000, 0.000000000000000000 ) ) ;
#637 = EDGE_LOOP ( 'NONE', ( #1145, #661, #155, #1125 ) ) ;
#638 = CARTESIAN_POINT ( 'NONE',  ( -26.49999999999998934, -24.99999999999999289, -0.001000000000001000089 ) ) ;
#639 = EDGE_LOOP ( 'NONE', ( #218, #1041, #563, #496 ) ) ;
#640 = DIRECTION ( 'NONE',  ( 1.156482317317873105E-15, 0.000000000000000000, -1.000000000000000000 ) ) ;
#641 = AXIS2_PLACEMENT_3D ( 'NONE', #736, #2, #640 ) ;
#642 = EDGE_CURVE ( 'NONE', #1237, #914, #193, .T. ) ;
#643 = VECTOR ( 'NONE', #73, 1000.000000000000000 ) ;
#644 = DIRECTION ( 'NONE',  ( 1.000000000000000000, 0.000000000000000000, 0.000000000000000000 ) ) ;
#645 = EDGE_LOOP ( 'NONE', ( #475, #778, #765, #35, #130, #1002, #178, #973, #18, #1207 ) ) ;
#646 = LINE ( 'NONE', #116, #1301 ) ;
#647 = EDGE_LOOP ( 'NONE', ( #585, #273, #1319, #125, #41, #898, #344, #999 ) ) ;
#648 = DIRECTION ( 'NONE',  ( 0.000000000000000000, 0.000000000000000000, 1.000000000000000000 ) ) ;
#649 = FACE_OUTER_BOUND ( 'NONE', #339, .T. ) ;
#650 = EDGE_CURVE ( 'NONE', #469, #478, #99, .T. ) ;
#651 = ORIENTED_EDGE ( 'NONE', *, *, #1298, .T. ) ;
#652 = DIRECTION ( 'NONE',  ( 1.156482317317873105E-15, 0.000000000000000000, 1.000000000000000000 ) ) ;
#653 = ORIENTED_EDGE ( 'NONE', *, *, #568, .F. ) ;
#654 = AXIS2_PLACEMENT_3D ( 'NONE', #200, #1050, #942 ) ;
#655 = DIRECTION ( 'NONE',  ( 0.000000000000000000, -1.000000000000000000, 0.000000000000000000 ) ) ;
#656 = ORIENTED_EDGE ( 'NONE', *, *, #416, .F. ) ;
#657 = PLANE ( 'NONE',  #863 ) ;
#658 = ORIENTED_EDGE ( 'NONE', *, *, #547, .T. ) ;
#659 = FACE_OUTER_BOUND ( 'NONE', #903, .T. ) ;
#660 = EDGE_CURVE ( 'NONE', #885, #138, #731, .T. ) ;
#661 = ORIENTED_EDGE ( 'NONE', *, *, #870, .T. ) ;
#662 = CARTESIAN_POINT ( 'NONE',  ( -2.249999999999999556, 22.50000000000000000, 0.000000000000000000 ) ) ;
#663 = ORIENTED_EDGE ( 'NONE', *, *, #173, .F. ) ;
#664 = CARTESIAN_POINT ( 'NONE',  ( 30.00000000000000355, -29.99999999999999645, 5.000000000000000000 ) ) ;
#665 = VECTOR ( 'NONE', #802, 1000.000000000000000 ) ;
#666 = AXIS2_PLACEMENT_3D ( 'NONE', #1335, #270, #1123 ) ;
#667 = ORIENTED_EDGE ( 'NONE', *, *, #4, .T. ) ;
#668 = CARTESIAN_POINT ( 'NONE',  ( 21.73557158515253107, -11.24999999999917044, 0.000000000000000000 ) ) ;
#669 = ORIENTED_EDGE ( 'NONE', *, *, #1177, .F. ) ;
#670 = ADVANCED_FACE ( 'NONE', ( #1057, #1162 ), #620, .F. ) ;
#671 = DIRECTION ( 'NONE',  ( -1.734723475976808080E-16, 0.000000000000000000, -1.000000000000000000 ) ) ;
#672 = ADVANCED_FACE ( 'NONE', ( #221 ), #1176, .F. ) ;
#673 = EDGE_LOOP ( 'NONE', ( #883, #362, #955, #115 ) ) ;
#674 = CARTESIAN_POINT ( 'NONE',  ( 0.000000000000000000, 0.000000000000000000, 28.00000000000000000 ) ) ;
#675 = DIRECTION ( 'NONE',  ( -0.000000000000000000, -1.000000000000000000, -0.000000000000000000 ) ) ;
#676 = CARTESIAN_POINT ( 'NONE',  ( -30.49999999999999289, -19.99999999999999645, 25.00000000000000000 ) ) ;
#677 = VERTEX_POINT ( 'NONE', #535 ) ;
#678 = DIRECTION ( 'NONE',  ( 0.000000000000000000, -1.000000000000000000, 0.000000000000000000 ) ) ;
#679 = VERTEX_POINT ( 'NONE', #1044 ) ;
#680 = EDGE_CURVE ( 'NONE', #773, #677, #113, .T. ) ;
#681 = CARTESIAN_POINT ( 'NONE',  ( 22.50000000000000000, 10.00000000000000000, 25.00000000000001421 ) ) ;
#682 = AXIS2_PLACEMENT_3D ( 'NONE', #638, #545, #968 ) ;
#683 = ORIENTED_EDGE ( 'NONE', *, *, #642, .T. ) ;
#684 = CARTESIAN_POINT ( 'NONE',  ( 26.50000000000000000, -24.99999999999999289, -0.001000000000001000089 ) ) ;
#685 = ORIENTED_EDGE ( 'NONE', *, *, #75, .T. ) ;
#686 = EDGE_LOOP ( 'NONE', ( #1021, #795, #1342, #576 ) ) ;
#687 = VECTOR ( 'NONE', #700, 1000.000000000000000 ) ;
#688 = DIRECTION ( 'NONE',  ( 1.734723475976808327E-16, 0.000000000000000000, 1.000000000000000000 ) ) ;
#689 = ADVANCED_FACE ( 'NONE', ( #423, #94 ), #309, .F. ) ;
#690 = DIRECTION ( 'NONE',  ( -0.000000000000000000, -0.000000000000000000, -1.000000000000000000 ) ) ;
#691 = CARTESIAN_POINT ( 'NONE',  ( 24.85000000000000142, -24.99999999999999289, -0.001000000000001000089 ) ) ;
#692 = VECTOR ( 'NONE', #1305, 1000.000000000000000 ) ;
#693 = ORIENTED_EDGE ( 'NONE', *, *, #1090, .T. ) ;
#694 = DIRECTION ( 'NONE',  ( -0.000000000000000000, -0.000000000000000000, 1.000000000000000000 ) ) ;
#695 = ORIENTED_EDGE ( 'NONE', *, *, #306, .F. ) ;
#696 = LINE ( 'NONE', #1202, #11 ) ;
#697 = ORIENTED_EDGE ( 'NONE', *, *, #625, .F. ) ;
#698 = LINE ( 'NONE', #486, #1129 ) ;
#699 = LINE ( 'NONE', #1136, #396 ) ;
#700 = DIRECTION ( 'NONE',  ( 1.000000000000000000, 0.000000000000000000, 0.000000000000000000 ) ) ;
#701 = EDGE_LOOP ( 'NONE', ( #525, #590, #669, #5, #706, #253, #632, #940, #1316, #1190 ) ) ;
#702 = FACE_OUTER_BOUND ( 'NONE', #1059, .T. ) ;
#703 = EDGE_CURVE ( 'NONE', #1285, #1257, #402, .T. ) ;
#704 = DIRECTION ( 'NONE',  ( -0.000000000000000000, -0.000000000000000000, -1.000000000000000000 ) ) ;
#705 = LINE ( 'NONE', #3, #997 ) ;
#706 = ORIENTED_EDGE ( 'NONE', *, *, #1161, .F. ) ;
#707 = DIRECTION ( 'NONE',  ( 0.000000000000000000, -1.000000000000000000, 0.000000000000000000 ) ) ;
#708 = CIRCLE ( 'NONE', #109, 1.649999999999998579 ) ;
#709 = ADVANCED_FACE ( 'NONE', ( #856 ), #848, .F. ) ;
#710 = DIRECTION ( 'NONE',  ( 1.734723475976808080E-16, 0.000000000000000000, 1.000000000000000000 ) ) ;
#711 = DIRECTION ( 'NONE',  ( 0.000000000000000000, 0.000000000000000000, 1.000000000000000000 ) ) ;
#712 = LINE ( 'NONE', #1137, #261 ) ;
#713 = VERTEX_POINT ( 'NONE', #1070 ) ;
#714 = DIRECTION ( 'NONE',  ( 1.000000000000000000, 0.000000000000000000, 0.000000000000000000 ) ) ;
#715 = CARTESIAN_POINT ( 'NONE',  ( 26.50000000000000000, 5.000000000000000000, 28.00000000000000000 ) ) ;
#716 = EDGE_CURVE ( 'NONE', #314, #205, #631, .T. ) ;
#717 = DIRECTION ( 'NONE',  ( 1.000000000000000000, 0.000000000000000000, 0.000000000000000000 ) ) ;
#718 = DIRECTION ( 'NONE',  ( -1.734723475976806848E-16, 0.000000000000000000, 1.000000000000000000 ) ) ;
#719 = AXIS2_PLACEMENT_3D ( 'NONE', #1259, #1252, #1365 ) ;
#720 = ORIENTED_EDGE ( 'NONE', *, *, #1339, .T. ) ;
#721 = DIRECTION ( 'NONE',  ( 0.000000000000000000, 0.000000000000000000, -1.000000000000000000 ) ) ;
#722 = CIRCLE ( 'NONE', #1213, 19.10000000000000142 ) ;
#723 = DIRECTION ( 'NONE',  ( -1.000000000000000000, -0.000000000000000000, -0.000000000000000000 ) ) ;
#724 = ADVANCED_FACE ( 'NONE', ( #323 ), #828, .F. ) ;
#725 = DIRECTION ( 'NONE',  ( 0.000000000000000000, 1.000000000000000000, 0.000000000000000000 ) ) ;
#726 = CYLINDRICAL_SURFACE ( 'NONE', #1220, 2.250000000001802558 ) ;
#727 = ORIENTED_EDGE ( 'NONE', *, *, #248, .T. ) ;
#728 = AXIS2_PLACEMENT_3D ( 'NONE', #1130, #1026, #74 ) ;
#729 = FACE_BOUND ( 'NONE', #1245, .T. ) ;
#730 = AXIS2_PLACEMENT_3D ( 'NONE', #114, #1291, #1045 ) ;
#731 = LINE ( 'NONE', #1064, #145 ) ;
#732 = LINE ( 'NONE', #951, #972 ) ;
#733 = ORIENTED_EDGE ( 'NONE', *, *, #564, .F. ) ;
#734 = CARTESIAN_POINT ( 'NONE',  ( -30.49999999999997158, 10.00000000000000000, 25.00000000000000711 ) ) ;
#735 = VERTEX_POINT ( 'NONE', #408 ) ;
#736 = CARTESIAN_POINT ( 'NONE',  ( -30.49999999999997868, 10.00000000000000000, 31.00000000000000000 ) ) ;
#737 = ORIENTED_EDGE ( 'NONE', *, *, #445, .F. ) ;
#738 = CARTESIAN_POINT ( 'NONE',  ( -24.84999999999998366, 5.000000000000000000, 25.00000000000000711 ) ) ;
#739 = ORIENTED_EDGE ( 'NONE', *, *, #531, .F. ) ;
#740 = DIRECTION ( 'NONE',  ( -1.000000000000000000, 0.000000000000000000, 0.000000000000000000 ) ) ;
#741 = VECTOR ( 'NONE', #1048, 1000.000000000000000 ) ;
#742 = ORIENTED_EDGE ( 'NONE', *, *, #1118, .T. ) ;
#743 = VECTOR ( 'NONE', #533, 1000.000000000000000 ) ;
#744 = EDGE_CURVE ( 'NONE', #1313, #995, #294, .T. ) ;
#745 = CARTESIAN_POINT ( 'NONE',  ( -26.49999999999998934, -24.99999999999999289, -0.001000000000001000089 ) ) ;
#746 = CARTESIAN_POINT ( 'NONE',  ( -17.23557158514664067, -11.25000000000082245, 0.000000000000000000 ) ) ;
#747 = APPLICATION_PROTOCOL_DEFINITION ( 'draft international standard', 'automotive_design', 1998, #334 ) ;
#748 = ORIENTED_EDGE ( 'NONE', *, *, #93, .T. ) ;
#749 = DIRECTION ( 'NONE',  ( 0.000000000000000000, 0.000000000000000000, -1.000000000000000000 ) ) ;
#750 = VERTEX_POINT ( 'NONE', #842 ) ;
#751 = CARTESIAN_POINT ( 'NONE',  ( 1.040834085586084257E-14, 10.00000000000000000, 28.00000000000000711 ) ) ;
#752 = CIRCLE ( 'NONE', #304, 1.649999999999998579 ) ;
#753 = EDGE_CURVE ( 'NONE', #1152, #850, #789, .T. ) ;
#754 = AXIS2_PLACEMENT_3D ( 'NONE', #447, #1094, #146 ) ;
#755 = DIRECTION ( 'NONE',  ( -0.000000000000000000, -0.000000000000000000, 1.000000000000000000 ) ) ;
#756 = EDGE_LOOP ( 'NONE', ( #1081, #623, #7, #69 ) ) ;
#757 = CARTESIAN_POINT ( 'NONE',  ( 2.249999999999999556, 22.50000000000000000, 0.000000000000000000 ) ) ;
#758 = ORIENTED_EDGE ( 'NONE', *, *, #455, .T. ) ;
#759 = CARTESIAN_POINT ( 'NONE',  ( 22.50000000000000000, 0.000000000000000000, 25.00000000000001421 ) ) ;
#760 = VERTEX_POINT ( 'NONE', #877 ) ;
#761 = CARTESIAN_POINT ( 'NONE',  ( -29.99999999999998934, 29.99999999999999645, 5.000000000000000000 ) ) ;
#762 = EDGE_CURVE ( 'NONE', #399, #812, #229, .T. ) ;
#763 = ORIENTED_EDGE ( 'NONE', *, *, #361, .T. ) ;
#764 = CYLINDRICAL_SURFACE ( 'NONE', #682, 1.649999999999998579 ) ;
#765 = ORIENTED_EDGE ( 'NONE', *, *, #568, .T. ) ;
#766 = CIRCLE ( 'NONE', #364, 1.649999999999998579 ) ;
#767 = CARTESIAN_POINT ( 'NONE',  ( 0.000000000000000000, 10.00000000000000000, 0.000000000000000000 ) ) ;
#768 = ORIENTED_EDGE ( 'NONE', *, *, #1101, .F. ) ;
#769 = LINE ( 'NONE', #453, #692 ) ;
#770 = EDGE_CURVE ( 'NONE', #991, #319, #150, .T. ) ;
#771 = VERTEX_POINT ( 'NONE', #1311 ) ;
#772 = DIRECTION ( 'NONE',  ( -0.000000000000000000, -1.000000000000000000, -0.000000000000000000 ) ) ;
#773 = VERTEX_POINT ( 'NONE', #759 ) ;
#774 = CARTESIAN_POINT ( 'NONE',  ( -22.50000000000000000, -19.99999999999999645, 25.00000000000000000 ) ) ;
#775 = ORIENTED_EDGE ( 'NONE', *, *, #837, .F. ) ;
#776 = FACE_BOUND ( 'NONE', #286, .T. ) ;
#777 = AXIS2_PLACEMENT_3D ( 'NONE', #996, #792, #900 ) ;
#778 = ORIENTED_EDGE ( 'NONE', *, *, #153, .T. ) ;
#779 = DIRECTION ( 'NONE',  ( -0.000000000000000000, -0.000000000000000000, 1.000000000000000000 ) ) ;
#780 = ORIENTED_EDGE ( 'NONE', *, *, #633, .T. ) ;
#781 = ADVANCED_FACE ( 'NONE', ( #1318 ), #862, .T. ) ;
#782 = DIRECTION ( 'NONE',  ( -1.156482317317873105E-15, 0.000000000000000000, -1.000000000000000000 ) ) ;
#783 = ORIENTED_EDGE ( 'NONE', *, *, #332, .T. ) ;
#784 = LINE ( 'NONE', #31, #840 ) ;
#785 = EDGE_LOOP ( 'NONE', ( #1096, #571, #1027, #897 ) ) ;
#786 = DIRECTION ( 'NONE',  ( -0.000000000000000000, -0.000000000000000000, 1.000000000000000000 ) ) ;
#787 = ORIENTED_EDGE ( 'NONE', *, *, #744, .F. ) ;
#788 = PRODUCT_DEFINITION ( 'UNKNOWN', '', #1038, #1052 ) ;
#789 = LINE ( 'NONE', #345, #454 ) ;
#790 = VERTEX_POINT ( 'NONE', #1231 ) ;
#791 = VECTOR ( 'NONE', #1155, 1000.000000000000000 ) ;
#792 = DIRECTION ( 'NONE',  ( 0.000000000000000000, -1.000000000000000000, 0.000000000000000000 ) ) ;
#793 = CARTESIAN_POINT ( 'NONE',  ( -2.249999999999999556, 22.50000000000000000, 0.000000000000000000 ) ) ;
#794 = CARTESIAN_POINT ( 'NONE',  ( 30.49999999999999289, -19.99999999999999645, 25.00000000000001421 ) ) ;
#795 = ORIENTED_EDGE ( 'NONE', *, *, #555, .T. ) ;
#796 = LINE ( 'NONE', #275, #800 ) ;
#797 = ADVANCED_FACE ( 'NONE', ( #702 ), #242, .F. ) ;
#798 = CARTESIAN_POINT ( 'NONE',  ( 30.00000000000000355, -29.99999999999999645, 5.000000000000000000 ) ) ;
#799 = CARTESIAN_POINT ( 'NONE',  ( 22.50000000000000000, -19.99999999999999645, 25.00000000000001421 ) ) ;
#800 = VECTOR ( 'NONE', #289, 1000.000000000000000 ) ;
#801 = ORIENTED_EDGE ( 'NONE', *, *, #1032, .F. ) ;
#802 = DIRECTION ( 'NONE',  ( -0.000000000000000000, -0.000000000000000000, 1.000000000000000000 ) ) ;
#803 = EDGE_CURVE ( 'NONE', #32, #1073, #1233, .T. ) ;
#804 = DIRECTION ( 'NONE',  ( 1.000000000000000000, 0.000000000000000000, 0.000000000000000000 ) ) ;
#805 = DIRECTION ( 'NONE',  ( 0.000000000000000000, -1.000000000000000000, 0.000000000000000000 ) ) ;
#806 = ORIENTED_EDGE ( 'NONE', *, *, #1151, .T. ) ;
#807 = AXIS2_PLACEMENT_3D ( 'NONE', #548, #360, #1083 ) ;
#808 = CIRCLE ( 'NONE', #1142, 19.10000000000000142 ) ;
#809 = CARTESIAN_POINT ( 'NONE',  ( -29.99999999999998934, 29.99999999999999645, 0.000000000000000000 ) ) ;
#810 = CARTESIAN_POINT ( 'NONE',  ( 28.14999999999999858, -24.99999999999999289, -0.001000000000001000089 ) ) ;
#811 = EDGE_CURVE ( 'NONE', #1226, #865, #971, .T. ) ;
#812 = VERTEX_POINT ( 'NONE', #450 ) ;
#813 = FACE_BOUND ( 'NONE', #136, .T. ) ;
#814 = CARTESIAN_POINT ( 'NONE',  ( -30.49999999999997158, 10.00000000000000000, 25.00000000000000711 ) ) ;
#815 = DIRECTION ( 'NONE',  ( 0.000000000000000000, 1.000000000000000000, 0.000000000000000000 ) ) ;
#816 = DIRECTION ( 'NONE',  ( -1.000000000000000000, 0.000000000000000000, 0.000000000000000000 ) ) ;
#817 = EDGE_LOOP ( 'NONE', ( #727, #1078 ) ) ;
#818 = CARTESIAN_POINT ( 'NONE',  ( -30.49999999999997158, 10.00000000000000000, 25.00000000000000711 ) ) ;
#819 = VECTOR ( 'NONE', #1261, 1000.000000000000000 ) ;
#820 = CIRCLE ( 'NONE', #1312, 2.250000000001230127 ) ;
#821 = EDGE_CURVE ( 'NONE', #1309, #1166, #1097, .T. ) ;
#822 = DIRECTION ( 'NONE',  ( -1.000000000000000000, 0.000000000000000000, 0.000000000000000000 ) ) ;
#823 = DIRECTION ( 'NONE',  ( -1.000000000000000000, 0.000000000000000000, -1.541976423090496373E-16 ) ) ;
#824 = DIRECTION ( 'NONE',  ( -1.000000000000000000, 0.000000000000000000, -1.734723475976806848E-16 ) ) ;
#825 = ORIENTED_EDGE ( 'NONE', *, *, #970, .F. ) ;
#826 = LINE ( 'NONE', #77, #939 ) ;
#827 = ADVANCED_FACE ( 'NONE', ( #987 ), #338, .F. ) ;
#828 = PLANE ( 'NONE',  #719 ) ;
#829 = PLANE ( 'NONE',  #1020 ) ;
#830 = PLANE ( 'NONE',  #728 ) ;
#831 = AXIS2_PLACEMENT_3D ( 'NONE', #504, #721, #839 ) ;
#832 = UNCERTAINTY_MEASURE_WITH_UNIT (LENGTH_MEASURE( 1.000000000000000082E-05 ), #1193, 'distance_accuracy_value', 'NONE');
#833 = ORIENTED_EDGE ( 'NONE', *, *, #1339, .F. ) ;
#834 = DIRECTION ( 'NONE',  ( -0.000000000000000000, -0.000000000000000000, 1.000000000000000000 ) ) ;
#835 = DIRECTION ( 'NONE',  ( 0.000000000000000000, 0.000000000000000000, 1.000000000000000000 ) ) ;
#836 = CARTESIAN_POINT ( 'NONE',  ( 30.00000000000000355, -29.99999999999999645, 0.000000000000000000 ) ) ;
#837 = EDGE_CURVE ( 'NONE', #1285, #327, #518, .T. ) ;
#838 = ORIENTED_EDGE ( 'NONE', *, *, #1206, .F. ) ;
#839 = DIRECTION ( 'NONE',  ( -1.000000000000000000, 0.000000000000000000, -0.000000000000000000 ) ) ;
#840 = VECTOR ( 'NONE', #363, 1000.000000000000000 ) ;
#841 = AXIS2_PLACEMENT_3D ( 'NONE', #1010, #1033, #297 ) ;
#842 = CARTESIAN_POINT ( 'NONE',  ( -22.49999999999999645, -19.99999999999999645, 4.999999999999999112 ) ) ;
#843 = CARTESIAN_POINT ( 'NONE',  ( 0.000000000000000000, -19.99999999999999645, 28.00000000000000000 ) ) ;
#844 = EDGE_CURVE ( 'NONE', #988, #925, #1197, .T. ) ;
#845 = EDGE_LOOP ( 'NONE', ( #250, #368, #161, #787 ) ) ;
#846 = LINE ( 'NONE', #111, #743 ) ;
#847 = ORIENTED_EDGE ( 'NONE', *, *, #1014, .T. ) ;
#848 = CYLINDRICAL_SURFACE ( 'NONE', #430, 1.649999999999998579 ) ;
#849 = DIRECTION ( 'NONE',  ( -0.000000000000000000, -0.000000000000000000, 1.000000000000000000 ) ) ;
#850 = VERTEX_POINT ( 'NONE', #979 ) ;
#851 = FACE_OUTER_BOUND ( 'NONE', #609, .T. ) ;
#852 = ADVANCED_FACE ( 'NONE', ( #141 ), #28, .F. ) ;
#853 = VECTOR ( 'NONE', #1359, 1000.000000000000000 ) ;
#854 = ORIENTED_EDGE ( 'NONE', *, *, #72, .T. ) ;
#855 = STYLED_ITEM ( 'NONE', ( #254 ), #1147 ) ;
#856 = FACE_OUTER_BOUND ( 'NONE', #686, .T. ) ;
#857 = FACE_OUTER_BOUND ( 'NONE', #1230, .T. ) ;
#858 = ORIENTED_EDGE ( 'NONE', *, *, #393, .T. ) ;
#859 = CARTESIAN_POINT ( 'NONE',  ( -19.48557158514844545, -11.25000000000082245, 0.000000000000000000 ) ) ;
#860 = ORIENTED_EDGE ( 'NONE', *, *, #1007, .T. ) ;
#861 = EDGE_CURVE ( 'NONE', #51, #561, #354, .T. ) ;
#862 = PLANE ( 'NONE',  #1253 ) ;
#863 = AXIS2_PLACEMENT_3D ( 'NONE', #1003, #1320, #1191 ) ;
#864 = CARTESIAN_POINT ( 'NONE',  ( -29.99999999999998934, -29.99999999999999645, 28.00000000000000000 ) ) ;
#865 = VERTEX_POINT ( 'NONE', #964 ) ;
#866 = CARTESIAN_POINT ( 'NONE',  ( -22.50000000000000000, -19.99999999999999645, 25.00000000000000000 ) ) ;
#867 = ORIENTED_EDGE ( 'NONE', *, *, #181, .T. ) ;
#868 = DIRECTION ( 'NONE',  ( 1.000000000000000000, 0.000000000000000000, 0.000000000000000000 ) ) ;
#869 = ORIENTED_EDGE ( 'NONE', *, *, #198, .T. ) ;
#870 = EDGE_CURVE ( 'NONE', #32, #314, #249, .T. ) ;
#871 = CARTESIAN_POINT ( 'NONE',  ( 30.49999999999999645, 10.00000000000000000, 28.00000000000000000 ) ) ;
#872 = ADVANCED_FACE ( 'NONE', ( #892 ), #126, .F. ) ;
#873 = ORIENTED_EDGE ( 'NONE', *, *, #480, .T. ) ;
#874 = DIRECTION ( 'NONE',  ( 0.000000000000000000, 0.000000000000000000, 1.000000000000000000 ) ) ;
#875 = EDGE_LOOP ( 'NONE', ( #426, #763 ) ) ;
#876 = AXIS2_PLACEMENT_3D ( 'NONE', #303, #956, #431 ) ;
#877 = CARTESIAN_POINT ( 'NONE',  ( -21.73557158515024668, -11.25000000000082245, 5.000000000000000000 ) ) ;
#878 = ORIENTED_EDGE ( 'NONE', *, *, #258, .F. ) ;
#879 = DIRECTION ( 'NONE',  ( 1.000000000000000000, 0.000000000000000000, 0.000000000000000000 ) ) ;
#880 = EDGE_CURVE ( 'NONE', #483, #790, #135, .T. ) ;
#881 = DIRECTION ( 'NONE',  ( 0.000000000000000000, 0.000000000000000000, 1.000000000000000000 ) ) ;
#882 = CARTESIAN_POINT ( 'NONE',  ( 0.000000000000000000, 0.000000000000000000, 0.000000000000000000 ) ) ;
#883 = ORIENTED_EDGE ( 'NONE', *, *, #625, .T. ) ;
#884 = DIRECTION ( 'NONE',  ( 1.734723475976806848E-16, -0.000000000000000000, -1.000000000000000000 ) ) ;
#885 = VERTEX_POINT ( 'NONE', #1133 ) ;
#886 = CARTESIAN_POINT ( 'NONE',  ( 22.49999999999998224, -29.99999999999999645, 5.000000000000000000 ) ) ;
#887 = VECTOR ( 'NONE', #549, 1000.000000000000000 ) ;
#888 = ORIENTED_EDGE ( 'NONE', *, *, #419, .F. ) ;
#889 = SURFACE_STYLE_USAGE ( .BOTH. , #139 ) ;
#890 = EDGE_CURVE ( 'NONE', #1166, #1309, #766, .T. ) ;
#891 = ORIENTED_EDGE ( 'NONE', *, *, #753, .F. ) ;
#892 = FACE_OUTER_BOUND ( 'NONE', #256, .T. ) ;
#893 = VERTEX_POINT ( 'NONE', #511 ) ;
#894 = CARTESIAN_POINT ( 'NONE',  ( 30.00000000000000355, -29.99999999999999645, 5.000000000000000000 ) ) ;
#895 = CARTESIAN_POINT ( 'NONE',  ( 30.49999999999999289, -19.99999999999999645, 25.00000000000001421 ) ) ;
#896 = LINE ( 'NONE', #902, #498 ) ;
#897 = ORIENTED_EDGE ( 'NONE', *, *, #1348, .F. ) ;
#898 = ORIENTED_EDGE ( 'NONE', *, *, #660, .T. ) ;
#899 = VECTOR ( 'NONE', #287, 1000.000000000000000 ) ;
#900 = DIRECTION ( 'NONE',  ( 0.000000000000000000, 0.000000000000000000, -1.000000000000000000 ) ) ;
#901 = VERTEX_POINT ( 'NONE', #734 ) ;
#902 = CARTESIAN_POINT ( 'NONE',  ( -19.09999999999999076, -29.99999999999999289, 28.00000000000000000 ) ) ;
#903 = EDGE_LOOP ( 'NONE', ( #1192, #953, #629, #742 ) ) ;
#904 = EDGE_CURVE ( 'NONE', #359, #1201, #517, .T. ) ;
#905 = DIRECTION ( 'NONE',  ( 1.000000000000000000, 0.000000000000000000, 0.000000000000000000 ) ) ;
#906 = CARTESIAN_POINT ( 'NONE',  ( -30.49999999999999289, -19.99999999999999645, 28.00000000000000000 ) ) ;
#907 = DIRECTION ( 'NONE',  ( -0.000000000000000000, -1.000000000000000000, -0.000000000000000000 ) ) ;
#908 = VECTOR ( 'NONE', #101, 1000.000000000000000 ) ;
#909 = EDGE_LOOP ( 'NONE', ( #1265, #1299, #1105, #106 ) ) ;
#910 = CARTESIAN_POINT ( 'NONE',  ( 30.49999999999999289, 10.00000000000000000, 25.00000000000001421 ) ) ;
#911 = EDGE_CURVE ( 'NONE', #750, #319, #406, .T. ) ;
#912 = CARTESIAN_POINT ( 'NONE',  ( 2.249999999999999556, 22.50000000000000000, 5.000000000000000000 ) ) ;
#913 = CARTESIAN_POINT ( 'NONE',  ( 30.49999999999999289, -19.99999999999999645, 25.00000000000001421 ) ) ;
#914 = VERTEX_POINT ( 'NONE', #497 ) ;
#915 = CYLINDRICAL_SURFACE ( 'NONE', #78, 1.649999999999998579 ) ;
#916 = CARTESIAN_POINT ( 'NONE',  ( -30.49999999999997158, 0.000000000000000000, 25.00000000000000711 ) ) ;
#917 = AXIS2_PLACEMENT_3D ( 'NONE', #866, #435, #740 ) ;
#918 = LINE ( 'NONE', #89, #643 ) ;
#919 = EDGE_CURVE ( 'NONE', #1166, #473, #610, .T. ) ;
#920 = ORIENTED_EDGE ( 'NONE', *, *, #821, .F. ) ;
#921 = CARTESIAN_POINT ( 'NONE',  ( 22.50000000000000000, 10.00000000000000000, 25.00000000000001421 ) ) ;
#922 = CARTESIAN_POINT ( 'NONE',  ( -22.49999999999997868, 10.00000000000000000, 25.00000000000000711 ) ) ;
#923 = DIRECTION ( 'NONE',  ( 0.000000000000000000, 0.000000000000000000, 1.000000000000000000 ) ) ;
#924 = CARTESIAN_POINT ( 'NONE',  ( 22.50000000000000000, -29.99999999999999645, 25.00000000000001421 ) ) ;
#925 = VERTEX_POINT ( 'NONE', #386 ) ;
#926 = PLANE ( 'NONE',  #1344 ) ;
#927 = AXIS2_PLACEMENT_3D ( 'NONE', #417, #543, #310 ) ;
#928 = ADVANCED_FACE ( 'NONE', ( #1251, #596, #85, #729, #813 ), #1028, .F. ) ;
#929 = AXIS2_PLACEMENT_3D ( 'NONE', #348, #690, #1004 ) ;
#930 = FACE_OUTER_BOUND ( 'NONE', #639, .T. ) ;
#931 = CARTESIAN_POINT ( 'NONE',  ( 30.00000000000000355, -29.99999999999999645, 5.000000000000000000 ) ) ;
#932 = CARTESIAN_POINT ( 'NONE',  ( 0.000000000000000000, 0.000000000000000000, 28.00000000000000000 ) ) ;
#933 = ORIENTED_EDGE ( 'NONE', *, *, #214, .F. ) ;
#934 = CARTESIAN_POINT ( 'NONE',  ( -30.49999999999997868, 10.00000000000000000, 31.00000000000000000 ) ) ;
#935 = ADVANCED_FACE ( 'NONE', ( #1042, #92 ), #926, .T. ) ;
#936 = CARTESIAN_POINT ( 'NONE',  ( 30.49999999999999289, 10.00000000000000000, 25.00000000000001421 ) ) ;
#937 = CARTESIAN_POINT ( 'NONE',  ( 0.000000000000000000, 0.000000000000000000, 28.00000000000000000 ) ) ;
#938 = FACE_OUTER_BOUND ( 'NONE', #213, .T. ) ;
#939 = VECTOR ( 'NONE', #941, 1000.000000000000000 ) ;
#940 = ORIENTED_EDGE ( 'NONE', *, *, #134, .F. ) ;
#941 = DIRECTION ( 'NONE',  ( 1.734723475976806848E-16, -0.000000000000000000, -1.000000000000000000 ) ) ;
#942 = DIRECTION ( 'NONE',  ( 1.000000000000000000, 0.000000000000000000, 0.000000000000000000 ) ) ;
#943 = EDGE_CURVE ( 'NONE', #469, #893, #1153, .T. ) ;
#944 = CYLINDRICAL_SURFACE ( 'NONE', #1352, 19.10000000000000142 ) ;
#945 = ORIENTED_EDGE ( 'NONE', *, *, #1306, .T. ) ;
#946 = FILL_AREA_STYLE ('',( #524 ) ) ;
#947 = VERTEX_POINT ( 'NONE', #400 ) ;
#948 = CIRCLE ( 'NONE', #1198, 1.649999999999998579 ) ;
#949 = CARTESIAN_POINT ( 'NONE',  ( -29.99999999999998934, -29.99999999999999645, 28.00000000000000000 ) ) ;
#950 = ADVANCED_FACE ( 'NONE', ( #70 ), #915, .F. ) ;
#951 = CARTESIAN_POINT ( 'NONE',  ( -30.49999999999999289, -19.99999999999999645, 25.00000000000000000 ) ) ;
#952 = EDGE_CURVE ( 'NONE', #865, #750, #826, .T. ) ;
#953 = ORIENTED_EDGE ( 'NONE', *, *, #280, .F. ) ;
#954 = CARTESIAN_POINT ( 'NONE',  ( -29.99999999999998934, -29.99999999999999645, 5.000000000000000000 ) ) ;
#955 = ORIENTED_EDGE ( 'NONE', *, *, #401, .F. ) ;
#956 = DIRECTION ( 'NONE',  ( 0.000000000000000000, 0.000000000000000000, 1.000000000000000000 ) ) ;
#957 = CARTESIAN_POINT ( 'NONE',  ( 26.50000000000000000, -24.99999999999999289, 28.00000000000000000 ) ) ;
#958 = ORIENTED_EDGE ( 'NONE', *, *, #703, .T. ) ;
#959 = CARTESIAN_POINT ( 'NONE',  ( 1.040834085586084257E-14, -19.99999999999999645, 28.00000000000000711 ) ) ;
#960 = VECTOR ( 'NONE', #707, 1000.000000000000000 ) ;
#961 = EDGE_CURVE ( 'NONE', #901, #1237, #279, .T. ) ;
#962 = ORIENTED_EDGE ( 'NONE', *, *, #206, .T. ) ;
#963 = AXIS2_PLACEMENT_3D ( 'NONE', #1322, #60, #1308 ) ;
#964 = CARTESIAN_POINT ( 'NONE',  ( -22.50000000000000000, -19.99999999999999645, 25.00000000000000000 ) ) ;
#965 = DIRECTION ( 'NONE',  ( -1.000000000000000000, 0.000000000000000000, -1.541976423090496373E-16 ) ) ;
#966 = SHAPE_DEFINITION_REPRESENTATION ( #1370, #199 ) ;
#967 = ORIENTED_EDGE ( 'NONE', *, *, #39, .F. ) ;
#968 = DIRECTION ( 'NONE',  ( 1.000000000000000000, 0.000000000000000000, 0.000000000000000000 ) ) ;
#969 = VERTEX_POINT ( 'NONE', #1146 ) ;
#970 = EDGE_CURVE ( 'NONE', #583, #901, #308, .T. ) ;
#971 = LINE ( 'NONE', #774, #56 ) ;
#972 = VECTOR ( 'NONE', #536, 1000.000000000000000 ) ;
#973 = ORIENTED_EDGE ( 'NONE', *, *, #961, .T. ) ;
#974 = DIRECTION ( 'NONE',  ( 0.000000000000000000, 0.000000000000000000, 1.000000000000000000 ) ) ;
#975 = APPLICATION_PROTOCOL_DEFINITION ( 'draft international standard', 'automotive_design', 1998, #1290 ) ;
#976 = ORIENTED_EDGE ( 'NONE', *, *, #419, .T. ) ;
#977 = LINE ( 'NONE', #757, #367 ) ;
#978 = ORIENTED_EDGE ( 'NONE', *, *, #265, .T. ) ;
#979 = CARTESIAN_POINT ( 'NONE',  ( 30.49999999999999645, -29.99999999999999645, 28.00000000000000000 ) ) ;
#980 = ORIENTED_EDGE ( 'NONE', *, *, #770, .F. ) ;
#981 = DIRECTION ( 'NONE',  ( 0.000000000000000000, -1.000000000000000000, 0.000000000000000000 ) ) ;
#982 = ORIENTED_EDGE ( 'NONE', *, *, #616, .F. ) ;
#983 = LINE ( 'NONE', #691, #611 ) ;
#984 = ORIENTED_EDGE ( 'NONE', *, *, #870, .F. ) ;
#985 = VECTOR ( 'NONE', #1343, 1000.000000000000000 ) ;
#986 = VECTOR ( 'NONE', #19, 1000.000000000000000 ) ;
#987 = FACE_OUTER_BOUND ( 'NONE', #645, .T. ) ;
#988 = VERTEX_POINT ( 'NONE', #921 ) ;
#989 = CARTESIAN_POINT ( 'NONE',  ( -28.14999999999998792, -24.99999999999999289, 25.00000000000000000 ) ) ;
#990 = EDGE_CURVE ( 'NONE', #51, #467, #1350, .T. ) ;
#991 = VERTEX_POINT ( 'NONE', #1139 ) ;
#992 = CYLINDRICAL_SURFACE ( 'NONE', #324, 1.649999999999998579 ) ;
#993 = ORIENTED_EDGE ( 'NONE', *, *, #753, .T. ) ;
#994 = DIRECTION ( 'NONE',  ( 0.000000000000000000, -0.000000000000000000, -1.000000000000000000 ) ) ;
#995 = VERTEX_POINT ( 'NONE', #185 ) ;
#996 = CARTESIAN_POINT ( 'NONE',  ( 1.040834085586084257E-14, 0.000000000000000000, 28.00000000000000711 ) ) ;
#997 = VECTOR ( 'NONE', #965, 1000.000000000000000 ) ;
#998 = VECTOR ( 'NONE', #1143, 1000.000000000000000 ) ;
#999 = ORIENTED_EDGE ( 'NONE', *, *, #1101, .T. ) ;
#1000 = CARTESIAN_POINT ( 'NONE',  ( 22.49999999999999645, -19.99999999999999645, 5.000000000000026645 ) ) ;
#1001 = VERTEX_POINT ( 'NONE', #192 ) ;
#1002 = ORIENTED_EDGE ( 'NONE', *, *, #401, .T. ) ;
#1003 = CARTESIAN_POINT ( 'NONE',  ( 0.000000000000000000, 0.000000000000000000, 28.00000000000000000 ) ) ;
#1004 = DIRECTION ( 'NONE',  ( 1.000000000000000000, 0.000000000000000000, 0.000000000000000000 ) ) ;
#1005 = FACE_OUTER_BOUND ( 'NONE', #203, .T. ) ;
#1006 = ORIENTED_EDGE ( 'NONE', *, *, #1013, .F. ) ;
#1007 = EDGE_CURVE ( 'NONE', #1157, #713, #1363, .T. ) ;
#1008 = VECTOR ( 'NONE', #468, 1000.000000000000000 ) ;
#1009 = CARTESIAN_POINT ( 'NONE',  ( 24.85000000000000142, 5.000000000000000000, 28.00000000000000000 ) ) ;
#1010 = CARTESIAN_POINT ( 'NONE',  ( 0.000000000000000000, 22.50000000000000000, 0.000000000000000000 ) ) ;
#1011 =( NAMED_UNIT ( * ) SI_UNIT ( $, .STERADIAN. ) SOLID_ANGLE_UNIT ( ) );
#1012 = ORIENTED_EDGE ( 'NONE', *, *, #961, .F. ) ;
#1013 = EDGE_CURVE ( 'NONE', #735, #713, #1187, .T. ) ;
#1014 = EDGE_CURVE ( 'NONE', #385, #850, #232, .T. ) ;
#1015 = AXIS2_PLACEMENT_3D ( 'NONE', #202, #1184, #128 ) ;
#1016 = CARTESIAN_POINT ( 'NONE',  ( 0.000000000000000000, 22.50000000000000000, 0.000000000000000000 ) ) ;
#1017 = AXIS2_PLACEMENT_3D ( 'NONE', #71, #1221, #491 ) ;
#1018 = DIRECTION ( 'NONE',  ( 0.000000000000000000, -0.000000000000000000, 1.000000000000000000 ) ) ;
#1019 = LINE ( 'NONE', #913, #1080 ) ;
#1020 = AXIS2_PLACEMENT_3D ( 'NONE', #81, #1353, #397 ) ;
#1021 = ORIENTED_EDGE ( 'NONE', *, *, #890, .T. ) ;
#1022 = DIRECTION ( 'NONE',  ( -1.000000000000000000, 0.000000000000000000, -0.000000000000000000 ) ) ;
#1023 = CARTESIAN_POINT ( 'NONE',  ( 19.10000000000001208, 10.00000000000000000, 28.00000000000000000 ) ) ;
#1024 = EDGE_CURVE ( 'NONE', #391, #411, #13, .T. ) ;
#1025 = FACE_OUTER_BOUND ( 'NONE', #909, .T. ) ;
#1026 = DIRECTION ( 'NONE',  ( -1.000000000000000000, 0.000000000000000000, 0.000000000000000000 ) ) ;
#1027 = ORIENTED_EDGE ( 'NONE', *, *, #64, .F. ) ;
#1028 = PLANE ( 'NONE',  #831 ) ;
#1029 = DIRECTION ( 'NONE',  ( 0.000000000000000000, 0.000000000000000000, 1.000000000000000000 ) ) ;
#1030 = VECTOR ( 'NONE', #1158, 1000.000000000000000 ) ;
#1031 = CIRCLE ( 'NONE', #963, 1.649999999999998579 ) ;
#1032 = EDGE_CURVE ( 'NONE', #595, #561, #646, .T. ) ;
#1033 = DIRECTION ( 'NONE',  ( -0.000000000000000000, -0.000000000000000000, 1.000000000000000000 ) ) ;
#1034 = CARTESIAN_POINT ( 'NONE',  ( -29.99999999999998934, -29.99999999999999645, 0.000000000000000000 ) ) ;
#1035 = EDGE_LOOP ( 'NONE', ( #1294, #353 ) ) ;
#1036 = DIRECTION ( 'NONE',  ( 1.000000000000000000, 0.000000000000000000, 0.000000000000000000 ) ) ;
#1037 = DIRECTION ( 'NONE',  ( -1.000000000000000000, 0.000000000000000000, 0.000000000000000000 ) ) ;
#1038 = PRODUCT_DEFINITION_FORMATION_WITH_SPECIFIED_SOURCE ( 'ANY', '', #612, .NOT_KNOWN. ) ;
#1039 = FACE_BOUND ( 'NONE', #196, .T. ) ;
#1040 = DIRECTION ( 'NONE',  ( -0.000000000000000000, -0.000000000000000000, 1.000000000000000000 ) ) ;
#1041 = ORIENTED_EDGE ( 'NONE', *, *, #821, .T. ) ;
#1042 = FACE_BOUND ( 'NONE', #817, .T. ) ;
#1043 = VECTOR ( 'NONE', #1037, 1000.000000000000000 ) ;
#1044 = CARTESIAN_POINT ( 'NONE',  ( -17.23557158514664067, -11.25000000000082245, 5.000000000000000000 ) ) ;
#1045 = DIRECTION ( 'NONE',  ( 5.204170427930424241E-16, 0.000000000000000000, -1.000000000000000000 ) ) ;
#1046 = DIRECTION ( 'NONE',  ( 1.000000000000000000, 0.000000000000000000, 0.000000000000000000 ) ) ;
#1047 = ORIENTED_EDGE ( 'NONE', *, *, #248, .F. ) ;
#1048 = DIRECTION ( 'NONE',  ( -1.000000000000000000, -0.000000000000000000, -0.000000000000000000 ) ) ;
#1049 = ADVANCED_FACE ( 'NONE', ( #1293, #659 ), #1074, .T. ) ;
#1050 = DIRECTION ( 'NONE',  ( -0.000000000000000000, -0.000000000000000000, -1.000000000000000000 ) ) ;
#1051 = PLANE ( 'NONE',  #1287 ) ;
#1052 = PRODUCT_DEFINITION_CONTEXT ( 'detailed design', #1290, 'design' ) ;
#1053 = EDGE_LOOP ( 'NONE', ( #247, #330 ) ) ;
#1054 = DIRECTION ( 'NONE',  ( 0.000000000000000000, -1.000000000000000000, 0.000000000000000000 ) ) ;
#1055 = VERTEX_POINT ( 'NONE', #123 ) ;
#1056 = ADVANCED_FACE ( 'NONE', ( #26 ), #1279, .F. ) ;
#1057 = FACE_BOUND ( 'NONE', #540, .T. ) ;
#1058 = LINE ( 'NONE', #530, #527 ) ;
#1059 = EDGE_LOOP ( 'NONE', ( #371, #191, #122, #967 ) ) ;
#1060 = DIRECTION ( 'NONE',  ( -0.000000000000000000, -0.000000000000000000, 1.000000000000000000 ) ) ;
#1061 = VECTOR ( 'NONE', #710, 1000.000000000000000 ) ;
#1062 = ORIENTED_EDGE ( 'NONE', *, *, #519, .F. ) ;
#1063 = VECTOR ( 'NONE', #675, 1000.000000000000000 ) ;
#1064 = CARTESIAN_POINT ( 'NONE',  ( -29.99999999999998934, 29.99999999999999645, 5.000000000000000000 ) ) ;
#1065 = CARTESIAN_POINT ( 'NONE',  ( 1.040834085586084257E-14, -29.99999999999999289, 28.00000000000000711 ) ) ;
#1066 = EDGE_CURVE ( 'NONE', #1369, #436, #209, .T. ) ;
#1067 = ORIENTED_EDGE ( 'NONE', *, *, #437, .F. ) ;
#1068 = DIRECTION ( 'NONE',  ( 1.000000000000000000, 0.000000000000000000, 0.000000000000000000 ) ) ;
#1069 = ORIENTED_EDGE ( 'NONE', *, *, #393, .F. ) ;
#1070 = CARTESIAN_POINT ( 'NONE',  ( 21.73557158515253107, -11.24999999999917044, 5.000000000000000000 ) ) ;
#1071 = CARTESIAN_POINT ( 'NONE',  ( -19.09999999999999076, -19.99999999999999645, 28.00000000000000000 ) ) ;
#1072 = EDGE_CURVE ( 'NONE', #233, #969, #808, .T. ) ;
#1073 = VERTEX_POINT ( 'NONE', #1300 ) ;
#1074 = PLANE ( 'NONE',  #917 ) ;
#1075 = ORIENTED_EDGE ( 'NONE', *, *, #1177, .T. ) ;
#1076 = CARTESIAN_POINT ( 'NONE',  ( 19.48557158515130183, -11.24999999999917044, 0.000000000000000000 ) ) ;
#1077 = FACE_OUTER_BOUND ( 'NONE', #337, .T. ) ;
#1078 = ORIENTED_EDGE ( 'NONE', *, *, #584, .T. ) ;
#1079 = DIRECTION ( 'NONE',  ( 1.000000000000000000, 0.000000000000000000, 0.000000000000000000 ) ) ;
#1080 = VECTOR ( 'NONE', #382, 1000.000000000000000 ) ;
#1081 = ORIENTED_EDGE ( 'NONE', *, *, #49, .F. ) ;
#1082 = EDGE_CURVE ( 'NONE', #1073, #205, #977, .T. ) ;
#1083 = DIRECTION ( 'NONE',  ( 1.000000000000000000, 0.000000000000000000, 0.000000000000000000 ) ) ;
#1084 = AXIS2_PLACEMENT_3D ( 'NONE', #152, #127, #688 ) ;
#1085 = ORIENTED_EDGE ( 'NONE', *, *, #198, .F. ) ;
#1086 = DIRECTION ( 'NONE',  ( 0.000000000000000000, 0.000000000000000000, 1.000000000000000000 ) ) ;
#1087 = ORIENTED_EDGE ( 'NONE', *, *, #437, .T. ) ;
#1088 = CARTESIAN_POINT ( 'NONE',  ( 22.50000000000000000, -29.99999999999999645, 25.00000000000001421 ) ) ;
#1089 = ORIENTED_EDGE ( 'NONE', *, *, #1326, .T. ) ;
#1090 = EDGE_CURVE ( 'NONE', #399, #1313, #846, .T. ) ;
#1091 = CARTESIAN_POINT ( 'NONE',  ( 26.50000000000000000, 5.000000000000000000, 25.00000000000001421 ) ) ;
#1092 = VERTEX_POINT ( 'NONE', #421 ) ;
#1093 = LINE ( 'NONE', #1108, #394 ) ;
#1094 = DIRECTION ( 'NONE',  ( -0.000000000000000000, -0.000000000000000000, -1.000000000000000000 ) ) ;
#1095 = CARTESIAN_POINT ( 'NONE',  ( -30.49999999999997513, 10.00000000000000000, 28.00000000000000000 ) ) ;
#1096 = ORIENTED_EDGE ( 'NONE', *, *, #584, .F. ) ;
#1097 = CIRCLE ( 'NONE', #1276, 1.649999999999998579 ) ;
#1098 = MECHANICAL_DESIGN_GEOMETRIC_PRESENTATION_REPRESENTATION (  '', ( #855 ), #295 ) ;
#1099 = CARTESIAN_POINT ( 'NONE',  ( 0.000000000000000000, 22.50000000000000000, 0.000000000000000000 ) ) ;
#1100 = ORIENTED_EDGE ( 'NONE', *, *, #83, .F. ) ;
#1101 = EDGE_CURVE ( 'NONE', #335, #319, #1271, .T. ) ;
#1102 = PLANE ( 'NONE',  #1084 ) ;
#1103 = EDGE_LOOP ( 'NONE', ( #97, #37, #1089, #1356, #768, #300, #1112, #656, #1292, #133, #1107, #847, #878, #1175 ) ) ;
#1104 = DIRECTION ( 'NONE',  ( -0.000000000000000000, 1.000000000000000000, -0.000000000000000000 ) ) ;
#1105 = ORIENTED_EDGE ( 'NONE', *, *, #1364, .T. ) ;
#1106 = AXIS2_PLACEMENT_3D ( 'NONE', #1144, #501, #183 ) ;
#1107 = ORIENTED_EDGE ( 'NONE', *, *, #1281, .T. ) ;
#1108 = CARTESIAN_POINT ( 'NONE',  ( 17.23557158515007259, -11.24999999999917044, 0.000000000000000000 ) ) ;
#1109 = VECTOR ( 'NONE', #470, 1000.000000000000000 ) ;
#1110 = VECTOR ( 'NONE', #614, 1000.000000000000000 ) ;
#1111 = ADVANCED_FACE ( 'NONE', ( #851 ), #764, .F. ) ;
#1112 = ORIENTED_EDGE ( 'NONE', *, *, #1272, .T. ) ;
#1113 = CARTESIAN_POINT ( 'NONE',  ( 1.040834085586084257E-14, -29.99999999999999289, 28.00000000000000711 ) ) ;
#1114 = ORIENTED_EDGE ( 'NONE', *, *, #474, .T. ) ;
#1115 = CARTESIAN_POINT ( 'NONE',  ( 26.50000000000000000, 5.000000000000000000, -0.001000000000001000089 ) ) ;
#1116 = DIRECTION ( 'NONE',  ( -1.000000000000000000, 0.000000000000000000, 0.000000000000000000 ) ) ;
#1117 = FACE_BOUND ( 'NONE', #1053, .T. ) ;
#1118 = EDGE_CURVE ( 'NONE', #865, #991, #219, .T. ) ;
#1119 = EDGE_LOOP ( 'NONE', ( #663, #1323 ) ) ;
#1120 = ADVANCED_FACE ( 'NONE', ( #442 ), #1186, .F. ) ;
#1121 = VECTOR ( 'NONE', #1068, 1000.000000000000000 ) ;
#1122 = DIRECTION ( 'NONE',  ( -1.000000000000000000, 0.000000000000000000, 0.000000000000000000 ) ) ;
#1123 = DIRECTION ( 'NONE',  ( 1.000000000000000000, 0.000000000000000000, -0.000000000000000000 ) ) ;
#1124 = LINE ( 'NONE', #932, #129 ) ;
#1125 = ORIENTED_EDGE ( 'NONE', *, *, #1082, .F. ) ;
#1126 = DIRECTION ( 'NONE',  ( -0.000000000000000000, -0.000000000000000000, -1.000000000000000000 ) ) ;
#1127 = ADVANCED_FACE ( 'NONE', ( #131 ), #343, .F. ) ;
#1128 = DIRECTION ( 'NONE',  ( -0.000000000000000000, -0.000000000000000000, -1.000000000000000000 ) ) ;
#1129 = VECTOR ( 'NONE', #1122, 1000.000000000000000 ) ;
#1130 = CARTESIAN_POINT ( 'NONE',  ( -30.49999999999999289, -19.99999999999999645, 25.00000000000000000 ) ) ;
#1131 = VECTOR ( 'NONE', #815, 1000.000000000000000 ) ;
#1132 = ORIENTED_EDGE ( 'NONE', *, *, #241, .T. ) ;
#1133 = CARTESIAN_POINT ( 'NONE',  ( 30.00000000000000355, 29.99999999999999645, 5.000000000000000000 ) ) ;
#1134 = EDGE_CURVE ( 'NONE', #583, #405, #553, .T. ) ;
#1135 = CARTESIAN_POINT ( 'NONE',  ( 30.49999999999999289, 10.00000000000000000, 25.00000000000001421 ) ) ;
#1136 = CARTESIAN_POINT ( 'NONE',  ( -30.49999999999999289, -19.99999999999999645, 25.00000000000000000 ) ) ;
#1137 = CARTESIAN_POINT ( 'NONE',  ( -22.50000000000000000, -29.99999999999999645, 25.00000000000000000 ) ) ;
#1138 = EDGE_LOOP ( 'NONE', ( #441, #651, #158, #255 ) ) ;
#1139 = CARTESIAN_POINT ( 'NONE',  ( -22.50000000000000000, -29.99999999999999645, 25.00000000000000000 ) ) ;
#1140 = DIRECTION ( 'NONE',  ( -0.000000000000000000, -0.000000000000000000, 1.000000000000000000 ) ) ;
#1141 = AXIS2_PLACEMENT_3D ( 'NONE', #767, #655, #994 ) ;
#1142 = AXIS2_PLACEMENT_3D ( 'NONE', #959, #1054, #1286 ) ;
#1143 = DIRECTION ( 'NONE',  ( -1.156482317317873105E-15, 0.000000000000000000, -1.000000000000000000 ) ) ;
#1144 = CARTESIAN_POINT ( 'NONE',  ( -26.49999999999998934, -24.99999999999999289, 28.00000000000000000 ) ) ;
#1145 = ORIENTED_EDGE ( 'NONE', *, *, #803, .F. ) ;
#1146 = CARTESIAN_POINT ( 'NONE',  ( 19.10000000000001208, -19.99999999999999645, 28.00000000000000000 ) ) ;
#1147 = MANIFOLD_SOLID_BREP ( '•”•i•ªŠ„1[3]', #283 ) ;
#1148 = CARTESIAN_POINT ( 'NONE',  ( 24.85000000000000142, -24.99999999999999289, 28.00000000000000000 ) ) ;
#1149 = FACE_OUTER_BOUND ( 'NONE', #673, .T. ) ;
#1150 = DIRECTION ( 'NONE',  ( 1.734723475976808080E-16, 0.000000000000000000, 1.000000000000000000 ) ) ;
#1151 = EDGE_CURVE ( 'NONE', #478, #233, #896, .T. ) ;
#1152 = VERTEX_POINT ( 'NONE', #204 ) ;
#1153 = LINE ( 'NONE', #1266, #383 ) ;
#1154 = CIRCLE ( 'NONE', #551, 1.649999999999998579 ) ;
#1155 = DIRECTION ( 'NONE',  ( -1.734723475976808080E-16, 0.000000000000000000, -1.000000000000000000 ) ) ;
#1156 = DIRECTION ( 'NONE',  ( 1.000000000000000000, 0.000000000000000000, -0.000000000000000000 ) ) ;
#1157 = VERTEX_POINT ( 'NONE', #668 ) ;
#1158 = DIRECTION ( 'NONE',  ( 0.000000000000000000, -1.000000000000000000, 0.000000000000000000 ) ) ;
#1159 = EDGE_CURVE ( 'NONE', #327, #1285, #1031, .T. ) ;
#1160 = ORIENTED_EDGE ( 'NONE', *, *, #880, .F. ) ;
#1161 = EDGE_CURVE ( 'NONE', #750, #1001, #372, .T. ) ;
#1162 = FACE_OUTER_BOUND ( 'NONE', #420, .T. ) ;
#1163 = PLANE ( 'NONE',  #730 ) ;
#1164 = VECTOR ( 'NONE', #293, 1000.000000000000000 ) ;
#1165 = VECTOR ( 'NONE', #312, 1000.000000000000000 ) ;
#1166 = VERTEX_POINT ( 'NONE', #1225 ) ;
#1167 = CARTESIAN_POINT ( 'NONE',  ( -22.49999999999997868, 10.00000000000000000, 25.00000000000000711 ) ) ;
#1168 = ORIENTED_EDGE ( 'NONE', *, *, #206, .F. ) ;
#1169 = EDGE_CURVE ( 'NONE', #458, #443, #1210, .T. ) ;
#1170 = CARTESIAN_POINT ( 'NONE',  ( -22.49999999999997868, 0.000000000000000000, 25.00000000000000711 ) ) ;
#1171 = DIRECTION ( 'NONE',  ( -0.000000000000000000, -0.000000000000000000, 1.000000000000000000 ) ) ;
#1172 = ORIENTED_EDGE ( 'NONE', *, *, #72, .F. ) ;
#1173 = DIRECTION ( 'NONE',  ( -0.000000000000000000, -0.000000000000000000, 1.000000000000000000 ) ) ;
#1174 = AXIS2_PLACEMENT_3D ( 'NONE', #674, #1086, #356 ) ;
#1175 = ORIENTED_EDGE ( 'NONE', *, *, #1223, .T. ) ;
#1176 = CYLINDRICAL_SURFACE ( 'NONE', #1232, 1.649999999999998579 ) ;
#1177 = EDGE_CURVE ( 'NONE', #359, #27, #378, .T. ) ;
#1178 = DIRECTION ( 'NONE',  ( -1.000000000000000000, 0.000000000000000000, 0.000000000000000000 ) ) ;
#1179 = ORIENTED_EDGE ( 'NONE', *, *, #547, .F. ) ;
#1180 = DIRECTION ( 'NONE',  ( 0.000000000000000000, 0.000000000000000000, 1.000000000000000000 ) ) ;
#1181 = ORIENTED_EDGE ( 'NONE', *, *, #265, .F. ) ;
#1182 = DIRECTION ( 'NONE',  ( 1.000000000000000000, 0.000000000000000000, 0.000000000000000000 ) ) ;
#1183 = PLANE ( 'NONE',  #1174 ) ;
#1184 = DIRECTION ( 'NONE',  ( 0.000000000000000000, 0.000000000000000000, 1.000000000000000000 ) ) ;
#1185 = ORIENTED_EDGE ( 'NONE', *, *, #616, .T. ) ;
#1186 = PLANE ( 'NONE',  #79 ) ;
#1187 = CIRCLE ( 'NONE', #1212, 2.250000000001230127 ) ;
#1188 = ORIENTED_EDGE ( 'NONE', *, *, #258, .T. ) ;
#1189 = DIRECTION ( 'NONE',  ( 1.000000000000000000, 0.000000000000000000, 0.000000000000000000 ) ) ;
#1190 = ORIENTED_EDGE ( 'NONE', *, *, #1072, .T. ) ;
#1191 = DIRECTION ( 'NONE',  ( 1.000000000000000000, 0.000000000000000000, -0.000000000000000000 ) ) ;
#1192 = ORIENTED_EDGE ( 'NONE', *, *, #1326, .F. ) ;
#1193 =( LENGTH_UNIT ( ) NAMED_UNIT ( * ) SI_UNIT ( .MILLI., .METRE. ) );
#1194 = ADVANCED_FACE ( 'NONE', ( #267 ), #48, .T. ) ;
#1195 = VERTEX_POINT ( 'NONE', #1218 ) ;
#1196 = VECTOR ( 'NONE', #507, 1000.000000000000000 ) ;
#1197 = LINE ( 'NONE', #43, #315 ) ;
#1198 = AXIS2_PLACEMENT_3D ( 'NONE', #1347, #493, #500 ) ;
#1199 = ORIENTED_EDGE ( 'NONE', *, *, #223, .T. ) ;
#1200 = CARTESIAN_POINT ( 'NONE',  ( -19.48557158514844545, -11.25000000000082245, 5.000000000000000000 ) ) ;
#1201 = VERTEX_POINT ( 'NONE', #1088 ) ;
#1202 = CARTESIAN_POINT ( 'NONE',  ( 30.49999999999999289, 0.000000000000000000, 25.00000000000001421 ) ) ;
#1203 = EDGE_LOOP ( 'NONE', ( #1217, #1185, #1067, #945, #569, #50, #697, #171, #231, #463 ) ) ;
#1204 = EDGE_CURVE ( 'NONE', #561, #773, #696, .T. ) ;
#1205 = CARTESIAN_POINT ( 'NONE',  ( -26.49999999999998934, -24.99999999999999289, 25.00000000000000000 ) ) ;
#1206 = EDGE_CURVE ( 'NONE', #771, #635, #983, .T. ) ;
#1207 = ORIENTED_EDGE ( 'NONE', *, *, #633, .F. ) ;
#1208 = LINE ( 'NONE', #681, #326 ) ;
#1209 = VERTEX_POINT ( 'NONE', #1336 ) ;
#1210 = LINE ( 'NONE', #589, #387 ) ;
#1211 = ORIENTED_EDGE ( 'NONE', *, *, #990, .F. ) ;
#1212 = AXIS2_PLACEMENT_3D ( 'NONE', #1258, #98, #427 ) ;
#1213 = AXIS2_PLACEMENT_3D ( 'NONE', #1113, #349, #246 ) ;
#1214 = ORIENTED_EDGE ( 'NONE', *, *, #1118, .F. ) ;
#1215 = ADVANCED_FACE ( 'NONE', ( #33, #1117, #457, #1005 ), #54, .T. ) ;
#1216 = CARTESIAN_POINT ( 'NONE',  ( -22.49999999999997158, 0.000000000000000000, 5.000000000000000000 ) ) ;
#1217 = ORIENTED_EDGE ( 'NONE', *, *, #861, .F. ) ;
#1218 = CARTESIAN_POINT ( 'NONE',  ( 17.23557158515007259, -11.24999999999917044, 0.000000000000000000 ) ) ;
#1219 = VERTEX_POINT ( 'NONE', #570 ) ;
#1220 = AXIS2_PLACEMENT_3D ( 'NONE', #1249, #515, #1046 ) ;
#1221 = DIRECTION ( 'NONE',  ( 0.000000000000000000, 0.000000000000000000, 1.000000000000000000 ) ) ;
#1222 = VECTOR ( 'NONE', #325, 1000.000000000000000 ) ;
#1223 = EDGE_CURVE ( 'NONE', #224, #478, #722, .T. ) ;
#1224 = EDGE_LOOP ( 'NONE', ( #978, #84, #1100, #211 ) ) ;
#1225 = CARTESIAN_POINT ( 'NONE',  ( 28.14999999999999858, 5.000000000000000000, 25.00000000000001421 ) ) ;
#1226 = VERTEX_POINT ( 'NONE', #676 ) ;
#1227 = LINE ( 'NONE', #1135, #174 ) ;
#1228 = LINE ( 'NONE', #931, #1131 ) ;
#1229 = FACE_OUTER_BOUND ( 'NONE', #1329, .T. ) ;
#1230 = EDGE_LOOP ( 'NONE', ( #1160, #780, #1085, #1087 ) ) ;
#1231 = CARTESIAN_POINT ( 'NONE',  ( 19.10000000000001208, 0.000000000000000000, 28.00000000000000000 ) ) ;
#1232 = AXIS2_PLACEMENT_3D ( 'NONE', #745, #526, #413 ) ;
#1233 = CIRCLE ( 'NONE', #452, 2.249999999999999556 ) ;
#1234 = DIRECTION ( 'NONE',  ( 1.000000000000000000, 0.000000000000000000, 0.000000000000000000 ) ) ;
#1235 = CARTESIAN_POINT ( 'NONE',  ( 22.49999999999999645, 10.00000000000000000, 5.000000000000026645 ) ) ;
#1236 = CARTESIAN_POINT ( 'NONE',  ( -28.14999999999998792, -24.99999999999999289, 28.00000000000000000 ) ) ;
#1237 = VERTEX_POINT ( 'NONE', #1095 ) ;
#1238 = DIRECTION ( 'NONE',  ( -0.000000000000000000, -0.000000000000000000, -1.000000000000000000 ) ) ;
#1239 = ADVANCED_FACE ( 'NONE', ( #147 ), #992, .F. ) ;
#1240 = DIRECTION ( 'NONE',  ( -0.000000000000000000, -1.000000000000000000, -0.000000000000000000 ) ) ;
#1241 = VECTOR ( 'NONE', #634, 1000.000000000000000 ) ;
#1242 = CARTESIAN_POINT ( 'NONE',  ( 0.000000000000000000, 22.50000000000000000, 0.000000000000000000 ) ) ;
#1243 = CARTESIAN_POINT ( 'NONE',  ( 30.49999999999999289, -19.99999999999999645, 25.00000000000001421 ) ) ;
#1244 = CIRCLE ( 'NONE', #529, 2.249999999999999556 ) ;
#1245 = EDGE_LOOP ( 'NONE', ( #695, #1337 ) ) ;
#1246 = DIRECTION ( 'NONE',  ( 0.000000000000000000, 1.000000000000000000, -0.000000000000000000 ) ) ;
#1247 = LINE ( 'NONE', #1170, #1241 ) ;
#1248 = LINE ( 'NONE', #600, #998 ) ;
#1249 = CARTESIAN_POINT ( 'NONE',  ( -19.48557158514844545, -11.25000000000082245, 0.000000000000000000 ) ) ;
#1250 = ORIENTED_EDGE ( 'NONE', *, *, #1032, .T. ) ;
#1251 = FACE_OUTER_BOUND ( 'NONE', #647, .T. ) ;
#1252 = DIRECTION ( 'NONE',  ( 0.000000000000000000, -1.000000000000000000, 0.000000000000000000 ) ) ;
#1253 = AXIS2_PLACEMENT_3D ( 'NONE', #572, #678, #1303 ) ;
#1254 = ADVANCED_FACE ( 'NONE', ( #1229 ), #82, .F. ) ;
#1255 = DIRECTION ( 'NONE',  ( 0.000000000000000000, 0.000000000000000000, 1.000000000000000000 ) ) ;
#1256 = CARTESIAN_POINT ( 'NONE',  ( -22.49999999999999645, -19.99999999999999645, 4.999999999999999112 ) ) ;
#1257 = VERTEX_POINT ( 'NONE', #190 ) ;
#1258 = CARTESIAN_POINT ( 'NONE',  ( 19.48557158515130183, -11.24999999999917044, 5.000000000000000000 ) ) ;
#1259 = CARTESIAN_POINT ( 'NONE',  ( 0.000000000000000000, -19.99999999999999645, 0.000000000000000000 ) ) ;
#1260 = ADVANCED_FACE ( 'NONE', ( #90 ), #830, .T. ) ;
#1261 = DIRECTION ( 'NONE',  ( -1.000000000000000000, 0.000000000000000000, 0.000000000000000000 ) ) ;
#1262 =( NAMED_UNIT ( * ) PLANE_ANGLE_UNIT ( ) SI_UNIT ( $, .RADIAN. ) );
#1263 = CIRCLE ( 'NONE', #42, 1.649999999999998579 ) ;
#1264 = EDGE_CURVE ( 'NONE', #27, #385, #271, .T. ) ;
#1265 = ORIENTED_EDGE ( 'NONE', *, *, #607, .F. ) ;
#1266 = CARTESIAN_POINT ( 'NONE',  ( -30.49999999999999289, -29.99999999999999645, 25.00000000000000000 ) ) ;
#1267 = AXIS2_PLACEMENT_3D ( 'NONE', #222, #201, #644 ) ;
#1268 = CARTESIAN_POINT ( 'NONE',  ( 26.50000000000000000, 5.000000000000000000, -0.001000000000001000089 ) ) ;
#1269 = DIRECTION ( 'NONE',  ( 0.000000000000000000, 1.000000000000000000, 0.000000000000000000 ) ) ;
#1270 = ORIENTED_EDGE ( 'NONE', *, *, #313, .T. ) ;
#1271 = LINE ( 'NONE', #6, #1165 ) ;
#1272 = EDGE_CURVE ( 'NONE', #947, #1055, #509, .T. ) ;
#1273 = ORIENTED_EDGE ( 'NONE', *, *, #153, .F. ) ;
#1274 = DIRECTION ( 'NONE',  ( 1.000000000000000000, 0.000000000000000000, 0.000000000000000000 ) ) ;
#1275 = CARTESIAN_POINT ( 'NONE',  ( -29.99999999999998934, -29.99999999999999645, 5.000000000000000000 ) ) ;
#1276 = AXIS2_PLACEMENT_3D ( 'NONE', #1091, #331, #1295 ) ;
#1277 = AXIS2_PLACEMENT_3D ( 'NONE', #539, #448, #874 ) ;
#1278 = EDGE_LOOP ( 'NONE', ( #1349, #775 ) ) ;
#1279 = CYLINDRICAL_SURFACE ( 'NONE', #1277, 19.10000000000000142 ) ;
#1280 = ORIENTED_EDGE ( 'NONE', *, *, #93, .F. ) ;
#1281 = EDGE_CURVE ( 'NONE', #1201, #385, #601, .T. ) ;
#1282 = CARTESIAN_POINT ( 'NONE',  ( 0.000000000000000000, 22.50000000000000000, 5.000000000000000000 ) ) ;
#1283 = CARTESIAN_POINT ( 'NONE',  ( 19.10000000000001208, -29.99999999999999289, 28.00000000000000000 ) ) ;
#1284 = AXIS2_PLACEMENT_3D ( 'NONE', #615, #1040, #170 ) ;
#1285 = VERTEX_POINT ( 'NONE', #285 ) ;
#1286 = DIRECTION ( 'NONE',  ( 0.000000000000000000, 0.000000000000000000, -1.000000000000000000 ) ) ;
#1287 = AXIS2_PLACEMENT_3D ( 'NONE', #937, #521, #1156 ) ;
#1288 = EDGE_LOOP ( 'NONE', ( #667, #739, #55, #1132 ) ) ;
#1289 = DIRECTION ( 'NONE',  ( 0.000000000000000000, -1.000000000000000000, 0.000000000000000000 ) ) ;
#1290 = APPLICATION_CONTEXT ( 'automotive_design' ) ;
#1291 = DIRECTION ( 'NONE',  ( 1.000000000000000000, -0.000000000000000000, 5.204170427930424241E-16 ) ) ;
#1292 = ORIENTED_EDGE ( 'NONE', *, *, #1024, .F. ) ;
#1293 = FACE_BOUND ( 'NONE', #292, .T. ) ;
#1294 = ORIENTED_EDGE ( 'NONE', *, *, #57, .T. ) ;
#1295 = DIRECTION ( 'NONE',  ( 1.000000000000000000, 0.000000000000000000, 0.000000000000000000 ) ) ;
#1296 = VERTEX_POINT ( 'NONE', #488 ) ;
#1297 = CARTESIAN_POINT ( 'NONE',  ( -30.49999999999999289, -29.99999999999999645, 28.00000000000000000 ) ) ;
#1298 = EDGE_CURVE ( 'NONE', #469, #102, #96, .T. ) ;
#1299 = ORIENTED_EDGE ( 'NONE', *, *, #1375, .F. ) ;
#1300 = CARTESIAN_POINT ( 'NONE',  ( 2.249999999999999556, 22.50000000000000000, 0.000000000000000000 ) ) ;
#1301 = VECTOR ( 'NONE', #225, 1000.000000000000000 ) ;
#1302 = EDGE_LOOP ( 'NONE', ( #1062, #1006 ) ) ;
#1303 = DIRECTION ( 'NONE',  ( 0.000000000000000000, -0.000000000000000000, -1.000000000000000000 ) ) ;
#1304 = ORIENTED_EDGE ( 'NONE', *, *, #803, .T. ) ;
#1305 = DIRECTION ( 'NONE',  ( -1.000000000000000000, -0.000000000000000000, -0.000000000000000000 ) ) ;
#1306 = EDGE_CURVE ( 'NONE', #311, #914, #1124, .T. ) ;
#1307 = CARTESIAN_POINT ( 'NONE',  ( -29.99999999999998934, -29.99999999999999645, 5.000000000000000000 ) ) ;
#1308 = DIRECTION ( 'NONE',  ( 1.000000000000000000, 0.000000000000000000, 0.000000000000000000 ) ) ;
#1309 = VERTEX_POINT ( 'NONE', #593 ) ;
#1310 = CIRCLE ( 'NONE', #777, 19.10000000000000142 ) ;
#1311 = CARTESIAN_POINT ( 'NONE',  ( 24.85000000000000142, -24.99999999999999289, 25.00000000000001421 ) ) ;
#1312 = AXIS2_PLACEMENT_3D ( 'NONE', #284, #711, #381 ) ;
#1313 = VERTEX_POINT ( 'NONE', #1236 ) ;
#1314 = CARTESIAN_POINT ( 'NONE',  ( -22.49999999999997868, 10.00000000000000000, 25.00000000000000711 ) ) ;
#1315 = ORIENTED_EDGE ( 'NONE', *, *, #642, .F. ) ;
#1316 = ORIENTED_EDGE ( 'NONE', *, *, #223, .F. ) ;
#1317 = EDGE_CURVE ( 'NONE', #27, #1152, #1019, .T. ) ;
#1318 = FACE_OUTER_BOUND ( 'NONE', #1203, .T. ) ;
#1319 = ORIENTED_EDGE ( 'NONE', *, *, #1375, .T. ) ;
#1320 = DIRECTION ( 'NONE',  ( 0.000000000000000000, 0.000000000000000000, 1.000000000000000000 ) ) ;
#1321 = ORIENTED_EDGE ( 'NONE', *, *, #911, .T. ) ;
#1322 = CARTESIAN_POINT ( 'NONE',  ( -26.49999999999998224, 5.000000000000000000, 25.00000000000000711 ) ) ;
#1323 = ORIENTED_EDGE ( 'NONE', *, *, #716, .F. ) ;
#1324 = VECTOR ( 'NONE', #520, 1000.000000000000000 ) ;
#1325 = VECTOR ( 'NONE', #366, 1000.000000000000000 ) ;
#1326 = EDGE_CURVE ( 'NONE', #893, #991, #712, .T. ) ;
#1327 = ORIENTED_EDGE ( 'NONE', *, *, #173, .T. ) ;
#1328 = CARTESIAN_POINT ( 'NONE',  ( 30.00000000000000355, 29.99999999999999645, 0.000000000000000000 ) ) ;
#1329 = EDGE_LOOP ( 'NONE', ( #502, #958, #104, #737 ) ) ;
#1330 = ORIENTED_EDGE ( 'NONE', *, *, #241, .F. ) ;
#1331 = VECTOR ( 'NONE', #177, 1000.000000000000000 ) ;
#1332 = CARTESIAN_POINT ( 'NONE',  ( 24.85000000000000142, 5.000000000000000000, -0.001000000000001000089 ) ) ;
#1333 = VECTOR ( 'NONE', #269, 1000.000000000000000 ) ;
#1334 = ADVANCED_FACE ( 'NONE', ( #1361 ), #726, .F. ) ;
#1335 = CARTESIAN_POINT ( 'NONE',  ( 0.000000000000000000, 0.000000000000000000, 28.00000000000000000 ) ) ;
#1336 = CARTESIAN_POINT ( 'NONE',  ( 28.14999999999999858, -24.99999999999999289, 25.00000000000001421 ) ) ;
#1337 = ORIENTED_EDGE ( 'NONE', *, *, #384, .F. ) ;
#1338 = LINE ( 'NONE', #814, #281 ) ;
#1339 = EDGE_CURVE ( 'NONE', #995, #1313, #594, .T. ) ;
#1340 = LINE ( 'NONE', #1235, #1379 ) ;
#1341 = DIRECTION ( 'NONE',  ( 1.000000000000000000, 0.000000000000000000, 0.000000000000000000 ) ) ;
#1342 = ORIENTED_EDGE ( 'NONE', *, *, #537, .F. ) ;
#1343 = DIRECTION ( 'NONE',  ( 0.000000000000000000, -1.000000000000000000, 0.000000000000000000 ) ) ;
#1344 = AXIS2_PLACEMENT_3D ( 'NONE', #1357, #1371, #1022 ) ;
#1345 = PRESENTATION_LAYER_ASSIGNMENT (  '', '', ( #855 ) ) ;
#1346 = CARTESIAN_POINT ( 'NONE',  ( 26.50000000000000000, -24.99999999999999289, 25.00000000000001421 ) ) ;
#1347 = CARTESIAN_POINT ( 'NONE',  ( 26.50000000000000000, -24.99999999999999289, 28.00000000000000000 ) ) ;
#1348 = EDGE_CURVE ( 'NONE', #1209, #1219, #291, .T. ) ;
#1349 = ORIENTED_EDGE ( 'NONE', *, *, #1159, .F. ) ;
#1350 = LINE ( 'NONE', #392, #341 ) ;
#1351 = LINE ( 'NONE', #282, #1061 ) ;
#1352 = AXIS2_PLACEMENT_3D ( 'NONE', #1065, #16, #194 ) ;
#1353 = DIRECTION ( 'NONE',  ( 1.000000000000000000, 0.000000000000000000, -1.734723475976808327E-16 ) ) ;
#1354 = DIRECTION ( 'NONE',  ( 1.000000000000000000, 0.000000000000000000, 0.000000000000000000 ) ) ;
#1355 = AXIS2_PLACEMENT_3D ( 'NONE', #403, #725, #1018 ) ;
#1356 = ORIENTED_EDGE ( 'NONE', *, *, #770, .T. ) ;
#1357 = CARTESIAN_POINT ( 'NONE',  ( 22.50000000000000000, -19.99999999999999645, 25.00000000000001421 ) ) ;
#1358 = ADVANCED_FACE ( 'NONE', ( #938 ), #404, .T. ) ;
#1359 = DIRECTION ( 'NONE',  ( -0.000000000000000000, -1.000000000000000000, 0.000000000000000000 ) ) ;
#1360 = LINE ( 'NONE', #389, #352 ) ;
#1361 = FACE_OUTER_BOUND ( 'NONE', #602, .T. ) ;
#1362 = ORIENTED_EDGE ( 'NONE', *, *, #1223, .F. ) ;
#1363 = LINE ( 'NONE', #618, #407 ) ;
#1364 = EDGE_CURVE ( 'NONE', #1001, #359, #277, .T. ) ;
#1365 = DIRECTION ( 'NONE',  ( 0.000000000000000000, -0.000000000000000000, -1.000000000000000000 ) ) ;
#1366 = AXIS2_PLACEMENT_3D ( 'NONE', #936, #105, #215 ) ;
#1367 = CARTESIAN_POINT ( 'NONE',  ( -26.49999999999998934, -24.99999999999999289, 25.00000000000000000 ) ) ;
#1368 = CARTESIAN_POINT ( 'NONE',  ( 22.49999999999999645, -19.99999999999999645, 5.000000000000026645 ) ) ;
#1369 = VERTEX_POINT ( 'NONE', #390 ) ;
#1370 = PRODUCT_DEFINITION_SHAPE ( 'NONE', 'NONE',  #788 ) ;
#1371 = DIRECTION ( 'NONE',  ( 0.000000000000000000, 0.000000000000000000, -1.000000000000000000 ) ) ;
#1372 = DIRECTION ( 'NONE',  ( -0.000000000000000000, -0.000000000000000000, 1.000000000000000000 ) ) ;
#1373 = VECTOR ( 'NONE', #68, 1000.000000000000000 ) ;
#1374 = PLANE ( 'NONE',  #927 ) ;
#1375 = EDGE_CURVE ( 'NONE', #1001, #391, #195, .T. ) ;
#1376 = CIRCLE ( 'NONE', #1017, 2.250000000001802558 ) ;
#1377 = EDGE_LOOP ( 'NONE', ( #984, #1280, #110, #1327 ) ) ;
#1378 = SURFACE_STYLE_FILL_AREA ( #946 ) ;
#1379 = VECTOR ( 'NONE', #276, 1000.000000000000000 ) ;
ENDSEC;
END-ISO-10303-21;
